<svg xmlns="http://www.w3.org/2000/svg" xmlns:xlink="http://www.w3.org/1999/xlink" width="108" height="108" viewBox="0 0 108 108">
  <defs>
    <filter id="Fondo" x="0" y="0" width="108" height="108" filterUnits="userSpaceOnUse">
      <feOffset dy="3" input="SourceAlpha"/>
      <feGaussianBlur stdDeviation="3" result="blur"/>
      <feFlood flood-opacity="0.161"/>
      <feComposite operator="in" in2="blur"/>
      <feComposite in="SourceGraphic"/>
    </filter>
  </defs>
  <g id="Group_1143914" data-name="Group 1143914" transform="translate(-431.998 -11752.567)">
    <g transform="matrix(1, 0, 0, 1, 432, 11752.57)" filter="url(#Fondo)">
      <g id="Fondo-2" data-name="Fondo" transform="translate(9 6)" fill="#fffbe8" stroke="#bca724" stroke-width="3">
        <circle cx="45" cy="45" r="45" stroke="none"/>
        <circle cx="45" cy="45" r="43.5" fill="none"/>
      </g>
    </g>
    <g id="Group_1143913" data-name="Group 1143913" transform="translate(450.773 11768.969)">
      <g id="Group_1143911" data-name="Group 1143911" transform="translate(16.039 16.623)">
        <g id="Group_1143910" data-name="Group 1143910" transform="translate(0)">
          <g id="Group_1143895" data-name="Group 1143895" transform="translate(19.783 0)">
            <g id="Group_1143894" data-name="Group 1143894" transform="translate(0 4.077)">
              <g id="Group_1143893" data-name="Group 1143893">
                <path id="Path_979130" data-name="Path 979130" d="M269.226,215.486h-13.2v-13.62a5.044,5.044,0,0,1,5.044-5.044h3.111a5.044,5.044,0,0,1,5.044,5.044v13.62Z" transform="translate(-256.027 -190.921)" fill="#ffea00"/>
                <path id="Path_979131" data-name="Path 979131" d="M282.84,153.158v3.509a4.077,4.077,0,0,1-4.077,4.077h0a4.077,4.077,0,0,1-4.077-4.077v-3.509Z" transform="translate(-272.163 -153.158)" fill="#ffcab9"/>
              </g>
            </g>
            <path id="Path_979132" data-name="Path 979132" d="M274.685,128.822V127.09a4.078,4.078,0,1,1,8.155,0Z" transform="translate(-272.163 -122.99)" fill="#cc8b66"/>
          </g>
          <g id="Group_1143898" data-name="Group 1143898" transform="translate(6.584 0)">
            <g id="Group_1143897" data-name="Group 1143897" transform="translate(0 4.077)">
              <g id="Group_1143896" data-name="Group 1143896">
                <path id="Path_979133" data-name="Path 979133" d="M171.57,215.486h-13.2v-13.62a5.044,5.044,0,0,1,5.044-5.044h3.111a5.044,5.044,0,0,1,5.044,5.044v13.62Z" transform="translate(-158.371 -190.921)" fill="#8affb3"/>
                <path id="Path_979134" data-name="Path 979134" d="M185.185,153.158v3.509a4.077,4.077,0,0,1-4.077,4.077h0a4.077,4.077,0,0,1-4.077-4.077v-3.509Z" transform="translate(-174.508 -153.158)" fill="#ffcab9"/>
              </g>
            </g>
            <path id="Path_979135" data-name="Path 979135" d="M177.03,128.822V127.09a4.078,4.078,0,1,1,8.155,0Z" transform="translate(-174.508 -122.99)" fill="#cc8b66"/>
          </g>
          <g id="Group_1143900" data-name="Group 1143900" transform="translate(0 22.75)">
            <path id="Path_979136" data-name="Path 979136" d="M122.837,306.928V296.373a5.044,5.044,0,0,0-5.03-5.058h-3.139a5.041,5.041,0,0,0-5.015,4.69A22.659,22.659,0,0,0,122.837,306.928Z" transform="translate(-109.653 -291.315)" fill="#ffea00"/>
            <path id="Path_979137" data-name="Path 979137" d="M142.639,291.316H139.5a5.01,5.01,0,0,0-1.134.13,5.052,5.052,0,0,1,3.9,4.927v8.037a22.069,22.069,0,0,0,5.406,2.518V296.374A5.044,5.044,0,0,0,142.639,291.316Z" transform="translate(-134.485 -291.316)" fill="#ffd900"/>
            <path id="Path_979138" data-name="Path 979138" d="M215.369,291.316H212.23a5.044,5.044,0,0,0-5.03,5.058v10.555a22.551,22.551,0,0,0,13.2,0V296.374A5.044,5.044,0,0,0,215.369,291.316Z" transform="translate(-194.016 -291.316)" fill="#87dbff"/>
            <path id="Path_979139" data-name="Path 979139" d="M240.3,291.316h-3.139a5.014,5.014,0,0,0-1.134.131,5.053,5.053,0,0,1,3.9,4.927v11.51a22.367,22.367,0,0,0,5.406-.955V296.374A5.044,5.044,0,0,0,240.3,291.316Z" transform="translate(-218.948 -291.316)" fill="#6bd3ff"/>
            <path id="Path_979140" data-name="Path 979140" d="M313.024,291.316h-3.139a5.044,5.044,0,0,0-5.03,5.058v10.555a22.659,22.659,0,0,0,13.184-10.923A5.04,5.04,0,0,0,313.024,291.316Z" transform="translate(-278.473 -291.316)" fill="#ff59ac"/>
            <g id="Group_1143899" data-name="Group 1143899" transform="translate(30.279 0)">
              <path id="Path_979141" data-name="Path 979141" d="M337.961,291.316h-3.139a5.013,5.013,0,0,0-1.133.13,5.051,5.051,0,0,1,3.881,4.56l.043,6.62a22.673,22.673,0,0,0,5.363-6.62A5.04,5.04,0,0,0,337.961,291.316Z" transform="translate(-333.689 -291.316)" fill="#fa46a0"/>
            </g>
          </g>
          <g id="Group_1143903" data-name="Group 1143903" transform="translate(2.507)">
            <g id="Group_1143902" data-name="Group 1143902" transform="translate(0 16.848)">
              <g id="Group_1143901" data-name="Group 1143901">
                <path id="Path_979142" data-name="Path 979142" d="M136.357,247.652v3.509a4.077,4.077,0,0,1-4.077,4.077h0a4.077,4.077,0,0,1-4.077-4.077v-3.509Z" transform="translate(-128.202 -247.652)" fill="#ffcab9"/>
              </g>
            </g>
            <path id="Path_979143" data-name="Path 979143" d="M145.422,247.652v3.509a4.075,4.075,0,0,1-2.05,3.537,4.057,4.057,0,0,0,2.027.54h0a4.077,4.077,0,0,0,4.077-4.077v-3.509h-4.055Z" transform="translate(-141.322 -230.803)" fill="#fabba7"/>
            <path id="Path_979144" data-name="Path 979144" d="M128.2,223.315v-1.731a4.078,4.078,0,1,1,8.155,0Z" transform="translate(-128.202 -204.712)" fill="#cc8b66"/>
            <path id="Path_979145" data-name="Path 979145" d="M145.422,221.583v.861l4.055-.861a4.089,4.089,0,0,0-4.078-4.1,4.039,4.039,0,0,0-2.027.543A4.1,4.1,0,0,1,145.422,221.583Z" transform="translate(-141.322 -204.712)" fill="#bf7950"/>
            <path id="Path_979146" data-name="Path 979146" d="M194.25,153.158v3.509a4.075,4.075,0,0,1-2.05,3.537,4.057,4.057,0,0,0,2.027.54h0a4.077,4.077,0,0,0,4.077-4.077v-3.509H194.25Z" transform="translate(-183.55 -149.081)" fill="#fabba7"/>
            <path id="Path_979147" data-name="Path 979147" d="M194.25,127.09v.861l4.055-.861a4.089,4.089,0,0,0-4.078-4.1,4.039,4.039,0,0,0-2.027.543A4.1,4.1,0,0,1,194.25,127.09Z" transform="translate(-183.55 -122.99)" fill="#bf7950"/>
            <path id="Path_979148" data-name="Path 979148" d="M291.905,153.158v3.509a4.075,4.075,0,0,1-2.05,3.537,4.057,4.057,0,0,0,2.027.54h0a4.077,4.077,0,0,0,4.077-4.077v-3.509h-4.055Z" transform="translate(-268.007 -149.081)" fill="#fabba7"/>
            <path id="Path_979149" data-name="Path 979149" d="M291.905,127.09v.861l4.055-.861a4.089,4.089,0,0,0-4.078-4.1,4.039,4.039,0,0,0-2.027.543A4.1,4.1,0,0,1,291.905,127.09Z" transform="translate(-268.007 -122.99)" fill="#bf7950"/>
          </g>
          <g id="Group_1143906" data-name="Group 1143906" transform="translate(15.705 12.771)">
            <g id="Group_1143905" data-name="Group 1143905" transform="translate(0 4.077)">
              <g id="Group_1143904" data-name="Group 1143904">
                <path id="Path_979150" data-name="Path 979150" d="M234.013,247.652v3.509a4.077,4.077,0,0,1-4.077,4.077h0a4.077,4.077,0,0,1-4.077-4.077v-3.509Z" transform="translate(-225.858 -247.652)" fill="#ffcab9"/>
              </g>
            </g>
            <path id="Path_979151" data-name="Path 979151" d="M243.078,247.652v3.509a4.075,4.075,0,0,1-2.05,3.537,4.057,4.057,0,0,0,2.027.54h0a4.077,4.077,0,0,0,4.077-4.077v-3.509h-4.055Z" transform="translate(-238.978 -243.575)" fill="#fabba7"/>
            <path id="Path_979152" data-name="Path 979152" d="M225.857,223.315v-1.731a4.078,4.078,0,1,1,8.155,0Z" transform="translate(-225.857 -217.483)" fill="#cc8b66"/>
            <path id="Path_979153" data-name="Path 979153" d="M243.078,221.583v.861l4.055-.861a4.089,4.089,0,0,0-4.078-4.1,4.039,4.039,0,0,0-2.027.543A4.1,4.1,0,0,1,243.078,221.583Z" transform="translate(-238.978 -217.483)" fill="#bf7950"/>
          </g>
          <g id="Group_1143909" data-name="Group 1143909" transform="translate(28.904 12.771)">
            <g id="Group_1143908" data-name="Group 1143908" transform="translate(0 4.077)">
              <g id="Group_1143907" data-name="Group 1143907">
                <path id="Path_979154" data-name="Path 979154" d="M331.668,247.652v3.509a4.077,4.077,0,0,1-4.077,4.077h0a4.077,4.077,0,0,1-4.077-4.077v-3.509Z" transform="translate(-323.513 -247.652)" fill="#ffcab9"/>
              </g>
            </g>
            <path id="Path_979155" data-name="Path 979155" d="M340.733,247.652v3.509a4.075,4.075,0,0,1-2.05,3.537,4.057,4.057,0,0,0,2.027.54h0a4.077,4.077,0,0,0,4.077-4.077v-3.509h-4.055Z" transform="translate(-336.633 -243.575)" fill="#fabba7"/>
            <path id="Path_979156" data-name="Path 979156" d="M323.513,223.315v-1.731a4.078,4.078,0,1,1,8.155,0Z" transform="translate(-323.513 -217.483)" fill="#cc8b66"/>
            <path id="Path_979157" data-name="Path 979157" d="M340.733,221.583l-.005.862,4.06-.862a4.089,4.089,0,0,0-4.078-4.1,4.039,4.039,0,0,0-2.027.543A4.1,4.1,0,0,1,340.733,221.583Z" transform="translate(-336.633 -217.483)" fill="#bf7950"/>
          </g>
        </g>
      </g>
      <g id="Group_1143912" data-name="Group 1143912" transform="translate(1.409 0)">
        <path id="Path_979158" data-name="Path 979158" d="M102.155,144.036a1.014,1.014,0,0,0,.117.549c8.713,16.366,32.286,16.512,41.21.267a2.32,2.32,0,0,0,.117-1.771l-.008-.031a6.079,6.079,0,0,0-2.85-3.831,5.061,5.061,0,0,0,.5-2.193c0-.024,0-3.511,0-3.532a5.109,5.109,0,0,0-5.031-5.067,6.061,6.061,0,0,0-2.065-1.977,5.061,5.061,0,0,0,.5-2.195c0-.024,0-3.511,0-3.532a5.091,5.091,0,0,0-10.182.047v3.486a5.06,5.06,0,0,0,.5,2.195,6.07,6.07,0,0,0-2.006,1.886,6.061,6.061,0,0,0-2.006-1.886,5.06,5.06,0,0,0,.5-2.195c0-.024,0-3.511,0-3.532a5.091,5.091,0,0,0-10.182.047v3.486a5.061,5.061,0,0,0,.5,2.2,6.123,6.123,0,0,0-2.065,1.976,5.109,5.109,0,0,0-5.032,5.067c0,.022,0,3.509,0,3.532a5.061,5.061,0,0,0,.5,2.191,6.04,6.04,0,0,0-3,4.819Zm12.19-4.819a5.062,5.062,0,0,0,.5-2.192v-3.509c0-.008,0-.016,0-.024a5.122,5.122,0,0,0-2.952-4.594,4.073,4.073,0,0,1,1.108-.816,5.111,5.111,0,0,0,6.705,0,4.029,4.029,0,0,1,1.109.816,5.122,5.122,0,0,0-2.954,4.641v3.486a5.062,5.062,0,0,0,.5,2.191,6.027,6.027,0,0,0-2,1.882A6.016,6.016,0,0,0,114.346,139.217Zm-7.659-2.192v-.933l6.128-1.3v2.234A3.064,3.064,0,0,1,106.687,137.026Zm12.727-12.771a3.064,3.064,0,0,1-6.128,0v-.933l6.128-1.3Zm13.2,0a3.064,3.064,0,0,1-6.128,0v-.933l6.128-1.3Zm-3.064,5.091a5.07,5.07,0,0,0,3.353-1.263,4.031,4.031,0,0,1,1.109.816,5.122,5.122,0,0,0-2.954,4.641v3.486a5.061,5.061,0,0,0,.5,2.19,6.263,6.263,0,0,0-2.024,1.85,6.017,6.017,0,0,0-1.984-1.848,5.062,5.062,0,0,0,.5-2.192v-3.509c0-.008,0-.016,0-.024a5.122,5.122,0,0,0-2.954-4.595,4.038,4.038,0,0,1,1.109-.816A5.07,5.07,0,0,0,129.549,129.346Zm9.663,7.68a3.064,3.064,0,0,1-6.128,0v-.933l6.128-1.3Zm-18.589,1.991-.02-.024a3.05,3.05,0,0,1-.717-1.968v-.933l6.128-1.3v2.234A3.069,3.069,0,0,1,120.623,139.017Zm2.327-8.564a3.073,3.073,0,0,1,2.96,2.288l-6.024,1.279v-.48A3.079,3.079,0,0,1,122.95,130.453ZM141.7,143.895a21.81,21.81,0,0,1-11.133,9.713v-1.454a1.014,1.014,0,0,0-2.027,0v2.115a21.658,21.658,0,0,1-11.171,0v-9.793a4.034,4.034,0,0,1,2.23-3.625,5.111,5.111,0,0,0,6.711,0,4.019,4.019,0,0,1,2.224,3.388q0,.954.007,1.909a1.014,1.014,0,0,0,2.027.042,13.291,13.291,0,0,1,.126-2.91,4.044,4.044,0,0,1,2.1-2.43,5.111,5.111,0,0,0,6.71,0A5.074,5.074,0,0,1,141.7,143.895Zm-2.588-11.153-6.024,1.279v-.48A3.064,3.064,0,0,1,139.108,132.741Zm-12.623-11.972a3.064,3.064,0,0,1,6.024-.8l-6.024,1.279Zm-13.2,0a3.064,3.064,0,0,1,6.024-.8l-6.024,1.279Zm-3.535,9.684a3.073,3.073,0,0,1,2.96,2.288l-6.024,1.279v-.48A3.079,3.079,0,0,1,109.751,130.453Zm-3.355,10.4a5.111,5.111,0,0,0,6.711,0,4.023,4.023,0,0,1,2.231,3.624v9.133a21.661,21.661,0,0,1-11.129-9.709A4.014,4.014,0,0,1,106.4,140.852Z" transform="translate(-88.537 -100.046)"/>
        <path id="Path_979159" data-name="Path 979159" d="M69.22,33.586H65.127a29.346,29.346,0,0,0-8.569-19.83,29.04,29.04,0,0,0-19.722-8.62V1.014a1.014,1.014,0,0,0-2.027,0V5.136a28.922,28.922,0,0,0-16.091,5.513,1.014,1.014,0,0,0,1.19,1.641,26.906,26.906,0,0,1,14.9-5.126v1a1.014,1.014,0,0,0,2.027,0v-1A27.028,27.028,0,0,1,55.12,15.185a27.331,27.331,0,0,1,7.978,18.4h-.984a1.014,1.014,0,0,0,0,2.027H63.1C62.875,49.543,50.772,61.8,36.835,62.034v-1a1.014,1.014,0,1,0-2.027,0v1a27.027,27.027,0,0,1-18.285-8.021,27.333,27.333,0,0,1-7.978-18.4h.984a1.014,1.014,0,0,0,0-2.027H8.545A27.382,27.382,0,0,1,16.023,15.7a1.014,1.014,0,0,0-1.474-1.392A29.4,29.4,0,0,0,6.517,33.586H2.423a1.014,1.014,0,0,0,0,2.027H6.517a29.347,29.347,0,0,0,8.569,19.83,29.039,29.039,0,0,0,19.722,8.62v4.122a1.014,1.014,0,0,0,2.027,0V64.062c15.027-.217,28.089-13.43,28.291-28.45H69.22a1.014,1.014,0,0,0,0-2.027Z" transform="translate(-1.409 0)"/>
      </g>
    </g>
  </g>
</svg>
