<svg xmlns="http://www.w3.org/2000/svg" xmlns:xlink="http://www.w3.org/1999/xlink" width="108" height="108" viewBox="0 0 108 108">
  <defs>
    <filter id="Fondo" x="0" y="0" width="108" height="108" filterUnits="userSpaceOnUse">
      <feOffset dy="3" input="SourceAlpha"/>
      <feGaussianBlur stdDeviation="3" result="blur"/>
      <feFlood flood-opacity="0.161"/>
      <feComposite operator="in" in2="blur"/>
      <feComposite in="SourceGraphic"/>
    </filter>
  </defs>
  <g id="Group_1144416" data-name="Group 1144416" transform="translate(-431.999 -1546.134)">
    <g id="Group_1144262" data-name="Group 1144262" transform="translate(0 81)">
      <g transform="matrix(1, 0, 0, 1, 432, 1465.13)" filter="url(#Fondo)">
        <g id="Fondo-2" data-name="Fondo" transform="translate(9 6)" fill="#fff4e4">
          <path d="M 45 88.5 C 39.12687683105469 88.5 33.43022537231445 87.35007476806641 28.06830024719238 85.08217620849609 C 22.88852500915527 82.89131164550781 18.23629951477051 79.75458526611328 14.2408504486084 75.75914764404297 C 10.24541282653809 71.76370239257812 7.108687400817871 67.11147308349609 4.917825222015381 61.93170166015625 C 2.649924993515015 56.56977462768555 1.5 50.87312316894531 1.5 45 C 1.5 39.12687683105469 2.649924993515015 33.43022537231445 4.917825222015381 28.06830024719238 C 7.108687400817871 22.88852500915527 10.24541282653809 18.23629951477051 14.2408504486084 14.2408504486084 C 18.23629951477051 10.24541282653809 22.88852500915527 7.108687400817871 28.06830024719238 4.917825222015381 C 33.43022537231445 2.649924993515015 39.12687683105469 1.5 45 1.5 C 50.87312316894531 1.5 56.56977462768555 2.649924993515015 61.93170166015625 4.917825222015381 C 67.11147308349609 7.108687400817871 71.76370239257812 10.24541282653809 75.75914764404297 14.2408504486084 C 79.75458526611328 18.23629951477051 82.89131164550781 22.88852500915527 85.08217620849609 28.06830024719238 C 87.35007476806641 33.43022537231445 88.5 39.12687683105469 88.5 45 C 88.5 50.87312316894531 87.35007476806641 56.56977462768555 85.08217620849609 61.93170166015625 C 82.89131164550781 67.11147308349609 79.75458526611328 71.76370239257812 75.75914764404297 75.75914764404297 C 71.76370239257812 79.75458526611328 67.11147308349609 82.89131164550781 61.93170166015625 85.08217620849609 C 56.56977462768555 87.35007476806641 50.87312316894531 88.5 45 88.5 Z" stroke="none"/>
          <path d="M 45 3 C 39.32871246337891 3 33.82865524291992 4.110054016113281 28.65262985229492 6.299339294433594 C 23.65165710449219 8.414573669433594 19.15968322753906 11.44334411621094 15.301513671875 15.301513671875 C 11.44334411621094 19.15968322753906 8.414573669433594 23.65165710449219 6.299339294433594 28.65262985229492 C 4.110054016113281 33.82865524291992 3 39.32871246337891 3 45 C 3 50.67128753662109 4.110054016113281 56.17134475708008 6.299339294433594 61.34737396240234 C 8.414573669433594 66.34834289550781 11.44334411621094 70.84031677246094 15.301513671875 74.698486328125 C 19.15968322753906 78.55665588378906 23.65165710449219 81.58542633056641 28.65262985229492 83.70066070556641 C 33.82865524291992 85.88994598388672 39.32871246337891 87 45 87 C 50.67128753662109 87 56.17134475708008 85.88994598388672 61.34737396240234 83.70066070556641 C 66.34834289550781 81.58542633056641 70.84031677246094 78.55665588378906 74.698486328125 74.698486328125 C 78.55665588378906 70.84031677246094 81.58542633056641 66.34834289550781 83.70066070556641 61.34737396240234 C 85.88994598388672 56.17134475708008 87 50.67128753662109 87 45 C 87 39.32871246337891 85.88994598388672 33.82865524291992 83.70066070556641 28.65262985229492 C 81.58542633056641 23.65165710449219 78.55665588378906 19.15968322753906 74.698486328125 15.301513671875 C 70.84031677246094 11.44334411621094 66.34834289550781 8.414573669433594 61.34737396240234 6.299339294433594 C 56.17134475708008 4.110054016113281 50.67128753662109 3 45 3 M 45 0 C 69.85281372070312 0 90 20.14718627929688 90 45 C 90 69.85281372070312 69.85281372070312 90 45 90 C 20.14718627929688 90 0 69.85281372070312 0 45 C 0 20.14718627929688 20.14718627929688 0 45 0 Z" stroke="none" fill="#ff9902"/>
        </g>
      </g>
      <g id="Group_1144261" data-name="Group 1144261" transform="translate(452.336 1482.365)">
        <path id="Path_978855" data-name="Path 978855" d="M11.443,49.157,7.222,52.141,3,49.157l4.222-2.985Z" transform="translate(0.055 2.392)" fill="#ffc119"/>
        <path id="Path_978856" data-name="Path 978856" d="M44.219,41.995V26.29a4.231,4.231,0,0,0-3.2-4.1l-5.245-1.309V18.776a3.813,3.813,0,0,0,2.111-3.42V9.277a5.277,5.277,0,0,0-10.554,0v6.079a3.813,3.813,0,0,0,2.111,3.42v2.111L24.2,22.2a4.231,4.231,0,0,0-3.2,4.1v15.7Z" transform="translate(1.053 0.055)" fill="#ffc119"/>
        <path id="Path_978857" data-name="Path 978857" d="M7,44.607V36.29a4.231,4.231,0,0,1,3.2-4.1l5.245-1.309V28.776a3.813,3.813,0,0,1-2.111-3.42V19.277a5.277,5.277,0,1,1,10.554,0v6.079a3.813,3.813,0,0,1-2.111,3.42v2.111L27.021,32.2a4.231,4.231,0,0,1,3.2,4.1v8.317Z" transform="translate(0.277 0.61)" fill="#3890ce"/>
        <path id="Path_978858" data-name="Path 978858" d="M58.219,44.607V36.29a4.231,4.231,0,0,0-3.2-4.1l-5.245-1.309V28.776a3.813,3.813,0,0,0,2.111-3.42V19.277a5.277,5.277,0,1,0-10.554,0v6.079a3.813,3.813,0,0,0,2.111,3.42v2.111L38.2,32.2A4.231,4.231,0,0,0,35,36.29v8.317Z" transform="translate(1.829 0.61)" fill="#3890ce"/>
        <circle id="Ellipse_11576" data-name="Ellipse 11576" cx="13" cy="13" r="13" transform="translate(20.663 38.635)" fill="#ef5249"/>
        <ellipse id="Ellipse_11577" data-name="Ellipse 11577" cx="8" cy="8.5" rx="8" ry="8.5" transform="translate(25.663 42.635)" fill="#d7e6eb"/>
        <circle id="Ellipse_11578" data-name="Ellipse 11578" cx="4" cy="4" r="4" transform="translate(29.663 47.635)" fill="#ef5249"/>
        <path id="Path_978859" data-name="Path 978859" d="M61.61,52.332H53.166L50,49.166,53.166,46H61.61Z" transform="translate(2.66 2.383)" fill="#ffc119"/>
        <path id="Path_978860" data-name="Path 978860" d="M32.277,46.111a3.166,3.166,0,0,1,2.094.791l1.4-1.583a5.277,5.277,0,1,0,0,7.916l-1.4-1.583a3.166,3.166,0,1,1-2.094-5.541Z" transform="translate(1.385 2.272)"/>
        <path id="Path_978861" data-name="Path 978861" d="M39.349,46.728l1.957-.792a9.5,9.5,0,1,0,0,7.124l-1.957-.792a7.388,7.388,0,1,1,0-5.541Z" transform="translate(1.164 2.05)"/>
        <path id="Path_978862" data-name="Path 978862" d="M62.607,45H54.164a1.055,1.055,0,0,0-.746.309L50.56,48.166H32v2.111H50.56l2.857,2.857a1.055,1.055,0,0,0,.746.309h8.443a1.055,1.055,0,0,0,1.055-1.055V46.055A1.055,1.055,0,0,0,62.607,45Zm-1.055,6.332H54.6L52.49,49.222,54.6,47.111h6.951Z" transform="translate(1.662 2.327)"/>
        <path id="Path_978863" data-name="Path 978863" d="M10,37h2.111v6.332H10Z" transform="translate(0.443 1.884)"/>
        <path id="Path_978864" data-name="Path 978864" d="M60.881,45.217V36.9a5.277,5.277,0,0,0-4-5.119l-4.446-1.109v-.684a4.841,4.841,0,0,0,2.111-4.022V19.887a6.332,6.332,0,0,0-12.665,0v1.287l-4.222-1.055v-.686a4.844,4.844,0,0,0,2.111-4.011V9.332a6.332,6.332,0,1,0-12.665,0v6.083a4.844,4.844,0,0,0,2.111,4.016v.686L25,21.173V19.887a6.332,6.332,0,0,0-12.665,0v6.079a4.841,4.841,0,0,0,2.111,4.022v.684l-4.449,1.11A5.277,5.277,0,0,0,6,36.9v8.317H8.111V36.9a3.166,3.166,0,0,1,2.4-3.07l5.245-1.309a1.055,1.055,0,0,0,.8-1.025V29.385a1.055,1.055,0,0,0-.587-.95,2.744,2.744,0,0,1-1.524-2.47V19.887a4.222,4.222,0,0,1,8.443,0v6.079a2.744,2.744,0,0,1-1.524,2.47,1.055,1.055,0,0,0-.587.95V31.5a1.055,1.055,0,0,0,.8,1.025l5.242,1.308a3.182,3.182,0,0,1,2.4,2.975l2.111-.061a5.3,5.3,0,0,0-4-4.96l-4.448-1.11v-.684A4.841,4.841,0,0,0,25,25.966V23.392c.1-.035.186-.09.287-.115l5.245-1.311a1.055,1.055,0,0,0,.8-1.024V18.831a1.055,1.055,0,0,0-.584-.945,2.744,2.744,0,0,1-1.527-2.471V9.332a4.222,4.222,0,1,1,8.443,0v6.083a2.744,2.744,0,0,1-1.527,2.471,1.055,1.055,0,0,0-.584.945v2.111a1.055,1.055,0,0,0,.8,1.024L41.6,23.277c.1.024.193.06.288.094v2.6a4.841,4.841,0,0,0,2.111,4.022v.684l-4.449,1.11a5.3,5.3,0,0,0-3.995,4.96l2.111.061a3.181,3.181,0,0,1,2.4-2.974L45.3,32.521a1.055,1.055,0,0,0,.8-1.025V29.385a1.055,1.055,0,0,0-.587-.95,2.744,2.744,0,0,1-1.524-2.47V19.887a4.222,4.222,0,0,1,8.443,0v6.079a2.744,2.744,0,0,1-1.524,2.47,1.055,1.055,0,0,0-.587.95V31.5a1.055,1.055,0,0,0,.8,1.025l5.242,1.308a3.166,3.166,0,0,1,2.4,3.071v8.317Z" transform="translate(0.222)"/>
        <path id="Path_978865" data-name="Path 978865" d="M52,37h2.111v6.332H52Z" transform="translate(2.771 1.884)"/>
        <path id="Path_978866" data-name="Path 978866" d="M2.446,50.582l4.222,2.986a1.055,1.055,0,0,0,1.218,0l3.948-2.792H20a13.715,13.715,0,0,0,26.955,2.374l-2.045-.528a11.61,11.61,0,1,1,0-5.8l2.045-.528A13.715,13.715,0,0,0,20,48.665H11.834L7.886,45.873a1.055,1.055,0,0,0-1.218,0L2.446,48.859a1.055,1.055,0,0,0,0,1.722Zm4.831-2.55L9.671,49.72,7.277,51.409,4.883,49.72Z" transform="translate(0 1.829)"/>
      </g>
    </g>
  </g>
</svg>
