<svg xmlns="http://www.w3.org/2000/svg" xmlns:xlink="http://www.w3.org/1999/xlink" width="108" height="108" viewBox="0 0 108 108">
  <defs>
    <filter id="Fondo" x="0" y="0" width="108" height="108" filterUnits="userSpaceOnUse">
      <feOffset dy="3" input="SourceAlpha"/>
      <feGaussianBlur stdDeviation="3" result="blur"/>
      <feFlood flood-opacity="0.161"/>
      <feComposite operator="in" in2="blur"/>
      <feComposite in="SourceGraphic"/>
    </filter>
  </defs>
  <g id="Group_1144419" data-name="Group 1144419" transform="translate(-3546 -1465.134)">
    <g id="Group_1144255" data-name="Group 1144255" transform="translate(-333)">
      <g transform="matrix(1, 0, 0, 1, 3879, 1465.13)" filter="url(#Fondo)">
        <g id="Fondo-2" data-name="Fondo" transform="translate(9 6)" fill="#fff4e4">
          <path d="M 45 88.5 C 39.12687683105469 88.5 33.43022537231445 87.35007476806641 28.06830024719238 85.08217620849609 C 22.88852500915527 82.89131164550781 18.23629951477051 79.75458526611328 14.2408504486084 75.75914764404297 C 10.24541282653809 71.76370239257812 7.108687400817871 67.11147308349609 4.917825222015381 61.93170166015625 C 2.649924993515015 56.56977462768555 1.5 50.87312316894531 1.5 45 C 1.5 39.12687683105469 2.649924993515015 33.43022537231445 4.917825222015381 28.06830024719238 C 7.108687400817871 22.88852500915527 10.24541282653809 18.23629951477051 14.2408504486084 14.2408504486084 C 18.23629951477051 10.24541282653809 22.88852500915527 7.108687400817871 28.06830024719238 4.917825222015381 C 33.43022537231445 2.649924993515015 39.12687683105469 1.5 45 1.5 C 50.87312316894531 1.5 56.56977462768555 2.649924993515015 61.93170166015625 4.917825222015381 C 67.11147308349609 7.108687400817871 71.76370239257812 10.24541282653809 75.75914764404297 14.2408504486084 C 79.75458526611328 18.23629951477051 82.89131164550781 22.88852500915527 85.08217620849609 28.06830024719238 C 87.35007476806641 33.43022537231445 88.5 39.12687683105469 88.5 45 C 88.5 50.87312316894531 87.35007476806641 56.56977462768555 85.08217620849609 61.93170166015625 C 82.89131164550781 67.11147308349609 79.75458526611328 71.76370239257812 75.75914764404297 75.75914764404297 C 71.76370239257812 79.75458526611328 67.11147308349609 82.89131164550781 61.93170166015625 85.08217620849609 C 56.56977462768555 87.35007476806641 50.87312316894531 88.5 45 88.5 Z" stroke="none"/>
          <path d="M 45 3 C 39.32871246337891 3 33.82865524291992 4.110054016113281 28.65262985229492 6.299339294433594 C 23.65165710449219 8.414573669433594 19.15968322753906 11.44334411621094 15.301513671875 15.301513671875 C 11.44334411621094 19.15968322753906 8.414573669433594 23.65165710449219 6.299339294433594 28.65262985229492 C 4.110054016113281 33.82865524291992 3 39.32871246337891 3 45 C 3 50.67128753662109 4.110054016113281 56.17134475708008 6.299339294433594 61.34737396240234 C 8.414573669433594 66.34834289550781 11.44334411621094 70.84031677246094 15.301513671875 74.698486328125 C 19.15968322753906 78.55665588378906 23.65165710449219 81.58542633056641 28.65262985229492 83.70066070556641 C 33.82865524291992 85.88994598388672 39.32871246337891 87 45 87 C 50.67128753662109 87 56.17134475708008 85.88994598388672 61.34737396240234 83.70066070556641 C 66.34834289550781 81.58542633056641 70.84031677246094 78.55665588378906 74.698486328125 74.698486328125 C 78.55665588378906 70.84031677246094 81.58542633056641 66.34834289550781 83.70066070556641 61.34737396240234 C 85.88994598388672 56.17134475708008 87 50.67128753662109 87 45 C 87 39.32871246337891 85.88994598388672 33.82865524291992 83.70066070556641 28.65262985229492 C 81.58542633056641 23.65165710449219 78.55665588378906 19.15968322753906 74.698486328125 15.301513671875 C 70.84031677246094 11.44334411621094 66.34834289550781 8.414573669433594 61.34737396240234 6.299339294433594 C 56.17134475708008 4.110054016113281 50.67128753662109 3 45 3 M 45 0 C 69.85281372070312 0 90 20.14718627929688 90 45 C 90 69.85281372070312 69.85281372070312 90 45 90 C 20.14718627929688 90 0 69.85281372070312 0 45 C 0 20.14718627929688 20.14718627929688 0 45 0 Z" stroke="none" fill="#ff9902"/>
        </g>
      </g>
      <g id="Group_1144253" data-name="Group 1144253" transform="translate(3904.199 1489.511)">
        <path id="Path_978808" data-name="Path 978808" d="M62.852,37.106h-9.9v2.421a.955.955,0,0,1-.954.951H24.524a4.451,4.451,0,0,1-1.791-.456L18.305,37.61c-.253-.138-.366-.324-.341-.5h-9.9a.564.564,0,0,0-.563.563v46.16a.564.564,0,0,0,.563.563h54.79a.564.564,0,0,0,.563-.563V37.668a.564.564,0,0,0-.563-.563Zm0,0" transform="translate(-6.656 -32.487)" fill="#e6e9ed"/>
        <path id="Path_978809" data-name="Path 978809" d="M212.034,309.857a6.381,6.381,0,1,1-6.38-6.447A6.414,6.414,0,0,1,212.034,309.857Zm0,0" transform="translate(-176.854 -268.832)" fill="#ffc502"/>
        <path id="Path_978810" data-name="Path 978810" d="M69.491,309.857a6.381,6.381,0,1,1-6.38-6.447A6.414,6.414,0,0,1,69.491,309.857Zm0,0" transform="translate(-50.348 -268.832)" fill="#89c947"/>
        <path id="Path_978811" data-name="Path 978811" d="M354.605,309.857a6.381,6.381,0,1,1-6.381-6.447A6.414,6.414,0,0,1,354.605,309.857Zm0,0" transform="translate(-303.385 -268.832)" fill="#ef5050"/>
        <g id="Group_1144252" data-name="Group 1144252" transform="translate(6.383 12.566)">
          <path id="Path_978812" data-name="Path 978812" d="M63.256,113.965a.338.338,0,0,1-.338.338h-5.85a.338.338,0,0,1-.338-.338v-5.874a.338.338,0,0,1,.338-.338h5.85a.339.339,0,0,1,.338.338Zm0,0" transform="translate(-56.731 -107.754)" fill="#fcdb67"/>
          <path id="Path_978813" data-name="Path 978813" d="M63.256,209.223a.339.339,0,0,1-.338.338h-5.85a.338.338,0,0,1-.338-.338V203.35a.338.338,0,0,1,.338-.338h5.85a.338.338,0,0,1,.338.338Zm0,0" transform="translate(-56.731 -192.295)" fill="#fcdb67"/>
          <path id="Path_978814" data-name="Path 978814" d="M283.369,113.965a.338.338,0,0,1-.338.338h-5.85a.338.338,0,0,1-.338-.338v-5.874a.338.338,0,0,1,.338-.338h5.85a.339.339,0,0,1,.338.338Zm0,0" transform="translate(-252.08 -107.754)" fill="#fcdb67"/>
          <path id="Path_978815" data-name="Path 978815" d="M283.369,209.223a.339.339,0,0,1-.338.338h-5.85a.338.338,0,0,1-.338-.338V203.35a.338.338,0,0,1,.338-.338h5.85a.338.338,0,0,1,.338.338Zm0,0" transform="translate(-252.08 -192.295)" fill="#fcdb67"/>
        </g>
        <path id="Path_978816" data-name="Path 978816" d="M134.517,8a.955.955,0,0,1,.954.951V13.7a.955.955,0,0,1-.954.951H107.041a4.444,4.444,0,0,1-1.791-.456l-4.428-2.412c-.461-.251-.461-.661,0-.912l4.428-2.411A4.444,4.444,0,0,1,107.041,8Zm0,0" transform="translate(-89.172 -6.657)" fill="#ffc502"/>
        <path id="Path_978817" data-name="Path 978817" d="M107.425,8h-.385a4.444,4.444,0,0,0-1.791.456l-4.428,2.411c-.461.251-.461.661,0,.912l4.428,2.412a4.444,4.444,0,0,0,1.791.456h.385Zm0,0" transform="translate(-89.172 -6.657)" fill="#ffd5b3"/>
        <path id="Path_978818" data-name="Path 978818" d="M103.8,19.082,100.822,20.7c-.461.251-.461.661,0,.912l2.976,1.621Zm0,0" transform="translate(-89.172 -16.492)" fill="#775436"/>
        <path id="Path_978819" data-name="Path 978819" d="M367.876,13.7V8.951A.955.955,0,0,0,366.922,8h-4.579v6.647h4.579a.955.955,0,0,0,.954-.951Zm0,0" transform="translate(-321.578 -6.656)" fill="#fb8276"/>
        <path id="Path_978820" data-name="Path 978820" d="M147.164,29.609h-3.094a.844.844,0,1,0,0,1.688h2.813v45.6H103.344a.844.844,0,1,0,0,1.688h43.821a1.408,1.408,0,0,0,1.406-1.406V31.016A1.408,1.408,0,0,0,147.164,29.609Zm0,0" transform="translate(-90.968 -25.835)"/>
        <path id="Path_978821" data-name="Path 978821" d="M8.325,51.059H1.688V5.462h9.064a1.65,1.65,0,0,0,.494.4l4.428,2.412a5.258,5.258,0,0,0,2.195.559H45.344a1.8,1.8,0,0,0,1.8-1.795V5.462h2.022a.844.844,0,1,0,0-1.688H47.142V2.294A1.8,1.8,0,0,0,45.344.5H17.869a5.258,5.258,0,0,0-2.195.559L11.246,3.47a1.719,1.719,0,0,0-.407.3H1.406A1.408,1.408,0,0,0,0,5.181V51.34a1.408,1.408,0,0,0,1.406,1.406H8.325a.844.844,0,1,0,0-1.688ZM41.609,2.187h3.735a.111.111,0,0,1,.11.107V7.04a.112.112,0,0,1-.11.107H41.609Zm-22.512,0H39.922V3.823H19.1Zm0,3.324H39.922V7.147H19.1Zm-3.627-2.42,1.012-.551a3.52,3.52,0,0,1,.928-.3V7.1a3.545,3.545,0,0,1-.929-.3l-1.011-.551Zm-1.688.919V5.324l-1.205-.657Zm0,0"/>
        <path id="Path_978822" data-name="Path 978822" d="M199,310.5a7.2,7.2,0,0,0,6.9-5.132.844.844,0,0,0-1.613-.495A5.518,5.518,0,0,1,199,308.808a5.6,5.6,0,1,1,5.223-7.465.844.844,0,0,0,1.594-.555A7.238,7.238,0,1,0,199,310.5Zm0,0" transform="translate(-170.198 -262.179)"/>
        <path id="Path_978823" data-name="Path 978823" d="M226.032,340.32v-.664a.844.844,0,0,0-1.688,0v.664a.844.844,0,0,0,1.688,0Zm0,0" transform="translate(-199.104 -300.251)"/>
        <path id="Path_978824" data-name="Path 978824" d="M274.321,340.32v-.664a.844.844,0,0,0-1.688,0v.664a.844.844,0,0,0,1.688,0Zm0,0" transform="translate(-241.96 -300.251)"/>
        <path id="Path_978825" data-name="Path 978825" d="M232.707,373.508h3.741a.844.844,0,1,0,0-1.688h-3.741a.844.844,0,1,0,0,1.688Zm0,0" transform="translate(-205.777 -329.545)"/>
        <path id="Path_978826" data-name="Path 978826" d="M56.455,310.492a7.291,7.291,0,1,0-7.224-7.29A7.266,7.266,0,0,0,56.455,310.492Zm0-12.894a5.6,5.6,0,1,1-5.537,5.6A5.576,5.576,0,0,1,56.455,297.6Zm0,0" transform="translate(-43.692 -262.176)"/>
        <path id="Path_978827" data-name="Path 978827" d="M82.645,341.164a.843.843,0,0,0,.844-.844v-.664a.844.844,0,0,0-1.688,0v.664A.844.844,0,0,0,82.645,341.164Zm0,0" transform="translate(-72.598 -300.251)"/>
        <path id="Path_978828" data-name="Path 978828" d="M130.934,341.164a.844.844,0,0,0,.844-.844v-.664a.844.844,0,0,0-1.688,0v.664A.844.844,0,0,0,130.934,341.164Zm0,0" transform="translate(-115.454 -300.251)"/>
        <path id="Path_978829" data-name="Path 978829" d="M87.891,367.758a2.883,2.883,0,0,0,5.751,0,.844.844,0,1,0-1.688,0,1.209,1.209,0,0,1-2.375,0,.844.844,0,1,0-1.688,0Zm0,0" transform="translate(-78.002 -325.191)"/>
        <path id="Path_978830" data-name="Path 978830" d="M341.568,310.492a7.291,7.291,0,1,0-7.224-7.29A7.266,7.266,0,0,0,341.568,310.492Zm0-12.894a5.6,5.6,0,1,1-5.536,5.6A5.577,5.577,0,0,1,341.568,297.6Zm0,0" transform="translate(-296.729 -262.176)"/>
        <path id="Path_978831" data-name="Path 978831" d="M367.754,341.164a.843.843,0,0,0,.844-.844v-.664a.844.844,0,1,0-1.688,0v.664A.844.844,0,0,0,367.754,341.164Zm0,0" transform="translate(-325.631 -300.251)"/>
        <path id="Path_978832" data-name="Path 978832" d="M416.047,341.164a.843.843,0,0,0,.844-.844v-.664a.844.844,0,0,0-1.688,0v.664A.844.844,0,0,0,416.047,341.164Zm0,0" transform="translate(-368.491 -300.251)"/>
        <path id="Path_978833" data-name="Path 978833" d="M373,366.383a.844.844,0,1,0,1.688,0,1.209,1.209,0,0,1,2.376,0,.844.844,0,1,0,1.688,0,2.883,2.883,0,0,0-5.751,0Zm0,0" transform="translate(-331.036 -322.348)"/>
        <path id="Path_978834" data-name="Path 978834" d="M50.412,108.494h5.85a1.182,1.182,0,0,0,1.181-1.181v-4.871l.333-.335a.843.843,0,0,0-.62-1.438,1.177,1.177,0,0,0-.894-.411h-5.85a1.182,1.182,0,0,0-1.181,1.181v5.874a1.182,1.182,0,0,0,1.181,1.181Zm.506-6.549h4.64l-2.069,2.084-.682-.687a.844.844,0,0,0-1.2,1.189l1.042,1.05a1.169,1.169,0,0,0,.837.349h0a1.169,1.169,0,0,0,.836-.348l1.431-1.441v2.665H50.918Zm0,0" transform="translate(-43.692 -88.535)"/>
        <path id="Path_978835" data-name="Path 978835" d="M139.141,118.766h10.053a.844.844,0,0,0,0-1.688H139.141a.844.844,0,1,0,0,1.688Zm0,0" transform="translate(-122.738 -103.463)"/>
        <path id="Path_978836" data-name="Path 978836" d="M139.141,143.329h5.725a.844.844,0,1,0,0-1.688h-5.725a.844.844,0,1,0,0,1.688Zm0,0" transform="translate(-122.738 -125.262)"/>
        <path id="Path_978837" data-name="Path 978837" d="M49.23,202.567a1.182,1.182,0,0,0,1.181,1.181h5.85a1.183,1.183,0,0,0,1.181-1.181v-5.874a1.183,1.183,0,0,0-1.181-1.181h-5.85a1.182,1.182,0,0,0-1.181,1.181Zm1.688-5.367h4.837v4.861H50.918Zm0,0" transform="translate(-43.692 -173.072)"/>
        <path id="Path_978838" data-name="Path 978838" d="M139.141,214.024h10.053a.844.844,0,0,0,0-1.688H139.141a.844.844,0,1,0,0,1.688Zm0,0" transform="translate(-122.738 -188.004)"/>
        <path id="Path_978839" data-name="Path 978839" d="M145.71,237.739a.843.843,0,0,0-.844-.844h-5.725a.844.844,0,1,0,0,1.688h5.725A.844.844,0,0,0,145.71,237.739Zm0,0" transform="translate(-122.738 -209.8)"/>
        <path id="Path_978840" data-name="Path 978840" d="M270.525,108.49h5.85a1.182,1.182,0,0,0,1.181-1.181v-5.874a1.183,1.183,0,0,0-1.181-1.181h-5.85a1.182,1.182,0,0,0-1.181,1.181v5.874A1.182,1.182,0,0,0,270.525,108.49Zm.506-6.549h4.837V106.8h-4.837Zm0,0" transform="translate(-239.041 -88.531)"/>
        <path id="Path_978841" data-name="Path 978841" d="M358.406,117.922a.844.844,0,0,0,.844.844H369.3a.844.844,0,1,0,0-1.688H359.25A.844.844,0,0,0,358.406,117.922Zm0,0" transform="translate(-318.084 -103.463)"/>
        <path id="Path_978842" data-name="Path 978842" d="M359.25,143.329h5.725a.844.844,0,0,0,0-1.688H359.25a.844.844,0,0,0,0,1.688Zm0,0" transform="translate(-318.084 -125.262)"/>
        <path id="Path_978843" data-name="Path 978843" d="M277.556,202.567v-5.874a1.183,1.183,0,0,0-1.181-1.181h-5.85a1.182,1.182,0,0,0-1.181,1.181v5.874a1.182,1.182,0,0,0,1.181,1.181h5.85A1.183,1.183,0,0,0,277.556,202.567Zm-1.688-.506h-4.837V197.2h4.837Zm0,0" transform="translate(-239.041 -173.072)"/>
        <path id="Path_978844" data-name="Path 978844" d="M369.308,212.336H359.254a.844.844,0,1,0,0,1.688h10.053a.844.844,0,0,0,0-1.688Zm0,0" transform="translate(-318.088 -188.004)"/>
        <path id="Path_978845" data-name="Path 978845" d="M364.976,238.583a.844.844,0,1,0,0-1.688H359.25a.844.844,0,1,0,0,1.688Zm0,0" transform="translate(-318.084 -209.8)"/>
      </g>
    </g>
  </g>
</svg>
