<svg xmlns="http://www.w3.org/2000/svg" xmlns:xlink="http://www.w3.org/1999/xlink" width="108" height="108" viewBox="0 0 108 108">
  <defs>
    <filter id="Fondo" x="0" y="0" width="108" height="108" filterUnits="userSpaceOnUse">
      <feOffset dy="3" input="SourceAlpha"/>
      <feGaussianBlur stdDeviation="3" result="blur"/>
      <feFlood flood-opacity="0.161"/>
      <feComposite operator="in" in2="blur"/>
      <feComposite in="SourceGraphic"/>
    </filter>
  </defs>
  <g id="Group_1143813" data-name="Group 1143813" transform="translate(-325.999 -3507)">
    <g transform="matrix(1, 0, 0, 1, 326, 3507)" filter="url(#Fondo)">
      <g id="Fondo-2" data-name="Fondo" transform="translate(9 6)" fill="#fffbe8" stroke="#bca724" stroke-width="3">
        <circle cx="45" cy="45" r="45" stroke="none"/>
        <circle cx="45" cy="45" r="43.5" fill="none"/>
      </g>
    </g>
    <g id="Group_1143812" data-name="Group 1143812" transform="translate(354.405 3532.411)">
      <g id="Group_1143810" data-name="Group 1143810" transform="translate(3.453 3.146)">
        <path id="Path_978919" data-name="Path 978919" d="M135.888,47.435C133,36.075,129.924,32.9,129.924,32.9l-14.217,4.831-8.113,12.439s16.035,3.041,16.035,1.979c0-2.387-.071-6.827,3.4-7.567,2.218-.473,3.793.988,4.324,3.239A6.2,6.2,0,0,0,135.888,47.435Z" transform="translate(-100.288 -32.759)" fill="#dc8995"/>
        <path id="Path_978920" data-name="Path 978920" d="M237.178,45.476,232.768,32.5a1.5,1.5,0,0,0-1.906-.939l-.182.062,4.44,13.067a.75.75,0,0,1-.469.951l-1.725.586a.752.752,0,0,1-.964-.513A4.321,4.321,0,1,0,223.98,48.9a.743.743,0,0,1-.484.529l-3.956,1.344.343,1.009,1.956.491,4.617-1.569a.752.752,0,0,0,.259-1.268,3.2,3.2,0,0,1,1.38-5.424,3.141,3.141,0,0,1,.789-.1,3.194,3.194,0,0,1,3.167,2.614,3.172,3.172,0,0,1,.01,1.113.748.748,0,0,0,.98.831l3.2-1.086A1.5,1.5,0,0,0,237.178,45.476Z" transform="translate(-201.044 -31.48)" fill="#d5717f"/>
        <path id="Path_978921" data-name="Path 978921" d="M52.462,92.178a3.2,3.2,0,1,1-1.8-5.348.749.749,0,0,0,.835-.98l-1.569-4.618-14.4,4.893a1.5,1.5,0,0,0-.939,1.906l4.893,14.4,10.894,6.817,3.956-9.788.277-4.45-.874-2.573A.752.752,0,0,0,52.462,92.178Z" transform="translate(-34.504 -76.26)" fill="#f7e365"/>
        <path id="Path_978922" data-name="Path 978922" d="M221.593,220.317l1.086,3.2.972-2.406-.695-2.045-.895.3A.75.75,0,0,0,221.593,220.317Z" transform="translate(-202.856 -200.312)" fill="#f3d332"/>
        <path id="Path_978923" data-name="Path 978923" d="M102.536,254.274c6-1.386,4.892-4.044,3.416-5.9a3.2,3.2,0,0,0-3.036.927.764.764,0,0,1-.642.24,2.591,2.591,0,0,1-1.9-1.546c-.52-1.012-1.9-3.026-1.9-3.026l-3.013,1.024a.752.752,0,0,0-.259,1.268,3.2,3.2,0,1,1-5.348,1.8.749.749,0,0,0-.98-.835L84.257,249.8l4.682,13.777,15.338-3.917s-1.977-5.332-1.74-5.387Z" transform="translate(-79.284 -223.63)" fill="#dc8995"/>
        <path id="Path_978924" data-name="Path 978924" d="M230.292,244.634a.734.734,0,0,1-.626-.5l-1.569-4.617-1.6.545,1.381,4.063a.75.75,0,0,0,.71.508Z" transform="translate(-207.301 -218.722)" fill="#d5717f"/>
        <path id="Path_978925" data-name="Path 978925" d="M148.106,279.024a3.359,3.359,0,0,1-1.794,4.581,2.354,2.354,0,0,1-1.268.237,3.471,3.471,0,0,1-.409-.1.75.75,0,0,0-.92.961l1.354,3.986a.75.75,0,0,1-.469.951l-13.508,4.59.211.622a1.5,1.5,0,0,0,1.906.939l12.977-4.409a1.5,1.5,0,0,0,.939-1.906l-1.086-3.2a.747.747,0,0,1,.825-.981,3.19,3.19,0,0,0,2.917-1.022l.732-2.865h0A3.2,3.2,0,0,0,148.106,279.024Z" transform="translate(-121.438 -254.28)" fill="#d5717f"/>
        <path id="Path_978926" data-name="Path 978926" d="M332.7,248.442h-2.878s-1.17-.036-1.312-.511c-.216-.719.552-2.112.435-3.281a2.862,2.862,0,0,0-1.283-1.74,3.145,3.145,0,0,0-1.091-.278,3.2,3.2,0,0,0-3.052,4.692.752.752,0,0,1-.653,1.117h-3.374a1.5,1.5,0,0,0-1.5,1.5v2.42a4.675,4.675,0,0,1,3.195.27,4.458,4.458,0,0,1,2.615,4.389,3.2,3.2,0,0,1-4.7,2.592.749.749,0,0,0-1.105.659v2.878l15.708,1Z" transform="translate(-289.65 -221.52)" fill="#f7e365"/>
        <g id="Group_1143809" data-name="Group 1143809" transform="translate(28.336 21.392)">
          <path id="Path_978927" data-name="Path 978927" d="M320.605,332.962a4.109,4.109,0,0,0-2.618.706v.954a.752.752,0,0,0,1.117.653,3.2,3.2,0,0,1,4.692,2.616v-1.8A3.267,3.267,0,0,0,320.605,332.962Z" transform="translate(-317.987 -324.213)" fill="#f3d332"/>
          <path id="Path_978928" data-name="Path 978928" d="M414.156,249.829a.749.749,0,0,0,.608,1.187h1.483a.749.749,0,0,1-.659-1.105,3.2,3.2,0,0,0-1.5-4.426,3.153,3.153,0,0,1,.783,1.74A3.7,3.7,0,0,1,414.156,249.829Z" transform="translate(-404.414 -245.484)" fill="#f3d332"/>
          <path id="Path_978929" data-name="Path 978929" d="M333.195,300.819h-.5V314.78a.75.75,0,0,1-.75.75H317.987v.5a1.5,1.5,0,0,0,1.5,1.5h13.705a1.5,1.5,0,0,0,1.5-1.5V302.322A1.5,1.5,0,0,0,333.195,300.819Z" transform="translate(-317.987 -295.288)" fill="#f3d332"/>
        </g>
      </g>
      <g id="Group_1143811" data-name="Group 1143811" transform="translate(0.005 -0.001)">
        <path id="Path_978930" data-name="Path 978930" d="M71.291,50.9H67.918a3.949,3.949,0,1,0-6.966-.015.027.027,0,0,1,0,.015h-3.37a2.255,2.255,0,0,0-.3.02,3.9,3.9,0,0,0-1.711-1.809,3.949,3.949,0,0,0-4.744.774.027.027,0,0,1-.013.009l-1.327-3.9L53.4,44.658a1.48,1.48,0,0,0,.979-1.1,1.507,1.507,0,0,0-.448-1.428,2.45,2.45,0,0,1,1.059-4.153,2.45,2.45,0,0,1,3.036,2.771,1.5,1.5,0,0,0,1.96,1.669l3.2-1.086a2.252,2.252,0,0,0,1.408-2.857L60.181,25.5a2.252,2.252,0,0,0-2.857-1.408l-11.3,3.84a.75.75,0,0,0,.482,1.42l11.3-3.84a.753.753,0,0,1,.955.471l4.409,12.976a.753.753,0,0,1-.471.955L59.506,41a3.949,3.949,0,1,0-7.634.621,7.565,7.565,0,0,0,1.043,1.619l-3.9,1.327-.286-.842a.75.75,0,1,0-1.42.482l.286.842-3.907,1.328a1.48,1.48,0,0,0-.979,1.1,1.507,1.507,0,0,0,.448,1.428,2.45,2.45,0,0,1-1.059,4.153,2.45,2.45,0,0,1-3.036-2.771,1.5,1.5,0,0,0-1.96-1.669l-3.908,1.328L28.537,36.253a.754.754,0,0,1,.471-.955L42.7,30.646l1.327,3.907a3.949,3.949,0,1,0,2.227,6.6.027.027,0,0,1,.013-.009l.138.407a.75.75,0,1,0,1.42-.482l-.14-.411a1.48,1.48,0,0,0-1.1-.979,1.508,1.508,0,0,0-1.428.448,2.45,2.45,0,0,1-4.153-1.059,2.45,2.45,0,0,1,2.771-3.036,1.5,1.5,0,0,0,1.668-1.96l-1.569-4.618a.75.75,0,0,0-.951-.469l-14.4,4.893a2.252,2.252,0,0,0-1.408,2.857l9.786,28.8a2.248,2.248,0,0,0,2.857,1.408l12.977-4.409a2.252,2.252,0,0,0,1.408-2.857L53.06,56.481c1.4.263,2.146-.125,2.274-.3v.338a1.48,1.48,0,0,0,.723,1.28,1.507,1.507,0,0,0,1.5.035,2.45,2.45,0,0,1,3.591,2.339,2.45,2.45,0,0,1-3.6,1.983,1.5,1.5,0,0,0-2.21,1.319v3.375a2.255,2.255,0,0,0,2.252,2.252H71.291a2.255,2.255,0,0,0,2.252-2.252V61.645a.75.75,0,1,0-1.5,0v5.209a.754.754,0,0,1-.753.753H57.586a.754.754,0,0,1-.753-.753V63.48a3.949,3.949,0,1,0,.014-6.966s-.015-3.366-.015-3.366a.754.754,0,0,1,.753-.753H60.96a1.48,1.48,0,0,0,1.28-.723,1.507,1.507,0,0,0,.035-1.5,2.45,2.45,0,0,1,2.339-3.591,2.45,2.45,0,0,1,1.983,3.6,1.5,1.5,0,0,0,1.319,2.21h3.375a.754.754,0,0,1,.753.753v5.5a.75.75,0,0,0,1.5,0v-5.5A2.255,2.255,0,0,0,71.291,50.9ZM54.635,54.854A2.452,2.452,0,0,1,53.308,55a1.5,1.5,0,0,0-1.668,1.96l1.086,3.2a.753.753,0,0,1-.471.955l-12.977,4.41a.753.753,0,0,1-.955-.471L33.672,51.362l3.907-1.327a3.948,3.948,0,1,0,6.6-2.228s3.895-1.339,3.895-1.339L49.4,50.376a1.48,1.48,0,0,0,1.1.979,1.507,1.507,0,0,0,1.428-.448,2.45,2.45,0,0,1,4.026.693,2.244,2.244,0,0,0-.618,1.547v1.27a2.389,2.389,0,0,1-.7.436Z" transform="translate(-24.299 -21.575)"/>
        <path id="Path_978931" data-name="Path 978931" d="M11.655,392.255a.75.75,0,0,0-1.42.483,3.08,3.08,0,0,1,.109.412,3.041,3.041,0,1,1-3.968-2.313.75.75,0,0,0,.469-.951L5.57,386.132a.75.75,0,0,0-1.42.482l1.054,3.1A4.546,4.546,0,0,0,3.14,395.4a4.557,4.557,0,0,0,4.226,2.853,4.539,4.539,0,0,0,4.452-5.389,4.638,4.638,0,0,0-.162-.613Z" transform="translate(-2.531 -347.077)"/>
        <path id="Path_978932" data-name="Path 978932" d="M424.991,8.54a4.546,4.546,0,0,0,2.065-5.688A4.541,4.541,0,0,0,418.54,6a.75.75,0,0,0,1.42-.482,3.08,3.08,0,0,1-.109-.412,3.041,3.041,0,1,1,3.968,2.313.75.75,0,0,0-.469.951l1.276,3.754a.75.75,0,1,0,1.42-.482Z" transform="translate(-376.485 0.001)"/>
        <circle id="Ellipse_11579" data-name="Ellipse 11579" cx="0.75" cy="0.75" r="0.75" transform="translate(49.679 15.78)"/>
        <circle id="Ellipse_11580" data-name="Ellipse 11580" cx="0.75" cy="0.75" r="0.75" transform="translate(0 33.9)"/>
      </g>
    </g>
  </g>
</svg>
