<svg xmlns="http://www.w3.org/2000/svg" xmlns:xlink="http://www.w3.org/1999/xlink" width="108" height="108" viewBox="0 0 108 108">
  <defs>
    <filter id="Fondo" x="0" y="0" width="108" height="108" filterUnits="userSpaceOnUse">
      <feOffset dy="3" input="SourceAlpha"/>
      <feGaussianBlur stdDeviation="3" result="blur"/>
      <feFlood flood-opacity="0.161"/>
      <feComposite operator="in" in2="blur"/>
      <feComposite in="SourceGraphic"/>
    </filter>
  </defs>
  <g id="Group_1144042" data-name="Group 1144042" transform="translate(-1061.998 -11752.567)">
    <g transform="matrix(1, 0, 0, 1, 1062, 11752.57)" filter="url(#Fondo)">
      <g id="Fondo-2" data-name="Fondo" transform="translate(9 6)" fill="#fffbe8" stroke="#bca724" stroke-width="3">
        <circle cx="45" cy="45" r="45" stroke="none"/>
        <circle cx="45" cy="45" r="43.5" fill="none"/>
      </g>
    </g>
    <g id="Layer_30" transform="translate(1065.085 11772.842)">
      <g id="Group_1144041" data-name="Group 1144041" transform="translate(24.357)">
        <g id="Group_1143916" data-name="Group 1143916" transform="translate(0.628 46.962)">
          <g id="Group_1143915" data-name="Group 1143915">
            <path id="Path_979160" data-name="Path 979160" d="M49.152,191.755l-3.256-.82a14.453,14.453,0,0,1-3.066-1.17,2.078,2.078,0,0,1-1.159-1.863v-.979a5.967,5.967,0,0,1-5.542,0v.979a2.08,2.08,0,0,1-1.161,1.865,14.137,14.137,0,0,1-3.064,1.169l-3.256.82a2.374,2.374,0,0,0-1.791,2.17l.766.32a29.283,29.283,0,0,0,22.552,0l.766-.32A2.374,2.374,0,0,0,49.152,191.755Z" transform="translate(-26.858 -186.923)" fill="#70d6f9"/>
          </g>
        </g>
        <g id="Group_1143918" data-name="Group 1143918" transform="translate(6.656 34.095)">
          <g id="Group_1143917" data-name="Group 1143917">
            <path id="Path_979161" data-name="Path 979161" d="M62.021,136.05a1.1,1.1,0,0,0-1.481-.1,6.04,6.04,0,0,1-7.349,0,1.1,1.1,0,0,0-1.479.1l0,0a3.11,3.11,0,0,0-.859,2.146v5.048a6.015,6.015,0,1,0,12.029,0V138.2A3.111,3.111,0,0,0,62.021,136.05Z" transform="translate(-50.851 -135.71)" fill="#f9d0b4"/>
          </g>
        </g>
        <g id="Group_1143920" data-name="Group 1143920" transform="translate(18.67 37.046)">
          <g id="Group_1143919" data-name="Group 1143919">
            <path id="Path_979162" data-name="Path 979162" d="M99.071,147.453a2.509,2.509,0,0,0-.386.031v4.553c0,.136-.006.27-.015.4a2.51,2.51,0,1,0,.4-4.987Z" transform="translate(-98.67 -147.453)" fill="#f9d0b4"/>
          </g>
        </g>
        <g id="Group_1143922" data-name="Group 1143922" transform="translate(3.759 37.046)">
          <g id="Group_1143921" data-name="Group 1143921">
            <path id="Path_979163" data-name="Path 979163" d="M42.216,152.036v-4.553a2.511,2.511,0,1,0-.386,4.992,2.537,2.537,0,0,0,.4-.035C42.222,152.306,42.216,152.172,42.216,152.036Z" transform="translate(-39.319 -147.452)" fill="#f9d0b4"/>
          </g>
        </g>
        <g id="Group_1143924" data-name="Group 1143924" transform="translate(5.006 28.003)">
          <g id="Group_1143923" data-name="Group 1143923">
            <path id="Path_979164" data-name="Path 979164" d="M57.938,115.373a.372.372,0,0,1-.379-.357c-.046-3.352-3.873-3.981-7.685-3.323a6.739,6.739,0,0,0-5.593,6.639v2.515a2.483,2.483,0,0,1,1.65-.313v-.494a3.11,3.11,0,0,1,.859-2.146l0,0a1.1,1.1,0,0,1,1.479-.1,6.04,6.04,0,0,0,7.349,0,1.1,1.1,0,0,1,1.481.1,3.11,3.11,0,0,1,.859,2.146v.494a2.483,2.483,0,0,1,1.663.321v-2.065C59.624,115.79,58.54,115.373,57.938,115.373Z" transform="translate(-44.281 -111.461)" fill="#5b5d60"/>
          </g>
        </g>
        <g id="Group_1143926" data-name="Group 1143926" transform="translate(45.415 37.413)">
          <g id="Group_1143925" data-name="Group 1143925">
            <path id="Path_979165" data-name="Path 979165" d="M205.493,148.914a2.353,2.353,0,0,0-.359.028v4.239c0,.126-.006.251-.014.376a2.337,2.337,0,1,0,.373-4.643Z" transform="translate(-205.12 -148.914)" fill="#f9d0b4"/>
          </g>
        </g>
        <g id="Group_1143928" data-name="Group 1143928" transform="translate(34.229 35.455)">
          <g id="Group_1143927" data-name="Group 1143927">
            <path id="Path_979166" data-name="Path 979166" d="M171.452,142.4a4.641,4.641,0,0,1-2.043-1.176.372.372,0,0,0-.534.03c-.853,1-3.877,4.016-8.278,2.762v3.335a5.6,5.6,0,0,0,11.2,0v-4.524A.439.439,0,0,0,171.452,142.4Z" transform="translate(-160.597 -141.122)" fill="#f9d0b4"/>
          </g>
        </g>
        <g id="Group_1143930" data-name="Group 1143930" transform="translate(31.531 37.855)">
          <g id="Group_1143929" data-name="Group 1143929">
            <path id="Path_979167" data-name="Path 979167" d="M152.558,154.5v-3.335a9.094,9.094,0,0,1-1.184-.43.712.712,0,0,0-.774.133,2.33,2.33,0,0,0,1.973,4.008C152.564,154.751,152.558,154.627,152.558,154.5Z" transform="translate(-149.861 -150.675)" fill="#f9d0b4"/>
          </g>
        </g>
        <g id="Group_1143932" data-name="Group 1143932" transform="translate(32.214 29.116)">
          <g id="Group_1143931" data-name="Group 1143931">
            <path id="Path_979168" data-name="Path 979168" d="M160.192,115.89a7.637,7.637,0,0,0-7.615,7.615v1.376c.019-.019.036-.04.056-.058a.713.713,0,0,1,.774-.133,9.1,9.1,0,0,0,1.184.43c4.4,1.254,7.426-1.766,8.278-2.762a.372.372,0,0,1,.534-.03,4.639,4.639,0,0,0,2.043,1.176.439.439,0,0,1,.344.427v.285a2.329,2.329,0,0,1,2.015.659v-1.369A7.637,7.637,0,0,0,160.192,115.89Z" transform="translate(-152.577 -115.89)" fill="#fca265"/>
          </g>
        </g>
        <g id="Group_1143934" data-name="Group 1143934" transform="translate(28.207 46.602)">
          <g id="Group_1143933" data-name="Group 1143933">
            <path id="Path_979169" data-name="Path 979169" d="M158.141,190.633l-1.113-.281-2.891-.73a4.872,4.872,0,0,1-.969-.356l-1.384-.683a1.557,1.557,0,0,1-.868-1.4v-1.7a5.567,5.567,0,0,1-5.327,0v1.7a1.557,1.557,0,0,1-.868,1.4l-1.385.683a4.889,4.889,0,0,1-.969.356l-2.891.73-1.113.281a2.3,2.3,0,0,0-1.732,2.1,29.283,29.283,0,0,0,23.243,0A2.3,2.3,0,0,0,158.141,190.633Z" transform="translate(-136.631 -185.489)" fill="#fc657e"/>
          </g>
        </g>
        <g id="Group_1143936" data-name="Group 1143936" transform="translate(42.492 40.995)">
          <g id="Group_1143935" data-name="Group 1143935">
            <path id="Path_979170" data-name="Path 979170" d="M198.669,167.4a4.14,4.14,0,0,0,.093-4.233,2.309,2.309,0,0,1-2.351,1.061,5.62,5.62,0,0,1-2.922,4.546v1.7a1.554,1.554,0,0,0,.742,1.323c.183.113-.049-.02,1.51.756a5.375,5.375,0,0,0,.7.28c.042.013.085.025.128.037a3.877,3.877,0,0,0,2.022-1.526,3.2,3.2,0,0,0,.042-3.285A.648.648,0,0,1,198.669,167.4Z" transform="translate(-193.489 -163.171)" fill="#fca265"/>
          </g>
        </g>
        <g id="Group_1143938" data-name="Group 1143938" transform="translate(31.351 40.995)">
          <g id="Group_1143937" data-name="Group 1143937">
            <path id="Path_979171" data-name="Path 979171" d="M152.034,164.232a2.309,2.309,0,0,1-2.351-1.061,4.139,4.139,0,0,0,.093,4.233.649.649,0,0,1,.035.657,3.2,3.2,0,0,0,.042,3.285,3.88,3.88,0,0,0,2.022,1.526c.043-.012.086-.024.128-.037a5.372,5.372,0,0,0,.7-.28c1.661-.826,1.341-.652,1.51-.756a1.554,1.554,0,0,0,.742-1.323v-1.7A5.62,5.62,0,0,1,152.034,164.232Z" transform="translate(-149.142 -163.171)" fill="#fca265"/>
          </g>
        </g>
        <g id="Group_1143940" data-name="Group 1143940" transform="translate(11.023 11.008)">
          <g id="Group_1143939" data-name="Group 1143939">
            <path id="Path_979172" data-name="Path 979172" d="M68.232,43.814h3.587V57.387H68.232Z" transform="translate(-68.232 -43.814)" fill="#f5c84c"/>
          </g>
        </g>
        <g id="Group_1143942" data-name="Group 1143942" transform="translate(4.584 17.27)">
          <g id="Group_1143941" data-name="Group 1143941">
            <path id="Path_979173" data-name="Path 979173" d="M42.6,68.741h3.587v7.31H42.6Z" transform="translate(-42.602 -68.741)" fill="#70d6f9"/>
          </g>
        </g>
        <g id="Group_1143944" data-name="Group 1143944" transform="translate(17.462 4.745)">
          <g id="Group_1143943" data-name="Group 1143943">
            <path id="Path_979174" data-name="Path 979174" d="M93.862,18.887h3.587V38.722H93.862Z" transform="translate(-93.862 -18.887)" fill="#fc657e"/>
          </g>
        </g>
        <g id="Group_1143946" data-name="Group 1143946" transform="translate(38.157 11.008)">
          <g id="Group_1143945" data-name="Group 1143945">
            <path id="Path_979175" data-name="Path 979175" d="M176.232,43.814h3.587V57.387h-3.587Z" transform="translate(-176.232 -43.814)" fill="#f5c84c"/>
          </g>
        </g>
        <g id="Group_1143948" data-name="Group 1143948" transform="translate(31.718 17.27)">
          <g id="Group_1143947" data-name="Group 1143947">
            <path id="Path_979176" data-name="Path 979176" d="M150.6,68.741h3.587v7.31H150.6Z" transform="translate(-150.602 -68.741)" fill="#70d6f9"/>
          </g>
        </g>
        <g id="Group_1143950" data-name="Group 1143950" transform="translate(44.596 4.745)">
          <g id="Group_1143949" data-name="Group 1143949">
            <path id="Path_979177" data-name="Path 979177" d="M201.862,18.887h3.587V38.722h-3.587Z" transform="translate(-201.862 -18.887)" fill="#fc657e"/>
          </g>
        </g>
        <g id="Group_1143952" data-name="Group 1143952" transform="translate(13.669 49.548)">
          <g id="Group_1143951" data-name="Group 1143951">
            <path id="Path_979178" data-name="Path 979178" d="M81.694,197.472a2.067,2.067,0,0,1-.39-.256l-2.413,2.763a.521.521,0,0,0,.05.735l1.57,1.372a.521.521,0,0,0,.735-.05l3.07-3.515A14.461,14.461,0,0,1,81.694,197.472Z" transform="translate(-78.762 -197.216)" fill="#9be5f9"/>
          </g>
        </g>
        <g id="Group_1143954" data-name="Group 1143954" transform="translate(6.12 49.548)">
          <g id="Group_1143953" data-name="Group 1143953">
            <path id="Path_979179" data-name="Path 979179" d="M54.14,199.979l-2.413-2.763a2.075,2.075,0,0,1-.39.256,14.558,14.558,0,0,1-2.621,1.051l3.069,3.513a.521.521,0,0,0,.735.05l1.57-1.372A.521.521,0,0,0,54.14,199.979Z" transform="translate(-48.716 -197.216)" fill="#9be5f9"/>
          </g>
        </g>
        <g id="Group_1143956" data-name="Group 1143956" transform="translate(9.131 46.962)">
          <g id="Group_1143955" data-name="Group 1143955">
            <path id="Path_979180" data-name="Path 979180" d="M67.012,187.9v-.979a5.967,5.967,0,0,1-5.542,0v.979a2.074,2.074,0,0,1-.769,1.607l2.413,2.763a.518.518,0,0,1,.125.282h2a.52.52,0,0,1,.125-.282l2.413-2.763A2.075,2.075,0,0,1,67.012,187.9Z" transform="translate(-60.701 -186.922)" fill="#f9d0b4"/>
          </g>
        </g>
        <g id="Group_1143958" data-name="Group 1143958" transform="translate(32.995 49.887)">
          <g id="Group_1143957" data-name="Group 1143957">
            <path id="Path_979181" data-name="Path 979181" d="M161.027,201.171l-2.425-2.606-1,.492a4.906,4.906,0,0,1-.969.356l-.948.239,1.047,2.261a2.261,2.261,0,0,0,3.591.705l.672-.625A.582.582,0,0,0,161.027,201.171Z" transform="translate(-155.687 -198.565)" fill="#f98fa6"/>
          </g>
        </g>
        <g id="Group_1143960" data-name="Group 1143960" transform="translate(41.167 49.887)">
          <g id="Group_1143959" data-name="Group 1143959">
            <path id="Path_979182" data-name="Path 979182" d="M192.759,199.414a4.874,4.874,0,0,1-.969-.356l-1-.492-2.425,2.606a.582.582,0,0,0,.03.822l.672.625a2.261,2.261,0,0,0,3.591-.705l1.047-2.261Z" transform="translate(-188.212 -198.566)" fill="#f98fa6"/>
          </g>
        </g>
        <g id="Group_1143962" data-name="Group 1143962" transform="translate(35.91 46.602)">
          <g id="Group_1143961" data-name="Group 1143961">
            <path id="Path_979183" data-name="Path 979183" d="M174.74,188.584a1.557,1.557,0,0,1-.868-1.4v-1.7a5.567,5.567,0,0,1-5.327,0v1.7a1.557,1.557,0,0,1-.868,1.4l-.387.191,2.425,2.606a.577.577,0,0,1,.139.268h2.709a.577.577,0,0,1,.139-.268l2.425-2.606Z" transform="translate(-167.29 -185.49)" fill="#f9d0b4"/>
          </g>
        </g>
        <g id="Group_1143964" data-name="Group 1143964" transform="translate(31.215 59.945)">
          <g id="Group_1143963" data-name="Group 1143963">
            <path id="Path_979184" data-name="Path 979184" d="M152.195,239.982h-.6V239.4a.794.794,0,0,0-.8-.8.8.8,0,0,0-.8.779v.6h-.578a.794.794,0,0,0-.8.8.778.778,0,0,0,.8.8h.578v.578a.794.794,0,0,0,.8.8.8.8,0,0,0,.8-.779v-.6h.578a.794.794,0,0,0,.8-.8A.8.8,0,0,0,152.195,239.982Z" transform="translate(-148.601 -238.6)" fill="#70d6f9"/>
          </g>
        </g>
        <g id="Group_1143966" data-name="Group 1143966" transform="translate(11.67)">
          <g id="Group_1143965" data-name="Group 1143965">
            <path id="Path_979185" data-name="Path 979185" d="M71.66,0a.854.854,0,1,0,.854.854A.854.854,0,0,0,71.66,0Z" transform="translate(-70.806)" fill="#87d147"/>
          </g>
        </g>
        <g id="Group_1143968" data-name="Group 1143968" transform="translate(50.755 27.385)">
          <g id="Group_1143967" data-name="Group 1143967">
            <path id="Path_979186" data-name="Path 979186" d="M229.585,110.551a1.958,1.958,0,0,1-1.558-1.533c0-.025-.075-.025-.075,0a1.958,1.958,0,0,1-1.558,1.533c-.025,0-.025.05,0,.075a1.958,1.958,0,0,1,1.558,1.533c0,.025.075.025.075,0a1.958,1.958,0,0,1,1.558-1.533C229.61,110.6,229.61,110.551,229.585,110.551Z" transform="translate(-226.375 -109)" fill="#fc657e"/>
          </g>
        </g>
        <g id="Group_1143970" data-name="Group 1143970" transform="translate(23.77 59.041)">
          <g id="Group_1143969" data-name="Group 1143969">
            <path id="Path_979187" data-name="Path 979187" d="M119.823,235a.854.854,0,1,0,.854.854A.854.854,0,0,0,119.823,235Z" transform="translate(-118.969 -235)" fill="#f5c84c"/>
          </g>
        </g>
        <g id="Group_1143972" data-name="Group 1143972" transform="translate(3.377 3.605)">
          <g id="Group_1143971" data-name="Group 1143971">
            <path id="Path_979188" data-name="Path 979188" d="M42.41,16.573a2.788,2.788,0,0,1-2.236-2.186c0-.05-.1-.05-.1,0a2.788,2.788,0,0,1-2.236,2.186c-.05,0-.05.075,0,.1a2.788,2.788,0,0,1,2.236,2.186c0,.05.1.05.1,0a2.788,2.788,0,0,1,2.236-2.186C42.46,16.649,42.46,16.573,42.41,16.573Z" transform="translate(-37.8 -14.35)" fill="#f5c84c"/>
          </g>
        </g>
        <g id="Group_1143974" data-name="Group 1143974" transform="translate(0 46.563)">
          <g id="Group_1143973" data-name="Group 1143973">
            <path id="Path_979189" data-name="Path 979189" d="M34.257,185.333a.628.628,0,0,0-.628.628v.75a1.441,1.441,0,0,1-.809,1.3,13.6,13.6,0,0,1-2.941,1.124l-3.256.82a2.989,2.989,0,0,0-2.264,2.744.628.628,0,0,0,.592.662h.036a.628.628,0,0,0,.627-.593,1.738,1.738,0,0,1,1.317-1.6l3.256-.82a14.7,14.7,0,0,0,3.19-1.216,2.689,2.689,0,0,0,1.509-2.427v-.75A.628.628,0,0,0,34.257,185.333Z" transform="translate(-24.357 -185.333)"/>
          </g>
        </g>
        <g id="Group_1143976" data-name="Group 1143976" transform="translate(14.813 46.563)">
          <g id="Group_1143975" data-name="Group 1143975">
            <path id="Path_979190" data-name="Path 979190" d="M91.58,189.955l-3.256-.82a13.987,13.987,0,0,1-2.91-1.108l-.032-.017a1.441,1.441,0,0,1-.809-1.3v-.75a.628.628,0,1,0-1.256,0v.75a2.688,2.688,0,0,0,1.484,2.414,8.261,8.261,0,0,0,.944.45,15.306,15.306,0,0,0,2.272.779l3.256.82a1.738,1.738,0,0,1,1.317,1.6.628.628,0,0,0,.627.593h.035a.628.628,0,0,0,.592-.662A2.987,2.987,0,0,0,91.58,189.955Z" transform="translate(-83.318 -185.333)"/>
          </g>
        </g>
        <g id="Group_1143980" data-name="Group 1143980" transform="translate(6.028 33.465)">
          <g id="Group_1143979" data-name="Group 1143979">
            <g id="Group_1143978" data-name="Group 1143978">
              <g id="Group_1143977" data-name="Group 1143977">
                <path id="Path_979191" data-name="Path 979191" d="M60.6,133.739a1.725,1.725,0,0,0-2.323-.159,5.413,5.413,0,0,1-6.575,0,1.726,1.726,0,0,0-2.322.164,3.723,3.723,0,0,0-1.033,2.58v5.048a6.643,6.643,0,1,0,13.285,0v-5.048A3.722,3.722,0,0,0,60.6,133.739Zm-.224,7.627a5.386,5.386,0,1,1-10.773,0v-5.048a2.475,2.475,0,0,1,.688-1.715.464.464,0,0,1,.337-.144.485.485,0,0,1,.3.1,6.669,6.669,0,0,0,8.124,0,.474.474,0,0,1,.638.038,2.471,2.471,0,0,1,.686,1.713Z" transform="translate(-48.35 -133.202)"/>
              </g>
            </g>
          </g>
        </g>
        <g id="Group_1143982" data-name="Group 1143982" transform="translate(18.443 36.418)">
          <g id="Group_1143981" data-name="Group 1143981">
            <path id="Path_979192" data-name="Path 979192" d="M98.394,144.953a.628.628,0,0,0,0,1.256,1.883,1.883,0,1,1,0,3.766.628.628,0,0,0,0,1.256,3.139,3.139,0,0,0,0-6.278Z" transform="translate(-97.766 -144.953)"/>
          </g>
        </g>
        <g id="Group_1143984" data-name="Group 1143984" transform="translate(3.131 36.418)">
          <g id="Group_1143983" data-name="Group 1143983">
            <path id="Path_979193" data-name="Path 979193" d="M39.957,149.975a1.883,1.883,0,0,1,0-3.766.628.628,0,1,0,0-1.256,3.139,3.139,0,0,0,0,6.278.628.628,0,1,0,0-1.256Z" transform="translate(-36.818 -144.953)"/>
          </g>
        </g>
        <g id="Group_1143986" data-name="Group 1143986" transform="translate(4.378 27.374)">
          <g id="Group_1143985" data-name="Group 1143985">
            <path id="Path_979194" data-name="Path 979194" d="M56.307,112.882a3.636,3.636,0,0,0-1.321-2.673c-1.94-1.61-5.274-1.325-7.089-1.011a7.351,7.351,0,0,0-6.114,7.259v2.41a.628.628,0,1,0,1.256,0v-2.41a6.1,6.1,0,0,1,5.072-6.021c2.726-.47,4.939-.2,6.073.74a2.451,2.451,0,0,1,.877,1.972,1,1,0,0,0,1.007.976c.662,0,1.058,1.043,1.058,2.79v1.921a.628.628,0,0,0,1.256,0v-1.921C58.381,113.7,57.175,112.984,56.307,112.882Z" transform="translate(-41.782 -108.955)"/>
          </g>
        </g>
        <g id="Group_1143988" data-name="Group 1143988" transform="translate(45.16 36.785)">
          <g id="Group_1143987" data-name="Group 1143987">
            <path id="Path_979195" data-name="Path 979195" d="M204.733,146.414a.628.628,0,0,0,0,1.256,1.71,1.71,0,1,1,0,3.42.628.628,0,1,0,0,1.256,2.966,2.966,0,1,0,0-5.932Z" transform="translate(-204.105 -146.414)"/>
          </g>
        </g>
        <g id="Group_1143992" data-name="Group 1143992" transform="translate(33.601 34.827)">
          <g id="Group_1143991" data-name="Group 1143991">
            <g id="Group_1143990" data-name="Group 1143990">
              <g id="Group_1143989" data-name="Group 1143989">
                <path id="Path_979196" data-name="Path 979196" d="M169.723,139.912a4.1,4.1,0,0,1-1.763-1.029,1.015,1.015,0,0,0-.738-.26.988.988,0,0,0-.694.346h0a7.885,7.885,0,0,1-5.727,2.839,6.925,6.925,0,0,1-1.9-.273.628.628,0,0,0-.8.6v3.335a6.228,6.228,0,1,0,12.456,0v-4.524A1.064,1.064,0,0,0,169.723,139.912Zm-.425,5.563a4.972,4.972,0,0,1-9.944,0v-2.543a8.737,8.737,0,0,0,7.954-2.95A5.255,5.255,0,0,0,169.3,141.1Z" transform="translate(-158.098 -138.621)"/>
              </g>
            </g>
          </g>
        </g>
        <g id="Group_1143994" data-name="Group 1143994" transform="translate(30.903 37.227)">
          <g id="Group_1143993" data-name="Group 1143993">
            <path id="Path_979197" data-name="Path 979197" d="M150.858,148.688a8.574,8.574,0,0,1-1.1-.4,1.337,1.337,0,0,0-1.458.249,2.964,2.964,0,0,0,2.029,5.126.628.628,0,0,0,0-1.256,1.712,1.712,0,0,1-1.71-1.71,1.691,1.691,0,0,1,.54-1.244.083.083,0,0,1,.091-.017,9.789,9.789,0,0,0,1.266.459.628.628,0,0,0,.344-1.208Z" transform="translate(-147.361 -148.173)"/>
          </g>
        </g>
        <g id="Group_1143996" data-name="Group 1143996" transform="translate(31.586 28.488)">
          <g id="Group_1143995" data-name="Group 1143995">
            <path id="Path_979198" data-name="Path 979198" d="M158.32,113.39a8.252,8.252,0,0,0-8.243,8.243v1.324a.628.628,0,1,0,1.256,0v-1.324a6.987,6.987,0,0,1,13.974,0v1.3a.628.628,0,1,0,1.256,0v-1.3A8.252,8.252,0,0,0,158.32,113.39Z" transform="translate(-150.077 -113.39)"/>
          </g>
        </g>
        <g id="Group_1143998" data-name="Group 1143998" transform="translate(27.579 46.113)">
          <g id="Group_1143997" data-name="Group 1143997">
            <path id="Path_979199" data-name="Path 979199" d="M143.716,183.542a.628.628,0,0,0-.628.628v1.559a.923.923,0,0,1-.518.833l-1.385.683a4.271,4.271,0,0,1-.845.311l-.6.151-2.294.579-1.112.281a2.911,2.911,0,0,0-2.206,2.673.628.628,0,0,0,.592.662h.036a.628.628,0,0,0,.627-.593,1.661,1.661,0,0,1,1.259-1.525l1.114-.281,2.293-.579.6-.151a5.522,5.522,0,0,0,1.093-.4l1.385-.683a2.172,2.172,0,0,0,1.219-1.96V184.17A.628.628,0,0,0,143.716,183.542Z" transform="translate(-134.13 -183.542)"/>
          </g>
        </g>
        <g id="Group_1144000" data-name="Group 1144000" transform="translate(41.864 46.113)">
          <g id="Group_1143999" data-name="Group 1143999">
            <path id="Path_979200" data-name="Path 979200" d="M199,188.567l-4-1.011a4.286,4.286,0,0,1-.844-.31l-1.385-.683a.923.923,0,0,1-.518-.833v-1.559a.628.628,0,0,0-1.256,0v1.559a2.171,2.171,0,0,0,1.219,1.96l1.385.683a5.55,5.55,0,0,0,1.093.4l4,1.011a1.661,1.661,0,0,1,1.258,1.525.628.628,0,0,0,.627.593h.036a.628.628,0,0,0,.592-.662A2.911,2.911,0,0,0,199,188.567Z" transform="translate(-190.988 -183.543)"/>
          </g>
        </g>
        <g id="Group_1144002" data-name="Group 1144002" transform="translate(45.033 40.44)">
          <g id="Group_1144001" data-name="Group 1144001">
            <path id="Path_979201" data-name="Path 979201" d="M206.769,166.089a4.765,4.765,0,0,0,.164-4.775.628.628,0,0,0-1.127.555,3.491,3.491,0,0,1-.1,3.544,1.28,1.28,0,0,0-.059,1.292,2.577,2.577,0,0,1-.02,2.653A3.217,3.217,0,0,1,204,170.6a.628.628,0,1,0,.451,1.172,4.437,4.437,0,0,0,2.24-1.744,3.847,3.847,0,0,0,.066-3.914.053.053,0,0,1,.01-.026Z" transform="translate(-203.599 -160.964)"/>
          </g>
        </g>
        <g id="Group_1144004" data-name="Group 1144004" transform="translate(30.725 40.482)">
          <g id="Group_1144003" data-name="Group 1144003">
            <path id="Path_979202" data-name="Path 979202" d="M150.135,170.72a3.211,3.211,0,0,1-1.616-1.238,2.575,2.575,0,0,1-.019-2.653,1.282,1.282,0,0,0-.059-1.292,3.484,3.484,0,0,1-.114-3.507.628.628,0,0,0-1.132-.545,4.713,4.713,0,0,0,.186,4.728.071.071,0,0,1,.011.023,3.849,3.849,0,0,0,.064,3.917,4.434,4.434,0,0,0,2.224,1.738.628.628,0,1,0,.454-1.171Z" transform="translate(-146.651 -161.13)"/>
          </g>
        </g>
        <g id="Group_1144008" data-name="Group 1144008" transform="translate(10.395 10.38)">
          <g id="Group_1144007" data-name="Group 1144007">
            <g id="Group_1144006" data-name="Group 1144006">
              <g id="Group_1144005" data-name="Group 1144005">
                <path id="Path_979203" data-name="Path 979203" d="M69.948,41.314H66.36a.628.628,0,0,0-.628.628V55.515a.628.628,0,0,0,.628.628h3.588a.628.628,0,0,0,.628-.628V41.942A.628.628,0,0,0,69.948,41.314ZM69.32,54.887H66.988V42.57H69.32Z" transform="translate(-65.732 -41.314)"/>
              </g>
            </g>
          </g>
        </g>
        <g id="Group_1144012" data-name="Group 1144012" transform="translate(3.956 16.642)">
          <g id="Group_1144011" data-name="Group 1144011">
            <g id="Group_1144010" data-name="Group 1144010">
              <g id="Group_1144009" data-name="Group 1144009">
                <path id="Path_979204" data-name="Path 979204" d="M44.318,66.241H40.73a.628.628,0,0,0-.628.628v7.31a.628.628,0,0,0,.628.628h3.588a.628.628,0,0,0,.628-.628v-7.31A.628.628,0,0,0,44.318,66.241Zm-.628,7.31H41.358V67.5H43.69Z" transform="translate(-40.102 -66.241)"/>
              </g>
            </g>
          </g>
        </g>
        <g id="Group_1144016" data-name="Group 1144016" transform="translate(16.834 4.117)">
          <g id="Group_1144015" data-name="Group 1144015">
            <g id="Group_1144014" data-name="Group 1144014">
              <g id="Group_1144013" data-name="Group 1144013">
                <path id="Path_979205" data-name="Path 979205" d="M95.578,16.387H91.99a.628.628,0,0,0-.628.628V36.85a.628.628,0,0,0,.628.628h3.588a.628.628,0,0,0,.628-.628V17.015A.628.628,0,0,0,95.578,16.387ZM94.95,36.222H92.618V17.643H94.95Z" transform="translate(-91.362 -16.387)"/>
              </g>
            </g>
          </g>
        </g>
        <g id="Group_1144020" data-name="Group 1144020" transform="translate(37.529 10.38)">
          <g id="Group_1144019" data-name="Group 1144019">
            <g id="Group_1144018" data-name="Group 1144018">
              <g id="Group_1144017" data-name="Group 1144017">
                <path id="Path_979206" data-name="Path 979206" d="M177.948,41.314H174.36a.628.628,0,0,0-.628.628V55.515a.628.628,0,0,0,.628.628h3.588a.628.628,0,0,0,.628-.628V41.942A.628.628,0,0,0,177.948,41.314Zm-.628,13.573h-2.331V42.57h2.331Z" transform="translate(-173.732 -41.314)"/>
              </g>
            </g>
          </g>
        </g>
        <g id="Group_1144024" data-name="Group 1144024" transform="translate(31.089 16.642)">
          <g id="Group_1144023" data-name="Group 1144023">
            <g id="Group_1144022" data-name="Group 1144022">
              <g id="Group_1144021" data-name="Group 1144021">
                <path id="Path_979207" data-name="Path 979207" d="M152.318,66.241H148.73a.628.628,0,0,0-.628.628v7.31a.628.628,0,0,0,.628.628h3.588a.628.628,0,0,0,.628-.628v-7.31A.628.628,0,0,0,152.318,66.241Zm-.628,7.31h-2.332V67.5h2.332Z" transform="translate(-148.102 -66.241)"/>
              </g>
            </g>
          </g>
        </g>
        <g id="Group_1144028" data-name="Group 1144028" transform="translate(43.968 4.117)">
          <g id="Group_1144027" data-name="Group 1144027">
            <g id="Group_1144026" data-name="Group 1144026">
              <g id="Group_1144025" data-name="Group 1144025">
                <path id="Path_979208" data-name="Path 979208" d="M203.578,16.387H199.99a.628.628,0,0,0-.628.628V36.85a.628.628,0,0,0,.628.628h3.588a.628.628,0,0,0,.628-.628V17.015A.628.628,0,0,0,203.578,16.387Zm-.628,19.835h-2.332V17.643h2.332Z" transform="translate(-199.362 -16.387)"/>
              </g>
            </g>
          </g>
        </g>
        <g id="Group_1144030" data-name="Group 1144030" transform="translate(13.041 49.15)">
          <g id="Group_1144029" data-name="Group 1144029">
            <path id="Path_979209" data-name="Path 979209" d="M82.677,197.067a.628.628,0,0,0-.886.06l-2.819,3.227-1.409-1.231,2.142-2.453a.628.628,0,0,0-.946-.826l-2.213,2.533a1.149,1.149,0,0,0,.11,1.621l1.57,1.372a1.141,1.141,0,0,0,.754.283c.026,0,.053,0,.079,0a1.14,1.14,0,0,0,.788-.39l2.889-3.308a.628.628,0,0,0-.06-.886Z" transform="translate(-76.262 -195.629)"/>
          </g>
        </g>
        <g id="Group_1144032" data-name="Group 1144032" transform="translate(5.686 49.103)">
          <g id="Group_1144031" data-name="Group 1144031">
            <path id="Path_979210" data-name="Path 979210" d="M53.321,198.24l-2.253-2.58a.628.628,0,1,0-.946.826l2.183,2.5L50.9,200.217l-2.8-3.21a.628.628,0,1,0-.946.826l2.874,3.291a1.141,1.141,0,0,0,.788.39l.079,0a1.141,1.141,0,0,0,.754-.284l1.571-1.372A1.151,1.151,0,0,0,53.321,198.24Z" transform="translate(-46.991 -195.446)"/>
          </g>
        </g>
        <g id="Group_1144034" data-name="Group 1144034" transform="translate(11.3 51.965)">
          <g id="Group_1144033" data-name="Group 1144033">
            <path id="Path_979211" data-name="Path 979211" d="M71.51,206.836H69.961a.628.628,0,1,0,0,1.256H71.51a.628.628,0,1,0,0-1.256Z" transform="translate(-69.333 -206.836)"/>
          </g>
        </g>
        <g id="Group_1144036" data-name="Group 1144036" transform="translate(32.445 49.457)">
          <g id="Group_1144035" data-name="Group 1144035">
            <path id="Path_979212" data-name="Path 979212" d="M159.848,199.462l-2.241-2.408a.628.628,0,1,0-.92.855l2.209,2.374-.638.593a1.633,1.633,0,0,1-2.594-.509l-.968-2.091a.628.628,0,0,0-1.14.528l.968,2.091a2.859,2.859,0,0,0,2.065,1.621,2.944,2.944,0,0,0,.569.056,2.855,2.855,0,0,0,1.956-.775l.672-.625a1.21,1.21,0,0,0,.062-1.71Z" transform="translate(-153.499 -196.853)"/>
          </g>
        </g>
        <g id="Group_1144038" data-name="Group 1144038" transform="translate(40.538 49.406)">
          <g id="Group_1144037" data-name="Group 1144037">
            <path id="Path_979213" data-name="Path 979213" d="M191.991,197.885a.628.628,0,0,0-.834.306l-.938,2.026a1.633,1.633,0,0,1-2.594.509l-.638-.593,2.256-2.425a.628.628,0,1,0-.92-.855l-2.288,2.459a1.21,1.21,0,0,0,.062,1.71l.672.625a2.856,2.856,0,0,0,1.956.775,2.944,2.944,0,0,0,.569-.056,2.86,2.86,0,0,0,2.065-1.621l.938-2.026A.628.628,0,0,0,191.991,197.885Z" transform="translate(-185.712 -196.652)"/>
          </g>
        </g>
        <g id="Group_1144040" data-name="Group 1144040" transform="translate(38.088 52.134)">
          <g id="Group_1144039" data-name="Group 1144039">
            <path id="Path_979214" data-name="Path 979214" d="M178.784,207.507h-2.2a.628.628,0,0,0,0,1.256h2.2a.628.628,0,1,0,0-1.256Z" transform="translate(-175.958 -207.507)"/>
          </g>
        </g>
      </g>
    </g>
  </g>
</svg>
