<svg xmlns="http://www.w3.org/2000/svg" xmlns:xlink="http://www.w3.org/1999/xlink" width="108" height="108" viewBox="0 0 108 108">
  <defs>
    <filter id="Fondo" x="0" y="0" width="108" height="108" filterUnits="userSpaceOnUse">
      <feOffset dy="3" input="SourceAlpha"/>
      <feGaussianBlur stdDeviation="3" result="blur"/>
      <feFlood flood-opacity="0.161"/>
      <feComposite operator="in" in2="blur"/>
      <feComposite in="SourceGraphic"/>
    </filter>
  </defs>
  <g id="Group_1144405" data-name="Group 1144405" transform="translate(-745.999 -3295)">
    <g id="Group_1144225" data-name="Group 1144225">
      <g transform="matrix(1, 0, 0, 1, 746, 3295)" filter="url(#Fondo)">
        <g id="Fondo-2" data-name="Fondo" transform="translate(9 6)" fill="#fff4e4">
          <path d="M 45 88.5 C 39.12687683105469 88.5 33.43022537231445 87.35007476806641 28.06830024719238 85.08217620849609 C 22.88852500915527 82.89131164550781 18.23629951477051 79.75458526611328 14.2408504486084 75.75914764404297 C 10.24541282653809 71.76370239257812 7.108687400817871 67.11147308349609 4.917825222015381 61.93170166015625 C 2.649924993515015 56.56977462768555 1.5 50.87312316894531 1.5 45 C 1.5 39.12687683105469 2.649924993515015 33.43022537231445 4.917825222015381 28.06830024719238 C 7.108687400817871 22.88852500915527 10.24541282653809 18.23629951477051 14.2408504486084 14.2408504486084 C 18.23629951477051 10.24541282653809 22.88852500915527 7.108687400817871 28.06830024719238 4.917825222015381 C 33.43022537231445 2.649924993515015 39.12687683105469 1.5 45 1.5 C 50.87312316894531 1.5 56.56977462768555 2.649924993515015 61.93170166015625 4.917825222015381 C 67.11147308349609 7.108687400817871 71.76370239257812 10.24541282653809 75.75914764404297 14.2408504486084 C 79.75458526611328 18.23629951477051 82.89131164550781 22.88852500915527 85.08217620849609 28.06830024719238 C 87.35007476806641 33.43022537231445 88.5 39.12687683105469 88.5 45 C 88.5 50.87312316894531 87.35007476806641 56.56977462768555 85.08217620849609 61.93170166015625 C 82.89131164550781 67.11147308349609 79.75458526611328 71.76370239257812 75.75914764404297 75.75914764404297 C 71.76370239257812 79.75458526611328 67.11147308349609 82.89131164550781 61.93170166015625 85.08217620849609 C 56.56977462768555 87.35007476806641 50.87312316894531 88.5 45 88.5 Z" stroke="none"/>
          <path d="M 45 3 C 39.32871246337891 3 33.82865524291992 4.110054016113281 28.65262985229492 6.299339294433594 C 23.65165710449219 8.414573669433594 19.15968322753906 11.44334411621094 15.301513671875 15.301513671875 C 11.44334411621094 19.15968322753906 8.414573669433594 23.65165710449219 6.299339294433594 28.65262985229492 C 4.110054016113281 33.82865524291992 3 39.32871246337891 3 45 C 3 50.67128753662109 4.110054016113281 56.17134475708008 6.299339294433594 61.34737396240234 C 8.414573669433594 66.34834289550781 11.44334411621094 70.84031677246094 15.301513671875 74.698486328125 C 19.15968322753906 78.55665588378906 23.65165710449219 81.58542633056641 28.65262985229492 83.70066070556641 C 33.82865524291992 85.88994598388672 39.32871246337891 87 45 87 C 50.67128753662109 87 56.17134475708008 85.88994598388672 61.34737396240234 83.70066070556641 C 66.34834289550781 81.58542633056641 70.84031677246094 78.55665588378906 74.698486328125 74.698486328125 C 78.55665588378906 70.84031677246094 81.58542633056641 66.34834289550781 83.70066070556641 61.34737396240234 C 85.88994598388672 56.17134475708008 87 50.67128753662109 87 45 C 87 39.32871246337891 85.88994598388672 33.82865524291992 83.70066070556641 28.65262985229492 C 81.58542633056641 23.65165710449219 78.55665588378906 19.15968322753906 74.698486328125 15.301513671875 C 70.84031677246094 11.44334411621094 66.34834289550781 8.414573669433594 61.34737396240234 6.299339294433594 C 56.17134475708008 4.110054016113281 50.67128753662109 3 45 3 M 45 0 C 69.85281372070312 0 90 20.14718627929688 90 45 C 90 69.85281372070312 69.85281372070312 90 45 90 C 20.14718627929688 90 0 69.85281372070312 0 45 C 0 20.14718627929688 20.14718627929688 0 45 0 Z" stroke="none" fill="#ff9902"/>
        </g>
      </g>
      <g id="Group_1144224" data-name="Group 1144224" transform="translate(772.326 3318.326)">
        <g id="Group_1144223" data-name="Group 1144223" transform="translate(1.86 1.86)">
          <g id="Group_1144201" data-name="Group 1144201" transform="translate(40.863 37.223)">
            <path id="Path_978726" data-name="Path 978726" d="M53.388,45.26l3.425,10.962h-4.3l-3.02-9.646a12.8,12.8,0,0,0,3.9-1.316Z" transform="translate(-49.49 -45.26)" fill="#b27946"/>
          </g>
          <g id="Group_1144202" data-name="Group 1144202" transform="translate(29.255 37.223)">
            <path id="Path_978727" data-name="Path 978727" d="M43.322,46.576,40.3,56.222H36L39.425,45.26A12.8,12.8,0,0,0,43.322,46.576Z" transform="translate(-36 -45.26)" fill="#b27946"/>
          </g>
          <g id="Group_1144203" data-name="Group 1144203" transform="translate(25.814 19.971)">
            <path id="Path_978728" data-name="Path 978728" d="M47.049,43.779a12.792,12.792,0,0,1-4.285,0,12.8,12.8,0,0,1-3.9-1.316v-.009A12.906,12.906,0,0,1,33.076,25.89h4.087l1.325.835A7.742,7.742,0,1,0,50.68,25.89h3.691a3.4,3.4,0,0,0,2.048-.68,12.91,12.91,0,0,1-5.472,17.243v.009A12.8,12.8,0,0,1,47.049,43.779Z" transform="translate(-32 -25.21)" fill="#aab2bd"/>
          </g>
          <g id="Group_1144204" data-name="Group 1144204" transform="translate(30.976 20.651)">
            <path id="Path_978729" data-name="Path 978729" d="M51.518,26a7.747,7.747,0,1,1-12.193.835l2.926,1.824A4.3,4.3,0,1,0,46.6,26.946V26Z" transform="translate(-38 -26)" fill="#ccd1d9"/>
          </g>
          <g id="Group_1144205" data-name="Group 1144205" transform="translate(34.418 21.597)">
            <path id="Path_978730" data-name="Path 978730" d="M47.163,27.1a4.311,4.311,0,1,1-4.354,1.712l2.306,1.437a1.3,1.3,0,0,0,.714.207,1.34,1.34,0,0,0,1.334-1.334Z" transform="translate(-42 -27.1)" fill="#ff826e"/>
          </g>
          <g id="Group_1144206" data-name="Group 1144206" transform="translate(12.046 0)">
            <path id="Path_978731" data-name="Path 978731" d="M52.139,2h-32.7A3.441,3.441,0,0,0,16,5.442V22.651H34.93l1.325.835,2.926,1.824,2.306,1.437a1.3,1.3,0,0,0,.714.207,1.34,1.34,0,0,0,1.334-1.334V22.651h8.6a3.45,3.45,0,0,0,3.442-3.442V5.442A3.441,3.441,0,0,0,52.139,2Z" transform="translate(-16 -2)" fill="#e6e9ed"/>
          </g>
          <g id="Group_1144207" data-name="Group 1144207" transform="translate(36.999 10.325)">
            <path id="Path_978732" data-name="Path 978732" d="M56.186,20.023v.86H45.86v-.86a5.921,5.921,0,0,0-.86-3.1,6.022,6.022,0,0,1,11.186,3.1Z" transform="translate(-45 -14)" fill="#ff826e"/>
          </g>
          <g id="Group_1144208" data-name="Group 1144208" transform="translate(15.548 10.325)">
            <path id="Path_978733" data-name="Path 978733" d="M31.2,16.926a5.921,5.921,0,0,0-.86,3.1v.86H23.159a2.984,2.984,0,0,0-2.71-1.721H20.07A6.028,6.028,0,0,1,26.033,14,6.024,6.024,0,0,1,31.2,16.926Z" transform="translate(-20.07 -14)" fill="#fcd770"/>
          </g>
          <g id="Group_1144209" data-name="Group 1144209" transform="translate(14.628 36.999)">
            <path id="Path_978734" data-name="Path 978734" d="M23.474,45.688l-3.347,7.529L19,47.581,20.721,45Z" transform="translate(-19 -45)" fill="#ff826e"/>
          </g>
          <g id="Group_1144210" data-name="Group 1144210" transform="translate(6.712 36.999)">
            <path id="Path_978735" data-name="Path 978735" d="M12.553,45l1.721,2.581-1.127,5.636L9.8,45.688Z" transform="translate(-9.8 -45)" fill="#ff826e"/>
          </g>
          <g id="Group_1144211" data-name="Group 1144211" transform="translate(10.059 39.581)">
            <path id="Path_978736" data-name="Path 978736" d="M18.259,48l1.127,5.636-2.848,6.41-2.848-6.41L14.817,48Z" transform="translate(-13.69 -48)" fill="#ffeaa7"/>
          </g>
          <g id="Group_1144212" data-name="Group 1144212" transform="translate(12.907 37.688)">
            <path id="Path_978737" data-name="Path 978737" d="M24.744,59.739H17l2.848-6.41L23.2,45.8l1.979.49a6.247,6.247,0,0,1,4.732,6.066v7.383Z" transform="translate(-17 -45.8)" fill="#4fc1e9"/>
          </g>
          <g id="Group_1144213" data-name="Group 1144213" transform="translate(0 37.688)">
            <path id="Path_978738" data-name="Path 978738" d="M7.163,59.739H2V52.357A6.247,6.247,0,0,1,6.732,46.29l1.979-.49,3.347,7.529,2.848,6.41Z" transform="translate(-2 -45.8)" fill="#4fc1e9"/>
          </g>
          <g id="Group_1144214" data-name="Group 1144214" transform="translate(3.442 15.488)">
            <path id="Path_978739" data-name="Path 978739" d="M21.488,28.6H18.451a16.24,16.24,0,0,1-7.288-1.721,3.109,3.109,0,0,0-1.721,2.788v.654h-.86a2.579,2.579,0,0,0-1.988.929l-.361-1.1A4.41,4.41,0,0,1,6,28.742a4.488,4.488,0,0,1,1.308-3.166l.413-.413A5.17,5.17,0,0,1,12.884,20h5.6a2.984,2.984,0,0,1,2.71,1.721H21.2A3.011,3.011,0,0,1,21.488,23a3.362,3.362,0,0,1-.026.422l.68.344a5,5,0,0,1,1.7,1.394h.009a5.041,5.041,0,0,1,.542,5.369l-.258.516a2.568,2.568,0,0,0-1.79-.723h-.86Z" transform="translate(-6 -20)" fill="#b27946"/>
          </g>
          <g id="Group_1144215" data-name="Group 1144215" transform="translate(25.814 10.325)">
            <path id="Path_978740" data-name="Path 978740" d="M44.046,20.023v.86H32v-.86a5.921,5.921,0,0,1,.86-3.1,6.021,6.021,0,0,1,9.422-1.162,6.061,6.061,0,0,1,1.764,4.259Z" transform="translate(-32 -14)" fill="#5cd6b3"/>
          </g>
          <g id="Group_1144216" data-name="Group 1144216" transform="translate(38.72 3.442)">
            <circle id="Ellipse_11563" data-name="Ellipse 11563" cx="3.5" cy="3.5" r="3.5" transform="translate(0.093 0.372)" fill="#f0d0b4"/>
          </g>
          <g id="Group_1144217" data-name="Group 1144217" transform="translate(28.395 3.442)">
            <ellipse id="Ellipse_11564" data-name="Ellipse 11564" cx="3" cy="3.5" rx="3" ry="3.5" transform="translate(0.419 0.372)" fill="#f0d0b4"/>
          </g>
          <g id="Group_1144218" data-name="Group 1144218" transform="translate(18.069 3.442)">
            <circle id="Ellipse_11565" data-name="Ellipse 11565" cx="3.5" cy="3.5" r="3.5" transform="translate(-0.256 0.372)" fill="#f0d0b4"/>
          </g>
          <g id="Group_1144219" data-name="Group 1144219" transform="translate(18.68 25.814)">
            <path id="Path_978741" data-name="Path 978741" d="M26.61,32.723a2.582,2.582,0,0,1-1.79,4.44H23.71a5.944,5.944,0,0,0,.25-1.721V32h.86A2.568,2.568,0,0,1,26.61,32.723Z" transform="translate(-23.71 -32)" fill="#f0d0b4"/>
          </g>
          <g id="Group_1144220" data-name="Group 1144220" transform="translate(9.465 34.659)">
            <path id="Path_978742" data-name="Path 978742" d="M13.783,42.28a6.015,6.015,0,0,0,5.318,0l.783,2.34L18.163,47.2H14.721L13,44.62Z" transform="translate(-13 -42.28)" fill="#f0d0b4"/>
          </g>
          <g id="Group_1144221" data-name="Group 1144221" transform="translate(6.884 22.372)">
            <path id="Path_978743" data-name="Path 978743" d="M22.046,31.442v3.442a6.006,6.006,0,0,1-1.764,4.259A6.026,6.026,0,0,1,10.25,36.6,5.944,5.944,0,0,1,10,34.884v-4.1A3.109,3.109,0,0,1,11.721,28a16.24,16.24,0,0,0,7.288,1.721h3.037Z" transform="translate(-10 -28)" fill="#f0d0b4"/>
          </g>
          <g id="Group_1144222" data-name="Group 1144222" transform="translate(3.442 25.814)">
            <path id="Path_978744" data-name="Path 978744" d="M9.691,37.163H8.581a2.581,2.581,0,1,1,0-5.163h.86v3.442A5.944,5.944,0,0,0,9.691,37.163Z" transform="translate(-6 -32)" fill="#f0d0b4"/>
          </g>
        </g>
        <path id="Path_978745" data-name="Path 978745" d="M54.348,5.3a4.307,4.307,0,0,0-4.3-4.3h-32.7a4.307,4.307,0,0,0-4.3,4.3V16.488h-.86a6.031,6.031,0,0,0-6.012,5.656l-.168.169a5.339,5.339,0,0,0-1.291,5.463l.235.7a3.41,3.41,0,0,0-.509,1.776A3.445,3.445,0,0,0,7.884,33.7H8.39a6.923,6.923,0,0,0,2.677,3.214l-.41,1.229L6.386,39.208A7.109,7.109,0,0,0,1,46.106v8.242H28.534V50.906H54.348V49.185h-3.67L47.642,39.47a13.758,13.758,0,0,0,6.706-11.8,13.615,13.615,0,0,0-1.218-5.616,4.281,4.281,0,0,0,1.218-2.988Zm-39.581,0a2.585,2.585,0,0,1,2.581-2.581h32.7A2.585,2.585,0,0,1,52.627,5.3V19.069a2.585,2.585,0,0,1-2.581,2.581H40.581v3.826a.492.492,0,0,1-.73.4l-6.767-4.23H23.541a5.921,5.921,0,0,0-1.709-1.3l-.191-.1c0-.11-.021-.216-.033-.324h29.3V18.209a6.888,6.888,0,0,0-4.04-6.261,4.3,4.3,0,1,0-5.679.007,6.931,6.931,0,0,0-2.325,1.72,6.9,6.9,0,0,0-2.322-1.727,4.3,4.3,0,1,0-5.687,0,6.911,6.911,0,0,0-2.322,1.727,6.931,6.931,0,0,0-2.325-1.72,4.3,4.3,0,1,0-5.674,0,6.924,6.924,0,0,0-3.822,4.537H14.767Zm32.7,22.372a6.884,6.884,0,1,1-13-3.132l1.463.915a5.163,5.163,0,1,0,7.486-2.085h2.534A6.863,6.863,0,0,1,47.464,27.674Zm-5.163-2.2V24.7a3.453,3.453,0,1,1-4.9,1.679l1.538.961A2.2,2.2,0,0,0,42.3,25.476ZM21.651,31.116V28.534a1.721,1.721,0,0,1,0,3.442h-.059A6.924,6.924,0,0,0,21.651,31.116ZM20.79,8.744a2.581,2.581,0,1,1,2.581,2.581A2.585,2.585,0,0,1,20.79,8.744Zm10.325,0A2.581,2.581,0,1,1,33.7,11.325,2.585,2.585,0,0,1,31.116,8.744Zm10.325,0a2.581,2.581,0,1,1,2.581,2.581A2.585,2.585,0,0,1,41.441,8.744Zm-1.579,6.422a5.113,5.113,0,0,1,4.16-2.119,5.168,5.168,0,0,1,5.163,5.163h-8.6A6.836,6.836,0,0,0,39.862,15.166Zm-1,3.043H28.534a5.163,5.163,0,1,1,10.325,0Zm-12.046,0H21a3.86,3.86,0,0,0-2.521-1.651,5.193,5.193,0,0,1,4.893-3.511,5.113,5.113,0,0,1,4.16,2.119A6.836,6.836,0,0,0,26.814,18.209ZM7.884,31.976a1.721,1.721,0,1,1,0-3.442v2.581a6.924,6.924,0,0,0,.059.86ZM7.9,26.814H7.884A3.4,3.4,0,0,0,6.34,27.2a3.6,3.6,0,0,1,.882-3.667l.662-.662v-.356a4.307,4.307,0,0,1,4.3-4.3h5.6a2.14,2.14,0,0,1,.677,4.17l-.53.176.544,1.632.53-.176a3.85,3.85,0,0,0,2.258-2,4.145,4.145,0,0,1,2.1,3.614,4.19,4.19,0,0,1-.288,1.511,3.418,3.418,0,0,0-1.432-.321V25.093h-3.9a15.508,15.508,0,0,1-6.905-1.631l-.385-.192-.385.193A3.942,3.942,0,0,0,7.9,26.814Zm1.707,4.3v-4.1a2.239,2.239,0,0,1,.907-1.807,17.249,17.249,0,0,0,7.243,1.6H19.93v4.3a5.163,5.163,0,1,1-10.325,0Zm2.528,10.506-.527,2.634L9.774,40.134l1.172-.293Zm1.619.68h2.032l.935,4.677-1.951,4.39-1.952-4.39Zm4.177,1.955L17.4,41.623l1.187-1.78,1.172.293ZM14.767,38a6.868,6.868,0,0,0,2.134-.342l.359,1.076-1.232,1.847H13.507l-1.232-1.848.359-1.076A6.843,6.843,0,0,0,14.767,38ZM2.721,46.106A5.389,5.389,0,0,1,6.8,40.878l1.276-.319,5.363,12.069H7.884v-4.6a4.275,4.275,0,0,0-1.26-3.043l-.713-.712L4.694,45.491l.713.712a2.567,2.567,0,0,1,.755,1.826v4.6H2.721Zm24.093,6.521H23.372v-4.6a2.566,2.566,0,0,1,.755-1.826l.713-.712-1.217-1.217-.713.712a4.275,4.275,0,0,0-1.26,3.043v4.6H16.091l5.364-12.069,1.276.319a5.389,5.389,0,0,1,4.082,5.228Zm.3-10.787a7.12,7.12,0,0,0-3.964-2.632L18.877,38.14l-.41-1.229A6.912,6.912,0,0,0,21.144,33.7h.507a3.433,3.433,0,0,0,2.81-5.417l.009-.018a5.875,5.875,0,0,0,.172-4.89h2.864a13.727,13.727,0,0,0,6.014,16.1l-3.036,9.715H28.534v-3.08a7.154,7.154,0,0,0-1.421-4.265Zm15.011-.491,2.449,7.836H36.588l2.449-7.836a12.987,12.987,0,0,0,3.087,0Zm-7.339,7.836h-2.5l2.783-8.9a13.647,13.647,0,0,0,2.263.756Zm14.09,0h-2.5L43.83,41.038a13.673,13.673,0,0,0,2.263-.756ZM40.581,39.72A12.017,12.017,0,0,1,29.342,23.372h3.248l.416.26a8.6,8.6,0,1,0,15.019-.26h2.02a4.28,4.28,0,0,0,1.639-.328,11.9,11.9,0,0,1,.942,4.63A12.06,12.06,0,0,1,40.581,39.72Z"/>
      </g>
    </g>
  </g>
</svg>
