<svg xmlns="http://www.w3.org/2000/svg" xmlns:xlink="http://www.w3.org/1999/xlink" width="108" height="108" viewBox="0 0 108 108">
  <defs>
    <filter id="Path_904820" x="0" y="0" width="108" height="108" filterUnits="userSpaceOnUse">
      <feOffset dy="3" input="SourceAlpha"/>
      <feGaussianBlur stdDeviation="3" result="blur"/>
      <feFlood flood-opacity="0.161"/>
      <feComposite operator="in" in2="blur"/>
      <feComposite in="SourceGraphic"/>
    </filter>
  </defs>
  <g id="Group_1143892" data-name="Group 1143892" transform="translate(-201 -10126)">
    <g transform="matrix(1, 0, 0, 1, 201, 10126)" filter="url(#Path_904820)">
      <g id="Path_904820-2" data-name="Path 904820" transform="translate(9 6)" fill="#ecf4fa">
        <path d="M 45 88.5 C 39.12687683105469 88.5 33.43022537231445 87.35007476806641 28.06830024719238 85.08217620849609 C 22.88852500915527 82.89131164550781 18.23629951477051 79.75458526611328 14.2408504486084 75.75914764404297 C 10.24541282653809 71.76370239257812 7.108687400817871 67.11147308349609 4.917825222015381 61.93170166015625 C 2.649924993515015 56.56977462768555 1.5 50.87312316894531 1.5 45 C 1.5 39.12687683105469 2.649924993515015 33.43022537231445 4.917825222015381 28.06830024719238 C 7.108687400817871 22.88852500915527 10.24541282653809 18.23629951477051 14.2408504486084 14.2408504486084 C 18.23629951477051 10.24541282653809 22.88852500915527 7.108687400817871 28.06830024719238 4.917825222015381 C 33.43022537231445 2.649924993515015 39.12687683105469 1.5 45 1.5 C 50.87312316894531 1.5 56.56977462768555 2.649924993515015 61.93170166015625 4.917825222015381 C 67.11147308349609 7.108687400817871 71.76370239257812 10.24541282653809 75.75914764404297 14.2408504486084 C 79.75458526611328 18.23629951477051 82.89131164550781 22.88852500915527 85.08217620849609 28.06830024719238 C 87.35007476806641 33.43022537231445 88.5 39.12687683105469 88.5 45 C 88.5 50.87312316894531 87.35007476806641 56.56977462768555 85.08217620849609 61.93170166015625 C 82.89131164550781 67.11147308349609 79.75458526611328 71.76370239257812 75.75914764404297 75.75914764404297 C 71.76370239257812 79.75458526611328 67.11147308349609 82.89131164550781 61.93170166015625 85.08217620849609 C 56.56977462768555 87.35007476806641 50.87312316894531 88.5 45 88.5 Z" stroke="none"/>
        <path d="M 45 3 C 39.32871246337891 3 33.82865524291992 4.110054016113281 28.65262985229492 6.299339294433594 C 23.65165710449219 8.414573669433594 19.15968322753906 11.44334411621094 15.301513671875 15.301513671875 C 11.44334411621094 19.15968322753906 8.414573669433594 23.65165710449219 6.299339294433594 28.65262985229492 C 4.110054016113281 33.82865524291992 3 39.32871246337891 3 45 C 3 50.67128753662109 4.110054016113281 56.17134475708008 6.299339294433594 61.34737396240234 C 8.414573669433594 66.34834289550781 11.44334411621094 70.84031677246094 15.301513671875 74.698486328125 C 19.15968322753906 78.55665588378906 23.65165710449219 81.58542633056641 28.65262985229492 83.70066070556641 C 33.82865524291992 85.88994598388672 39.32871246337891 87 45 87 C 50.67128753662109 87 56.17134475708008 85.88994598388672 61.34737396240234 83.70066070556641 C 66.34834289550781 81.58542633056641 70.84031677246094 78.55665588378906 74.698486328125 74.698486328125 C 78.55665588378906 70.84031677246094 81.58542633056641 66.34834289550781 83.70066070556641 61.34737396240234 C 85.88994598388672 56.17134475708008 87 50.67128753662109 87 45 C 87 39.32871246337891 85.88994598388672 33.82865524291992 83.70066070556641 28.65262985229492 C 81.58542633056641 23.65165710449219 78.55665588378906 19.15968322753906 74.698486328125 15.301513671875 C 70.84031677246094 11.44334411621094 66.34834289550781 8.414573669433594 61.34737396240234 6.299339294433594 C 56.17134475708008 4.110054016113281 50.67128753662109 3 45 3 M 45 0 C 69.85281372070312 0 90 20.14718627929688 90 45 C 90 69.85281372070312 69.85281372070312 90 45 90 C 20.14718627929688 90 0 69.85281372070312 0 45 C 0 20.14718627929688 20.14718627929688 0 45 0 Z" stroke="none" fill="#2a5673"/>
      </g>
    </g>
    <g id="Group_1143891" data-name="Group 1143891" transform="translate(229.071 10123.544)">
      <g id="Group_1143888" data-name="Group 1143888" transform="translate(0.76 31.387)">
        <g id="Group_1143887" data-name="Group 1143887" transform="translate(0 0)">
          <g id="Group_1143881" data-name="Group 1143881">
            <g id="Group_1143879" data-name="Group 1143879" transform="translate(0 0.324)">
              <g id="Group_1143878" data-name="Group 1143878">
                <g id="Group_1143877" data-name="Group 1143877">
                  <path id="Path_979102" data-name="Path 979102" d="M9.019,85.129A1.519,1.519,0,0,1,7.5,83.61V47.51l1.013-4.673a1.519,1.519,0,0,1,1.519-1.519l44.57.313c.839,0,2.223.68,2.223,1.118V81.5c0,1.24-1.5,3.328-2.343,3.328l-.919.3Z" transform="translate(-7.5 -41.317)" fill="#f9f7f8"/>
                </g>
              </g>
            </g>
            <path id="Path_979103" data-name="Path 979103" d="M57.439,40v4.3l-2.7.323L7.5,44.631v-5a1.519,1.519,0,0,1,1.519-1.519H53.292l2.366.105A2,2,0,0,1,57.439,40Z" transform="translate(-7.5 -38.114)" fill="#8abbd5"/>
            <g id="Group_1143880" data-name="Group 1143880" transform="translate(45.792)">
              <path id="Path_979104" data-name="Path 979104" d="M465.329,93.7l1.24.877v36.11a1.519,1.519,0,0,1-1.519,1.519h-2.755l.32-.19a1.749,1.749,0,0,0,.858-1.5V94.576Z" transform="translate(-462.023 -88.069)" fill="#efedef"/>
              <path id="Path_979105" data-name="Path 979105" d="M464.167,39.633v4.988h-3.1V40.083a1.99,1.99,0,0,0-1.044-1.751l-.4-.218h3.026A1.519,1.519,0,0,1,464.167,39.633Z" transform="translate(-459.622 -38.114)" fill="#6cabca"/>
            </g>
          </g>
          <g id="Group_1143886" data-name="Group 1143886" transform="translate(5.374 10.004)">
            <g id="Group_1143885" data-name="Group 1143885">
              <g id="Group_1143882" data-name="Group 1143882" transform="translate(0 0.003)">
                <path id="Path_979106" data-name="Path 979106" d="M164.029,144.009h3.421a.2.2,0,0,0,.2-.205,7.092,7.092,0,0,0-6.883-6.883.2.2,0,0,0-.205.2v3.421a.2.2,0,0,0,.189.2,3.269,3.269,0,0,1,3.074,3.074A.2.2,0,0,0,164.029,144.009Z" transform="translate(-150.435 -136.92)" fill="#fea3ce"/>
                <path id="Path_979107" data-name="Path 979107" d="M132.752,237.119a.2.2,0,0,0-.2-.206h-3.421a.2.2,0,0,0-.2.19,3.268,3.268,0,0,1-3.263,3.078l-.552,1.787.552,2.035A7.09,7.09,0,0,0,132.752,237.119Z" transform="translate(-118.573 -226.785)" fill="#8abbd5"/>
                <path id="Path_979108" data-name="Path 979108" d="M67.415,235.454a3.28,3.28,0,0,1-3.029-3.029c-.005-.078-.007-.155-.007-.232l-1.967-.532-1.854.532c0,.057,0,.114,0,.171a7.117,7.117,0,0,0,6.919,6.919c.057,0,.114,0,.171,0v-3.822C67.57,235.461,67.493,235.459,67.415,235.454Z" transform="translate(-60.557 -222.065)" fill="#bbec6c"/>
                <path id="Path_979109" data-name="Path 979109" d="M67.463,170.748a.2.2,0,0,0,.19-.2v-3.421a.2.2,0,0,0-.206-.2,7.09,7.09,0,0,0-6.883,7.089h3.822A3.269,3.269,0,0,1,67.463,170.748Z" transform="translate(-60.563 -163.883)" fill="#fce459"/>
              </g>
              <g id="Group_1143883" data-name="Group 1143883" transform="translate(19.192)">
                <path id="Path_979110" data-name="Path 979110" d="M284.182,196.164l-6.329-.849v-8.191a.506.506,0,0,1,.506-.506h3.167Z" transform="translate(-275.036 -181.581)" fill="#fea3ce"/>
                <path id="Path_979111" data-name="Path 979111" d="M316.773,196.164l-1.339-9.546h-1.317v9.19Z" transform="translate(-307.627 -181.581)" fill="#fe7ab6"/>
                <path id="Path_979112" data-name="Path 979112" d="M333.453,174.118l-6.334-1.148V162.261a.506.506,0,0,1,.506-.506h2.761Z" transform="translate(-319.313 -159.237)" fill="#fce459"/>
                <path id="Path_979113" data-name="Path 979113" d="M361.408,161.755h-2.026V172.97l3.371,1.148Z" transform="translate(-348.308 -159.237)" fill="#f9d608"/>
                <path id="Path_979114" data-name="Path 979114" d="M381.051,151.474l-4.668-.849V137.4a.506.506,0,0,1,.506-.506h2.03l1.621.2a.629.629,0,0,1,.629.629Z" transform="translate(-363.588 -136.891)" fill="#bbec6c"/>
                <path id="Path_979115" data-name="Path 979115" d="M401.457,136.891h-2.026a.63.63,0,0,1,.629.629v13.1l2.026.849V137.521A.629.629,0,0,0,401.457,136.891Z" transform="translate(-384.301 -136.891)" fill="#a2e62e"/>
                <path id="Path_979116" data-name="Path 979116" d="M269.937,275.736l-1.823.2H250.55a.506.506,0,0,1-.506-.506v-2.48a.506.506,0,0,1,.506-.506h17.564l1.823.2a.506.506,0,0,1,.506.506v2.075A.506.506,0,0,1,269.937,275.736Z" transform="translate(-250.044 -258.717)" fill="#918291"/>
                <path id="Path_979117" data-name="Path 979117" d="M428.684,272.446h-2.228a.506.506,0,0,1,.506.506v2.48a.506.506,0,0,1-.506.506h2.228a.506.506,0,0,0,.506-.506v-2.48A.506.506,0,0,0,428.684,272.446Z" transform="translate(-408.588 -258.717)" fill="#7a6d79"/>
              </g>
              <g id="Group_1143884" data-name="Group 1143884" transform="translate(19.192 21.417)">
                <circle id="Ellipse_11593" data-name="Ellipse 11593" cx="1.413" cy="1.413" r="1.413" transform="translate(0 5.925)" fill="#bbec6c"/>
                <circle id="Ellipse_11594" data-name="Ellipse 11594" cx="1.413" cy="1.413" r="1.413" transform="translate(5.925 0)" fill="#bbec6c"/>
                <circle id="Ellipse_11595" data-name="Ellipse 11595" cx="1.413" cy="1.413" r="1.413" transform="translate(11.851 5.925)" fill="#bbec6c"/>
                <circle id="Ellipse_11596" data-name="Ellipse 11596" cx="1.413" cy="1.413" r="1.413" transform="translate(17.776 0)" fill="#bbec6c"/>
              </g>
            </g>
          </g>
        </g>
      </g>
      <g id="Group_1143890" data-name="Group 1143890" transform="translate(0 30.629)">
        <path id="Path_979118" data-name="Path 979118" d="M49.445,30.629H43.869a.76.76,0,1,0,0,1.519h5.577a.893.893,0,0,1,.892.892v4.035H1.519V33.041a.893.893,0,0,1,.892-.892H40.324a.76.76,0,0,0,0-1.519H2.412A2.414,2.414,0,0,0,0,33.041V45.164a.76.76,0,1,0,1.519,0v-6.57H50.338V73.87a.893.893,0,0,1-.892.892H18.553a.76.76,0,1,0,0,1.519H49.445a2.414,2.414,0,0,0,2.412-2.412V33.041A2.414,2.414,0,0,0,49.445,30.629Z" transform="translate(0 -30.629)"/>
        <path id="Path_979119" data-name="Path 979119" d="M15.008,228.453H2.412a.893.893,0,0,1-.892-.892V202.4A.76.76,0,0,0,0,202.4V227.56a2.414,2.414,0,0,0,2.412,2.412h12.6a.76.76,0,0,0,0-1.519Z" transform="translate(0 -184.319)"/>
        <path id="Path_979120" data-name="Path 979120" d="M60.893,164.737a.76.76,0,0,0,.76-.76v-3.823a.76.76,0,0,0-.76-.76,7.851,7.851,0,1,0,7.851,7.851.76.76,0,0,0-.76-.76H64.162a.76.76,0,0,0-.76.76,2.509,2.509,0,1,1-2.509-2.509Zm3.957,3.269h2.33a6.344,6.344,0,0,1-5.527,5.525V171.2A4.04,4.04,0,0,0,64.85,168.006Zm-4.716,3.2v2.329a6.342,6.342,0,0,1-5.525-5.525h2.329A4.039,4.039,0,0,0,60.134,171.2Zm-3.2-4.715H54.608a6.344,6.344,0,0,1,5.525-5.527v2.33A4.04,4.04,0,0,0,56.937,166.487Z" transform="translate(-47.67 -146.353)"/>
        <path id="Path_979121" data-name="Path 979121" d="M153.823,129.392a.76.76,0,0,0-.76.76v3.823a.76.76,0,0,0,.76.76,2.512,2.512,0,0,1,2.509,2.509.759.759,0,0,0,.76.76h3.823a.76.76,0,0,0,.76-.76,7.86,7.86,0,0,0-7.851-7.851Zm3.957,7.092a4.04,4.04,0,0,0-3.2-3.2v-2.33a6.345,6.345,0,0,1,5.527,5.527Z" transform="translate(-137.56 -119.389)"/>
        <path id="Path_979122" data-name="Path 979122" d="M260.456,129.392H256.6a1.267,1.267,0,0,0-1.266,1.266v1.252h-3.724a1.267,1.267,0,0,0-1.266,1.266v1.252h-3.724a1.267,1.267,0,0,0-1.266,1.266v7.427h-1.551a1.267,1.267,0,0,0-1.266,1.266v2.479a1.267,1.267,0,0,0,1.266,1.266h4.38a.76.76,0,0,0,0-1.519h-4.127v-1.973c4.7,0,14.5.006,19.084,0v1.973H251.731a.76.76,0,0,0,0,1.519H263.4a1.267,1.267,0,0,0,1.266-1.266v-2.479a1.267,1.267,0,0,0-1.266-1.266h-1.551V130.781A1.391,1.391,0,0,0,260.456,129.392Zm-.13,1.519v12.21h-3.47v-12.21Zm-4.99,2.518v9.692h-3.47v-9.692Zm-8.46,2.518h3.471v7.174h-3.471Z" transform="translate(-217.975 -119.389)"/>
        <path id="Path_979123" data-name="Path 979123" d="M262.493,345.193a2.18,2.18,0,1,0-1.975-1.272l-3.05,3.05a2.149,2.149,0,0,0-1.8,0l-3.05-3.05a2.173,2.173,0,1,0-3.95,0l-3.05,3.05a2.18,2.18,0,1,0,1.074,1.074l3.05-3.05a2.148,2.148,0,0,0,1.8,0l3.05,3.05a2.173,2.173,0,1,0,3.95,0l3.05-3.05A2.156,2.156,0,0,0,262.493,345.193Zm0-2.826a.654.654,0,1,1-.654.654A.654.654,0,0,1,262.493,342.366ZM244.717,349.6a.654.654,0,1,1,.654-.654A.654.654,0,0,1,244.717,349.6Zm5.272-6.579a.654.654,0,1,1,.654.654A.654.654,0,0,1,249.989,343.02Zm6.579,6.579a.654.654,0,1,1,.654-.654A.654.654,0,0,1,256.567,349.6Z" transform="translate(-217.978 -309.427)"/>
        <path id="Path_979124" data-name="Path 979124" d="M53.8,342.366h2.039a.76.76,0,1,0,0-1.519H53.8a.76.76,0,0,0,0,1.519Z" transform="translate(-47.67 -309.427)"/>
        <path id="Path_979125" data-name="Path 979125" d="M53.8,385.57h2.039a.76.76,0,1,0,0-1.519H53.8a.76.76,0,0,0,0,1.519Z" transform="translate(-47.67 -348.255)"/>
        <path id="Path_979126" data-name="Path 979126" d="M53.8,428.775h2.039a.76.76,0,0,0,0-1.519H53.8a.76.76,0,0,0,0,1.519Z" transform="translate(-47.67 -387.084)"/>
        <path id="Path_979127" data-name="Path 979127" d="M108.179,341.607a.76.76,0,0,0,.76.76H123.28a.76.76,0,1,0,0-1.519H108.939A.76.76,0,0,0,108.179,341.607Z" transform="translate(-97.222 -309.427)"/>
        <path id="Path_979128" data-name="Path 979128" d="M108.939,385.57h7.091a.76.76,0,1,0,0-1.519h-7.091a.76.76,0,1,0,0,1.519Z" transform="translate(-97.222 -348.255)"/>
        <path id="Path_979129" data-name="Path 979129" d="M108.939,428.775h10.129a.76.76,0,0,0,0-1.519H108.939a.76.76,0,0,0,0,1.519Z" transform="translate(-97.222 -387.084)"/>
        <g id="Group_1143889" data-name="Group 1143889" transform="translate(3.501 3.223)">
          <circle id="Ellipse_11597" data-name="Ellipse 11597" cx="0.76" cy="0.76" r="0.76"/>
          <circle id="Ellipse_11598" data-name="Ellipse 11598" cx="0.76" cy="0.76" r="0.76" transform="translate(3.456)"/>
          <circle id="Ellipse_11599" data-name="Ellipse 11599" cx="0.76" cy="0.76" r="0.76" transform="translate(6.912)"/>
        </g>
      </g>
    </g>
  </g>
</svg>
