<svg xmlns="http://www.w3.org/2000/svg" xmlns:xlink="http://www.w3.org/1999/xlink" width="108" height="108" viewBox="0 0 108 108">
  <defs>
    <filter id="Fondo" x="0" y="0" width="108" height="108" filterUnits="userSpaceOnUse">
      <feOffset dy="3" input="SourceAlpha"/>
      <feGaussianBlur stdDeviation="3" result="blur"/>
      <feFlood flood-opacity="0.161"/>
      <feComposite operator="in" in2="blur"/>
      <feComposite in="SourceGraphic"/>
    </filter>
  </defs>
  <g id="Group_1143842" data-name="Group 1143842" transform="translate(-746.998 -9450.926)">
    <g transform="matrix(1, 0, 0, 1, 747, 9450.93)" filter="url(#Fondo)">
      <g id="Fondo-2" data-name="Fondo" transform="translate(9 6)" fill="#fffbe8" stroke="#bca724" stroke-width="3">
        <circle cx="45" cy="45" r="45" stroke="none"/>
        <circle cx="45" cy="45" r="43.5" fill="none"/>
      </g>
    </g>
    <g id="Group_1143841" data-name="Group 1143841" transform="translate(761.793 9450.34)">
      <g id="Group_1143840" data-name="Group 1143840" transform="translate(13.083 28.684)">
        <g id="Group_1143837" data-name="Group 1143837" transform="translate(8.178 0)">
          <path id="Path_979021" data-name="Path 979021" d="M125.528,72.321H154.25a.905.905,0,0,1,.663.274l5.261,5.261a.905.905,0,0,1,.274.663v39.339a.939.939,0,0,1-.937.937H125.528a.939.939,0,0,1-.937-.937v-44.6A.939.939,0,0,1,125.528,72.321Z" transform="translate(-124.591 -72.321)" fill="#eceff1" fill-rule="evenodd"/>
          <g id="Group_1143836" data-name="Group 1143836" transform="translate(0 0)">
            <path id="Path_979022" data-name="Path 979022" d="M125.528,72.321h2.412v46.474h-2.412a.939.939,0,0,1-.937-.937v-44.6A.939.939,0,0,1,125.528,72.321Z" transform="translate(-124.591 -72.321)" fill="#d1d1d6" fill-rule="evenodd"/>
            <path id="Path_979023" data-name="Path 979023" d="M388.762,73.035a.938.938,0,0,1,.274.193l5.261,5.261a.938.938,0,0,1,.193.274h-5.26a.469.469,0,0,1-.468-.468Z" transform="translate(-358.715 -72.954)" fill="#d1d1d6" fill-rule="evenodd"/>
          </g>
        </g>
        <g id="Group_1143838" data-name="Group 1143838" transform="translate(21.163 18.137)">
          <path id="Path_979024" data-name="Path 979024" d="M387.45,372.059a9.925,9.925,0,0,1-1.676,1.845l4.557,4.467,1.735-1.788Z" transform="translate(-369.051 -356.103)" fill="#9facba" fill-rule="evenodd"/>
          <path id="Path_979025" data-name="Path 979025" d="M396.914,371.789a1.145,1.145,0,0,1-.5.665l4.527,4.5.554-.607Z" transform="translate(-378.485 -355.864)" fill="#8d9ca8" fill-rule="evenodd"/>
          <path id="Path_979026" data-name="Path 979026" d="M422.31,409.946l1.958-2.018a.9.9,0,0,0-.019-1.269l-5.423-5.262a.9.9,0,0,0-1.269.019l-1.958,2.018a.9.9,0,0,0,.019,1.27l5.423,5.262A.9.9,0,0,0,422.31,409.946Z" transform="translate(-395.26 -381.88)" fill="#f1ba84" fill-rule="evenodd"/>
          <path id="Path_979027" data-name="Path 979027" d="M437.14,401.4l5.423,5.262a.9.9,0,0,1,.019,1.269l-1.958,2.018a.886.886,0,0,1-.243.178.9.9,0,0,0,1.045-.178l1.958-2.018a.9.9,0,0,0-.019-1.269l-5.423-5.262a.9.9,0,0,0-1.026-.159A.88.88,0,0,1,437.14,401.4Z" transform="translate(-414.376 -381.881)" fill="#e3a76f" fill-rule="evenodd"/>
          <ellipse id="Ellipse_11591" data-name="Ellipse 11591" cx="9.875" cy="9.875" rx="9.875" ry="9.875" transform="translate(0 2.409) rotate(-7.004)" fill="#8ac9fe"/>
          <path id="Path_979028" data-name="Path 979028" d="M331.713,241.536a9.875,9.875,0,1,1,0,19.75c-.161,0-.321,0-.479-.012a9.875,9.875,0,0,0,0-19.726q.239-.011.479-.012Z" transform="translate(-320.715 -240.426)" fill="#60b7ff" fill-rule="evenodd"/>
          <circle id="Ellipse_11592" data-name="Ellipse 11592" cx="7.091" cy="7.091" r="7.091" transform="translate(3.908 3.894)" fill="#eceff1"/>
          <path id="Path_979029" data-name="Path 979029" d="M280.2,266.014c.161,0,.321.006.479.017a7.09,7.09,0,0,0,0,14.148c-.158.011-.318.016-.479.016a7.091,7.091,0,1,1,0-14.181Z" transform="translate(-269.201 -262.12)" fill="#d1d1d6" fill-rule="evenodd"/>
        </g>
        <g id="Group_1143839" data-name="Group 1143839" transform="translate(0 0)">
          <path id="Path_979030" data-name="Path 979030" d="M65.752,91.468c.393-6.695,3.295-6.423,3.295-10.965a8.178,8.178,0,1,0-16.356,0c0,4.542,2.9,4.27,3.295,10.965.175,1.322.931,1.621,1.368,1.621C63.862,93.089,65.015,93.732,65.752,91.468Z" transform="translate(-52.691 -72.325)" fill="#ffe177" fill-rule="evenodd"/>
          <path id="Path_979031" data-name="Path 979031" d="M125.934,91.468c.393-6.695,3.295-6.423,3.295-10.965a8.178,8.178,0,0,0-8.178-8.178c-.153,0-.3,0-.454.013A8.178,8.178,0,0,1,128.32,80.5c0,4.542-2.9,4.27-3.295,10.965-.438,1.344-1.022,1.663-2.786,1.7C124.727,93.206,125.428,93.02,125.934,91.468Z" transform="translate(-112.872 -72.325)" fill="#ffd064" fill-rule="evenodd"/>
          <path id="Path_979032" data-name="Path 979032" d="M109.225,281.336h-3.508v2.015a1.333,1.333,0,0,0,1.329,1.329h1.725a1.333,1.333,0,0,0,1.329-1.329v-2.015Z" transform="translate(-99.686 -257.563)" fill="#b1b1b5" fill-rule="evenodd"/>
          <path id="Path_979033" data-name="Path 979033" d="M93.476,258.565l.029,1.947a1.34,1.34,0,0,0,1.329,1.329h4.45a1.326,1.326,0,0,0,1.329-1.329l-.029-1.947C98.263,258.637,95.812,258.565,93.476,258.565Z" transform="translate(-88.837 -237.381)" fill="#d1d1d6" fill-rule="evenodd"/>
          <path id="Path_979034" data-name="Path 979034" d="M136.556,261.839h.909a1.326,1.326,0,0,0,1.329-1.329l-.029-1.947q-.451.014-.909.022l.029,1.926A1.326,1.326,0,0,1,136.556,261.839Z" transform="translate(-127.017 -237.38)" fill="#b1b1b5" fill-rule="evenodd"/>
          <path id="Path_979035" data-name="Path 979035" d="M81.66,240.63v1.329a1.333,1.333,0,0,0,1.329,1.329H90.1a1.333,1.333,0,0,0,1.329-1.329V240.63Z" transform="translate(-78.365 -221.487)" fill="#eceff1" fill-rule="evenodd"/>
          <path id="Path_979036" data-name="Path 979036" d="M147.85,243.289h.909a1.333,1.333,0,0,0,1.329-1.329v-1.329h-.909v1.329A1.333,1.333,0,0,1,147.85,243.289Z" transform="translate(-137.026 -221.488)" fill="#d1d1d6" fill-rule="evenodd"/>
        </g>
      </g>
      <path id="Path_979037" data-name="Path 979037" d="M31.945,33a.906.906,0,0,0,.455-.122l1.668-.963a.91.91,0,0,0-.91-1.577L31.49,31.3a.91.91,0,0,0,.454,1.7ZM11.034,31.3l-1.669-.963a.91.91,0,0,0-.91,1.577l1.669.963a.908.908,0,0,0,1.242-.333A.911.911,0,0,0,11.034,31.3Zm3.272-3.272a.908.908,0,0,0,.788.455.894.894,0,0,0,.454-.122.909.909,0,0,0,.333-1.243l-.963-1.668a.91.91,0,1,0-1.576.909Zm6.955-1.2a.909.909,0,0,0,.91-.91V23.994a.91.91,0,1,0-1.82,0v1.925A.909.909,0,0,0,21.261,26.83ZM45.244,63.987a6.181,6.181,0,1,0-6.18-6.181A6.188,6.188,0,0,0,45.244,63.987Zm0,1.82a8,8,0,1,1,8-8A8.009,8.009,0,0,1,45.244,65.807Zm17.348,6.437L57.186,67l-1.94,2,5.405,5.245Zm-6.384.225v1.753a.029.029,0,0,1-.027.026H22.2a.029.029,0,0,1-.027-.026V56.711a2.241,2.241,0,0,0,2.236-2.238v-.6a2.242,2.242,0,0,0,1.363-2.06v-.636a2.247,2.247,0,0,0,1.186-1.366H38.013a10.828,10.828,0,0,0-2.7,3.789H25.933a.91.91,0,0,0,0,1.82h8.792a10.8,10.8,0,0,0-.174,3.791H25.933a.91.91,0,0,0,0,1.82h9.02a10.8,10.8,0,0,0,2.109,3.791H25.933a.91.91,0,0,0,0,1.82H39.07a10.764,10.764,0,0,0,12.523-.126l1.934,1.875a1.81,1.81,0,0,0,.442,1.9ZM20.443,54.891h1.724a.424.424,0,0,0,.42-.419v-.419H20.025v.419A.424.424,0,0,0,20.443,54.891Zm4.131-16.978a.99.99,0,1,0-.99-.991v.991ZM15.206,40.8a6.723,6.723,0,0,1-1.213-3.937,7.268,7.268,0,1,1,14.536,0A6.724,6.724,0,0,1,27.317,40.8a15.619,15.619,0,0,0-1.084,2.114.679.679,0,0,0-.029.072,14.16,14.16,0,0,0-.9,3.932H23.584V39.732h.99a2.81,2.81,0,1,0-2.81-2.811v.991h-1v-.991a2.811,2.811,0,1,0-2.811,2.811h.99v7.185H17.22A13.217,13.217,0,0,0,15.206,40.8Zm6.558-1.067h-1v7.185h1Zm-2.825-2.811a.991.991,0,1,0-.99.991h.99ZM17.288,49.156a.425.425,0,0,0,.419.42h7.109a.424.424,0,0,0,.419-.42v-.419H17.288ZM23.95,51.4H18.662v.419a.424.424,0,0,0,.419.42h4.45a.425.425,0,0,0,.419-.42Zm2.76-21.8H50.4v4.43A1.38,1.38,0,0,0,51.777,35.4h4.431V64.987L54.5,63.331A10.763,10.763,0,0,0,52.474,49.81a.909.909,0,0,0-.028-1.818H49.714a10.773,10.773,0,0,0-8.94,0H27.054v-.133a14.018,14.018,0,0,1,.638-3.658H52.445a.91.91,0,1,0,0-1.82H28.506c.126-.227.253-.446.381-.663a9.3,9.3,0,0,0,1.306-3.128H52.445a.91.91,0,1,0,0-1.82h-22.1a9.077,9.077,0,0,0-3.637-7.175Zm25.508,1.287v2.7h2.7ZM45.244,66.77a8.965,8.965,0,1,1,8.965-8.964A8.975,8.975,0,0,1,45.244,66.77Zm9.9-.28-1.718-1.667c-.146.17-.3.335-.453.5l1.7,1.653ZM63.906,73.5,61.949,75.52a1.809,1.809,0,0,1-2.556.039l-1.366-1.325a1.847,1.847,0,0,1-1.846,1.834H22.2a1.849,1.849,0,0,1-1.847-1.846V56.706A2.24,2.24,0,0,1,18.2,54.472v-.6a2.24,2.24,0,0,1-1.363-2.06v-.593a2.244,2.244,0,0,1-1.374-2.065v-1.3a11.722,11.722,0,0,0-1.833-6.139,8.512,8.512,0,0,1-1.463-4.855,9.1,9.1,0,0,1,9.088-9.088c.216,0,.429.01.641.025a1.825,1.825,0,0,1,.3-.025h4.345a.905.905,0,0,1,.1-.657L27.6,25.45a.91.91,0,1,1,1.577.909l-.818,1.415H50.92a1.809,1.809,0,0,1,1.306.541l5.261,5.26a1.816,1.816,0,0,1,.542,1.306v30.5a1.8,1.8,0,0,1,.417.3l5.422,5.262a1.81,1.81,0,0,1,.039,2.556Zm-10.55-2.159a.91.91,0,0,0-.91-.91H25.933a.91.91,0,0,0,0,1.82H52.445A.91.91,0,0,0,53.356,71.343Z" fill-rule="evenodd"/>
    </g>
  </g>
</svg>
