<svg xmlns="http://www.w3.org/2000/svg" xmlns:xlink="http://www.w3.org/1999/xlink" width="108" height="108" viewBox="0 0 108 108">
  <defs>
    <filter id="Fondo" x="0" y="0" width="108" height="108" filterUnits="userSpaceOnUse">
      <feOffset dy="3" input="SourceAlpha"/>
      <feGaussianBlur stdDeviation="3" result="blur"/>
      <feFlood flood-opacity="0.161"/>
      <feComposite operator="in" in2="blur"/>
      <feComposite in="SourceGraphic"/>
    </filter>
  </defs>
  <g id="Group_1144110" data-name="Group 1144110" transform="translate(-325.999 -15522)">
    <g transform="matrix(1, 0, 0, 1, 326, 15522)" filter="url(#Fondo)">
      <g id="Fondo-2" data-name="Fondo" transform="translate(9 6)" fill="#fffbe8" stroke="#bca724" stroke-width="3">
        <circle cx="45" cy="45" r="45" stroke="none"/>
        <circle cx="45" cy="45" r="43.5" fill="none"/>
      </g>
    </g>
    <g id="Group_1144084" data-name="Group 1144084" transform="translate(331.585 15546.12)">
      <g id="Group_1144082" data-name="Group 1144082" transform="translate(24.853 0.789)">
        <path id="Path_979273" data-name="Path 979273" d="M77.7,194.154a.982.982,0,0,1,.982.982v27.513a4.062,4.062,0,0,1-4.062,4.062h-39a4.062,4.062,0,0,1-4.062-4.062V195.136a.982.982,0,0,1,.982-.982Z" transform="translate(-31.564 -174.528)" fill="#b3e5ee"/>
        <path id="Path_979274" data-name="Path 979274" d="M59.879,194.154v27.76a3.335,3.335,0,0,0,3.331,3.332H97.821a3.335,3.335,0,0,0,3.331-3.332v-27.76Z" transform="translate(-56.902 -174.528)" fill="#86d7e5"/>
        <path id="Path_979275" data-name="Path 979275" d="M116.111,175.283h-35.4a.835.835,0,0,0-.835.836v25.117L91.286,205.4l7.127.82,17.08-3.083,1.453-1.9V176.119A.835.835,0,0,0,116.111,175.283Z" transform="translate(-74.799 -157.641)" fill="#f9f7f7"/>
        <path id="Path_979276" data-name="Path 979276" d="M248.639,175.283h1.577v30.973h-1.577Z" transform="translate(-225.814 -157.641)" fill="#f8f3f2"/>
        <path id="Path_979277" data-name="Path 979277" d="M163.57,175.283l4.625,7.2v.559a2.74,2.74,0,0,0,1.165,2.241v.878a3.337,3.337,0,0,0,3.334,3.333h1.22a3.337,3.337,0,0,0,3.334-3.333v-.878a2.74,2.74,0,0,0,1.165-2.241v-.559l4.625-7.2Z" transform="translate(-149.69 -157.641)" fill="#f8f3f2"/>
        <g id="Group_1144080" data-name="Group 1144080" transform="translate(5.08)">
          <g id="Group_1144079" data-name="Group 1144079" transform="translate(0 17.642)">
            <g id="XMLID_248_">
              <g id="Group_1144078" data-name="Group 1144078">
                <g id="Group_1144076" data-name="Group 1144076">
                  <path id="Path_979278" data-name="Path 979278" d="M84.257,202.122V175.283H80.714a.835.835,0,0,0-.835.836v25.117l4.52,1.651A2.147,2.147,0,0,1,84.257,202.122Z" transform="translate(-79.879 -175.283)" fill="#f8f3f2"/>
                </g>
                <g id="Group_1144077" data-name="Group 1144077" transform="translate(0 25.953)">
                  <path id="Path_979279" data-name="Path 979279" d="M98.412,427.089v.035H81.107a1.228,1.228,0,0,1-1.228-1.229V422.1H93.426A4.986,4.986,0,0,1,98.412,427.089Z" transform="translate(-79.879 -422.103)" fill="#f2eae7"/>
                  <path id="Path_979280" data-name="Path 979280" d="M274.672,422.1v3.792a1.228,1.228,0,0,1-1.228,1.229H256.139v-.035a4.986,4.986,0,0,1,4.986-4.986Z" transform="translate(-237.606 -422.103)" fill="#f2eae7"/>
                </g>
              </g>
            </g>
          </g>
          <path id="Path_979281" data-name="Path 979281" d="M238.368,248.154h-4.733v3.216a1.756,1.756,0,0,0,1.756,1.756h1.22a1.756,1.756,0,0,0,1.756-1.756Z" transform="translate(-217.468 -222.85)" fill="#a59ca6"/>
          <path id="Path_979282" data-name="Path 979282" d="M238.368,248.154h-4.733v3.216a1.756,1.756,0,0,0,1.756,1.756h1.22a1.755,1.755,0,0,0,1.56-.952,1.78,1.78,0,0,1-.206.013h-1.22a1.755,1.755,0,0,1-1.661-1.19.4.4,0,0,1,.379-.531h2.9v-2.313Z" transform="translate(-217.468 -222.85)" fill="#8f8390"/>
          <path id="Path_979283" data-name="Path 979283" d="M177.371,17.987a10.488,10.488,0,1,0-19.065,6.036l5.047,7.856V32.9a1.165,1.165,0,0,0,1.165,1.165h4.733a1.165,1.165,0,0,0,1.165-1.165V31.879l5.047-7.856a10.438,10.438,0,0,0,1.91-6.036Z" transform="translate(-148.35 -7.499)" fill="#fbe88c"/>
          <path id="Path_979284" data-name="Path 979284" d="M162.729,25.362a11.548,11.548,0,0,1-2-6.525,11.263,11.263,0,0,1,8.551-11.061,10.49,10.49,0,0,0-10.976,16.247l5.047,7.856V32.9a1.165,1.165,0,0,0,1.165,1.165h3Z" transform="translate(-148.35 -7.5)" fill="#fbe372"/>
        </g>
        <g id="Group_1144081" data-name="Group 1144081" transform="translate(5.08 43.595)">
          <path id="Path_979285" data-name="Path 979285" d="M256.531,451.046a4.972,4.972,0,0,0-.393,1.943v.035h17.305a1.228,1.228,0,0,0,1.228-1.229v-.748H256.531Z" transform="translate(-237.605 -448.003)" fill="#ede2dd"/>
          <path id="Path_979286" data-name="Path 979286" d="M86.414,425.146a2.157,2.157,0,0,1-2.157-2.157V422.1H79.879v3.792a1.228,1.228,0,0,0,1.228,1.229H98.412v-.035a4.97,4.97,0,0,0-.393-1.943Z" transform="translate(-79.879 -422.103)" fill="#ede2dd"/>
        </g>
      </g>
      <g id="Group_1144083" data-name="Group 1144083" transform="translate(24.064 0)">
        <path id="Path_979287" data-name="Path 979287" d="M70.993,169.769h-3.2v-.36a1.626,1.626,0,0,0-1.624-1.624H59.845a.789.789,0,1,0,0,1.577h6.319a.047.047,0,0,1,.047.047v9.615a.789.789,0,0,0,1.577,0v-7.678h3.2a.194.194,0,0,1,.193.193v27.513a3.277,3.277,0,0,1-3.273,3.273h-39a3.277,3.277,0,0,1-3.273-3.273V171.54a.194.194,0,0,1,.193-.193h3.309v26.972a2.019,2.019,0,0,0,2.017,2.017H65.772a2.019,2.019,0,0,0,2.017-2.017v-15.93a.789.789,0,0,0-1.577,0v11.349H53.452a5.758,5.758,0,0,0-4.2,1.815v-10.2a.789.789,0,0,0-1.577,0v10.2a5.758,5.758,0,0,0-4.2-1.815H39.9a.789.789,0,1,0,0,1.577H43.48a4.2,4.2,0,0,1,4.128,3.443H31.161a.44.44,0,0,1-.44-.44v-3h5.812a.789.789,0,0,0,0-1.577H30.721V169.409a.047.047,0,0,1,.047-.047h6.319a.789.789,0,0,0,0-1.577H30.768a1.626,1.626,0,0,0-1.624,1.624v.36H25.835a1.773,1.773,0,0,0-1.771,1.771v27.513a4.856,4.856,0,0,0,4.85,4.85h39a4.856,4.856,0,0,0,4.85-4.85V171.54a1.772,1.772,0,0,0-1.77-1.771Zm-17.54,25.545H66.211v3a.44.44,0,0,1-.44.44H49.324a4.2,4.2,0,0,1,4.128-3.444Z" transform="translate(-24.064 -150.143)"/>
        <path id="Path_979288" data-name="Path 979288" d="M150.062,11.065a.79.79,0,0,0,.859-.711,9.7,9.7,0,1,1,17.588,6.5l-.019.028-5.046,7.856a.789.789,0,0,0-.125.426V26.19a.376.376,0,0,1-.376.376h-.052l.5-8.525h.9a2.334,2.334,0,0,0,2.331-2.331v-.1a2.331,2.331,0,0,0-4.659-.137l-.058.987h-2.766l-.058-.987a2.331,2.331,0,0,0-4.659.137v.1a2.334,2.334,0,0,0,2.331,2.331h.9l.5,8.519a.375.375,0,0,1-.322-.371V25.169a.789.789,0,0,0-.125-.426l-5.047-7.856-.019-.028a9.608,9.608,0,0,1-1.519-3.4.789.789,0,0,0-1.537.353,11.179,11.179,0,0,0,1.757,3.941l4.913,7.648v.79a1.955,1.955,0,0,0,1.165,1.786v1.334a2.548,2.548,0,0,0,2.545,2.545h1.22a2.548,2.548,0,0,0,2.545-2.545V27.976A1.955,1.955,0,0,0,164.9,26.19V25.4l4.912-7.648a11.277,11.277,0,1,0-20.458-7.546A.788.788,0,0,0,150.062,11.065Zm13.477,4.505a.754.754,0,0,1,1.507.044v.1a.755.755,0,0,1-.754.754h-.805Zm-6.784.894A.755.755,0,0,1,156,15.71v-.1a.754.754,0,0,1,1.507-.044l.053.894Zm5.058,1.577-.5,8.525h-1.575l-.5-8.525Zm.34,11.268a.969.969,0,0,1-.968.968h-1.22a.969.969,0,0,1-.968-.968V28.143h3.155v1.166Z" transform="translate(-136.174 0)"/>
        <path id="Path_979289" data-name="Path 979289" d="M380.8,30.672a.786.786,0,0,0,.52-.2l1.721-1.511A.789.789,0,0,0,382,27.78l-1.721,1.511a.789.789,0,0,0,.521,1.381Z" transform="translate(-342.583 -24.683)"/>
        <path id="Path_979290" data-name="Path 979290" d="M380.279,90.429,382,91.94a.789.789,0,0,0,1.041-1.185l-1.721-1.511a.789.789,0,0,0-1.041,1.185Z" transform="translate(-342.584 -79.684)"/>
        <path id="Path_979291" data-name="Path 979291" d="M101.171,28.964l1.721,1.511a.789.789,0,1,0,1.041-1.185l-1.721-1.511a.789.789,0,0,0-1.041,1.185Z" transform="translate(-92.823 -24.682)"/>
        <path id="Path_979292" data-name="Path 979292" d="M101.693,92.137a.786.786,0,0,0,.52-.2l1.721-1.511a.789.789,0,0,0-1.041-1.185l-1.721,1.511a.789.789,0,0,0,.521,1.381Z" transform="translate(-92.824 -79.685)"/>
        <path id="Path_979293" data-name="Path 979293" d="M110.248,253.443a.789.789,0,0,0-.789-.789h-7.768a.789.789,0,0,0,0,1.577h7.768A.789.789,0,0,0,110.248,253.443Z" transform="translate(-92.824 -226.088)"/>
        <path id="Path_979294" data-name="Path 979294" d="M123.986,290.8H115.24a.789.789,0,1,0,0,1.577h8.746a.789.789,0,0,0,0-1.577Z" transform="translate(-104.947 -260.227)"/>
        <path id="Path_979295" data-name="Path 979295" d="M123.986,327.346H115.24a.789.789,0,1,0,0,1.577h8.746a.789.789,0,0,0,0-1.577Z" transform="translate(-104.947 -292.926)"/>
        <path id="Path_979296" data-name="Path 979296" d="M123.986,363.887H115.24a.789.789,0,1,0,0,1.577h8.746a.789.789,0,0,0,0-1.577Z" transform="translate(-104.947 -325.625)"/>
        <path id="Path_979297" data-name="Path 979297" d="M331.841,253.443a.789.789,0,0,0-.789-.789h-7.768a.789.789,0,0,0,0,1.577h7.768A.789.789,0,0,0,331.841,253.443Z" transform="translate(-291.116 -226.088)"/>
        <path id="Path_979298" data-name="Path 979298" d="M309.182,290.8h-8.746a.789.789,0,0,0,0,1.577h8.746a.789.789,0,0,0,0-1.577Z" transform="translate(-270.67 -260.227)"/>
        <path id="Path_979299" data-name="Path 979299" d="M309.182,327.346h-8.746a.789.789,0,0,0,0,1.577h8.746a.789.789,0,0,0,0-1.577Z" transform="translate(-270.67 -292.926)"/>
        <path id="Path_979300" data-name="Path 979300" d="M309.182,363.887h-8.746a.789.789,0,1,0,0,1.577h8.746a.789.789,0,1,0,0-1.577Z" transform="translate(-270.67 -325.625)"/>
      </g>
    </g>
  </g>
</svg>
