<svg xmlns="http://www.w3.org/2000/svg" xmlns:xlink="http://www.w3.org/1999/xlink" width="108" height="108" viewBox="0 0 108 108">
  <defs>
    <filter id="Fondo" x="0" y="0" width="108" height="108" filterUnits="userSpaceOnUse">
      <feOffset dy="3" input="SourceAlpha"/>
      <feGaussianBlur stdDeviation="3" result="blur"/>
      <feFlood flood-opacity="0.161"/>
      <feComposite operator="in" in2="blur"/>
      <feComposite in="SourceGraphic"/>
    </filter>
  </defs>
  <g id="Group_1144075" data-name="Group 1144075" transform="translate(-4082.999 -11752.709)">
    <g transform="matrix(1, 0, 0, 1, 4083, 11752.71)" filter="url(#Fondo)">
      <g id="Fondo-2" data-name="Fondo" transform="translate(9 6)" fill="#fffbe8" stroke="#bca724" stroke-width="3">
        <circle cx="45" cy="45" r="45" stroke="none"/>
        <circle cx="45" cy="45" r="43.5" fill="none"/>
      </g>
    </g>
    <g id="Group_1144074" data-name="Group 1144074" transform="translate(4112.406 11751.431)">
      <g id="Group_1144071" data-name="Group 1144071" transform="translate(0.72 31.348)">
        <g id="Group_1144070" data-name="Group 1144070" transform="translate(0 0)">
          <g id="Group_1144064" data-name="Group 1144064">
            <g id="Group_1144062" data-name="Group 1144062" transform="translate(0 0.308)">
              <g id="Group_1144061" data-name="Group 1144061">
                <g id="Group_1144060" data-name="Group 1144060">
                  <path id="Path_979245" data-name="Path 979245" d="M8.941,82.872A1.441,1.441,0,0,1,7.5,81.431V47.191l.961-4.433A1.441,1.441,0,0,1,9.9,41.317l42.274.3c.8,0,2.108.645,2.108,1.061V79.431c0,1.176-1.426,3.157-2.222,3.157l-.872.284Z" transform="translate(-7.5 -41.317)" fill="#f9f7f8"/>
                </g>
              </g>
            </g>
            <path id="Path_979246" data-name="Path 979246" d="M54.866,39.9v4.077l-2.559.306L7.5,44.3v-4.74a1.441,1.441,0,0,1,1.441-1.441H50.933l2.244.1A1.9,1.9,0,0,1,54.866,39.9Z" transform="translate(-7.5 -38.114)" fill="#8abbd5"/>
            <g id="Group_1144063" data-name="Group 1144063" transform="translate(43.433)">
              <path id="Path_979247" data-name="Path 979247" d="M465.172,93.7l1.176.832v34.25a1.441,1.441,0,0,1-1.441,1.441h-2.614l.3-.18a1.659,1.659,0,0,0,.814-1.427V94.531Z" transform="translate(-462.037 -88.359)" fill="#efedef"/>
              <path id="Path_979248" data-name="Path 979248" d="M463.933,39.555v4.731H461v-4.3a1.887,1.887,0,0,0-.99-1.66l-.384-.207h2.87A1.441,1.441,0,0,1,463.933,39.555Z" transform="translate(-459.622 -38.114)" fill="#6cabca"/>
            </g>
          </g>
          <g id="Group_1144069" data-name="Group 1144069" transform="translate(5.097 9.489)">
            <g id="Group_1144068" data-name="Group 1144068">
              <g id="Group_1144065" data-name="Group 1144065" transform="translate(0 0.003)">
                <path id="Path_979249" data-name="Path 979249" d="M163.85,143.644H167.1a.191.191,0,0,0,.192-.195,6.726,6.726,0,0,0-6.529-6.529.191.191,0,0,0-.195.192v3.245a.191.191,0,0,0,.179.191,3.1,3.1,0,0,1,2.916,2.916A.191.191,0,0,0,163.85,143.644Z" transform="translate(-150.957 -136.92)" fill="#fea3ce"/>
                <path id="Path_979250" data-name="Path 979250" d="M132.358,237.108a.192.192,0,0,0-.192-.2h-3.245a.191.191,0,0,0-.191.18,3.1,3.1,0,0,1-3.1,2.919l-.524,1.694.524,1.93a6.725,6.725,0,0,0,6.724-6.529Z" transform="translate(-118.91 -227.307)" fill="#8abbd5"/>
                <path id="Path_979251" data-name="Path 979251" d="M67.062,235.258a3.111,3.111,0,0,1-2.873-2.873c-.005-.074-.007-.147-.007-.22l-1.866-.5-1.759.5c0,.054,0,.108,0,.162a6.75,6.75,0,0,0,6.562,6.562c.054,0,.108,0,.162,0v-3.625C67.209,235.265,67.136,235.263,67.062,235.258Z" transform="translate(-60.557 -222.56)" fill="#bbec6c"/>
                <path id="Path_979252" data-name="Path 979252" d="M67.108,170.551a.191.191,0,0,0,.18-.191v-3.245a.192.192,0,0,0-.2-.192,6.725,6.725,0,0,0-6.529,6.724h3.625A3.1,3.1,0,0,1,67.108,170.551Z" transform="translate(-60.563 -164.04)" fill="#fce459"/>
              </g>
              <g id="Group_1144066" data-name="Group 1144066" transform="translate(18.203)">
                <path id="Path_979253" data-name="Path 979253" d="M283.856,195.673l-6-.806V187.1a.48.48,0,0,1,.48-.48h3Z" transform="translate(-275.182 -181.841)" fill="#fea3ce"/>
                <path id="Path_979254" data-name="Path 979254" d="M316.636,195.673l-1.27-9.055h-1.249v8.716Z" transform="translate(-307.962 -181.841)" fill="#fe7ab6"/>
                <path id="Path_979255" data-name="Path 979255" d="M333.127,173.481l-6.008-1.089V162.235a.48.48,0,0,1,.48-.48h2.619Z" transform="translate(-319.715 -159.366)" fill="#fce459"/>
                <path id="Path_979256" data-name="Path 979256" d="M361.3,161.755h-1.922v10.637l3.2,1.089Z" transform="translate(-348.878 -159.366)" fill="#f9d608"/>
                <path id="Path_979257" data-name="Path 979257" d="M380.811,150.723l-4.427-.806V137.371a.48.48,0,0,1,.48-.48h1.926l1.537.192a.6.6,0,0,1,.6.6Z" transform="translate(-364.247 -136.891)" fill="#bbec6c"/>
                <path id="Path_979258" data-name="Path 979258" d="M401.353,136.891h-1.922a.6.6,0,0,1,.6.6v12.429l1.921.806V137.488A.6.6,0,0,0,401.353,136.891Z" transform="translate(-385.08 -136.891)" fill="#a2e62e"/>
                <path id="Path_979259" data-name="Path 979259" d="M268.913,275.567l-1.729.192H250.524a.48.48,0,0,1-.48-.48v-2.352a.48.48,0,0,1,.48-.48h16.659l1.729.192a.48.48,0,0,1,.48.48v1.968A.48.48,0,0,1,268.913,275.567Z" transform="translate(-250.044 -259.424)" fill="#918291"/>
                <path id="Path_979260" data-name="Path 979260" d="M428.57,272.446h-2.114a.48.48,0,0,1,.48.48v2.352a.48.48,0,0,1-.48.48h2.114a.48.48,0,0,0,.48-.48v-2.352A.48.48,0,0,0,428.57,272.446Z" transform="translate(-409.509 -259.424)" fill="#7a6d79"/>
              </g>
              <g id="Group_1144067" data-name="Group 1144067" transform="translate(18.203 20.314)">
                <circle id="Ellipse_11601" data-name="Ellipse 11601" cx="1.34" cy="1.34" r="1.34" transform="translate(0 5.62)" fill="#bbec6c"/>
                <circle id="Ellipse_11602" data-name="Ellipse 11602" cx="1.34" cy="1.34" r="1.34" transform="translate(5.62)" fill="#bbec6c"/>
                <circle id="Ellipse_11603" data-name="Ellipse 11603" cx="1.34" cy="1.34" r="1.34" transform="translate(11.24 5.62)" fill="#bbec6c"/>
                <circle id="Ellipse_11604" data-name="Ellipse 11604" cx="1.34" cy="1.34" r="1.34" transform="translate(16.86)" fill="#bbec6c"/>
              </g>
            </g>
          </g>
        </g>
      </g>
      <g id="Group_1144073" data-name="Group 1144073" transform="translate(0 30.629)">
        <path id="Path_979261" data-name="Path 979261" d="M46.9,30.629H41.609a.72.72,0,1,0,0,1.441H46.9a.847.847,0,0,1,.846.846v3.827H1.441V32.916a.847.847,0,0,1,.846-.846H38.247a.72.72,0,0,0,0-1.441H2.287A2.29,2.29,0,0,0,0,32.916v11.5a.72.72,0,0,0,1.441,0V38.184h46.3V71.642a.847.847,0,0,1-.846.846H17.6a.72.72,0,0,0,0,1.441H46.9a2.29,2.29,0,0,0,2.287-2.287V32.916A2.29,2.29,0,0,0,46.9,30.629Z" transform="translate(0 -30.629)"/>
        <path id="Path_979262" data-name="Path 979262" d="M14.235,227.071H2.287a.847.847,0,0,1-.846-.846V202.36a.72.72,0,0,0-1.441,0v23.865a2.29,2.29,0,0,0,2.287,2.287H14.235a.721.721,0,0,0,0-1.441Z" transform="translate(0 -185.212)"/>
        <path id="Path_979263" data-name="Path 979263" d="M60.489,164.462a.72.72,0,0,0,.72-.721v-3.626a.72.72,0,0,0-.72-.72,7.447,7.447,0,1,0,7.447,7.447.72.72,0,0,0-.72-.721H63.589a.72.72,0,0,0-.72.721,2.38,2.38,0,1,1-2.38-2.38Zm3.753,3.1h2.21a6.017,6.017,0,0,1-5.242,5.241v-2.209A3.832,3.832,0,0,0,64.242,167.562Zm-4.473,3.031V172.8a6.016,6.016,0,0,1-5.241-5.241h2.209A3.831,3.831,0,0,0,59.768,170.594Zm-3.032-4.472H54.528a6.017,6.017,0,0,1,5.241-5.242v2.21A3.832,3.832,0,0,0,56.737,166.121Z" transform="translate(-47.946 -147.025)"/>
        <path id="Path_979264" data-name="Path 979264" d="M153.783,129.392a.72.72,0,0,0-.72.721v3.626a.72.72,0,0,0,.72.72,2.383,2.383,0,0,1,2.38,2.38.72.72,0,0,0,.72.72h3.626a.72.72,0,0,0,.72-.72,7.455,7.455,0,0,0-7.447-7.447Zm3.753,6.726a3.832,3.832,0,0,0-3.032-3.032v-2.21a6.018,6.018,0,0,1,5.242,5.242Z" transform="translate(-138.359 -119.904)"/>
        <path id="Path_979265" data-name="Path 979265" d="M259.533,129.392h-3.655a1.2,1.2,0,0,0-1.2,1.2v1.188h-3.532a1.2,1.2,0,0,0-1.2,1.2v1.188h-3.532a1.2,1.2,0,0,0-1.2,1.2v7.045h-1.471a1.2,1.2,0,0,0-1.2,1.2v2.352a1.2,1.2,0,0,0,1.2,1.2H247.9a.72.72,0,1,0,0-1.441h-3.915v-1.871c4.459,0,13.754.006,18.1,0v1.871H251.258a.72.72,0,0,0,0,1.441h11.064a1.2,1.2,0,0,0,1.2-1.2v-2.352a1.2,1.2,0,0,0-1.2-1.2h-1.471V130.709a1.319,1.319,0,0,0-1.317-1.317Zm-.124,1.441v11.581h-3.292V130.833Zm-4.733,2.388v9.193h-3.292v-9.193Zm-8.024,2.388h3.292v6.8h-3.292Z" transform="translate(-219.24 -119.904)"/>
        <path id="Path_979266" data-name="Path 979266" d="M261.465,344.969a2.067,2.067,0,1,0-1.873-1.207l-2.893,2.893a2.038,2.038,0,0,0-1.709,0l-2.893-2.893a2.061,2.061,0,1,0-3.746,0l-2.893,2.893a2.067,2.067,0,1,0,1.019,1.019l2.893-2.893a2.037,2.037,0,0,0,1.708,0l2.893,2.893a2.061,2.061,0,1,0,3.746,0l2.893-2.893A2.044,2.044,0,0,0,261.465,344.969Zm0-2.681a.62.62,0,1,1-.62.62A.621.621,0,0,1,261.465,342.288Zm-16.86,6.86a.62.62,0,1,1,.62-.62A.621.621,0,0,1,244.605,349.148Zm5-6.24a.62.62,0,1,1,.62.62A.621.621,0,0,1,249.605,342.908Zm6.24,6.24a.62.62,0,1,1,.62-.62A.621.621,0,0,1,255.845,349.148Z" transform="translate(-219.244 -311.046)"/>
        <path id="Path_979267" data-name="Path 979267" d="M53.762,342.288H55.7a.72.72,0,1,0,0-1.441H53.762a.72.72,0,1,0,0,1.441Z" transform="translate(-47.946 -311.046)"/>
        <path id="Path_979268" data-name="Path 979268" d="M53.762,385.492H55.7a.72.72,0,0,0,0-1.441H53.762a.72.72,0,0,0,0,1.441Z" transform="translate(-47.946 -350.099)"/>
        <path id="Path_979269" data-name="Path 979269" d="M53.762,428.7H55.7a.721.721,0,0,0,0-1.441H53.762a.721.721,0,0,0,0,1.441Z" transform="translate(-47.946 -389.154)"/>
        <path id="Path_979270" data-name="Path 979270" d="M108.179,341.567a.72.72,0,0,0,.72.721h13.6a.72.72,0,1,0,0-1.441H108.9A.72.72,0,0,0,108.179,341.567Z" transform="translate(-97.787 -311.046)"/>
        <path id="Path_979271" data-name="Path 979271" d="M108.9,385.492h6.725a.72.72,0,1,0,0-1.441H108.9a.72.72,0,1,0,0,1.441Z" transform="translate(-97.787 -350.099)"/>
        <path id="Path_979272" data-name="Path 979272" d="M108.9,428.7h9.608a.721.721,0,0,0,0-1.441H108.9a.721.721,0,0,0,0,1.441Z" transform="translate(-97.787 -389.154)"/>
        <g id="Group_1144072" data-name="Group 1144072" transform="translate(3.321 3.057)">
          <circle id="Ellipse_11605" data-name="Ellipse 11605" cx="0.72" cy="0.72" r="0.72"/>
          <circle id="Ellipse_11606" data-name="Ellipse 11606" cx="0.72" cy="0.72" r="0.72" transform="translate(3.278)"/>
          <circle id="Ellipse_11607" data-name="Ellipse 11607" cx="0.72" cy="0.72" r="0.72" transform="translate(6.556)"/>
        </g>
      </g>
    </g>
  </g>
</svg>
