<svg xmlns="http://www.w3.org/2000/svg" xmlns:xlink="http://www.w3.org/1999/xlink" width="108" height="108" viewBox="0 0 108 108">
  <defs>
    <filter id="Fondo" x="0" y="0" width="108" height="108" filterUnits="userSpaceOnUse">
      <feOffset dy="3" input="SourceAlpha"/>
      <feGaussianBlur stdDeviation="3" result="blur"/>
      <feFlood flood-opacity="0.161"/>
      <feComposite operator="in" in2="blur"/>
      <feComposite in="SourceGraphic"/>
    </filter>
  </defs>
  <g id="Group_1143814" data-name="Group 1143814" transform="translate(-745.999 -3507)">
    <g transform="matrix(1, 0, 0, 1, 746, 3507)" filter="url(#Fondo)">
      <g id="Fondo-2" data-name="Fondo" transform="translate(9 6)" fill="#fffbe8" stroke="#bca724" stroke-width="3">
        <circle cx="45" cy="45" r="45" stroke="none"/>
        <circle cx="45" cy="45" r="43.5" fill="none"/>
      </g>
    </g>
    <g id="Group_1143808" data-name="Group 1143808" transform="translate(760.481 3516.782)">
      <g id="Group_1143806" data-name="Group 1143806" transform="translate(9.766 11.3)">
        <path id="Path_978887" data-name="Path 978887" d="M294.01,19.16a29.632,29.632,0,0,1,24.518,24.52H294.01Z" transform="translate(-259.683 -18.786)" fill="#eb6161" fill-rule="evenodd"/>
        <path id="Path_978888" data-name="Path 978888" d="M315.391,67.437H294.01V46.26A29.663,29.663,0,0,1,315.391,67.437Z" transform="translate(-259.683 -42.543)" fill="#f57c7c" fill-rule="evenodd"/>
        <path id="Path_978889" data-name="Path 978889" d="M45.391,16.13V45.741H75A29.611,29.611,0,1,1,45.391,16.13Z" transform="translate(-15.78 -16.13)" fill="#ebbe57" fill-rule="evenodd"/>
        <path id="Path_978890" data-name="Path 978890" d="M60.944,93.628A29.611,29.611,0,0,1,25.581,46.421,29.472,29.472,0,0,1,41.134,42.01V71.621H70.745A29.534,29.534,0,0,1,60.944,93.628Z" transform="translate(-15.78 -38.817)" fill="#ffd675" fill-rule="evenodd"/>
        <path id="Path_978891" data-name="Path 978891" d="M45.391,16.13V45.741L34.959,73.46A29.615,29.615,0,0,1,45.391,16.13Z" transform="translate(-15.78 -16.13)" fill="#0db87f" fill-rule="evenodd"/>
        <path id="Path_978892" data-name="Path 978892" d="M45.7,42.01V68.428L35.266,96.147A29.631,29.631,0,0,1,16.13,70.021,29.611,29.611,0,0,1,45.7,42.01Z" transform="translate(-16.087 -38.817)" fill="#00e499" fill-rule="evenodd"/>
        <path id="Path_978893" data-name="Path 978893" d="M336.281,141.062H323.99C323.992,133.036,336.282,132.928,336.281,141.062Z" transform="translate(-285.964 -120.336)" fill="#f2cfba" fill-rule="evenodd"/>
        <circle id="Ellipse_11578" data-name="Ellipse 11578" cx="3.019" cy="3.019" r="3.019" transform="translate(40.242 12.956) rotate(-67.486)" fill="#f2cfba"/>
        <g id="Group_1143805" data-name="Group 1143805" transform="translate(4.37 8.34)">
          <path id="Path_978894" data-name="Path 978894" d="M79.559,149.728a3.019,3.019,0,1,0-3.019-3.019A3.025,3.025,0,0,0,79.559,149.728Z" transform="translate(-73.414 -136.292)" fill="#f2cfba" fill-rule="evenodd"/>
          <path id="Path_978895" data-name="Path 978895" d="M159.229,129.9a3.019,3.019,0,1,0-3.019-3.019A3.025,3.025,0,0,0,159.229,129.9Z" transform="translate(-143.254 -118.909)" fill="#f2cfba" fill-rule="evenodd"/>
          <path id="Path_978896" data-name="Path 978896" d="M323.631,345.488l1.216,1.553h10.9c0-7.572-10.645-8-12.122-1.553Z" transform="translate(-290.018 -309.242)" fill="#f2cfba" fill-rule="evenodd"/>
          <path id="Path_978897" data-name="Path 978897" d="M350.629,295.458a3.019,3.019,0,1,0-3.019-3.019A3.025,3.025,0,0,0,350.629,295.458Z" transform="translate(-311.039 -264.042)" fill="#f2cfba" fill-rule="evenodd"/>
          <path id="Path_978898" data-name="Path 978898" d="M267.8,319.708a3.019,3.019,0,1,0-3.019-3.019A3.025,3.025,0,0,0,267.8,319.708Z" transform="translate(-238.429 -285.3)" fill="#f2cfba" fill-rule="evenodd"/>
          <path id="Path_978899" data-name="Path 978899" d="M93.521,331.962H81.23C81.232,323.936,93.522,323.828,93.521,331.962Z" transform="translate(-77.525 -296.023)" fill="#f2cfba" fill-rule="evenodd"/>
          <path id="Path_978900" data-name="Path 978900" d="M109.589,280.378a3.019,3.019,0,1,0-3.019-3.019A3.025,3.025,0,0,0,109.589,280.378Z" transform="translate(-99.739 -250.823)" fill="#f2cfba" fill-rule="evenodd"/>
          <path id="Path_978901" data-name="Path 978901" d="M335.356,141.183H323.99a5.694,5.694,0,1,1,11.366,0Z" transform="translate(-290.334 -128.797)" fill="#faefe8" fill-rule="evenodd"/>
          <path id="Path_978902" data-name="Path 978902" d="M351.886,89.7a3.019,3.019,0,1,1,2.556-2.983A3.019,3.019,0,0,1,351.886,89.7Z" transform="translate(-312.547 -83.73)" fill="#faefe8" fill-rule="evenodd"/>
          <path id="Path_978903" data-name="Path 978903" d="M79.1,149.957a3.019,3.019,0,0,1,0-5.967,3.019,3.019,0,0,1,0,5.967Z" transform="translate(-73.414 -136.555)" fill="#faefe8" fill-rule="evenodd"/>
          <g id="Group_1143801" data-name="Group 1143801" transform="translate(9.278 11.312)">
            <path id="Path_978904" data-name="Path 978904" d="M133.9,179.226l1.65,2.254h10.266C145.818,174.194,135.959,173.521,133.9,179.226Z" transform="translate(-132.975 -175.42)" fill="#f2cfba" fill-rule="evenodd"/>
            <g id="Group_1143800" data-name="Group 1143800" transform="translate(0 0.016)">
              <path id="Path_978905" data-name="Path 978905" d="M126.606,202.27a5.457,5.457,0,0,1,2.368,2.748h-.924l-1.65-2.254C126.462,202.593,126.531,202.429,126.606,202.27Z" transform="translate(-126.4 -198.973)" fill="#faefe8" fill-rule="evenodd"/>
              <path id="Path_978906" data-name="Path 978906" d="M133.9,179.34l1.65,2.254h9.341a5.8,5.8,0,0,0-5.647-6.044A5.918,5.918,0,0,0,133.9,179.34Z" transform="translate(-132.975 -175.55)" fill="#faefe8" fill-rule="evenodd"/>
            </g>
          </g>
          <path id="Path_978907" data-name="Path 978907" d="M158.766,130.117a3.019,3.019,0,1,1,2.556-2.983A3.019,3.019,0,0,1,158.766,130.117Z" transform="translate(-143.254 -119.163)" fill="#faefe8" fill-rule="evenodd"/>
          <g id="Group_1143802" data-name="Group 1143802" transform="translate(32.688 31.755)">
            <path id="Path_978908" data-name="Path 978908" d="M323.64,345.6l1.216,1.553h9.979a5.8,5.8,0,0,0-5.658-6.044A5.857,5.857,0,0,0,323.64,345.6Z" transform="translate(-322.715 -341.11)" fill="#faefe8" fill-rule="evenodd"/>
            <path id="Path_978909" data-name="Path 978909" d="M316.3,372.92a5.451,5.451,0,0,1,1.981,2.12h-.924l-1.217-1.553c.044-.195.1-.384.159-.566Z" transform="translate(-316.14 -368.995)" fill="#faefe8" fill-rule="evenodd"/>
          </g>
          <path id="Path_978910" data-name="Path 978910" d="M350.166,295.687a3.019,3.019,0,1,1,2.556-2.983A3.019,3.019,0,0,1,350.166,295.687Z" transform="translate(-311.039 -264.305)" fill="#faefe8" fill-rule="evenodd"/>
          <g id="Group_1143803" data-name="Group 1143803" transform="translate(23.225 34.731)">
            <path id="Path_978911" data-name="Path 978911" d="M251.731,371.292H239.44C239.442,363.266,251.732,363.158,251.731,371.292Z" transform="translate(-239.44 -365.232)" fill="#f2cfba" fill-rule="evenodd"/>
            <path id="Path_978912" data-name="Path 978912" d="M250.806,371.413H239.44a5.694,5.694,0,1,1,11.366,0Z" transform="translate(-239.44 -365.353)" fill="#faefe8" fill-rule="evenodd"/>
          </g>
          <path id="Path_978913" data-name="Path 978913" d="M267.336,319.937a3.019,3.019,0,1,1,2.556-2.983A3.019,3.019,0,0,1,267.336,319.937Z" transform="translate(-238.429 -285.563)" fill="#faefe8" fill-rule="evenodd"/>
          <path id="Path_978914" data-name="Path 978914" d="M92.6,332.083H81.23a5.694,5.694,0,1,1,11.366,0Z" transform="translate(-77.525 -296.144)" fill="#faefe8" fill-rule="evenodd"/>
          <path id="Path_978915" data-name="Path 978915" d="M109.126,280.6a3.019,3.019,0,1,1,2.556-2.983A3.019,3.019,0,0,1,109.126,280.6Z" transform="translate(-99.739 -251.077)" fill="#faefe8" fill-rule="evenodd"/>
          <g id="Group_1143804" data-name="Group 1143804" transform="translate(0 13.761)">
            <path id="Path_978916" data-name="Path 978916" d="M63.49,201.322H51.2c0-8.026,12.292-8.134,12.291,0Z" transform="translate(-51.2 -195.262)" fill="#f2cfba" fill-rule="evenodd"/>
            <path id="Path_978917" data-name="Path 978917" d="M62.564,201.443H51.2a5.694,5.694,0,1,1,11.366,0Z" transform="translate(-51.2 -195.383)" fill="#faefe8" fill-rule="evenodd"/>
          </g>
        </g>
      </g>
      <path id="Path_978918" data-name="Path 978918" d="M44.235,37.487H68.752a.987.987,0,0,0,.975-1.144A30.62,30.62,0,0,0,44.39,11a.987.987,0,0,0-1.144.975V36.5a.987.987,0,0,0,.987.987Zm.987-24.325a28.515,28.515,0,0,1,22.35,22.351H45.222ZM69.129,40.231H40.5V11.607a.987.987,0,0,0-.987-.987,30.6,30.6,0,1,0,30.6,30.6A.987.987,0,0,0,69.129,40.231Zm-58.234.987A28.659,28.659,0,0,1,38.531,12.61V41.038l-10.012,26.6A28.667,28.667,0,0,1,10.894,41.218ZM39.518,69.842a28.519,28.519,0,0,1-9.152-1.5L40.2,42.2H68.125A28.659,28.659,0,0,1,39.519,69.842Zm19.452-42.8a6.888,6.888,0,0,0-2.089-1.254,4.006,4.006,0,1,0-5.583.02,6.692,6.692,0,0,0-4.352,6.523.986.986,0,0,0,.987.987H60.224a.987.987,0,0,0,.987-.987,6.812,6.812,0,0,0-2.242-5.29ZM54.079,20.9a2.032,2.032,0,1,1-2.032,2.032A2.035,2.035,0,0,1,54.079,20.9ZM49,31.345a4.934,4.934,0,0,1,5.113-4.086h0a4.814,4.814,0,0,1,5.05,4.086H49ZM27.554,39.767a8.242,8.242,0,0,0-.127-1.461H36.4a.987.987,0,0,0,.987-.987,6.716,6.716,0,0,0-4.329-6.545,4.006,4.006,0,1,0-5.583.022,6.635,6.635,0,0,0-3.4,2.819,7.018,7.018,0,0,0-.853-.392,4.006,4.006,0,1,0-5.583.02,6.692,6.692,0,0,0-4.352,6.523.986.986,0,0,0,.987.987H26.567a.987.987,0,0,0,.987-.987Zm2.7-13.883a2.032,2.032,0,1,1-2.032,2.032A2.035,2.035,0,0,1,30.251,25.884Zm1.059,6.45a4.736,4.736,0,0,1,4.025,4h-8.57a6.324,6.324,0,0,0-1.1-1.515,5.315,5.315,0,0,1,5.643-2.482Zm-10.888-4a2.032,2.032,0,1,1-2.032,2.032A2.035,2.035,0,0,1,20.421,28.332ZM15.341,38.78a4.934,4.934,0,0,1,5.113-4.086h0a5.451,5.451,0,0,1,3.321,1.064,1.052,1.052,0,0,0,.176.143A4.426,4.426,0,0,1,25.2,37.639c.01.027.02.054.031.081a5.257,5.257,0,0,1,.278,1.061H15.342Zm24.3,12.556a3.993,3.993,0,0,0,1.225,2.88,6.692,6.692,0,0,0-4.352,6.523.986.986,0,0,0,.987.987H49.791a.987.987,0,0,0,.987-.987,8.027,8.027,0,0,0-.246-2h9.478A.987.987,0,0,0,61,57.747a6.681,6.681,0,0,0-4.337-6.538,4.006,4.006,0,1,0-5.575.015,6.607,6.607,0,0,0-3.705,3.408,6.987,6.987,0,0,0-.933-.437,4.005,4.005,0,1,0-6.808-2.86Zm-1.075,8.416a4.934,4.934,0,0,1,5.113-4.086h0a5.392,5.392,0,0,1,3.476,1.188.961.961,0,0,0,.168.148,4.4,4.4,0,0,1,.87,1.122.964.964,0,0,0,.065.128,5.074,5.074,0,0,1,.471,1.5H38.564Zm15.3-13.44a2.032,2.032,0,1,1-2.032,2.032A2.035,2.035,0,0,1,53.865,46.312Zm.051,6.363a5.782,5.782,0,0,1,.655.037,4.727,4.727,0,0,1,4.38,4.048H49.672A6.429,6.429,0,0,0,49,55.9,5.041,5.041,0,0,1,53.916,52.675ZM43.646,49.3a2.032,2.032,0,1,1-2.032,2.032A2.035,2.035,0,0,1,43.646,49.3ZM31.259,55.886a6.812,6.812,0,0,0-2.242-5.29,6.888,6.888,0,0,0-2.089-1.254,4.006,4.006,0,1,0-5.583.02,6.692,6.692,0,0,0-4.352,6.523.986.986,0,0,0,.987.987H30.272a.987.987,0,0,0,.987-.987ZM24.126,44.452a2.032,2.032,0,1,1-2.032,2.032A2.035,2.035,0,0,1,24.126,44.452ZM19.046,54.9a4.934,4.934,0,0,1,5.113-4.086h0A4.814,4.814,0,0,1,29.21,54.9H19.047Z"/>
    </g>
  </g>
</svg>
