<svg xmlns="http://www.w3.org/2000/svg" xmlns:xlink="http://www.w3.org/1999/xlink" width="108" height="108" viewBox="0 0 108 108">
  <defs>
    <filter id="Fondo" x="0" y="0" width="108" height="108" filterUnits="userSpaceOnUse">
      <feOffset dy="3" input="SourceAlpha"/>
      <feGaussianBlur stdDeviation="3" result="blur"/>
      <feFlood flood-opacity="0.161"/>
      <feComposite operator="in" in2="blur"/>
      <feComposite in="SourceGraphic"/>
    </filter>
  </defs>
  <g id="Group_1143844" data-name="Group 1143844" transform="translate(-431.998 -9450.926)">
    <g transform="matrix(1, 0, 0, 1, 432, 9450.93)" filter="url(#Fondo)">
      <g id="Fondo-2" data-name="Fondo" transform="translate(9 6)" fill="#fffbe8" stroke="#bca724" stroke-width="3">
        <circle cx="45" cy="45" r="45" stroke="none"/>
        <circle cx="45" cy="45" r="43.5" fill="none"/>
      </g>
    </g>
    <g id="Group_1143843" data-name="Group 1143843" transform="translate(454 9470)">
      <path id="Path_979038" data-name="Path 979038" d="M40,40,24,56,8,40l6-6-1.17-1.17a2.828,2.828,0,1,1,4-4L18,30l6-6,6,6-1.17,1.17a2.828,2.828,0,1,0,4,4L34,34Z" fill="#fcd770"/>
      <path id="Path_979039" data-name="Path 979039" d="M56,24l-6,6-1.17-1.17a2.828,2.828,0,1,0-4,4L46,34l-6,6-6-6-1.17,1.17a2.828,2.828,0,1,1-4-4L30,30l-6-6,6-6,1.17,1.17a2.828,2.828,0,1,0,4-4L34,14l6-6,6,6,1.17-1.17a2.828,2.828,0,1,1,4,4L50,18Z" fill="#b4dd7f"/>
      <path id="Path_979040" data-name="Path 979040" d="M32,61v2A31.076,31.076,0,0,0,61.885,40.266l-1.928-.532A29.071,29.071,0,0,1,32,61Z"/>
      <path id="Path_979041" data-name="Path 979041" d="M60.42,37.8l1.96.4c.139-.682.255-1.377.347-2.066l-1.982-.265c-.086.646-.2,1.3-.325,1.934Z"/>
      <path id="Path_979042" data-name="Path 979042" d="M61,32q0,.975-.063,1.935l2,.131C62.977,33.383,63,32.688,63,32Z"/>
      <path id="Path_979043" data-name="Path 979043" d="M32,3V1A31.076,31.076,0,0,0,2.115,23.734l1.928.532A29.071,29.071,0,0,1,32,3Z"/>
      <path id="Path_979044" data-name="Path 979044" d="M1.273,27.868l1.982.265c.086-.645.195-1.3.325-1.934l-1.96-.4c-.139.681-.255,1.377-.347,2.066Z"/>
      <path id="Path_979045" data-name="Path 979045" d="M1,32H3q0-.975.063-1.935l-2-.131C1.023,30.617,1,31.312,1,32Z"/>
      <path id="Path_979046" data-name="Path 979046" d="M40.707,40.707,47.414,34l-1.878-1.878a1.829,1.829,0,1,1,2.586-2.586L50,31.414,57.414,24l-6-6,.464-.464a3.828,3.828,0,1,0-5.414-5.414L46,12.586l-6-6L32.586,14l1.878,1.878a1.829,1.829,0,1,1-2.586,2.586L30,16.586l-6.707,6.707L22.586,24,18,28.586l-.464-.464a3.828,3.828,0,1,0-5.414,5.414l.464.464-6,6L24,57.414l16-16ZM30,19.414l.464.464a3.828,3.828,0,1,0,5.414-5.414L35.414,14,40,9.414l6,6,1.878-1.878a1.829,1.829,0,1,1,2.586,2.586L48.586,18l6,6L50,28.586l-.464-.464a3.828,3.828,0,1,0-5.414,5.414l.464.464L40,38.586l-6-6-1.878,1.878a1.829,1.829,0,1,1-2.586-2.586L31.414,30l-6-6ZM24,54.586,9.414,40l6-6-1.878-1.878a1.829,1.829,0,1,1,2.586-2.586L18,31.414l6-6L28.586,30l-.464.464a3.828,3.828,0,1,0,5.414,5.414L34,35.414,38.586,40Z"/>
      <path id="Path_979047" data-name="Path 979047" d="M32,59c.693,0,1.392-.026,2.076-.079l-.152-1.994C33.29,56.976,32.643,57,32,57Z"/>
      <path id="Path_979048" data-name="Path 979048" d="M36.153,58.683c.695-.107,1.394-.244,2.077-.4l-.46-1.946c-.632.149-1.279.275-1.923.375Z"/>
      <path id="Path_979049" data-name="Path 979049" d="M39.692,55.794l.615,1.9A26.925,26.925,0,0,0,59,32H57A24.929,24.929,0,0,1,39.692,55.794Z"/>
      <path id="Path_979050" data-name="Path 979050" d="M32,7V5c-.693,0-1.392.026-2.076.079l.152,1.994C30.71,7.024,31.357,7,32,7Z"/>
      <path id="Path_979051" data-name="Path 979051" d="M26.23,7.669c.632-.149,1.279-.275,1.923-.375l-.306-1.977c-.695.107-1.394.244-2.077.405Z"/>
      <path id="Path_979052" data-name="Path 979052" d="M24.308,8.206l-.615-1.9A26.925,26.925,0,0,0,5,32H7A24.929,24.929,0,0,1,24.308,8.206Z"/>
      <path id="Path_979053" data-name="Path 979053" d="M29.293,43.707h2v2h-2Z" transform="translate(-22.74 34.515) rotate(-45)"/>
      <path id="Path_979054" data-name="Path 979054" d="M26.464,46.536h2v2h-2Z" transform="translate(-25.569 33.343) rotate(-45)"/>
      <path id="Path_979055" data-name="Path 979055" d="M23.722,49.328h1.9v2h-1.9Z" transform="translate(-28.361 32.186) rotate(-45)"/>
    </g>
  </g>
</svg>
