<svg xmlns="http://www.w3.org/2000/svg" xmlns:xlink="http://www.w3.org/1999/xlink" width="108" height="108" viewBox="0 0 108 108">
  <defs>
    <filter id="Fondo" x="0" y="0" width="108" height="108" filterUnits="userSpaceOnUse">
      <feOffset dy="3" input="SourceAlpha"/>
      <feGaussianBlur stdDeviation="3" result="blur"/>
      <feFlood flood-opacity="0.161"/>
      <feComposite operator="in" in2="blur"/>
      <feComposite in="SourceGraphic"/>
    </filter>
  </defs>
  <g id="Group_1144112" data-name="Group 1144112" transform="translate(-1165.999 -15529)">
    <g id="Group_1144106" data-name="Group 1144106">
      <g transform="matrix(1, 0, 0, 1, 1166, 15529)" filter="url(#Fondo)">
        <g id="Fondo-2" data-name="Fondo" transform="translate(9 6)" fill="#fffbe8" stroke="#bca724" stroke-width="3">
          <circle cx="45" cy="45" r="45" stroke="none"/>
          <circle cx="45" cy="45" r="43.5" fill="none"/>
        </g>
      </g>
      <g id="Group_1144105" data-name="Group 1144105" transform="translate(1191.65 15551.65)">
        <path id="Path_979319" data-name="Path 979319" d="M17.053,52.027A7.027,7.027,0,1,1,10.027,45,7.012,7.012,0,0,1,17.053,52.027Z" transform="translate(-0.122 -5.232)" fill="#cfcfcf"/>
        <circle id="Ellipse_11609" data-name="Ellipse 11609" cx="2.5" cy="2.5" r="2.5" transform="translate(7.35 43.349)" fill="#759acc"/>
        <path id="Path_979320" data-name="Path 979320" d="M11.27,55H9.513A3.512,3.512,0,0,0,6,58.513v.2c.159.128.318.256.488.371a7.013,7.013,0,0,0,7.807,0c.17-.113.328-.242.488-.371v-.2A3.512,3.512,0,0,0,11.27,55Z" transform="translate(-0.487 -6.449)" fill="#759acc"/>
        <path id="Path_979321" data-name="Path 979321" d="M59.053,52.027A7.027,7.027,0,1,1,52.027,45,7.012,7.012,0,0,1,59.053,52.027Z" transform="translate(-5.232 -5.232)" fill="#cfcfcf"/>
        <circle id="Ellipse_11610" data-name="Ellipse 11610" cx="2.5" cy="2.5" r="2.5" transform="translate(44.35 43.349)" fill="#759acc"/>
        <path id="Path_979322" data-name="Path 979322" d="M53.27,55H51.513A3.512,3.512,0,0,0,48,58.513v.2c.159.128.318.256.488.371a7.013,7.013,0,0,0,7.807,0c.17-.113.328-.242.488-.371v-.2A3.512,3.512,0,0,0,53.27,55Z" transform="translate(-5.597 -6.449)" fill="#759acc"/>
        <path id="Path_979323" data-name="Path 979323" d="M17.053,10.027A7.027,7.027,0,1,1,10.027,3,7.012,7.012,0,0,1,17.053,10.027Z" transform="translate(-0.122 -0.122)" fill="#cfcfcf"/>
        <circle id="Ellipse_11611" data-name="Ellipse 11611" cx="2.5" cy="2.5" r="2.5" transform="translate(7.35 6.349)" fill="#759acc"/>
        <path id="Path_979324" data-name="Path 979324" d="M11.27,13H9.513A3.512,3.512,0,0,0,6,16.513v.2c.159.128.318.256.488.371a7.013,7.013,0,0,0,7.807,0c.17-.113.328-.242.488-.371v-.2A3.512,3.512,0,0,0,11.27,13Z" transform="translate(-0.487 -1.338)" fill="#759acc"/>
        <path id="Path_979325" data-name="Path 979325" d="M59.053,10.027A7.027,7.027,0,1,1,52.027,3,7.012,7.012,0,0,1,59.053,10.027Z" transform="translate(-5.232 -0.122)" fill="#cfcfcf"/>
        <g id="Group_1144104" data-name="Group 1144104" transform="translate(22.201 6.392)">
          <circle id="Ellipse_11612" data-name="Ellipse 11612" cx="2.5" cy="2.5" r="2.5" transform="translate(22.148 -0.042)" fill="#759acc"/>
          <path id="Path_979326" data-name="Path 979326" d="M53.27,13H51.513A3.512,3.512,0,0,0,48,16.513v.2c.159.128.318.256.488.371a7.013,7.013,0,0,0,7.807,0c.17-.113.328-.242.488-.371v-.2A3.512,3.512,0,0,0,53.27,13Z" transform="translate(-27.799 -7.73)" fill="#759acc"/>
          <path id="Path_979327" data-name="Path 979327" d="M25,26.513v6.148l2.635,1.757V45.836h7.027V34.418L37.3,32.662V26.513A3.513,3.513,0,0,0,33.783,23h-5.27A3.513,3.513,0,0,0,25,26.513Z" transform="translate(-25 -8.947)" fill="#759acc"/>
        </g>
        <path id="Path_979328" data-name="Path 979328" d="M28,46.517v1.468h7.027v-7.33A21.179,21.179,0,0,1,28,46.517Z" transform="translate(-3.164 -4.704)" fill="#6787b3"/>
        <ellipse id="Ellipse_11613" data-name="Ellipse 11613" cx="4" cy="3.5" rx="4" ry="3.5" transform="translate(24.35 13.349)" fill="#759acc"/>
        <path id="Path_979329" data-name="Path 979329" d="M24,25.418v6.148a.879.879,0,0,0,.391.731l2.244,1.5V44.741a.879.879,0,0,0,.878.878H34.54a.879.879,0,0,0,.878-.878V33.793l2.244-1.5a.879.879,0,0,0,.391-.731V25.418a4.393,4.393,0,0,0-3.6-4.312,4.345,4.345,0,0,0,.967-2.715,4.392,4.392,0,1,0-8.783,0,4.345,4.345,0,0,0,.967,2.715A4.393,4.393,0,0,0,24,25.418Zm7.027-9.662a2.635,2.635,0,1,1-2.635,2.635A2.638,2.638,0,0,1,31.027,15.757Zm-5.27,9.662a2.638,2.638,0,0,1,2.635-2.635h5.27A2.638,2.638,0,0,1,36.3,25.418V31.1l-2.244,1.5a.879.879,0,0,0-.391.731v10.54h-5.27V33.323A.879.879,0,0,0,28,32.592l-2.244-1.5Z" transform="translate(-2.677 -1.46)"/>
        <path id="Path_979330" data-name="Path 979330" d="M5.512,16.474A7.9,7.9,0,1,0,2,9.9,7.853,7.853,0,0,0,5.512,16.474Zm7.807-1.458a6.233,6.233,0,0,1-6.829,0c-.026-.018-.049-.04-.076-.058A2.629,2.629,0,0,1,9.027,12.54h1.757A2.63,2.63,0,0,1,13.4,14.957C13.369,14.975,13.346,15,13.319,15.016ZM8.148,9.027A1.757,1.757,0,1,1,9.9,10.783,1.758,1.758,0,0,1,8.148,9.027ZM9.9,3.757a6.139,6.139,0,0,1,4.948,9.786,4.4,4.4,0,0,0-2.216-2.335,3.479,3.479,0,0,0,.782-2.182,3.513,3.513,0,0,0-7.027,0,3.479,3.479,0,0,0,.782,2.182,4.4,4.4,0,0,0-2.216,2.335A6.139,6.139,0,0,1,9.9,3.757Z"/>
        <path id="Path_979331" data-name="Path 979331" d="M5.512,58.474A7.9,7.9,0,1,0,2,51.9,7.853,7.853,0,0,0,5.512,58.474Zm7.807-1.458a6.233,6.233,0,0,1-6.829,0c-.026-.018-.049-.04-.076-.058A2.629,2.629,0,0,1,9.027,54.54h1.757A2.63,2.63,0,0,1,13.4,56.957C13.369,56.975,13.346,57,13.319,57.016ZM8.148,51.027A1.757,1.757,0,1,1,9.9,52.783,1.758,1.758,0,0,1,8.148,51.027ZM9.9,45.757a6.139,6.139,0,0,1,4.948,9.786,4.4,4.4,0,0,0-2.216-2.335,3.479,3.479,0,0,0,.782-2.182,3.513,3.513,0,0,0-7.027,0,3.479,3.479,0,0,0,.782,2.182,4.4,4.4,0,0,0-2.216,2.335A6.139,6.139,0,0,1,9.9,45.757Z" transform="translate(0 -5.111)"/>
        <path id="Path_979332" data-name="Path 979332" d="M51.9,2a7.9,7.9,0,1,0,7.9,7.9A7.915,7.915,0,0,0,51.9,2Zm3.414,13.016a6.233,6.233,0,0,1-6.829,0c-.026-.018-.049-.04-.076-.058a2.628,2.628,0,0,1,2.612-2.417h1.757A2.63,2.63,0,0,1,55.4,14.957c-.027.018-.05.04-.077.059ZM50.148,9.027A1.757,1.757,0,1,1,51.9,10.783,1.758,1.758,0,0,1,50.148,9.027Zm6.7,4.516a4.4,4.4,0,0,0-2.216-2.335,3.479,3.479,0,0,0,.782-2.182,3.513,3.513,0,1,0-7.027,0,3.479,3.479,0,0,0,.782,2.182,4.4,4.4,0,0,0-2.216,2.335,6.148,6.148,0,1,1,9.9,0Z" transform="translate(-5.111)"/>
        <path id="Path_979333" data-name="Path 979333" d="M51.9,44a7.9,7.9,0,1,0,7.9,7.9A7.915,7.915,0,0,0,51.9,44Zm3.414,13.016a6.233,6.233,0,0,1-6.829,0c-.026-.018-.049-.04-.076-.058a2.628,2.628,0,0,1,2.612-2.417h1.757A2.63,2.63,0,0,1,55.4,56.957c-.027.018-.05.04-.077.059Zm-5.171-5.989A1.757,1.757,0,1,1,51.9,52.783,1.758,1.758,0,0,1,50.148,51.027Zm6.7,4.516a4.4,4.4,0,0,0-2.216-2.335,3.479,3.479,0,0,0,.782-2.182,3.513,3.513,0,0,0-7.027,0,3.479,3.479,0,0,0,.782,2.182,4.4,4.4,0,0,0-2.216,2.335,6.148,6.148,0,1,1,9.9,0Z" transform="translate(-5.111 -5.111)"/>
        <path id="Path_979334" data-name="Path 979334" d="M6.818,21.615a23.79,23.79,0,0,0,0,18.243l1.621-.676a22.031,22.031,0,0,1,0-16.89Z" transform="translate(-0.365 -2.387)"/>
        <path id="Path_979335" data-name="Path 979335" d="M39.858,56.705l-.676-1.621a22.133,22.133,0,0,1-16.89,0l-.676,1.621a23.79,23.79,0,0,0,18.243,0Z" transform="translate(-2.387 -6.459)"/>
        <path id="Path_979336" data-name="Path 979336" d="M56.7,39.874A23.792,23.792,0,0,0,56.7,21.615l-1.621.676a22.029,22.029,0,0,1-.006,16.9Z" transform="translate(-6.458 -2.387)"/>
        <path id="Path_979337" data-name="Path 979337" d="M21.615,6.818l.676,1.621A22.13,22.13,0,0,1,39.2,8.446l.677-1.621a23.792,23.792,0,0,0-18.259-.006Z" transform="translate(-2.387 -0.365)"/>
        <path id="Path_979338" data-name="Path 979338" d="M0,0H4.392V1.757H0Z" transform="matrix(0.8, -0.6, 0.6, 0.8, 35.728, 18.864)"/>
        <path id="Path_979339" data-name="Path 979339" d="M0,0H1.757V4.392H0Z" transform="matrix(0.6, -0.8, 0.8, 0.6, 16.404, 17.634)"/>
        <path id="Path_979340" data-name="Path 979340" d="M0,0H4.392V1.757H0Z" transform="matrix(0.8, -0.6, 0.6, 0.8, 16.404, 39.065)"/>
        <path id="Path_979341" data-name="Path 979341" d="M0,0H1.757V4.392H0Z" transform="matrix(0.6, -0.8, 0.8, 0.6, 35.728, 37.835)"/>
      </g>
    </g>
  </g>
</svg>
