<svg xmlns="http://www.w3.org/2000/svg" xmlns:xlink="http://www.w3.org/1999/xlink" width="108" height="108" viewBox="0 0 108 108">
  <defs>
    <filter id="Path_904820" x="0" y="0" width="108" height="108" filterUnits="userSpaceOnUse">
      <feOffset dy="3" input="SourceAlpha"/>
      <feGaussianBlur stdDeviation="3" result="blur"/>
      <feFlood flood-opacity="0.161"/>
      <feComposite operator="in" in2="blur"/>
      <feComposite in="SourceGraphic"/>
    </filter>
  </defs>
  <g id="Group_1143821" data-name="Group 1143821" transform="translate(-726 -6821)">
    <g transform="matrix(1, 0, 0, 1, 726, 6821)" filter="url(#Path_904820)">
      <g id="Path_904820-2" data-name="Path 904820" transform="translate(9 6)" fill="#ecf4fa">
        <path d="M 45 88.5 C 39.12687683105469 88.5 33.43022537231445 87.35007476806641 28.06830024719238 85.08217620849609 C 22.88852500915527 82.89131164550781 18.23629951477051 79.75458526611328 14.2408504486084 75.75914764404297 C 10.24541282653809 71.76370239257812 7.108687400817871 67.11147308349609 4.917825222015381 61.93170166015625 C 2.649924993515015 56.56977462768555 1.5 50.87312316894531 1.5 45 C 1.5 39.12687683105469 2.649924993515015 33.43022537231445 4.917825222015381 28.06830024719238 C 7.108687400817871 22.88852500915527 10.24541282653809 18.23629951477051 14.2408504486084 14.2408504486084 C 18.23629951477051 10.24541282653809 22.88852500915527 7.108687400817871 28.06830024719238 4.917825222015381 C 33.43022537231445 2.649924993515015 39.12687683105469 1.5 45 1.5 C 50.87312316894531 1.5 56.56977462768555 2.649924993515015 61.93170166015625 4.917825222015381 C 67.11147308349609 7.108687400817871 71.76370239257812 10.24541282653809 75.75914764404297 14.2408504486084 C 79.75458526611328 18.23629951477051 82.89131164550781 22.88852500915527 85.08217620849609 28.06830024719238 C 87.35007476806641 33.43022537231445 88.5 39.12687683105469 88.5 45 C 88.5 50.87312316894531 87.35007476806641 56.56977462768555 85.08217620849609 61.93170166015625 C 82.89131164550781 67.11147308349609 79.75458526611328 71.76370239257812 75.75914764404297 75.75914764404297 C 71.76370239257812 79.75458526611328 67.11147308349609 82.89131164550781 61.93170166015625 85.08217620849609 C 56.56977462768555 87.35007476806641 50.87312316894531 88.5 45 88.5 Z" stroke="none"/>
        <path d="M 45 3 C 39.32871246337891 3 33.82865524291992 4.110054016113281 28.65262985229492 6.299339294433594 C 23.65165710449219 8.414573669433594 19.15968322753906 11.44334411621094 15.301513671875 15.301513671875 C 11.44334411621094 19.15968322753906 8.414573669433594 23.65165710449219 6.299339294433594 28.65262985229492 C 4.110054016113281 33.82865524291992 3 39.32871246337891 3 45 C 3 50.67128753662109 4.110054016113281 56.17134475708008 6.299339294433594 61.34737396240234 C 8.414573669433594 66.34834289550781 11.44334411621094 70.84031677246094 15.301513671875 74.698486328125 C 19.15968322753906 78.55665588378906 23.65165710449219 81.58542633056641 28.65262985229492 83.70066070556641 C 33.82865524291992 85.88994598388672 39.32871246337891 87 45 87 C 50.67128753662109 87 56.17134475708008 85.88994598388672 61.34737396240234 83.70066070556641 C 66.34834289550781 81.58542633056641 70.84031677246094 78.55665588378906 74.698486328125 74.698486328125 C 78.55665588378906 70.84031677246094 81.58542633056641 66.34834289550781 83.70066070556641 61.34737396240234 C 85.88994598388672 56.17134475708008 87 50.67128753662109 87 45 C 87 39.32871246337891 85.88994598388672 33.82865524291992 83.70066070556641 28.65262985229492 C 81.58542633056641 23.65165710449219 78.55665588378906 19.15968322753906 74.698486328125 15.301513671875 C 70.84031677246094 11.44334411621094 66.34834289550781 8.414573669433594 61.34737396240234 6.299339294433594 C 56.17134475708008 4.110054016113281 50.67128753662109 3 45 3 M 45 0 C 69.85281372070312 0 90 20.14718627929688 90 45 C 90 69.85281372070312 69.85281372070312 90 45 90 C 20.14718627929688 90 0 69.85281372070312 0 45 C 0 20.14718627929688 20.14718627929688 0 45 0 Z" stroke="none" fill="#2a5673"/>
      </g>
    </g>
    <g id="Group_1143820" data-name="Group 1143820" transform="translate(785.334 6876.29)">
      <g id="Group_1143819" data-name="Group 1143819" transform="translate(-35.334 -35.301)">
        <g id="Group_1143815" data-name="Group 1143815" transform="translate(0 0)">
          <circle id="Ellipse_11581" data-name="Ellipse 11581" cx="10.958" cy="10.958" r="10.958" transform="translate(0 15.495) rotate(-45)" fill="#60b7ff"/>
          <circle id="Ellipse_11582" data-name="Ellipse 11582" cx="9.596" cy="9.596" r="9.596" transform="translate(5.901 5.898)" fill="#8ac9fe"/>
          <path id="Path_978933" data-name="Path 978933" d="M112.609,112.618h10.958a10.953,10.953,0,0,1-5.478,9.491Z" transform="translate(-97.112 -97.123)" fill="#fd4755" fill-rule="evenodd"/>
          <path id="Path_978934" data-name="Path 978934" d="M112.609,112.618h9.6a9.592,9.592,0,0,1-4.8,8.312Z" transform="translate(-97.112 -97.123)" fill="#fe646f" fill-rule="evenodd"/>
          <path id="Path_978935" data-name="Path 978935" d="M123.567,18.966H112.609V8.008A10.958,10.958,0,0,1,123.567,18.966Z" transform="translate(-97.112 -3.471)" fill="#ffd064" fill-rule="evenodd"/>
          <path id="Path_978936" data-name="Path 978936" d="M122.205,30.6h-9.6v-9.6A9.6,9.6,0,0,1,122.205,30.6Z" transform="translate(-97.112 -15.108)" fill="#ffe177" fill-rule="evenodd"/>
        </g>
        <g id="Group_1143816" data-name="Group 1143816" transform="translate(31.645 4.247)">
          <path id="Path_978937" data-name="Path 978937" d="M267.939,5.245h2.826a1.181,1.181,0,0,1,1.179,1.179V9.25a1.181,1.181,0,0,1-1.179,1.179h-2.826A1.181,1.181,0,0,1,266.76,9.25V6.424A1.181,1.181,0,0,1,267.939,5.245Z" transform="translate(-266.76 -5.245)" fill="#8ac9fe" fill-rule="evenodd"/>
          <path id="Path_978938" data-name="Path 978938" d="M267.939,87.87h2.826a1.181,1.181,0,0,1,1.179,1.179v2.826a1.181,1.181,0,0,1-1.179,1.179h-2.826a1.181,1.181,0,0,1-1.179-1.179V89.049A1.181,1.181,0,0,1,267.939,87.87Z" transform="translate(-266.76 -79.215)" fill="#ffe177" fill-rule="evenodd"/>
          <path id="Path_978939" data-name="Path 978939" d="M267.939,170.495h2.826a1.181,1.181,0,0,1,1.179,1.179V174.5a1.181,1.181,0,0,1-1.179,1.179h-2.826a1.181,1.181,0,0,1-1.179-1.179v-2.826A1.181,1.181,0,0,1,267.939,170.495Z" transform="translate(-266.76 -153.185)" fill="#fe646f" fill-rule="evenodd"/>
        </g>
        <g id="Group_1143817" data-name="Group 1143817" transform="translate(4.539 32.468)">
          <path id="Path_978940" data-name="Path 978940" d="M198.061,348.359h3.48a1.049,1.049,0,0,1,1.048,1.047v14.21a1.049,1.049,0,0,1-1.048,1.047h-3.48a1.049,1.049,0,0,1-1.048-1.047v-14.21A1.049,1.049,0,0,1,198.061,348.359Z" transform="translate(-177.214 -340.638)" fill="#ffe177" fill-rule="evenodd"/>
          <path id="Path_978941" data-name="Path 978941" d="M201.54,348.359a1.049,1.049,0,0,1,1.048,1.047v14.21a1.049,1.049,0,0,1-1.048,1.047h-3.48a1.049,1.049,0,0,1-1.048-1.047h3.48a1.05,1.05,0,0,0,1.048-1.048Z" transform="translate(-177.214 -340.638)" fill="#ffd064" fill-rule="evenodd"/>
          <path id="Path_978942" data-name="Path 978942" d="M294.647,348.359h3.48a1.049,1.049,0,0,1,1.048,1.047v14.21a1.049,1.049,0,0,1-1.048,1.047h-3.48a1.049,1.049,0,0,1-1.048-1.047v-14.21A1.049,1.049,0,0,1,294.647,348.359Z" transform="translate(-263.682 -340.638)" fill="#fe646f" fill-rule="evenodd"/>
          <path id="Path_978943" data-name="Path 978943" d="M298.126,348.359a1.049,1.049,0,0,1,1.048,1.047v14.21a1.049,1.049,0,0,1-1.048,1.047h-3.48a1.049,1.049,0,0,1-1.048-1.047h3.48a1.049,1.049,0,0,0,1.047-1.048Z" transform="translate(-263.682 -340.638)" fill="#fd4755" fill-rule="evenodd"/>
          <path id="Path_978944" data-name="Path 978944" d="M9.049,321.359h3.48a1.049,1.049,0,0,1,1.048,1.047v17.038a1.049,1.049,0,0,1-1.048,1.048H9.049A1.049,1.049,0,0,1,8,339.444V322.406A1.05,1.05,0,0,1,9.049,321.359Z" transform="translate(-8.001 -316.467)" fill="#6cf5c2" fill-rule="evenodd"/>
          <path id="Path_978945" data-name="Path 978945" d="M12.528,321.359a1.049,1.049,0,0,1,1.048,1.047v17.038a1.049,1.049,0,0,1-1.048,1.048H9.049A1.049,1.049,0,0,1,8,339.444h3.48a1.05,1.05,0,0,0,1.048-1.048Z" transform="translate(-8.001 -316.467)" fill="#00e499" fill-rule="evenodd"/>
          <path id="Path_978946" data-name="Path 978946" d="M101.475,274.655h3.48A1.05,1.05,0,0,1,106,275.7v21.93a1.05,1.05,0,0,1-1.048,1.048h-3.48a1.05,1.05,0,0,1-1.048-1.048V275.7A1.05,1.05,0,0,1,101.475,274.655Z" transform="translate(-90.745 -274.655)" fill="#8ac9fe" fill-rule="evenodd"/>
          <path id="Path_978947" data-name="Path 978947" d="M104.954,274.655A1.05,1.05,0,0,1,106,275.7v21.93a1.05,1.05,0,0,1-1.048,1.048h-3.48a1.05,1.05,0,0,1-1.048-1.048h3.48a1.05,1.05,0,0,0,1.048-1.048Z" transform="translate(-90.745 -274.655)" fill="#60b7ff" fill-rule="evenodd"/>
        </g>
        <g id="Group_1143818" data-name="Group 1143818" transform="translate(21.279 20.181)">
          <path id="Path_978948" data-name="Path 978948" d="M375.054,354.859a10.853,10.853,0,0,1-1.831,2.016l4.979,4.881,1.9-1.954Z" transform="translate(-351.705 -334.171)" fill="#a79ba7" fill-rule="evenodd"/>
          <path id="Path_978949" data-name="Path 978949" d="M386.392,354.538a1.251,1.251,0,0,1-.542.727l4.946,4.914.606-.664Z" transform="translate(-363.009 -333.883)" fill="#837683" fill-rule="evenodd"/>
          <path id="Path_978950" data-name="Path 978950" d="M415.917,398.984l2.139-2.2a.984.984,0,0,0-.021-1.387l-5.925-5.75a.984.984,0,0,0-1.387.021l-2.139,2.2a.984.984,0,0,0,.021,1.387l5.925,5.75A.984.984,0,0,0,415.917,398.984Z" transform="translate(-383.115 -365.064)" fill="#f1ba84" fill-rule="evenodd"/>
          <path id="Path_978951" data-name="Path 978951" d="M434.144,389.643l5.925,5.75a.984.984,0,0,1,.021,1.387l-2.139,2.2a.975.975,0,0,1-.266.194.985.985,0,0,0,1.142-.194l2.139-2.2a.984.984,0,0,0-.021-1.387l-5.925-5.75a.985.985,0,0,0-1.121-.173A.966.966,0,0,1,434.144,389.643Z" transform="translate(-406.025 -365.064)" fill="#e3a76f" fill-rule="evenodd"/>
          <circle id="Ellipse_11583" data-name="Ellipse 11583" cx="10.79" cy="10.79" r="10.79" transform="translate(0 15.257) rotate(-45)" fill="#8ac9fe"/>
          <path id="Path_978952" data-name="Path 978952" d="M309.039,200a10.79,10.79,0,0,1,0,21.58q-.263,0-.524-.013a10.79,10.79,0,0,0,0-21.554C308.689,200.006,308.863,200,309.039,200Z" transform="translate(-293.775 -195.534)" fill="#60b7ff" fill-rule="evenodd"/>
          <circle id="Ellipse_11584" data-name="Ellipse 11584" cx="7.748" cy="7.748" r="7.748" transform="translate(4.301 15.257) rotate(-45)" fill="#eceff1"/>
          <path id="Path_978953" data-name="Path 978953" d="M247.3,229.042c.176,0,.351.007.524.018a7.747,7.747,0,0,0,0,15.459c-.173.012-.348.018-.524.018a7.748,7.748,0,1,1,0-15.5Z" transform="translate(-232.036 -221.533)" fill="#d1d1d6" fill-rule="evenodd"/>
        </g>
      </g>
      <path id="Path_978954" data-name="Path 978954" d="M15.258,51.964h-3.9V29.616h3.9ZM16.1,27.94H10.522a.838.838,0,0,0-.838.837V52.8a.838.838,0,0,0,.838.838H16.1a.839.839,0,0,0,.838-.838V28.777a.839.839,0,0,0-.838-.837Zm16.745-3.1a6.91,6.91,0,1,1-6.909,6.91A6.918,6.918,0,0,1,32.842,24.838Zm0,15.5a8.586,8.586,0,1,0-8.585-8.585A8.6,8.6,0,0,0,32.842,40.333Zm19.077,7.29-2.14,2.205a.147.147,0,0,1-.2,0l-5.925-5.75a.138.138,0,0,1-.042-.1.134.134,0,0,1,.039-.1l2.139-2.205a.142.142,0,0,1,.1-.042h0a.14.14,0,0,1,.1.039l5.926,5.75a.148.148,0,0,1,0,.2ZM35.494,51.964h-3.9V43.308a11.666,11.666,0,0,0,3.9-.238v8.894Zm-10.118,0h-3.9V37.337h1.173a11.7,11.7,0,0,0,2.727,3.317ZM32.842,21.8a9.952,9.952,0,1,0,9.952,9.952A9.963,9.963,0,0,0,32.842,21.8Zm-3.77-2.8H32V20.15a11.539,11.539,0,0,0-2.93.6Zm14.809,22.24-.729.75L41.067,39.96q.369-.371.7-.773Zm9.2,4.984-5.926-5.75a1.82,1.82,0,0,0-2.019-.349L42.76,37.812a11.608,11.608,0,0,0-2.207-14.76h4.138a.838.838,0,1,0,0-1.676H38.1a11.536,11.536,0,0,0-4.417-1.225V18.157a.838.838,0,0,0-.838-.839H28.234a.838.838,0,0,0-.837.839v3.32a11.626,11.626,0,0,0-5.5,14.183H20.639a.838.838,0,0,0-.838.838V52.8a.838.838,0,0,0,.838.838h5.575a.838.838,0,0,0,.838-.838V41.828A11.544,11.544,0,0,0,29.919,43v9.8a.838.838,0,0,0,.838.838h5.575a.838.838,0,0,0,.838-.838V42.54a11.608,11.608,0,0,0,2.625-1.478l2.28,2.214a1.823,1.823,0,0,0,.411,2.008l5.925,5.75a1.822,1.822,0,0,0,2.572-.039l2.139-2.2a1.821,1.821,0,0,0-.039-2.571ZM5.577,51.964h-3.9V34.508h3.9Zm.838-19.132H.84A.838.838,0,0,0,0,33.67V52.8a.838.838,0,0,0,.838.838H6.415a.838.838,0,0,0,.838-.838V33.67a.838.838,0,0,0-.838-.838ZM35.746,18.7a.838.838,0,0,1,.837-.837H52.8a.838.838,0,1,1,0,1.675H36.584a.838.838,0,0,1-.837-.838Zm-6.674-8.366H32v2.93h-2.93Zm-.838,4.606H32.84a.838.838,0,0,0,.838-.838V9.5a.838.838,0,0,0-.838-.838H28.234A.838.838,0,0,0,27.4,9.5v4.606A.838.838,0,0,0,28.234,14.945Zm7.512-1.386a.838.838,0,0,1,.837-.838h8.107a.838.838,0,1,1,0,1.676H36.584a.839.839,0,0,1-.837-.838Zm0-3.509a.839.839,0,0,1,.837-.838H52.8a.838.838,0,1,1,0,1.676H36.584a.838.838,0,0,1-.837-.838ZM29.072,1.684H32v2.93h-2.93ZM28.234,6.29H32.84a.838.838,0,0,0,.838-.838V.846A.838.838,0,0,0,32.84.008H28.234A.838.838,0,0,0,27.4.846V5.452A.838.838,0,0,0,28.234,6.29ZM35.746,4.9a.838.838,0,0,1,.837-.838h8.107a.838.838,0,1,1,0,1.676H36.584a.839.839,0,0,1-.837-.838Zm0-3.509a.839.839,0,0,1,.837-.838H52.8a.838.838,0,1,1,0,1.676H36.584a.838.838,0,0,1-.837-.838ZM10.96,1.719V11.8a.837.837,0,0,0,.116.424l5.111,8.694a10.119,10.119,0,1,1-5.226-19.2Zm10.924,9.251a10.137,10.137,0,0,0-9.248-9.251v9.248Zm-4.254,9.1-4.367-7.428,8.62,0A10.122,10.122,0,0,1,17.629,20.07ZM11.8,23.6a11.8,11.8,0,1,1,11.8-11.8A11.809,11.809,0,0,1,11.8,23.6Z" transform="translate(-31.634 -31.61)" fill-rule="evenodd"/>
    </g>
  </g>
</svg>
