<svg xmlns="http://www.w3.org/2000/svg" xmlns:xlink="http://www.w3.org/1999/xlink" width="108" height="108" viewBox="0 0 108 108">
  <defs>
    <filter id="Fondo" x="0" y="0" width="108" height="108" filterUnits="userSpaceOnUse">
      <feOffset dy="3" input="SourceAlpha"/>
      <feGaussianBlur stdDeviation="3" result="blur"/>
      <feFlood flood-opacity="0.161"/>
      <feComposite operator="in" in2="blur"/>
      <feComposite in="SourceGraphic"/>
    </filter>
  </defs>
  <g id="Group_1144422" data-name="Group 1144422" transform="translate(-825 -2127)">
    <g transform="matrix(1, 0, 0, 1, 825, 2127)" filter="url(#Fondo)">
      <g id="Fondo-2" data-name="Fondo" transform="translate(9 6)" fill="#fff4e4">
        <path d="M 45 88.5 C 39.12687683105469 88.5 33.43022537231445 87.35007476806641 28.06830024719238 85.08217620849609 C 22.88852500915527 82.89131164550781 18.23629951477051 79.75458526611328 14.2408504486084 75.75914764404297 C 10.24541282653809 71.76370239257812 7.108687400817871 67.11147308349609 4.917825222015381 61.93170166015625 C 2.649924993515015 56.56977462768555 1.5 50.87312316894531 1.5 45 C 1.5 39.12687683105469 2.649924993515015 33.43022537231445 4.917825222015381 28.06830024719238 C 7.108687400817871 22.88852500915527 10.24541282653809 18.23629951477051 14.2408504486084 14.2408504486084 C 18.23629951477051 10.24541282653809 22.88852500915527 7.108687400817871 28.06830024719238 4.917825222015381 C 33.43022537231445 2.649924993515015 39.12687683105469 1.5 45 1.5 C 50.87312316894531 1.5 56.56977462768555 2.649924993515015 61.93170166015625 4.917825222015381 C 67.11147308349609 7.108687400817871 71.76370239257812 10.24541282653809 75.75914764404297 14.2408504486084 C 79.75458526611328 18.23629951477051 82.89131164550781 22.88852500915527 85.08217620849609 28.06830024719238 C 87.35007476806641 33.43022537231445 88.5 39.12687683105469 88.5 45 C 88.5 50.87312316894531 87.35007476806641 56.56977462768555 85.08217620849609 61.93170166015625 C 82.89131164550781 67.11147308349609 79.75458526611328 71.76370239257812 75.75914764404297 75.75914764404297 C 71.76370239257812 79.75458526611328 67.11147308349609 82.89131164550781 61.93170166015625 85.08217620849609 C 56.56977462768555 87.35007476806641 50.87312316894531 88.5 45 88.5 Z" stroke="none"/>
        <path d="M 45 3 C 39.32871246337891 3 33.82865524291992 4.110054016113281 28.65262985229492 6.299339294433594 C 23.65165710449219 8.414573669433594 19.15968322753906 11.44334411621094 15.301513671875 15.301513671875 C 11.44334411621094 19.15968322753906 8.414573669433594 23.65165710449219 6.299339294433594 28.65262985229492 C 4.110054016113281 33.82865524291992 3 39.32871246337891 3 45 C 3 50.67128753662109 4.110054016113281 56.17134475708008 6.299339294433594 61.34737396240234 C 8.414573669433594 66.34834289550781 11.44334411621094 70.84031677246094 15.301513671875 74.698486328125 C 19.15968322753906 78.55665588378906 23.65165710449219 81.58542633056641 28.65262985229492 83.70066070556641 C 33.82865524291992 85.88994598388672 39.32871246337891 87 45 87 C 50.67128753662109 87 56.17134475708008 85.88994598388672 61.34737396240234 83.70066070556641 C 66.34834289550781 81.58542633056641 70.84031677246094 78.55665588378906 74.698486328125 74.698486328125 C 78.55665588378906 70.84031677246094 81.58542633056641 66.34834289550781 83.70066070556641 61.34737396240234 C 85.88994598388672 56.17134475708008 87 50.67128753662109 87 45 C 87 39.32871246337891 85.88994598388672 33.82865524291992 83.70066070556641 28.65262985229492 C 81.58542633056641 23.65165710449219 78.55665588378906 19.15968322753906 74.698486328125 15.301513671875 C 70.84031677246094 11.44334411621094 66.34834289550781 8.414573669433594 61.34737396240234 6.299339294433594 C 56.17134475708008 4.110054016113281 50.67128753662109 3 45 3 M 45 0 C 69.85281372070312 0 90 20.14718627929688 90 45 C 90 69.85281372070312 69.85281372070312 90 45 90 C 20.14718627929688 90 0 69.85281372070312 0 45 C 0 20.14718627929688 20.14718627929688 0 45 0 Z" stroke="none" fill="#ff9902"/>
      </g>
    </g>
    <g id="Group_1144291" data-name="Group 1144291" transform="translate(849.544 2148.46)">
      <path id="Path_978892" data-name="Path 978892" d="M83.484,298.089a28.625,28.625,0,0,0,34.2,4.241l-14.639-21.988Z" transform="translate(-73.929 -247.994)" fill="#00c8c8"/>
      <path id="Path_978893" data-name="Path 978893" d="M36.254,34.806h0l28.018-5.551A28.619,28.619,0,1,0,14.228,54.439L35.376,35.249a1.846,1.846,0,0,1,.878-.443Z" transform="translate(-7.155 -7.077)" fill="#f9b534"/>
      <path id="Path_978894" data-name="Path 978894" d="M296.872,250.08a28.569,28.569,0,0,0,11.255-22.747,28.879,28.879,0,0,0-.243-3.739l-25.307,5.014Z" transform="translate(-250.048 -197.794)" fill="#eb3958"/>
      <path id="Path_978895" data-name="Path 978895" d="M133.3,302.694a28.549,28.549,0,0,0,10.124-1.845l-13.652-20.507L113.7,294.925A28.516,28.516,0,0,0,133.3,302.694Z" transform="translate(-100.659 -247.994)" fill="#50cdc8"/>
      <path id="Path_978896" data-name="Path 978896" d="M61,8a28.513,28.513,0,0,0-19.4,7.586,28.617,28.617,0,0,0,.462,35.726l17.7-16.062a1.846,1.846,0,0,1,.878-.443h0l28.017-5.551A28.628,28.628,0,0,0,61,8Z" transform="translate(-31.536 -7.077)" fill="#f9cb4e"/>
      <path id="Path_978897" data-name="Path 978897" d="M296.218,249.1a28.691,28.691,0,0,0,5.868-4.184,28.486,28.486,0,0,0,6.04-17.582,28.879,28.879,0,0,0-.243-3.739l-25.307,5.014Z" transform="translate(-250.048 -197.793)" fill="#f0516e"/>
      <g id="Group_1144290" data-name="Group 1144290" transform="translate(16.85 14.424)">
        <path id="Path_978898" data-name="Path 978898" d="M152.827,160.484a1.338,1.338,0,0,0-.578-1.1,4.545,4.545,0,0,0-4.961,0,1.338,1.338,0,0,0-.578,1.1s0,1.662,0,1.662l6.116,0Z" transform="translate(-146.71 -154.764)" fill="#fff"/>
        <path id="Path_978899" data-name="Path 978899" d="M160.51,128.536l.111.09a1.131,1.131,0,0,0,1.433,0l.11-.09a1.974,1.974,0,0,0,.723-1.527v-.768A1.241,1.241,0,0,0,161.645,125h-.617a1.241,1.241,0,0,0-1.241,1.241v.768a1.974,1.974,0,0,0,.723,1.526Z" transform="translate(-158.278 -125)" fill="#fff"/>
        <path id="Path_978900" data-name="Path 978900" d="M174.832,414.186a4.546,4.546,0,0,0-4.961,0,1.339,1.339,0,0,0-.577,1.1s0,1.662,0,1.662l6.116,0v-1.664a1.338,1.338,0,0,0-.578-1.1Z" transform="translate(-166.688 -380.166)" fill="#fff"/>
        <path id="Path_978901" data-name="Path 978901" d="M183.605,379.8a1.241,1.241,0,0,0-1.241,1.241v.768a1.974,1.974,0,0,0,.723,1.527l.11.09a1.131,1.131,0,0,0,1.433,0l.111-.09a1.974,1.974,0,0,0,.723-1.527v-.768a1.241,1.241,0,0,0-1.241-1.241Z" transform="translate(-178.25 -350.399)" fill="#fff"/>
        <path id="Path_978902" data-name="Path 978902" d="M358.924,307.086a4.546,4.546,0,0,0-4.961,0,1.339,1.339,0,0,0-.577,1.1s0,1.662,0,1.662l6.116,0v-1.664a1.338,1.338,0,0,0-.578-1.1Z" transform="translate(-329.537 -285.424)" fill="#fff"/>
        <path id="Path_978903" data-name="Path 978903" d="M368.314,272.7H367.7a1.241,1.241,0,0,0-1.241,1.241v.768a1.974,1.974,0,0,0,.723,1.527l.11.091a1.131,1.131,0,0,0,1.433,0l.111-.091a1.973,1.973,0,0,0,.723-1.527v-.768a1.241,1.241,0,0,0-1.241-1.241Z" transform="translate(-341.1 -255.657)" fill="#fff"/>
      </g>
      <path id="Path_978904" data-name="Path 978904" d="M138.713,123.643v1.647a.924.924,0,0,0,.923.938l6.116,0a.923.923,0,0,0,.923-.923v-1.664a2.262,2.262,0,0,0-.976-1.861,4.94,4.94,0,0,0-.876-.479,2.892,2.892,0,0,0,.344-1.371v-.768A2.167,2.167,0,0,0,143,117h-.617a2.167,2.167,0,0,0-2.164,2.164v.768a2.891,2.891,0,0,0,.344,1.371,4.949,4.949,0,0,0-.876.479A2.262,2.262,0,0,0,138.713,123.643Zm3.355-4.479a.318.318,0,0,1,.318-.318H143a.318.318,0,0,1,.318.318v.768a1.047,1.047,0,0,1-.385.813l-.11.09a.208.208,0,0,1-.263,0l-.111-.091a1.047,1.047,0,0,1-.385-.813Zm-1.508,4.48a.415.415,0,0,1,.179-.342,3.625,3.625,0,0,1,3.912,0,.415.415,0,0,1,.179.342v.741h-4.27C140.559,124,140.559,123.644,140.559,123.644Z" transform="translate(-122.785 -103.499)"/>
      <path id="Path_978905" data-name="Path 978905" d="M218.19,132.111a.923.923,0,0,0,1.305,0l5.539-5.539a.923.923,0,1,0-1.305-1.306l-5.539,5.539A.923.923,0,0,0,218.19,132.111Z" transform="translate(-192.853 -110.573)"/>
      <path id="Path_978906" data-name="Path 978906" d="M247.906,173a.923.923,0,1,0,0,1.846h.692a.923.923,0,0,0,0-1.846Z" transform="translate(-218.562 -153.038)"/>
      <path id="Path_978907" data-name="Path 978907" d="M232.105,126.846a.923.923,0,0,0,0-1.846h-.692a.923.923,0,1,0,0,1.846Z" transform="translate(-203.972 -110.576)"/>
      <path id="Path_978908" data-name="Path 978908" d="M168.277,384.583a4.947,4.947,0,0,0-.876-.479,2.891,2.891,0,0,0,.344-1.371v-.768a2.167,2.167,0,0,0-2.164-2.164h-.617a2.167,2.167,0,0,0-2.164,2.164v.768a2.891,2.891,0,0,0,.344,1.371,4.946,4.946,0,0,0-.876.48,2.262,2.262,0,0,0-.976,1.86v1.648a.924.924,0,0,0,.923.938l6.116,0a.923.923,0,0,0,.923-.923v-1.664a2.262,2.262,0,0,0-.977-1.861Zm-3.631-2.618a.319.319,0,0,1,.318-.318h.617a.319.319,0,0,1,.318.318v.768a1.047,1.047,0,0,1-.385.813l-.11.09a.208.208,0,0,1-.263,0l-.111-.091a1.047,1.047,0,0,1-.385-.813Zm2.762,5.221h-4.27v-.739a.415.415,0,0,1,.179-.342,3.625,3.625,0,0,1,3.912,0,.415.415,0,0,1,.179.342Z" transform="translate(-142.758 -335.975)"/>
      <path id="Path_978909" data-name="Path 978909" d="M240.767,394.912a.923.923,0,0,0,1.306,0l5.539-5.539a.923.923,0,0,0-1.306-1.306l-5.539,5.539A.923.923,0,0,0,240.767,394.912Z" transform="translate(-212.824 -343.05)"/>
      <path id="Path_978910" data-name="Path 978910" d="M271.175,435.8h-.692a.923.923,0,0,0,0,1.846h.692a.923.923,0,0,0,0-1.846Z" transform="translate(-238.534 -385.513)"/>
      <path id="Path_978911" data-name="Path 978911" d="M253.99,389.646h.692a.923.923,0,1,0,0-1.846h-.692a.923.923,0,1,0,0,1.846Z" transform="translate(-223.944 -343.052)"/>
      <path id="Path_978912" data-name="Path 978912" d="M352.369,269.483a4.943,4.943,0,0,0-.876-.479,2.892,2.892,0,0,0,.344-1.371v-.768a2.167,2.167,0,0,0-2.164-2.164h-.617a2.167,2.167,0,0,0-2.164,2.164v.768a2.891,2.891,0,0,0,.344,1.371,4.949,4.949,0,0,0-.876.479,2.261,2.261,0,0,0-.976,1.86v1.648a.924.924,0,0,0,.923.938l6.116,0a.923.923,0,0,0,.923-.923v-1.664A2.262,2.262,0,0,0,352.369,269.483Zm-3.632-2.619a.318.318,0,0,1,.318-.318h.617a.318.318,0,0,1,.318.318v.768a1.047,1.047,0,0,1-.385.813l-.11.09a.208.208,0,0,1-.263,0l-.111-.091a1.047,1.047,0,0,1-.385-.813Zm2.762,5.221h-4.27v-.74a.415.415,0,0,1,.179-.342,3.626,3.626,0,0,1,3.912,0,.415.415,0,0,1,.179.342Z" transform="translate(-305.608 -234.156)"/>
      <path id="Path_978913" data-name="Path 978913" d="M430.4,272.968l-5.539,5.539a.923.923,0,1,0,1.305,1.305l5.539-5.539a.923.923,0,0,0-1.306-1.306Z" transform="translate(-375.674 -241.231)"/>
      <path id="Path_978914" data-name="Path 978914" d="M455.267,320.7h-.692a.923.923,0,0,0,0,1.846h.692a.923.923,0,1,0,0-1.846Z" transform="translate(-401.384 -283.695)"/>
      <path id="Path_978915" data-name="Path 978915" d="M438.082,274.546h.692a.923.923,0,1,0,0-1.846h-.692a.923.923,0,0,0,0,1.846Z" transform="translate(-386.794 -241.233)"/>
      <path id="Path_978916" data-name="Path 978916" d="M96.734,272.753a.923.923,0,0,0-1.389-.172L75.787,290.328a.923.923,0,0,0-.022,1.347,29.548,29.548,0,0,0,35.3,4.378.923.923,0,0,0,.307-1.311Zm-.42,25.4a27.536,27.536,0,0,1-18.544-7.128l18.022-16.353,13.489,20.262A27.7,27.7,0,0,1,96.314,298.149Z" transform="translate(-66.852 -240.916)"/>
      <path id="Path_978917" data-name="Path 978917" d="M29.272,28.636l.026-.005,28-5.548a.923.923,0,0,0,.713-1.142A29.545,29.545,0,0,0,9.555,7.714.923.923,0,0,0,10.8,9.078,27.7,27.7,0,0,1,55.958,21.466L28.93,26.822l-.03.006a2.77,2.77,0,0,0-1.3.661L7.194,46.006A27.376,27.376,0,0,1,1.768,29.54,27.705,27.705,0,0,1,8.3,11.675a.923.923,0,0,0-1.407-1.2,29.505,29.505,0,0,0-.542,37.458A.923.923,0,0,0,7,48.282l.074,0a.923.923,0,0,0,.62-.239L28.841,28.856a.916.916,0,0,1,.431-.22Z" transform="translate(0)"/>
      <path id="Path_978918" data-name="Path 978918" d="M301.724,216.4a.923.923,0,0,0-1.095-.786l-25.307,5.014a.923.923,0,0,0-.589,1.417l14.3,21.473a.923.923,0,0,0,.616.4.912.912,0,0,0,.152.013.923.923,0,0,0,.56-.19,29.821,29.821,0,0,0,8.456-10.173,29.225,29.225,0,0,0,3.161-13.307A29.917,29.917,0,0,0,301.724,216.4Zm-4.558,16.333a27.971,27.971,0,0,1-7.156,8.926l-12.975-19.489L300,217.615c.083.878.125,1.762.125,2.639a27.394,27.394,0,0,1-2.963,12.474Z" transform="translate(-242.974 -190.715)"/>
    </g>
  </g>
</svg>
