<svg xmlns="http://www.w3.org/2000/svg" xmlns:xlink="http://www.w3.org/1999/xlink" width="108" height="108" viewBox="0 0 108 108">
  <defs>
    <filter id="Fondo" x="0" y="0" width="108" height="108" filterUnits="userSpaceOnUse">
      <feOffset dy="3" input="SourceAlpha"/>
      <feGaussianBlur stdDeviation="3" result="blur"/>
      <feFlood flood-opacity="0.161"/>
      <feComposite operator="in" in2="blur"/>
      <feComposite in="SourceGraphic"/>
    </filter>
  </defs>
  <g id="Group_1143832" data-name="Group 1143832" transform="translate(-4085.499 -9431.926)">
    <g transform="matrix(1, 0, 0, 1, 4085.5, 9431.93)" filter="url(#Fondo)">
      <g id="Fondo-2" data-name="Fondo" transform="translate(9 6)" fill="#fffbe8" stroke="#bca724" stroke-width="3">
        <circle cx="45" cy="45" r="45" stroke="none"/>
        <circle cx="45" cy="45" r="43.5" fill="none"/>
      </g>
    </g>
    <g id="Group_1143831" data-name="Group 1143831" transform="translate(4115.009 9456.936)">
      <path id="Path_978964" data-name="Path 978964" d="M7.5,7.5H46.637V57.959H7.5Z" transform="translate(-6.739 -6.74)" fill="#fef1da"/>
      <path id="Path_978965" data-name="Path 978965" d="M154.987,7.5V20.69a18.646,18.646,0,1,0,0,36.144v1.126h3.278V7.5Z" transform="translate(-118.367 -6.74)" fill="#fae2c0"/>
      <g id="Group_1143828" data-name="Group 1143828" transform="translate(5.474 4.911)">
        <g id="Group_1143827" data-name="Group 1143827">
          <path id="Path_978966" data-name="Path 978966" d="M0,0H16.392V5.123H0Z" transform="translate(13.319 12.294) rotate(90)" fill="#fe73c5"/>
          <path id="Path_978967" data-name="Path 978967" d="M134.651,195.909V200.8h5.123V186.1A18.62,18.62,0,0,0,134.651,195.909Z" transform="translate(-126.455 -172.113)" fill="#fe4fb7"/>
          <path id="Path_978968" data-name="Path 978968" d="M0,0H28.687V5.123H0Z" transform="translate(29.711) rotate(90)" fill="#6cf5c2"/>
          <path id="Path_978969" data-name="Path 978969" d="M301.237,132.012a18.7,18.7,0,0,0-5.123-.167v20.12h5.123V132.012Z" transform="translate(-271.525 -123.278)" fill="#00f2a6"/>
          <path id="Path_978970" data-name="Path 978970" d="M0,0H22.54V5.123H0Z" transform="translate(21.515 6.147) rotate(90)" fill="#ffd15b"/>
          <path id="Path_978971" data-name="Path 978971" d="M215.382,140.868v17.207H220.5V138.543A18.563,18.563,0,0,0,215.382,140.868Z" transform="translate(-198.99 -129.388)" fill="#ffc344"/>
          <path id="Path_978972" data-name="Path 978972" d="M0,0H10.245V5.123H0Z" transform="translate(5.123 18.442) rotate(90)" fill="#62dbfb"/>
        </g>
      </g>
      <g id="Group_1143829" data-name="Group 1143829" transform="translate(16.654 16.654)">
        <path id="Path_978973" data-name="Path 978973" d="M386.055,381.274l-4.781,4.781a1.23,1.23,0,0,1-1.739,0l-3.477-3.477,6.52-6.52,3.477,3.477A1.23,1.23,0,0,1,386.055,381.274Z" transform="translate(-354.532 -354.532)" fill="#0067c5"/>
        <path id="Path_978974" data-name="Path 978974" d="M437.182,432.835v4.347h-4.347l-3.26-3.26,4.347-4.347Z" transform="translate(-402.616 -402.616)" fill="#8d9ca8"/>
        <path id="Path_978975" data-name="Path 978975" d="M0,0H6.147V3.074H0Z" transform="translate(26.95 31.306) rotate(-45)" fill="#7a8c98"/>
        <path id="Path_978976" data-name="Path 978976" d="M378.817,385.337a17.85,17.85,0,0,0,6.52-6.52l-2.759-2.759-6.52,6.52Z" transform="translate(-354.532 -354.532)" fill="#0055a3"/>
        <circle id="Ellipse_11587" data-name="Ellipse 11587" cx="15.368" cy="15.368" r="15.368" fill="#528fd8"/>
        <path id="Path_978977" data-name="Path 978977" d="M215.82,194.3A15.369,15.369,0,0,1,194.3,215.82,15.368,15.368,0,1,0,215.82,194.3Z" transform="translate(-191.231 -191.231)" fill="#0573ce"/>
        <circle id="Ellipse_11588" data-name="Ellipse 11588" cx="12.294" cy="12.294" r="12.294" transform="translate(3.074 3.074)" fill="#62dbfb"/>
        <path id="Path_978978" data-name="Path 978978" d="M236.732,219.5A12.287,12.287,0,0,1,219.5,236.732,12.29,12.29,0,1,0,236.732,219.5Z" transform="translate(-213.867 -213.867)" fill="#01d0fb"/>
        <path id="Path_978979" data-name="Path 978979" d="M247.848,240.677v-2.869l-2.418-.4a6.41,6.41,0,0,0-.512-1.24l1.424-1.994-2.028-2.028-1.994,1.424a6.419,6.419,0,0,0-1.24-.512l-.4-2.418h-2.869l-.4,2.418a6.41,6.41,0,0,0-1.24.512l-1.994-1.424-2.028,2.028,1.424,1.994a6.419,6.419,0,0,0-.512,1.24l-2.418.4v2.869l2.418.4a6.41,6.41,0,0,0,.512,1.24l-1.424,1.994,2.028,2.028,1.994-1.424a6.419,6.419,0,0,0,1.24.512l.4,2.418h2.869l.4-2.418a6.41,6.41,0,0,0,1.24-.512l1.994,1.424,2.028-2.028-1.424-1.994a6.413,6.413,0,0,0,.512-1.24Zm-8.606.717a2.152,2.152,0,1,1,2.152-2.152A2.152,2.152,0,0,1,239.242,241.395Z" transform="translate(-223.874 -223.875)" fill="#8d9ca8"/>
        <path id="Path_978980" data-name="Path 978980" d="M261.181,254.009V251.14l-2.418-.4a6.41,6.41,0,0,0-.512-1.24l1.424-1.994-2.028-2.028-.4.282a9,9,0,0,1-11.494,11.494l-.282.4,2.028,2.028,1.994-1.424a6.418,6.418,0,0,0,1.24.512l.4,2.418h2.869l.4-2.418a6.41,6.41,0,0,0,1.24-.512l1.994,1.424,2.028-2.028-1.424-1.994a6.41,6.41,0,0,0,.512-1.24Z" transform="translate(-237.207 -237.207)" fill="#7a8c98"/>
      </g>
      <g id="Group_1143830" data-name="Group 1143830" transform="translate(0 0)">
        <path id="Path_978981" data-name="Path 978981" d="M.761,34.138a.761.761,0,0,0,.761-.761V1.523H39.137V6.208a.761.761,0,1,0,1.523,0V.761A.761.761,0,0,0,39.9,0H.761A.761.761,0,0,0,0,.761V33.377A.761.761,0,0,0,.761,34.138Z" transform="translate(0 0)"/>
        <path id="Path_978982" data-name="Path 978982" d="M51.758,83.058,49,80.3a1.993,1.993,0,0,0-.283-2.456L46.58,75.707a16.069,16.069,0,0,0,1.465-5.1.761.761,0,0,0-1.513-.174,14.606,14.606,0,1,1,0-3.373.761.761,0,1,0,1.513-.174A16.083,16.083,0,0,0,40.66,55.118V46.484a.761.761,0,1,0-1.523,0v7.78a16.066,16.066,0,0,0-3.19-1.167V41.634a.761.761,0,0,0-.761-.761H30.062a.761.761,0,0,0-.761.761V52.846q-.789.134-1.55.344V47.782a.761.761,0,0,0-.761-.761H21.866a.761.761,0,0,0-.761.761v9.1a16.276,16.276,0,0,0-1.55,1.64V53.928a.761.761,0,0,0-.761-.761H13.67a.761.761,0,0,0-.761.761V69.56H11.358V60.076a.761.761,0,0,0-.761-.761H5.474a.761.761,0,0,0-.761.761V69.56H3.835a.761.761,0,1,0,0,1.523H16.062A16.139,16.139,0,0,0,38.98,83.3l.157.157v3.724H1.523V73.653a.761.761,0,0,0-1.523,0V87.943a.761.761,0,0,0,.761.761H39.9a.761.761,0,0,0,.761-.761V84.98l.458.458a1.99,1.99,0,0,0,2.456.283l2.76,2.76A.761.761,0,1,0,47.411,87.4l-2.722-2.722,3.27-3.27,2.722,2.722a.761.761,0,0,0,1.077-1.077ZM30.824,42.4h3.6v10.4a16.259,16.259,0,0,0-2.4-.179q-.6,0-1.2.044Zm-8.2,6.147h3.6v5.149a16.11,16.11,0,0,0-3.6,1.949ZM6.236,69.56V60.837h3.6V69.56Zm8.2,0V54.689h3.6v6.033a16.031,16.031,0,0,0-2.14,8.022q0,.41.021.815h-1.48ZM42.526,84.5a.465.465,0,0,1-.331-.137l-1.816-1.816A16.155,16.155,0,0,0,45.825,77.1l1.814,1.814a.469.469,0,0,1,0,.662l-4.564,4.564h0l-.217.217a.464.464,0,0,1-.331.137Z" transform="translate(0 -36.723)"/>
        <path id="Path_978983" data-name="Path 978983" d="M289.626,286.713a2.913,2.913,0,1,0,2.913,2.913A2.916,2.916,0,0,0,289.626,286.713Zm0,4.3a1.39,1.39,0,1,1,1.39-1.39A1.392,1.392,0,0,1,289.626,291.016Z" transform="translate(-257.604 -257.604)"/>
        <path id="Path_978984" data-name="Path 978984" d="M239.063,229.5l1.158-1.622a.761.761,0,0,0-.081-.981l-2.028-2.028a.761.761,0,0,0-.981-.081l-1.622,1.158q-.242-.111-.494-.2l-.328-1.967a.761.761,0,0,0-.751-.636h-2.869a.761.761,0,0,0-.751.636l-.328,1.967q-.251.093-.494.2l-1.622-1.158a.762.762,0,0,0-.981.081l-2.028,2.028a.761.761,0,0,0-.081.981l1.158,1.622q-.111.242-.2.494l-1.966.328a.761.761,0,0,0-.636.751v2.869a.761.761,0,0,0,.636.751l1.966.328q.093.251.2.494l-1.158,1.622a.761.761,0,0,0,.081.981l2.028,2.028a.761.761,0,0,0,.981.081l1.622-1.158q.242.111.494.2l.328,1.967a.761.761,0,0,0,.751.636h2.869a.761.761,0,0,0,.751-.636l.328-1.967q.251-.093.494-.2l1.622,1.158a.762.762,0,0,0,.981-.081l2.028-2.028a.761.761,0,0,0,.081-.981l-1.158-1.622q.111-.242.2-.494l1.966-.328a.761.761,0,0,0,.636-.751V231.07a.761.761,0,0,0-.636-.751l-1.966-.328Q239.173,229.74,239.063,229.5Zm1.284,3.8-1.782.3a.762.762,0,0,0-.6.535,5.664,5.664,0,0,1-.451,1.093.761.761,0,0,0,.049.806l1.049,1.469-1.116,1.116-1.469-1.049a.762.762,0,0,0-.806-.049,5.669,5.669,0,0,1-1.093.451.761.761,0,0,0-.535.6l-.3,1.782h-1.579l-.3-1.782a.762.762,0,0,0-.535-.6,5.672,5.672,0,0,1-1.093-.451.761.761,0,0,0-.806.049l-1.469,1.049-1.116-1.116,1.049-1.469a.762.762,0,0,0,.049-.806,5.667,5.667,0,0,1-.451-1.093.761.761,0,0,0-.6-.535l-1.782-.3v-1.579l1.782-.3a.762.762,0,0,0,.6-.535,5.662,5.662,0,0,1,.451-1.093.761.761,0,0,0-.049-.806l-1.049-1.469,1.116-1.116,1.469,1.049a.762.762,0,0,0,.806.049,5.669,5.669,0,0,1,1.092-.451.761.761,0,0,0,.535-.6l.3-1.782h1.579l.3,1.782a.762.762,0,0,0,.535.6,5.672,5.672,0,0,1,1.093.451.762.762,0,0,0,.806-.049l1.469-1.049,1.116,1.116-1.049,1.469a.762.762,0,0,0-.049.806,5.658,5.658,0,0,1,.451,1.093.761.761,0,0,0,.6.535l1.782.3v1.579Z" transform="translate(-200.48 -200.483)"/>
        <path id="Path_978985" data-name="Path 978985" d="M199.864,186.808a13.056,13.056,0,1,0,13.056,13.056,13.071,13.071,0,0,0-13.056-13.056Zm0,24.589A11.533,11.533,0,1,1,211.4,199.864,11.546,11.546,0,0,1,199.864,211.4Z" transform="translate(-167.842 -167.842)"/>
        <path id="Path_978986" data-name="Path 978986" d="M47.181,42.393h2a.761.761,0,0,0,0-1.523h-2a.761.761,0,0,0,0,1.523Z" transform="translate(-41.707 -36.721)"/>
        <path id="Path_978987" data-name="Path 978987" d="M101.983,42.393a.761.761,0,0,0,0-1.523H97.114a.761.761,0,0,0,0,1.523Z" transform="translate(-86.571 -36.721)"/>
        <path id="Path_978988" data-name="Path 978988" d="M55.832,71.905a.761.761,0,0,0-.761-.761H47.181a.761.761,0,0,0,0,1.523H55.07A.761.761,0,0,0,55.832,71.905Z" transform="translate(-41.707 -63.921)"/>
        <path id="Path_978989" data-name="Path 978989" d="M157.209,71.144h-2.049a.761.761,0,0,0,0,1.523h2.049a.761.761,0,0,0,0-1.523Z" transform="translate(-138.723 -63.921)"/>
        <path id="Path_978990" data-name="Path 978990" d="M47.181,101.418a.761.761,0,0,0,0,1.523h3.533a.761.761,0,0,0,0-1.523Z" transform="translate(-41.707 -91.122)"/>
        <path id="Path_978991" data-name="Path 978991" d="M112.25,102.941h6.405a.761.761,0,1,0,0-1.523H112.25a.761.761,0,1,0,0,1.523Z" transform="translate(-100.17 -91.122)"/>
        <path id="Path_978992" data-name="Path 978992" d="M47.181,407.7h2a.761.761,0,0,0,0-1.523h-2a.761.761,0,0,0,0,1.523Z" transform="translate(-41.707 -364.941)"/>
        <path id="Path_978993" data-name="Path 978993" d="M100.957,406.178H97.113a.761.761,0,0,0,0,1.523h3.844a.761.761,0,0,0,0-1.523Z" transform="translate(-86.57 -364.941)"/>
        <path id="Path_978994" data-name="Path 978994" d="M47.181,437.975h6.864a.761.761,0,0,0,0-1.523H47.181a.761.761,0,0,0,0,1.523Z" transform="translate(-41.707 -392.141)"/>
        <path id="Path_978995" data-name="Path 978995" d="M147.117,436.452h-2.049a.761.761,0,0,0,0,1.523h2.049a.761.761,0,1,0,0-1.523Z" transform="translate(-129.655 -392.141)"/>
        <path id="Path_978996" data-name="Path 978996" d="M47.181,468.249h3.533a.761.761,0,1,0,0-1.523H47.181a.761.761,0,1,0,0,1.523Z" transform="translate(-41.707 -419.342)"/>
        <path id="Path_978997" data-name="Path 978997" d="M117.631,466.726H112.25a.761.761,0,1,0,0,1.523h5.381a.761.761,0,1,0,0-1.523Z" transform="translate(-100.17 -419.342)"/>
      </g>
    </g>
  </g>
</svg>
