<svg xmlns="http://www.w3.org/2000/svg" xmlns:xlink="http://www.w3.org/1999/xlink" width="108" height="108" viewBox="0 0 108 108">
  <defs>
    <filter id="Fondo" x="0" y="0" width="108" height="108" filterUnits="userSpaceOnUse">
      <feOffset dy="3" input="SourceAlpha"/>
      <feGaussianBlur stdDeviation="3" result="blur"/>
      <feFlood flood-opacity="0.161"/>
      <feComposite operator="in" in2="blur"/>
      <feComposite in="SourceGraphic"/>
    </filter>
  </defs>
  <g id="Group_1143835" data-name="Group 1143835" transform="translate(-1061.998 -9450.926)">
    <g transform="matrix(1, 0, 0, 1, 1062, 9450.93)" filter="url(#Fondo)">
      <g id="Fondo-2" data-name="Fondo" transform="translate(9 6)" fill="#fffbe8" stroke="#bca724" stroke-width="3">
        <circle cx="45" cy="45" r="45" stroke="none"/>
        <circle cx="45" cy="45" r="43.5" fill="none"/>
      </g>
    </g>
    <g id="Group_1143834" data-name="Group 1143834" transform="translate(1088.344 9474.271)">
      <path id="Path_978998" data-name="Path 978998" d="M44.3,150.636v11.744h2.373l-4.051,5.033-4.05-5.033H40.94v-12.4a2.7,2.7,0,0,1,2.7-2.7h6.671v3.355Z" transform="translate(-34.402 -131.371)" fill="#01c0fa"/>
      <path id="Path_978999" data-name="Path 978999" d="M370.738,150.636v11.744h-2.373l4.051,5.033,4.05-5.033h-2.372v-12.4a2.7,2.7,0,0,0-2.7-2.7h-6.671v3.355Z" transform="translate(-325.323 -131.371)" fill="#01c0fa"/>
      <path id="Path_979000" data-name="Path 979000" d="M152.507,21.762A14.261,14.261,0,1,0,129.6,33.1a3.819,3.819,0,0,1,1.378,2.038l.6,2.241a2.7,2.7,0,0,0,2.608,2h8.121a2.7,2.7,0,0,0,2.608-2l.6-2.24a3.733,3.733,0,0,1,1.339-2.009,14.239,14.239,0,0,0,5.651-11.369Z" transform="translate(-110.591 -6.69)" fill="#fee903"/>
      <g id="Group_1143833" data-name="Group 1143833" transform="translate(20.942 1.414)">
        <circle id="Ellipse_11589" data-name="Ellipse 11589" cx="2.517" cy="2.517" r="2.517" transform="translate(4.325 25.045)" fill="#f4d902"/>
        <path id="Path_979001" data-name="Path 979001" d="M230.894,75.34a1.854,1.854,0,0,1-1.845-1.669l-1.333-13.327a1.62,1.62,0,0,1,1.612-1.782h3.13a1.62,1.62,0,0,1,1.612,1.782L232.738,73.67A1.854,1.854,0,0,1,230.894,75.34Z" transform="translate(-224.052 -53.65)" fill="#f4d902"/>
        <path id="Path_979002" data-name="Path 979002" d="M204.7,13.09a14.263,14.263,0,0,1,.171,22.866,3.733,3.733,0,0,0-1.339,2.009l-.065.242a5.4,5.4,0,0,1-5.216,4h-4.382l.044.162a2.7,2.7,0,0,0,2.608,2h8.121a2.7,2.7,0,0,0,2.608-2l.6-2.24a3.733,3.733,0,0,1,1.339-2.008A14.265,14.265,0,0,0,204.7,13.09Z" transform="translate(-193.866 -13.09)" fill="#f4d902"/>
      </g>
      <path id="Path_979003" data-name="Path 979003" d="M216.628,307.627h-4.375a1.62,1.62,0,0,1-1.537-1.108l-1.308-3.925h10.066l-1.308,3.925A1.621,1.621,0,0,1,216.628,307.627Z" transform="translate(-186.786 -269.906)" fill="#b2caec"/>
      <path id="Path_979004" data-name="Path 979004" d="M222.339,302.594l-.1.288a3.781,3.781,0,0,1-3.587,2.585h-.385l.351,1.052a1.621,1.621,0,0,0,1.537,1.108h4.375a1.62,1.62,0,0,0,1.537-1.108l1.308-3.925Z" transform="translate(-194.692 -269.906)" fill="#82aee3"/>
      <path id="Path_979005" data-name="Path 979005" d="M242.147,352.543a1.678,1.678,0,0,1-1.678-1.678v-1.678h3.355v1.678A1.678,1.678,0,0,1,242.147,352.543Z" transform="translate(-214.492 -311.467)" fill="#0055a3"/>
      <circle id="Ellipse_11590" data-name="Ellipse 11590" cx="2.517" cy="2.517" r="2.517" transform="translate(25.267 24.299)" fill="#01c0fa"/>
      <path id="Path_979006" data-name="Path 979006" d="M230.894,55.34a1.854,1.854,0,0,1-1.845-1.669l-1.333-13.327a1.62,1.62,0,0,1,1.612-1.782h3.13a1.62,1.62,0,0,1,1.612,1.782L232.738,53.67A1.854,1.854,0,0,1,230.894,55.34Z" transform="translate(-203.11 -34.396)" fill="#01c0fa"/>
      <path id="Path_979007" data-name="Path 979007" d="M23.255,352.111H10.2a2.7,2.7,0,0,1-2.7-2.7V336.357a2.7,2.7,0,0,1,2.7-2.7H23.255a2.7,2.7,0,0,1,2.7,2.7v13.054A2.7,2.7,0,0,1,23.255,352.111Z" transform="translate(-6.69 -297.613)" fill="#e53950"/>
      <path id="Path_979008" data-name="Path 979008" d="M23.7,333.656H22.026a2.713,2.713,0,0,1,.054.54v7.653a8.1,8.1,0,0,1-8.1,8.1H8a2.7,2.7,0,0,0,2.647,2.16H23.7a2.7,2.7,0,0,0,2.7-2.7V336.357A2.7,2.7,0,0,0,23.7,333.656Z" transform="translate(-7.136 -297.613)" fill="#ca2e43"/>
      <path id="Path_979009" data-name="Path 979009" d="M54.179,377.963,51.213,375l2.966-2.966-2.373-2.373-2.966,2.966-2.966-2.966L43.5,372.031,46.468,375,43.5,377.963l2.373,2.373,2.966-2.966,2.966,2.966Z" transform="translate(-38.803 -329.726)" fill="#fff"/>
      <path id="Path_979010" data-name="Path 979010" d="M138.344,388.488l.432-.432-.432-.432Z" transform="translate(-123.399 -345.751)" fill="#f2fbff"/>
      <path id="Path_979011" data-name="Path 979011" d="M118.3,438.243l-1-1a8.114,8.114,0,0,1-1.908,2.838l.539.539Z" transform="translate(-102.921 -390.006)" fill="#f2fbff"/>
      <path id="Path_979012" data-name="Path 979012" d="M336.357,352.111h13.054a2.7,2.7,0,0,0,2.7-2.7V336.357a2.7,2.7,0,0,0-2.7-2.7H336.357a2.7,2.7,0,0,0-2.7,2.7v13.054A2.7,2.7,0,0,0,336.357,352.111Z" transform="translate(-297.613 -297.613)" fill="#46cc8d"/>
      <path id="Path_979013" data-name="Path 979013" d="M349.858,333.656h-1.674a2.713,2.713,0,0,1,.054.54v7.653a8.1,8.1,0,0,1-8.1,8.1h-5.978a2.7,2.7,0,0,0,2.647,2.16h13.054a2.7,2.7,0,0,0,2.7-2.7V336.357A2.7,2.7,0,0,0,349.858,333.656Z" transform="translate(-298.06 -297.613)" fill="#00c27a"/>
      <path id="Path_979014" data-name="Path 979014" d="M368.912,379.894l-2.373-2.373-2.373,2.373,4.745,4.745,7.118-7.118-2.373-2.373Z" transform="translate(-324.828 -334.624)" fill="#fff"/>
      <path id="Path_979015" data-name="Path 979015" d="M464.5,389.674l1.025-1.025-1.025-1.025Z" transform="translate(-414.323 -345.751)" fill="#f2fbff"/>
      <path id="Path_979016" data-name="Path 979016" d="M229.727,217.438a3.327,3.327,0,1,0,3.327,3.327A3.331,3.331,0,0,0,229.727,217.438Zm0,5.033a1.706,1.706,0,1,1,1.706-1.706A1.708,1.708,0,0,1,229.727,222.471Z" transform="translate(-201.943 -193.949)"/>
      <path id="Path_979017" data-name="Path 979017" d="M227.572,31.862a2.435,2.435,0,0,0-1.8-.8h-3.13a2.431,2.431,0,0,0-2.419,2.672l1.333,13.327a2.664,2.664,0,0,0,5.3,0l1.333-13.326A2.434,2.434,0,0,0,227.572,31.862Zm-1,1.712L225.243,46.9a1.044,1.044,0,0,1-2.077,0l-1.333-13.327a.81.81,0,0,1,.806-.891h3.13a.81.81,0,0,1,.806.891Z" transform="translate(-196.421 -27.707)"/>
      <path id="Path_979018" data-name="Path 979018" d="M48.3,365.341a.81.81,0,0,0-.237-.573L45.69,362.4a.81.81,0,0,0-1.146,0l-2.393,2.393L39.758,362.4a.81.81,0,0,0-1.146,0l-2.373,2.373a.81.81,0,0,0,0,1.146l2.393,2.393L36.239,370.7a.81.81,0,0,0,0,1.146l2.373,2.373a.81.81,0,0,0,1.146,0l2.393-2.393,2.393,2.393a.81.81,0,0,0,1.146,0l2.373-2.373a.81.81,0,0,0,0-1.146l-2.393-2.393,2.393-2.393A.809.809,0,0,0,48.3,365.341Zm-4.349,2.393a.81.81,0,0,0,0,1.146l2.393,2.393L45.117,372.5l-2.393-2.393a.81.81,0,0,0-1.146,0L39.185,372.5l-1.227-1.227,2.393-2.393a.81.81,0,0,0,0-1.146l-2.393-2.393,1.227-1.227,2.393,2.393a.81.81,0,0,0,1.146,0l2.393-2.393,1.227,1.227Z" transform="translate(-32.113 -323.036)"/>
      <path id="Path_979019" data-name="Path 979019" d="M51.8,35.233H48.784l2.99-3.715a.81.81,0,0,0-.631-1.318H49.58V24.159a.81.81,0,1,0-1.62,0V31.01a.81.81,0,0,0,.81.81h.68l-2.358,2.93-2.359-2.93h.681a.81.81,0,0,0,.81-.81V19.265a.81.81,0,0,0-.81-.81H42.348a15.118,15.118,0,0,0,.289-1.735h3.432a1.893,1.893,0,0,1,1.89,1.89v1.767a.81.81,0,0,0,1.62,0V18.611A3.515,3.515,0,0,0,46.069,15.1H42.725a15.053,15.053,0,0,0-25.2-11.164.81.81,0,1,0,1.091,1.2,13.443,13.443,0,1,1,17.16,20.662,4.563,4.563,0,0,0-1.632,2.443l-.6,2.24a1.893,1.893,0,0,1-1.825,1.4H23.594a1.893,1.893,0,0,1-1.825-1.4l-.6-2.241A4.657,4.657,0,0,0,19.5,25.766,13.415,13.415,0,0,1,16.288,7.9a.81.81,0,0,0-1.368-.868A14.977,14.977,0,0,0,12.583,15.1H9.239a3.515,3.515,0,0,0-3.511,3.511V30.2H4.166a.81.81,0,0,0-.631,1.318l2.99,3.715H3.511A3.515,3.515,0,0,0,0,38.744V51.8a3.515,3.515,0,0,0,3.511,3.511H16.565A3.515,3.515,0,0,0,20.076,51.8v-1.44a.81.81,0,1,0-1.62,0V51.8a1.893,1.893,0,0,1-1.89,1.89H3.511A1.893,1.893,0,0,1,1.62,51.8V38.744a1.893,1.893,0,0,1,1.89-1.89H16.565a1.893,1.893,0,0,1,1.89,1.89v7.834a.81.81,0,1,0,1.62,0V38.744a3.515,3.515,0,0,0-3.511-3.511H9.908l2.99-3.715a.81.81,0,0,0-.631-1.318H10.7V20.075h2.724a15.01,15.01,0,0,0,5.085,6.979,3.027,3.027,0,0,1,1.087,1.6l.6,2.241a3.494,3.494,0,0,0,.464,1.026.81.81,0,0,0,.276,1.572h1.094l1.124,3.371a2.427,2.427,0,0,0,2.005,1.643V39.4a2.488,2.488,0,0,0,4.976,0v-.886a2.427,2.427,0,0,0,2.005-1.643L33.272,33.5h1.094a.81.81,0,0,0,.276-1.572A3.493,3.493,0,0,0,35.1,30.9l.6-2.24a2.935,2.935,0,0,1,1.046-1.573,15,15,0,0,0,5.128-7.01H44.6V30.2H43.042a.81.81,0,0,0-.631,1.318l2.99,3.715H38.744a3.515,3.515,0,0,0-3.511,3.511V51.8a3.515,3.515,0,0,0,3.511,3.511H51.8A3.515,3.515,0,0,0,55.309,51.8V38.744A3.515,3.515,0,0,0,51.8,35.233ZM9.894,18.455a.81.81,0,0,0-.81.81V31.01a.81.81,0,0,0,.81.81h.681L8.216,34.75,5.858,31.82h.68a.81.81,0,0,0,.81-.81v-12.4a1.893,1.893,0,0,1,1.89-1.89h3.433a15.134,15.134,0,0,0,.29,1.735H9.894ZM28.522,39.4a.868.868,0,0,1-1.735,0v-.868h1.735Zm1.32-2.488H25.467a.809.809,0,0,1-.769-.554L23.745,33.5h7.818l-.953,2.859A.809.809,0,0,1,29.842,36.911ZM53.688,51.8a1.893,1.893,0,0,1-1.89,1.89H38.744a1.893,1.893,0,0,1-1.89-1.89V38.744a1.893,1.893,0,0,1,1.89-1.89H51.8a1.893,1.893,0,0,1,1.89,1.89Z"/>
      <path id="Path_979020" data-name="Path 979020" d="M367.542,367.887a.81.81,0,0,0-1.146,0l-4.173,4.173-1.8-1.8a.81.81,0,0,0-1.146,0l-2.373,2.373a.81.81,0,0,0,0,1.146l4.745,4.745a.81.81,0,0,0,1.146,0l7.118-7.118a.81.81,0,0,0,0-1.146Zm-5.318,8.918-3.6-3.6,1.227-1.227,1.8,1.8a.81.81,0,0,0,1.146,0l4.173-4.173,1.227,1.227Z" transform="translate(-318.139 -327.935)"/>
    </g>
  </g>
</svg>
