<svg xmlns="http://www.w3.org/2000/svg" xmlns:xlink="http://www.w3.org/1999/xlink" width="108" height="108" viewBox="0 0 108 108">
  <defs>
    <filter id="Fondo" x="0" y="0" width="108" height="108" filterUnits="userSpaceOnUse">
      <feOffset dy="3" input="SourceAlpha"/>
      <feGaussianBlur stdDeviation="3" result="blur"/>
      <feFlood flood-opacity="0.161"/>
      <feComposite operator="in" in2="blur"/>
      <feComposite in="SourceGraphic"/>
    </filter>
  </defs>
  <g id="Group_1144057" data-name="Group 1144057" transform="translate(-746.998 -11752.567)">
    <g transform="matrix(1, 0, 0, 1, 747, 11752.57)" filter="url(#Fondo)">
      <g id="Fondo-2" data-name="Fondo" transform="translate(9 6)" fill="#fffbe8" stroke="#bca724" stroke-width="3">
        <circle cx="45" cy="45" r="45" stroke="none"/>
        <circle cx="45" cy="45" r="43.5" fill="none"/>
      </g>
    </g>
    <g id="Group_1144056" data-name="Group 1144056" transform="translate(745.848 11774.472)">
      <path id="Path_979215" data-name="Path 979215" d="M341.651,132h-5.484A9.315,9.315,0,0,1,332,135.626v6.026a.689.689,0,0,0,.69.69h8.963a.689.689,0,0,0,.69-.69v-8.963A.69.69,0,0,0,341.651,132Z" transform="translate(-269.208 -116.997)" fill="#cb97e7"/>
      <g id="Group_1144043" data-name="Group 1144043" transform="translate(62.79 15.772)">
        <path id="Path_979216" data-name="Path 979216" d="M335.636,147.655v-8.883A9.307,9.307,0,0,1,332,141.629v6.026a.689.689,0,0,0,.69.69h3.637A.69.69,0,0,1,335.636,147.655Z" transform="translate(-331.999 -138.772)" fill="#bd80e1"/>
      </g>
      <g id="Group_1144054" data-name="Group 1144054" transform="translate(29.122 0.852)">
        <path id="Path_979217" data-name="Path 979217" d="M107.76,273.314l1.948-5.3a13.311,13.311,0,0,1-12.651,0l1.948,5.3Z" transform="translate(-90.091 -238.406)" fill="#fff0ad"/>
        <path id="Path_979218" data-name="Path 979218" d="M103.794,273.314l-1.373-3.736a13.208,13.208,0,0,1-5.362-1.564l1.948,5.3Z" transform="translate(-90.092 -238.406)" fill="#ffe177"/>
        <path id="Path_979219" data-name="Path 979219" d="M126,393.588v1.774a1.7,1.7,0,0,0,1.7,1.7h2.663a1.7,1.7,0,0,0,1.7-1.7v-1.774Z" transform="translate(-115.745 -349.708)" fill="#02c7dd"/>
        <path id="Path_979220" data-name="Path 979220" d="M128.841,395.362v-1.774H126v1.774a1.7,1.7,0,0,0,1.7,1.7h2.663c.03,0,.06,0,.089,0A1.7,1.7,0,0,1,128.841,395.362Z" transform="translate(-115.745 -349.708)" fill="#07b2cd"/>
        <path id="Path_979221" data-name="Path 979221" d="M113.43,362.995v3.022a.568.568,0,0,0,.568.568h7.793a.568.568,0,0,0,.568-.568v-3.022Z" transform="translate(-104.604 -322.592)" fill="#a6e7f0"/>
        <path id="Path_979222" data-name="Path 979222" d="M116.271,366.017V363H113.43v3.022a.568.568,0,0,0,.568.568h2.841A.568.568,0,0,1,116.271,366.017Z" transform="translate(-104.604 -322.592)" fill="#6bd9e7"/>
        <path id="Path_979223" data-name="Path 979223" d="M56.428,52.847a9.3,9.3,0,0,1,.274-2.239,13.292,13.292,0,1,0,5.65,10.89,9.28,9.28,0,0,1-5.924-8.651Z" transform="translate(-35.77 -43.568)" fill="#ffe177"/>
        <g id="Group_1144044" data-name="Group 1144044" transform="translate(0 4.625)">
          <path id="Path_979224" data-name="Path 979224" d="M41.49,61.485A13.3,13.3,0,0,1,51.921,48.5a13.291,13.291,0,1,0,0,25.963A13.3,13.3,0,0,1,41.49,61.485Z" transform="translate(-35.769 -48.194)" fill="#ffd15b"/>
        </g>
        <g id="Group_1144045" data-name="Group 1144045" transform="translate(7.122 34.909)">
          <path id="Path_979225" data-name="Path 979225" d="M109.632,320.259H99.566a1.137,1.137,0,0,1-1.137-1.137v-3.335a1.137,1.137,0,0,1,1.137-1.137h10.066a1.137,1.137,0,0,1,1.137,1.137v3.335A1.137,1.137,0,0,1,109.632,320.259Z" transform="translate(-98.429 -314.651)" fill="#eaf9fa"/>
        </g>
        <path id="Path_979226" data-name="Path 979226" d="M102.245,319.123v-3.335a1.137,1.137,0,0,1,1.137-1.137H99.567a1.137,1.137,0,0,0-1.137,1.137v3.335a1.137,1.137,0,0,0,1.137,1.137h3.815A1.137,1.137,0,0,1,102.245,319.123Z" transform="translate(-91.308 -279.742)" fill="#d4f2f6"/>
        <g id="Group_1144046" data-name="Group 1144046" transform="translate(24.021 30.446)">
          <path id="Path_979227" data-name="Path 979227" d="M269.431,289a3.991,3.991,0,0,1-2.543-.692.342.342,0,0,0-.54.277v5.465a.568.568,0,0,1-.568.568h-5.465a.342.342,0,0,0-.277.54,4.006,4.006,0,1,1-6.6-.01.34.34,0,0,0-.284-.53h-5.465a.568.568,0,0,1-.568-.568v-4.292a.565.565,0,0,1,.612-.567,4.091,4.091,0,0,0,.638.011,4.006,4.006,0,0,0-.248-8q-.189,0-.374.017a.57.57,0,0,1-.628-.565v-4.693a.568.568,0,0,1,.568-.568h4.475a.566.566,0,0,1,.567.581c0,.04,0,.08,0,.12a4.006,4.006,0,0,0,8.012,0q0-.06,0-.12a.566.566,0,0,1,.567-.581h4.475a.568.568,0,0,1,.568.568v5.465a.34.34,0,0,0,.53.284A4.006,4.006,0,1,1,269.431,289Z" transform="translate(-247.12 -275.386)" fill="#fe9738"/>
        </g>
        <g id="Group_1144047" data-name="Group 1144047" transform="translate(24.021 30.446)">
          <path id="Path_979228" data-name="Path 979228" d="M269.431,289a3.991,3.991,0,0,1-2.543-.692.342.342,0,0,0-.54.277v5.465a.568.568,0,0,1-.568.568h-5.465a.342.342,0,0,0-.277.54,4.006,4.006,0,1,1-6.6-.01.34.34,0,0,0-.284-.53h-5.465a.568.568,0,0,1-.568-.568v-4.292a.565.565,0,0,1,.612-.567,4.091,4.091,0,0,0,.638.011,4.006,4.006,0,0,0-.248-8q-.189,0-.374.017a.57.57,0,0,1-.628-.565v-4.693a.568.568,0,0,1,.568-.568h4.475a.566.566,0,0,1,.567.581c0,.04,0,.08,0,.12a4.006,4.006,0,0,0,8.012,0q0-.06,0-.12a.566.566,0,0,1,.567-.581h4.475a.568.568,0,0,1,.568.568v5.465a.34.34,0,0,0,.53.284A4.006,4.006,0,1,1,269.431,289Z" transform="translate(-247.12 -275.386)" fill="#fe9738"/>
        </g>
        <g id="Group_1144050" data-name="Group 1144050" transform="translate(24.02 30.446)">
          <g id="Group_1144048" data-name="Group 1144048" transform="translate(0)">
            <path id="Path_979229" data-name="Path 979229" d="M247.746,281.214q.184-.017.374-.017a4,4,0,0,1,3.064,1.425v-6.666a.568.568,0,0,1,.568-.568h-4.065a.568.568,0,0,0-.568.568v4.693A.57.57,0,0,0,247.746,281.214Z" transform="translate(-247.118 -275.388)" fill="#fe860a"/>
          </g>
          <g id="Group_1144049" data-name="Group 1144049" transform="translate(0 12.389)">
            <path id="Path_979230" data-name="Path 979230" d="M251.183,390.669V384.4a4,4,0,0,1-2.816,1.424,4.076,4.076,0,0,1-.638-.011.565.565,0,0,0-.612.567v4.292a.568.568,0,0,0,.568.568h4.065A.568.568,0,0,1,251.183,390.669Z" transform="translate(-247.118 -384.398)" fill="#fe860a"/>
          </g>
        </g>
        <g id="Group_1144053" data-name="Group 1144053" transform="translate(20.658)">
          <g id="Group_1144051" data-name="Group 1144051">
            <circle id="Ellipse_11600" data-name="Ellipse 11600" cx="9.279" cy="9.279" r="9.279" fill="#05e39c"/>
          </g>
          <g id="Group_1144052" data-name="Group 1144052" transform="translate(0 0)">
            <path id="Path_979231" data-name="Path 979231" d="M222.329,16.779a9.282,9.282,0,0,1,6.883-8.965,9.279,9.279,0,1,0,0,17.93A9.282,9.282,0,0,1,222.329,16.779Z" transform="translate(-217.536 -7.5)" fill="#0ed290"/>
          </g>
        </g>
      </g>
      <g id="Group_1144055" data-name="Group 1144055" transform="translate(28.27 0)">
        <path id="Path_979232" data-name="Path 979232" d="M266.056,275.039a4.862,4.862,0,0,0-5.5-1.135v-4.6a1.422,1.422,0,0,0-1.421-1.421h-4.475a1.429,1.429,0,0,0-1.021.432,1.4,1.4,0,0,0-.4,1.028c0,.031,0,.062,0,.094a3.154,3.154,0,0,1-6.307,0c0-.031,0-.063,0-.094a1.4,1.4,0,0,0-.4-1.028,1.429,1.429,0,0,0-1.021-.432H241.04a1.422,1.422,0,0,0-1.421,1.421V274a1.42,1.42,0,0,0,.462,1.047,1.435,1.435,0,0,0,1.1.367c.1-.009.2-.014.3-.014a3.154,3.154,0,0,1,.2,6.3,3.246,3.246,0,0,1-.5-.009,1.407,1.407,0,0,0-1.079.36,1.428,1.428,0,0,0-.467,1.055V287.4a1.422,1.422,0,0,0,1.421,1.421h4.6a4.859,4.859,0,0,0,4.445,6.81c.115,0,.231,0,.347-.012a4.862,4.862,0,0,0,4.109-6.8h4.6a1.422,1.422,0,0,0,1.421-1.421v-4.6a4.859,4.859,0,0,0,5.5-7.766Zm-.406,3.54a3.156,3.156,0,0,1-2.925,2.921h0a3.127,3.127,0,0,1-2-.545,1.194,1.194,0,0,0-1.875.979v5.181h-5.181a1.194,1.194,0,0,0-.979,1.875,3.154,3.154,0,1,1-5.2-.008,1.192,1.192,0,0,0-.985-1.867h-5.181V283.41c.149,0,.3,0,.449-.007a4.859,4.859,0,0,0-.449-9.706v-4.106h3.906a4.859,4.859,0,0,0,9.712,0h3.906v5.181a1.192,1.192,0,0,0,1.867.985,3.154,3.154,0,0,1,4.935,2.821Z" transform="translate(-215.599 -237.441)"/>
        <path id="Path_979233" data-name="Path 979233" d="M47.984,34.985l1.444-3.93a14.183,14.183,0,0,0,4.026-3.448.852.852,0,1,0-1.33-1.066,12.392,12.392,0,0,1-6.84,4.333V23.827h1.671a3.376,3.376,0,1,0-3.376-3.376v1.671H41.247V20.451a3.376,3.376,0,1,0-3.376,3.376h1.671v7.045A12.438,12.438,0,1,1,49.1,8.283a10.134,10.134,0,0,0,5.741,11.058A12.353,12.353,0,0,1,54,23.311a.852.852,0,1,0,1.587.623,14.032,14.032,0,0,0,.925-4,10.145,10.145,0,0,0,5.429-.091v4.809A1.544,1.544,0,0,0,63.479,26.2h8.963a1.544,1.544,0,0,0,1.542-1.542v-2.72a.852.852,0,0,0-1.7,0v2.557H63.642V19.166a10.2,10.2,0,0,0,3.774-3.311H72.28v2.1a.852.852,0,1,0,1.7,0V15.691a1.544,1.544,0,0,0-1.542-1.542H68.36A10.131,10.131,0,1,0,49.573,6.577,14.14,14.14,0,1,0,35.394,31.044l1.448,3.941A1.991,1.991,0,0,0,35.391,36.9v3.335A1.99,1.99,0,0,0,37.1,42.2v2.079A1.422,1.422,0,0,0,38.517,45.7h.008v.808a2.56,2.56,0,0,0,2.557,2.557h2.663A2.56,2.56,0,0,0,46.3,46.506V45.7h.008a1.422,1.422,0,0,0,1.421-1.421V42.2a1.99,1.99,0,0,0,1.7-1.966V36.9a1.991,1.991,0,0,0-1.451-1.913Zm-2.7-14.534a1.671,1.671,0,1,1,1.671,1.671H45.285ZM59.06,1.7a8.427,8.427,0,1,1-8.427,8.427A8.436,8.436,0,0,1,59.06,1.7ZM45.285,32.62a14.064,14.064,0,0,0,1.955-.552L46.2,34.909h-.911Zm-4.038-8.793H43.58v7.325c-.386.036-.775.055-1.167.055s-.782-.019-1.167-.055V23.827Zm0,9.037c.385.032.774.048,1.167.048s.781-.016,1.167-.048v2.045H41.247ZM37.871,22.122a1.671,1.671,0,1,1,1.671-1.671v1.671Zm1.671,10.5v2.29h-.911l-1.046-2.846A14.02,14.02,0,0,0,39.542,32.619ZM44.6,46.506a.853.853,0,0,1-.852.852H41.082a.853.853,0,0,1-.852-.852V45.7H44.6Zm3.133-6.274a.284.284,0,0,1-.284.284H44.833a.852.852,0,0,0,0,1.7h1.193v1.772H38.8V42.222h2.054a.852.852,0,1,0,0-1.7H37.38a.284.284,0,0,1-.284-.284V36.9a.284.284,0,0,1,.284-.284H47.447a.284.284,0,0,1,.284.284Z" transform="translate(-28.27 0)"/>
        <path id="Path_979234" data-name="Path 979234" d="M254.351,66.577a.852.852,0,0,0,.641.3H255a.852.852,0,0,0,.638-.287l5.584-6.3a.852.852,0,0,0-1.276-1.131l-4.93,5.561-3.178-3.774a.852.852,0,1,0-1.3,1.1Z" transform="translate(-225.098 -52.185)"/>
      </g>
    </g>
  </g>
</svg>
