<svg xmlns="http://www.w3.org/2000/svg" xmlns:xlink="http://www.w3.org/1999/xlink" width="108" height="108" viewBox="0 0 108 108">
  <defs>
    <filter id="Fondo" x="0" y="0" width="108" height="108" filterUnits="userSpaceOnUse">
      <feOffset dy="3" input="SourceAlpha"/>
      <feGaussianBlur stdDeviation="3" result="blur"/>
      <feFlood flood-opacity="0.161"/>
      <feComposite operator="in" in2="blur"/>
      <feComposite in="SourceGraphic"/>
    </filter>
  </defs>
  <g id="Group_1144412" data-name="Group 1144412" transform="translate(-745.999 -6061)">
    <g id="Group_1144239" data-name="Group 1144239" transform="translate(420)">
      <g transform="matrix(1, 0, 0, 1, 326, 6061)" filter="url(#Fondo)">
        <g id="Fondo-2" data-name="Fondo" transform="translate(9 6)" fill="#fff4e4">
          <path d="M 45 88.5 C 39.12687683105469 88.5 33.43022537231445 87.35007476806641 28.06830024719238 85.08217620849609 C 22.88852500915527 82.89131164550781 18.23629951477051 79.75458526611328 14.2408504486084 75.75914764404297 C 10.24541282653809 71.76370239257812 7.108687400817871 67.11147308349609 4.917825222015381 61.93170166015625 C 2.649924993515015 56.56977462768555 1.5 50.87312316894531 1.5 45 C 1.5 39.12687683105469 2.649924993515015 33.43022537231445 4.917825222015381 28.06830024719238 C 7.108687400817871 22.88852500915527 10.24541282653809 18.23629951477051 14.2408504486084 14.2408504486084 C 18.23629951477051 10.24541282653809 22.88852500915527 7.108687400817871 28.06830024719238 4.917825222015381 C 33.43022537231445 2.649924993515015 39.12687683105469 1.5 45 1.5 C 50.87312316894531 1.5 56.56977462768555 2.649924993515015 61.93170166015625 4.917825222015381 C 67.11147308349609 7.108687400817871 71.76370239257812 10.24541282653809 75.75914764404297 14.2408504486084 C 79.75458526611328 18.23629951477051 82.89131164550781 22.88852500915527 85.08217620849609 28.06830024719238 C 87.35007476806641 33.43022537231445 88.5 39.12687683105469 88.5 45 C 88.5 50.87312316894531 87.35007476806641 56.56977462768555 85.08217620849609 61.93170166015625 C 82.89131164550781 67.11147308349609 79.75458526611328 71.76370239257812 75.75914764404297 75.75914764404297 C 71.76370239257812 79.75458526611328 67.11147308349609 82.89131164550781 61.93170166015625 85.08217620849609 C 56.56977462768555 87.35007476806641 50.87312316894531 88.5 45 88.5 Z" stroke="none"/>
          <path d="M 45 3 C 39.32871246337891 3 33.82865524291992 4.110054016113281 28.65262985229492 6.299339294433594 C 23.65165710449219 8.414573669433594 19.15968322753906 11.44334411621094 15.301513671875 15.301513671875 C 11.44334411621094 19.15968322753906 8.414573669433594 23.65165710449219 6.299339294433594 28.65262985229492 C 4.110054016113281 33.82865524291992 3 39.32871246337891 3 45 C 3 50.67128753662109 4.110054016113281 56.17134475708008 6.299339294433594 61.34737396240234 C 8.414573669433594 66.34834289550781 11.44334411621094 70.84031677246094 15.301513671875 74.698486328125 C 19.15968322753906 78.55665588378906 23.65165710449219 81.58542633056641 28.65262985229492 83.70066070556641 C 33.82865524291992 85.88994598388672 39.32871246337891 87 45 87 C 50.67128753662109 87 56.17134475708008 85.88994598388672 61.34737396240234 83.70066070556641 C 66.34834289550781 81.58542633056641 70.84031677246094 78.55665588378906 74.698486328125 74.698486328125 C 78.55665588378906 70.84031677246094 81.58542633056641 66.34834289550781 83.70066070556641 61.34737396240234 C 85.88994598388672 56.17134475708008 87 50.67128753662109 87 45 C 87 39.32871246337891 85.88994598388672 33.82865524291992 83.70066070556641 28.65262985229492 C 81.58542633056641 23.65165710449219 78.55665588378906 19.15968322753906 74.698486328125 15.301513671875 C 70.84031677246094 11.44334411621094 66.34834289550781 8.414573669433594 61.34737396240234 6.299339294433594 C 56.17134475708008 4.110054016113281 50.67128753662109 3 45 3 M 45 0 C 69.85281372070312 0 90 20.14718627929688 90 45 C 90 69.85281372070312 69.85281372070312 90 45 90 C 20.14718627929688 90 0 69.85281372070312 0 45 C 0 20.14718627929688 20.14718627929688 0 45 0 Z" stroke="none" fill="#ff9902"/>
        </g>
      </g>
      <g id="Group_1144237" data-name="Group 1144237" transform="translate(350.67 6082.671)">
        <g id="Group_1144235" data-name="Group 1144235" transform="translate(5.569 5.569)">
          <g id="Group_1144226" data-name="Group 1144226" transform="translate(10.966 14.621)">
            <path id="Path_978746" data-name="Path 978746" d="M18,57.64V22.914A.917.917,0,0,1,18.914,22h23.76a.917.917,0,0,1,.914.914V57.64a.917.917,0,0,1-.914.914H18.914A.917.917,0,0,1,18,57.64Z" transform="translate(-18 -22)" fill="#f0d0b4"/>
          </g>
          <g id="Group_1144227" data-name="Group 1144227" transform="translate(14.621 18.277)">
            <path id="Path_978747" data-name="Path 978747" d="M22,26H40.277v3.655H22Z" transform="translate(-22 -26)" fill="#fcd770"/>
          </g>
          <g id="Group_1144228" data-name="Group 1144228" transform="translate(23.76)">
            <path id="Path_978748" data-name="Path 978748" d="M55.76,16.966a30.414,30.414,0,0,1-10.966,8.307V21.535a.917.917,0,0,0-.914-.914H42.345A10.98,10.98,0,0,0,32,6h.347A30.507,30.507,0,0,1,55.76,16.966Z" transform="translate(-32 -6)" fill="#ccd1d9"/>
          </g>
          <g id="Group_1144229" data-name="Group 1144229">
            <path id="Path_978749" data-name="Path 978749" d="M29.413,6h.347A10.98,10.98,0,0,0,19.415,20.621H17.88a.917.917,0,0,0-.914.914v3.738a30.752,30.752,0,0,1-5.931-3.5A30.15,30.15,0,0,1,6,16.966,30.489,30.489,0,0,1,29.413,6Z" transform="translate(-6 -6)" fill="#ccd1d9"/>
          </g>
          <g id="Group_1144230" data-name="Group 1144230" transform="translate(12.794)">
            <path id="Path_978750" data-name="Path 978750" d="M41.932,16.966a11,11,0,0,1-.621,3.655H37.3a7.113,7.113,0,0,0,.777-1.974,6.779,6.779,0,0,0,.2-1.681,7.311,7.311,0,1,0-13.644,3.655H20.621a10.968,10.968,0,1,1,21.311-3.655Z" transform="translate(-20 -6)" fill="#69d6f4"/>
          </g>
          <g id="Group_1144231" data-name="Group 1144231" transform="translate(16.449 3.655)">
            <path id="Path_978751" data-name="Path 978751" d="M31.146,13.655a2.737,2.737,0,1,0-3.491,3.491v.164a3.654,3.654,0,0,0,3.655,3.655H24.978a7.311,7.311,0,1,1,13.644-3.655,6.779,6.779,0,0,1-.2,1.681l-.018-.009a2.742,2.742,0,0,0-2.522-1.672,2.533,2.533,0,0,0-.914.164v-.164a3.654,3.654,0,0,0-3.655-3.655h-.155Z" transform="translate(-24 -10)" fill="#3bafda"/>
          </g>
          <g id="Group_1144232" data-name="Group 1144232" transform="translate(20.104 7.311)">
            <path id="Path_978752" data-name="Path 978752" d="M28.914,17.655a2.738,2.738,0,0,0,2.742-2.742A2.533,2.533,0,0,0,31.491,14h.164a3.654,3.654,0,0,1,3.655,3.655v.164A2.712,2.712,0,0,0,33.483,20.4a3.108,3.108,0,0,0,.027.411A3.66,3.66,0,0,1,28,17.655v-.164a2.533,2.533,0,0,0,.914.164Z" transform="translate(-28 -14)" fill="#4fc1e9"/>
          </g>
          <g id="Group_1144233" data-name="Group 1144233" transform="translate(25.588 10.966)">
            <path id="Path_978753" data-name="Path 978753" d="M36.742,18a2.742,2.742,0,0,1,2.522,1.672l.018.009a7.113,7.113,0,0,1-.777,1.974h-4.35A2.551,2.551,0,0,1,34,20.742a2.712,2.712,0,0,1,1.828-2.577A2.533,2.533,0,0,1,36.742,18Z" transform="translate(-34 -18)" fill="#e6e9ed"/>
          </g>
          <g id="Group_1144234" data-name="Group 1144234" transform="translate(18.277 5.483)">
            <path id="Path_978754" data-name="Path 978754" d="M31.483,14.742a2.738,2.738,0,0,1-2.742,2.742,2.533,2.533,0,0,1-.914-.164,2.737,2.737,0,1,1,3.491-3.491A2.533,2.533,0,0,1,31.483,14.742Z" transform="translate(-26 -12)" fill="#e6e9ed"/>
          </g>
        </g>
        <g id="Group_1144236" data-name="Group 1144236" transform="translate(1 1)">
          <path id="Path_978755" data-name="Path 978755" d="M21,30.483H41.1V25H21Zm10.966-1.828H30.138V26.828h1.828Zm1.828-1.828h1.828v1.828H33.794Zm-5.483,1.828H26.483V26.828h1.828Zm10.966,0H37.449V26.828h1.828ZM22.828,26.828h1.828v1.828H22.828Z" transform="translate(-2.723 -3.068)"/>
          <path id="Path_978756" data-name="Path 978756" d="M27.068,33.585l-1.292-1.292L22.767,35.3l-1.182-1.182-1.292,1.292,2.474,2.474Z" transform="translate(-2.662 -3.696)"/>
          <path id="Path_978757" data-name="Path 978757" d="M29,35H41.794v1.828H29Z" transform="translate(-3.412 -3.929)"/>
          <path id="Path_978758" data-name="Path 978758" d="M27.068,41.585l-1.292-1.292L22.767,43.3l-1.182-1.182-1.292,1.292,2.474,2.474Z" transform="translate(-2.662 -4.385)"/>
          <path id="Path_978759" data-name="Path 978759" d="M29,43H41.794v1.828H29Z" transform="translate(-3.412 -4.619)"/>
          <path id="Path_978760" data-name="Path 978760" d="M25.776,48.293,22.767,51.3l-1.182-1.182-1.292,1.292,2.474,2.474,4.3-4.3Z" transform="translate(-2.662 -5.075)"/>
          <path id="Path_978761" data-name="Path 978761" d="M29,51H41.794v1.828H29Z" transform="translate(-3.412 -5.308)"/>
          <path id="Path_978762" data-name="Path 978762" d="M31,57h1.828v1.828H31Z" transform="translate(-3.585 -5.825)"/>
          <path id="Path_978763" data-name="Path 978763" d="M35,57h1.828v1.828H35Z" transform="translate(-3.929 -5.825)"/>
          <path id="Path_978764" data-name="Path 978764" d="M27,57h1.828v1.828H27Z" transform="translate(-3.24 -5.825)"/>
          <path id="Path_978765" data-name="Path 978765" d="M7,57H8.828v1.828H7Z" transform="translate(-1.517 -5.825)"/>
          <path id="Path_978766" data-name="Path 978766" d="M55,57h1.828v1.828H55Z" transform="translate(-5.653 -5.825)"/>
          <path id="Path_978767" data-name="Path 978767" d="M54.109,17.466l.488-.586-.488-.586A31.309,31.309,0,0,0,29.994,5H29.3A31.309,31.309,0,0,0,5.186,16.294L4.7,16.88l.488.586a31.567,31.567,0,0,0,10.754,8.3V56.175A1.83,1.83,0,0,0,17.768,58h23.76a1.83,1.83,0,0,0,1.828-1.828V25.762a31.564,31.564,0,0,0,10.754-8.3Zm-1.9-.586a29.779,29.779,0,0,1-8.85,6.856V21.449a1.83,1.83,0,0,0-1.828-1.828H41.2a11.827,11.827,0,0,0-3.99-11.895A29.46,29.46,0,0,1,52.2,16.88ZM23.881,19.621a6.234,6.234,0,0,1-.424-4.323,3.649,3.649,0,0,0,1.665,2.011,4.524,4.524,0,0,0,.894,2.313H23.881Zm10.244-3.646a4.564,4.564,0,0,0-4.048-3.622,3.653,3.653,0,0,0-2.011-1.665,6.364,6.364,0,0,1,7.957,5.765,3.639,3.639,0,0,0-1.806-.487C34.186,15.966,34.157,15.974,34.125,15.975Zm-7.219-.009a1.828,1.828,0,1,1,1.828-1.828A1.83,1.83,0,0,1,26.906,15.966Zm.164,1.811A3.643,3.643,0,0,0,30.545,14.3,2.734,2.734,0,0,1,32.351,16.5a3.639,3.639,0,0,0-1.77,2.941,2.665,2.665,0,0,1-3.511-1.66Zm5.319,1.844a1.83,1.83,0,0,1,1.828-1.828,1.81,1.81,0,0,1,1.555.9,6.322,6.322,0,0,1-.358.923Zm5.483-2.742A8.225,8.225,0,1,0,21.91,19.621H19.98a10.052,10.052,0,1,1,19.335,0h-1.93a8.218,8.218,0,0,0,.487-2.742ZM15.94,21.449v2.286A29.767,29.767,0,0,1,7.09,16.88,29.464,29.464,0,0,1,22.084,7.727a11.827,11.827,0,0,0-3.99,11.895h-.326A1.83,1.83,0,0,0,15.94,21.449Zm1.828,34.726V21.449h23.76V56.175Z" transform="translate(-1.319 -1.345)"/>
          <path id="Path_978768" data-name="Path 978768" d="M5.966,11.391a36.948,36.948,0,0,1,47.306,0l.436.363,1.171-1.4-.436-.364a38.776,38.776,0,0,0-49.647,0l-.436.363,1.171,1.4Z" transform="translate(-1.289 -1)"/>
          <path id="Path_978769" data-name="Path 978769" d="M7.4,33A6.4,6.4,0,0,0,1,39.4v.914H2.828V39.4A4.569,4.569,0,1,1,7.4,43.966H6.483V53.1H8.311V45.729A6.4,6.4,0,0,0,7.4,33Z" transform="translate(-1 -3.757)"/>
          <path id="Path_978770" data-name="Path 978770" d="M55.4,33A6.4,6.4,0,0,0,49,39.4v.914h1.828V39.4A4.569,4.569,0,1,1,55.4,43.966h-.914V53.1h1.828V45.729A6.4,6.4,0,0,0,55.4,33Z" transform="translate(-5.136 -3.757)"/>
        </g>
      </g>
    </g>
  </g>
</svg>
