<svg xmlns="http://www.w3.org/2000/svg" xmlns:xlink="http://www.w3.org/1999/xlink" width="108" height="108" viewBox="0 0 108 108">
  <defs>
    <filter id="Fondo" x="0" y="0" width="108" height="108" filterUnits="userSpaceOnUse">
      <feOffset dy="3" input="SourceAlpha"/>
      <feGaussianBlur stdDeviation="3" result="blur"/>
      <feFlood flood-opacity="0.161"/>
      <feComposite operator="in" in2="blur"/>
      <feComposite in="SourceGraphic"/>
    </filter>
  </defs>
  <g id="Group_1143799" data-name="Group 1143799" transform="translate(-1165.999 -3507)">
    <g transform="matrix(1, 0, 0, 1, 1166, 3507)" filter="url(#Fondo)">
      <g id="Fondo-2" data-name="Fondo" transform="translate(9 6)" fill="#fffbe8" stroke="#bca724" stroke-width="3">
        <circle cx="45" cy="45" r="45" stroke="none"/>
        <circle cx="45" cy="45" r="43.5" fill="none"/>
      </g>
    </g>
    <g id="Group_1143798" data-name="Group 1143798" transform="translate(1227.443 3565.41)">
      <g id="Group_1143797" data-name="Group 1143797" transform="translate(-35.334 -35.298)">
        <g id="Group_1143792" data-name="Group 1143792" transform="translate(0 0)">
          <circle id="Ellipse_11573" data-name="Ellipse 11573" cx="10.661" cy="10.661" r="10.661" transform="translate(0 15.074) rotate(-45)" fill="#60b7ff"/>
          <circle id="Ellipse_11574" data-name="Ellipse 11574" cx="9.336" cy="9.336" r="9.336" transform="translate(1.873 15.074) rotate(-45)" fill="#8ac9fe"/>
          <path id="Path_978862" data-name="Path 978862" d="M112.608,112.62h10.661a10.656,10.656,0,0,1-5.33,9.234Z" transform="translate(-97.531 -97.546)" fill="#fd4755" fill-rule="evenodd"/>
          <path id="Path_978863" data-name="Path 978863" d="M112.608,112.62h9.336a9.332,9.332,0,0,1-4.667,8.086Z" transform="translate(-97.531 -97.546)" fill="#fe646f" fill-rule="evenodd"/>
          <path id="Path_978864" data-name="Path 978864" d="M123.269,18.671H112.608V8.01A10.661,10.661,0,0,1,123.269,18.671Z" transform="translate(-97.531 -3.597)" fill="#ffd064" fill-rule="evenodd"/>
          <path id="Path_978865" data-name="Path 978865" d="M121.944,30.344h-9.336V21.008A9.336,9.336,0,0,1,121.944,30.344Z" transform="translate(-97.531 -15.27)" fill="#ffe177" fill-rule="evenodd"/>
        </g>
        <g id="Group_1143793" data-name="Group 1143793" transform="translate(30.786 4.132)">
          <path id="Path_978866" data-name="Path 978866" d="M267.906,5.247h2.749A1.149,1.149,0,0,1,271.8,6.394V9.144a1.149,1.149,0,0,1-1.147,1.147h-2.749a1.149,1.149,0,0,1-1.147-1.147V6.394a1.149,1.149,0,0,1,1.147-1.147Z" transform="translate(-266.759 -5.247)" fill="#8ac9fe" fill-rule="evenodd"/>
          <path id="Path_978867" data-name="Path 978867" d="M267.906,87.873h2.749A1.149,1.149,0,0,1,271.8,89.02v2.75a1.149,1.149,0,0,1-1.147,1.147h-2.749a1.149,1.149,0,0,1-1.147-1.147V89.02A1.149,1.149,0,0,1,267.906,87.873Z" transform="translate(-266.759 -79.453)" fill="#ffe177" fill-rule="evenodd"/>
          <path id="Path_978868" data-name="Path 978868" d="M267.906,170.5h2.749a1.149,1.149,0,0,1,1.147,1.147v2.75a1.149,1.149,0,0,1-1.147,1.147h-2.749a1.149,1.149,0,0,1-1.147-1.147v-2.75A1.149,1.149,0,0,1,267.906,170.5Z" transform="translate(-266.759 -153.657)" fill="#fe646f" fill-rule="evenodd"/>
        </g>
        <g id="Group_1143794" data-name="Group 1143794" transform="translate(4.416 31.587)">
          <path id="Path_978869" data-name="Path 978869" d="M198.031,348.361h3.385a1.021,1.021,0,0,1,1.019,1.019V363.2a1.021,1.021,0,0,1-1.019,1.019h-3.385a1.021,1.021,0,0,1-1.019-1.019V349.38A1.021,1.021,0,0,1,198.031,348.361Z" transform="translate(-177.75 -340.85)" fill="#ffe177" fill-rule="evenodd"/>
          <path id="Path_978870" data-name="Path 978870" d="M201.416,348.361a1.021,1.021,0,0,1,1.019,1.019V363.2a1.021,1.021,0,0,1-1.019,1.019h-3.385a1.021,1.021,0,0,1-1.019-1.019H200.4a1.021,1.021,0,0,0,1.019-1.019Z" transform="translate(-177.75 -340.85)" fill="#ffd064" fill-rule="evenodd"/>
          <path id="Path_978871" data-name="Path 978871" d="M294.616,348.361H298a1.021,1.021,0,0,1,1.019,1.019V363.2A1.021,1.021,0,0,1,298,364.223h-3.385A1.021,1.021,0,0,1,293.6,363.2V349.38A1.021,1.021,0,0,1,294.616,348.361Z" transform="translate(-264.492 -340.85)" fill="#fe646f" fill-rule="evenodd"/>
          <path id="Path_978872" data-name="Path 978872" d="M298,348.361a1.021,1.021,0,0,1,1.019,1.019V363.2A1.021,1.021,0,0,1,298,364.223h-3.385A1.021,1.021,0,0,1,293.6,363.2h3.385A1.021,1.021,0,0,0,298,362.185Z" transform="translate(-264.492 -340.85)" fill="#fd4755" fill-rule="evenodd"/>
          <path id="Path_978873" data-name="Path 978873" d="M9.019,321.361H12.4a1.021,1.021,0,0,1,1.019,1.019v16.576a1.021,1.021,0,0,1-1.019,1.019H9.019A1.021,1.021,0,0,1,8,338.956V322.38A1.021,1.021,0,0,1,9.019,321.361Z" transform="translate(-8 -316.602)" fill="#6cf5c2" fill-rule="evenodd"/>
          <path id="Path_978874" data-name="Path 978874" d="M12.4,321.361a1.021,1.021,0,0,1,1.019,1.019v16.576a1.021,1.021,0,0,1-1.019,1.019H9.019A1.021,1.021,0,0,1,8,338.956h3.385a1.021,1.021,0,0,0,1.019-1.019Z" transform="translate(-8 -316.602)" fill="#00e499" fill-rule="evenodd"/>
          <path id="Path_978875" data-name="Path 978875" d="M101.445,274.658h3.385a1.021,1.021,0,0,1,1.019,1.019v21.335a1.021,1.021,0,0,1-1.019,1.019h-3.385a1.021,1.021,0,0,1-1.019-1.019V275.677A1.021,1.021,0,0,1,101.445,274.658Z" transform="translate(-91.007 -274.658)" fill="#8ac9fe" fill-rule="evenodd"/>
          <path id="Path_978876" data-name="Path 978876" d="M104.83,274.658a1.021,1.021,0,0,1,1.019,1.019v21.335a1.021,1.021,0,0,1-1.019,1.019h-3.385a1.021,1.021,0,0,1-1.019-1.019h3.385a1.021,1.021,0,0,0,1.019-1.019Z" transform="translate(-91.007 -274.658)" fill="#60b7ff" fill-rule="evenodd"/>
        </g>
        <g id="Group_1143795" data-name="Group 1143795" transform="translate(20.701 19.634)">
          <path id="Path_978877" data-name="Path 978877" d="M375,354.862a10.556,10.556,0,0,1-1.781,1.961l4.844,4.748,1.844-1.9Z" transform="translate(-352.287 -334.735)" fill="#a79ba7" fill-rule="evenodd"/>
          <path id="Path_978878" data-name="Path 978878" d="M386.376,354.541a1.217,1.217,0,0,1-.527.707l4.812,4.78.589-.646Z" transform="translate(-363.628 -334.447)" fill="#837683" fill-rule="evenodd"/>
          <path id="Path_978879" data-name="Path 978879" d="M415.708,398.725l2.081-2.145a.957.957,0,0,0-.02-1.349L412,389.637a.957.957,0,0,0-1.349.02l-2.081,2.145a.957.957,0,0,0,.02,1.349l5.764,5.594A.957.957,0,0,0,415.708,398.725Z" transform="translate(-383.796 -365.726)" fill="#f1ba84" fill-rule="evenodd"/>
          <path id="Path_978880" data-name="Path 978880" d="M434.135,389.637l5.764,5.594a.957.957,0,0,1,.02,1.349l-2.081,2.145a.948.948,0,0,1-.258.189.958.958,0,0,0,1.111-.189l2.081-2.145a.957.957,0,0,0-.02-1.349l-5.764-5.594a.958.958,0,0,0-1.091-.169A.952.952,0,0,1,434.135,389.637Z" transform="translate(-406.779 -365.725)" fill="#e3a76f" fill-rule="evenodd"/>
          <circle id="Ellipse_11575" data-name="Ellipse 11575" cx="10.497" cy="10.497" r="10.497" transform="translate(0 14.843) rotate(-45)" fill="#eceff1"/>
          <path id="Path_978881" data-name="Path 978881" d="M309.024,200a10.5,10.5,0,1,1,0,20.994q-.256,0-.51-.013a10.5,10.5,0,0,0,0-20.969Q308.767,200,309.024,200Z" transform="translate(-294.174 -195.658)" fill="#d1d1d6" fill-rule="evenodd"/>
        </g>
        <g id="Group_1143796" data-name="Group 1143796" transform="translate(27.907 26.833)">
          <circle id="Ellipse_11576" data-name="Ellipse 11576" cx="7.643" cy="7.643" r="7.643" transform="translate(0 0)" fill="#837683"/>
          <path id="Path_978882" data-name="Path 978882" d="M313.809,235.648a7.644,7.644,0,0,1-6.964,7.613q.336.03.679.03a7.711,7.711,0,0,0,1.094-.078l.138-.021a7.644,7.644,0,0,0-1.232-15.188q-.344,0-.679.03A7.644,7.644,0,0,1,313.809,235.648Z" transform="translate(-299.881 -228.005)" fill="#685e68" fill-rule="evenodd"/>
          <path id="Path_978883" data-name="Path 978883" d="M266.743,310.239A5.34,5.34,0,0,0,261.436,315a7.618,7.618,0,0,0,5.307,2.143,7.705,7.705,0,0,0,1.094-.078A7.619,7.619,0,0,0,272.05,315,5.338,5.338,0,0,0,266.743,310.239Z" transform="translate(-259.1 -301.859)" fill="#8ac9fe" fill-rule="evenodd"/>
          <path id="Path_978884" data-name="Path 978884" d="M306.847,310.282c3.177.4,4.457,2.808,4.752,5.689a7.666,7.666,0,0,0,1.234-.969,5.338,5.338,0,0,0-5.307-4.763A5.394,5.394,0,0,0,306.847,310.282Z" transform="translate(-299.883 -301.859)" fill="#60b7ff" fill-rule="evenodd"/>
          <circle id="Ellipse_11577" data-name="Ellipse 11577" cx="2.699" cy="2.699" r="2.699" transform="translate(4.945 2.58)" fill="#f6dccd"/>
          <path id="Path_978885" data-name="Path 978885" d="M312.54,256.017a2.7,2.7,0,0,1-2.359,2.677,2.7,2.7,0,1,0,0-5.355A2.7,2.7,0,0,1,312.54,256.017Z" transform="translate(-302.877 -250.738)" fill="#f1cbbc" fill-rule="evenodd"/>
        </g>
      </g>
      <path id="Path_978886" data-name="Path 978886" d="M25.119,30.887a6.786,6.786,0,0,0,1.127,3.751,6.136,6.136,0,0,1,3.164-3.286,3.514,3.514,0,1,1,5.074,0,6.141,6.141,0,0,1,3.164,3.286,6.827,6.827,0,1,0-12.53-3.751Zm6.828-.078a1.883,1.883,0,1,1,1.883-1.884A1.885,1.885,0,0,1,31.947,30.809Zm0,6.906a6.8,6.8,0,0,1-4.434-1.642,4.523,4.523,0,0,1,8.869,0A6.8,6.8,0,0,1,31.947,37.715Zm-8.459-6.828a8.458,8.458,0,1,1,8.458,8.458A8.469,8.469,0,0,1,23.488,30.887ZM14.84,28.813H11.047V50.556H14.84ZM16.471,28V51.371a.816.816,0,0,1-.815.815H10.232a.815.815,0,0,1-.815-.815V28a.815.815,0,0,1,.815-.815h5.424a.816.816,0,0,1,.815.815ZM50.5,46.135l-5.765-5.593a.134.134,0,0,0-.1-.038h0a.137.137,0,0,0-.1.041L42.46,42.689a.143.143,0,0,0,0,.2l5.764,5.594a.144.144,0,0,0,.2,0l2.082-2.145A.143.143,0,0,0,50.5,46.135ZM34.526,41.9a11.338,11.338,0,0,1-3.793.231v8.422h3.793Zm-9.844-2.351a11.393,11.393,0,0,1-2.652-3.227h-1.14V50.556h3.793Zm-2.417-8.664a9.682,9.682,0,1,1,9.681,9.682,9.693,9.693,0,0,1-9.681-9.682Zm6.013-10.7a11.235,11.235,0,0,1,2.851-.581V18.48H28.279Zm12.355,17.94c-.217.261-.447.512-.686.752l2.029,1.969.709-.73Zm11.043,9.342L49.6,49.612a1.772,1.772,0,0,1-2.5.038l-5.764-5.593a1.773,1.773,0,0,1-.4-1.954L38.71,39.949a11.307,11.307,0,0,1-2.554,1.438v9.984a.816.816,0,0,1-.815.815H29.918a.815.815,0,0,1-.815-.815V41.837a11.225,11.225,0,0,1-2.789-1.143V51.371a.815.815,0,0,1-.815.815H20.074a.815.815,0,0,1-.815-.815V35.509a.815.815,0,0,1,.815-.815h1.22a11.312,11.312,0,0,1,5.354-13.8v-3.23a.815.815,0,0,1,.815-.815h4.481a.816.816,0,0,1,.815.815V19.6a11.225,11.225,0,0,1,4.3,1.192h6.416a.815.815,0,1,1,0,1.63H39.448A11.293,11.293,0,0,1,41.6,36.787l2.313,2.245a1.775,1.775,0,0,1,1.966.34l5.764,5.594a1.771,1.771,0,0,1,.038,2.5ZM5.421,33.573H1.628V50.556H5.421Zm1.631-.815V51.371a.815.815,0,0,1-.815.815H.812A.815.815,0,0,1,0,51.371V32.758a.815.815,0,0,1,.815-.815H6.236a.815.815,0,0,1,.815.815ZM28.279,12.91h2.851V10.06H28.279Zm-1.63.815V9.244a.815.815,0,0,1,.815-.815h4.481a.815.815,0,0,1,.815.815v4.481a.816.816,0,0,1-.815.815H27.464A.815.815,0,0,1,26.648,13.725Zm8.939.282h7.886a.815.815,0,0,0,0-1.631H35.588a.815.815,0,0,0,0,1.631Zm0-3.414H51.359a.815.815,0,0,0,0-1.631H35.588a.815.815,0,0,0,0,1.631Zm-7.309-6.1h2.851V1.64H28.279Zm-1.63.815V.824a.815.815,0,0,1,.815-.815h4.481a.815.815,0,0,1,.815.815V5.3a.815.815,0,0,1-.815.815H27.464A.815.815,0,0,1,26.648,5.3Zm8.939.282h7.886a.815.815,0,1,0,0-1.63H35.588a.815.815,0,0,0,0,1.63Zm0-3.413H51.359a.815.815,0,0,0,0-1.631H35.588a.815.815,0,0,0,0,1.631ZM1.628,11.485a9.845,9.845,0,0,0,14.114,8.871L10.77,11.9a.822.822,0,0,1-.112-.414V1.673a9.859,9.859,0,0,0-9.03,9.811Zm10.66-9.811a9.863,9.863,0,0,1,9,9l-9,0Zm9,10.631-8.386,0,4.249,7.226A9.847,9.847,0,0,0,21.284,12.3ZM0,11.485A11.476,11.476,0,1,0,11.473.009,11.49,11.49,0,0,0,0,11.485ZM34.773,18.2a.815.815,0,0,0,.815.815H51.359a.815.815,0,1,0,0-1.63H35.588A.815.815,0,0,0,34.773,18.2Z" transform="translate(-31.731 -31.709)" fill-rule="evenodd"/>
    </g>
  </g>
</svg>
