<svg xmlns="http://www.w3.org/2000/svg" xmlns:xlink="http://www.w3.org/1999/xlink" width="108" height="108" viewBox="0 0 108 108">
  <defs>
    <filter id="Path_904820" x="0" y="0" width="108" height="108" filterUnits="userSpaceOnUse">
      <feOffset dy="3" input="SourceAlpha"/>
      <feGaussianBlur stdDeviation="3" result="blur"/>
      <feFlood flood-opacity="0.161"/>
      <feComposite operator="in" in2="blur"/>
      <feComposite in="SourceGraphic"/>
    </filter>
  </defs>
  <g id="Group_1143791" data-name="Group 1143791" transform="translate(-726 -999)">
    <g transform="matrix(1, 0, 0, 1, 726, 999)" filter="url(#Path_904820)">
      <g id="Path_904820-2" data-name="Path 904820" transform="translate(9 6)" fill="#ecf4fa">
        <path d="M 45 88.5 C 39.12687683105469 88.5 33.43022537231445 87.35007476806641 28.06830024719238 85.08217620849609 C 22.88852500915527 82.89131164550781 18.23629951477051 79.75458526611328 14.2408504486084 75.75914764404297 C 10.24541282653809 71.76370239257812 7.108687400817871 67.11147308349609 4.917825222015381 61.93170166015625 C 2.649924993515015 56.56977462768555 1.5 50.87312316894531 1.5 45 C 1.5 39.12687683105469 2.649924993515015 33.43022537231445 4.917825222015381 28.06830024719238 C 7.108687400817871 22.88852500915527 10.24541282653809 18.23629951477051 14.2408504486084 14.2408504486084 C 18.23629951477051 10.24541282653809 22.88852500915527 7.108687400817871 28.06830024719238 4.917825222015381 C 33.43022537231445 2.649924993515015 39.12687683105469 1.5 45 1.5 C 50.87312316894531 1.5 56.56977462768555 2.649924993515015 61.93170166015625 4.917825222015381 C 67.11147308349609 7.108687400817871 71.76370239257812 10.24541282653809 75.75914764404297 14.2408504486084 C 79.75458526611328 18.23629951477051 82.89131164550781 22.88852500915527 85.08217620849609 28.06830024719238 C 87.35007476806641 33.43022537231445 88.5 39.12687683105469 88.5 45 C 88.5 50.87312316894531 87.35007476806641 56.56977462768555 85.08217620849609 61.93170166015625 C 82.89131164550781 67.11147308349609 79.75458526611328 71.76370239257812 75.75914764404297 75.75914764404297 C 71.76370239257812 79.75458526611328 67.11147308349609 82.89131164550781 61.93170166015625 85.08217620849609 C 56.56977462768555 87.35007476806641 50.87312316894531 88.5 45 88.5 Z" stroke="none"/>
        <path d="M 45 3 C 39.32871246337891 3 33.82865524291992 4.110054016113281 28.65262985229492 6.299339294433594 C 23.65165710449219 8.414573669433594 19.15968322753906 11.44334411621094 15.301513671875 15.301513671875 C 11.44334411621094 19.15968322753906 8.414573669433594 23.65165710449219 6.299339294433594 28.65262985229492 C 4.110054016113281 33.82865524291992 3 39.32871246337891 3 45 C 3 50.67128753662109 4.110054016113281 56.17134475708008 6.299339294433594 61.34737396240234 C 8.414573669433594 66.34834289550781 11.44334411621094 70.84031677246094 15.301513671875 74.698486328125 C 19.15968322753906 78.55665588378906 23.65165710449219 81.58542633056641 28.65262985229492 83.70066070556641 C 33.82865524291992 85.88994598388672 39.32871246337891 87 45 87 C 50.67128753662109 87 56.17134475708008 85.88994598388672 61.34737396240234 83.70066070556641 C 66.34834289550781 81.58542633056641 70.84031677246094 78.55665588378906 74.698486328125 74.698486328125 C 78.55665588378906 70.84031677246094 81.58542633056641 66.34834289550781 83.70066070556641 61.34737396240234 C 85.88994598388672 56.17134475708008 87 50.67128753662109 87 45 C 87 39.32871246337891 85.88994598388672 33.82865524291992 83.70066070556641 28.65262985229492 C 81.58542633056641 23.65165710449219 78.55665588378906 19.15968322753906 74.698486328125 15.301513671875 C 70.84031677246094 11.44334411621094 66.34834289550781 8.414573669433594 61.34737396240234 6.299339294433594 C 56.17134475708008 4.110054016113281 50.67128753662109 3 45 3 M 45 0 C 69.85281372070312 0 90 20.14718627929688 90 45 C 90 69.85281372070312 69.85281372070312 90 45 90 C 20.14718627929688 90 0 69.85281372070312 0 45 C 0 20.14718627929688 20.14718627929688 0 45 0 Z" stroke="none" fill="#2a5673"/>
      </g>
    </g>
    <g id="Group_1143790" data-name="Group 1143790" transform="translate(748.817 1019.938)">
      <path id="Path_978842" data-name="Path 978842" d="M216.818,442.422H204.257v5.038a2.5,2.5,0,0,0,2.5,2.5h7.562a2.5,2.5,0,0,0,2.5-2.5Z" transform="translate(-179.408 -388.745)" fill="#d8ecfe"/>
      <path id="Path_978843" data-name="Path 978843" d="M210.393,449.956h-3.64a2.5,2.5,0,0,1-2.5-2.5v-5.039h3.64v5.039A2.5,2.5,0,0,0,210.393,449.956Z" transform="translate(-179.405 -388.741)" fill="#b3dafe"/>
      <path id="Path_978844" data-name="Path 978844" d="M195.327,415.028H180.252a1.884,1.884,0,1,1,0-3.769h15.075a1.884,1.884,0,0,1,0,3.769Z" transform="translate(-156.66 -361.363)" fill="#eaf6ff"/>
      <path id="Path_978845" data-name="Path 978845" d="M183.889,415.026h-3.64a1.884,1.884,0,1,1,0-3.768h3.64a1.884,1.884,0,1,0,0,3.768Z" transform="translate(-156.656 -361.362)" fill="#d8ecfe"/>
      <path id="Path_978846" data-name="Path 978846" d="M122.7,234.38a3.14,3.14,0,0,1-3.14,3.141v9.138h-6.281V244.82A3.121,3.121,0,0,0,111.5,242a18.845,18.845,0,0,1-10.787-17.037v-.022H107v.021a3.141,3.141,0,1,0,6.281,0v-.021h6.281v6.3A3.14,3.14,0,0,1,122.7,234.38Z" transform="translate(-88.427 -197.647)" fill="#aee69c"/>
      <path id="Path_978847" data-name="Path 978847" d="M115.7,244.82v1.839h-2.427V244.82A3.121,3.121,0,0,0,111.5,242a18.845,18.845,0,0,1-10.787-17.037v-.022h2.427v.022A18.845,18.845,0,0,0,113.928,242,3.121,3.121,0,0,1,115.7,244.82Z" transform="translate(-88.427 -197.647)" fill="#89daa4"/>
      <path id="Path_978848" data-name="Path 978848" d="M274.867,202.338v.021a18.843,18.843,0,0,1-10.78,17.034,3.126,3.126,0,0,0-1.782,2.827v2.73h-6.281V214.921a3.141,3.141,0,0,0,0-6.281v-6.3h6.281a3.141,3.141,0,0,1,6.281,0Z" transform="translate(-224.894 -175.048)" fill="#8ac9fe"/>
      <path id="Path_978849" data-name="Path 978849" d="M252.127,88.621h-6.281a3.141,3.141,0,0,0-6.281,0h-6.281V82.36a3.141,3.141,0,0,1,0-6.281V69.8A18.843,18.843,0,0,1,252.127,88.621Z" transform="translate(-202.154 -61.33)" fill="#ffe177"/>
      <path id="Path_978850" data-name="Path 978850" d="M116.417,79.219a3.14,3.14,0,0,0,3.14,3.141v6.26h-6.281v.021a3.141,3.141,0,1,1-6.281,0V88.62h-6.281A18.807,18.807,0,0,1,119.557,69.8v6.281a3.139,3.139,0,0,0-3.14,3.14Z" transform="translate(-88.427 -61.33)" fill="#fe646f"/>
      <path id="Path_978851" data-name="Path 978851" d="M119.557,69.8v.154A18.8,18.8,0,0,0,103.141,88.62h-2.427A18.807,18.807,0,0,1,119.557,69.8Z" transform="translate(-88.427 -61.33)" fill="#fd4755"/>
      <g id="Group_1143789" data-name="Group 1143789" transform="translate(0.077)">
        <path id="Path_978852" data-name="Path 978852" d="M129.758,71.7a.91.91,0,1,0-1.549.955,17.87,17.87,0,0,1,2.629,8.464h-4.543a4.051,4.051,0,0,0-7.885,0h-4.569v-5.35a.91.91,0,0,0-.91-.91,2.23,2.23,0,1,1,0-4.461.91.91,0,0,0,.91-.91V64.138a17.768,17.768,0,0,1,12.041,5.505.91.91,0,1,0,1.314-1.259A19.587,19.587,0,0,0,112.943,62.3h-.025a19.756,19.756,0,0,0-13.014,4.883.91.91,0,0,0,1.2,1.369,17.923,17.923,0,0,1,10.917-4.409V68.68a4.051,4.051,0,0,0,0,7.894v4.544H106.65a.91.91,0,0,0-.91.91v.021a2.231,2.231,0,0,1-4.462,0v-.021a.91.91,0,0,0-.91-.91H95.022a17.778,17.778,0,0,1,3.519-9.8.91.91,0,0,0-1.459-1.088,19.618,19.618,0,0,0-3.9,11.793,19.874,19.874,0,0,0,11.307,17.881,2.219,2.219,0,0,1,1.255,2v1.814c-1.868,0-3.141,1-3.141,2.794s1.233,2.8,3.141,2.794v4.141a3.525,3.525,0,0,0,3.409,3.409h7.563a3.525,3.525,0,0,0,3.409-3.409v-4.141c2.131,0,3.142-1.131,3.141-2.794,0-1.734-1.091-2.794-3.141-2.794V101.91a2.225,2.225,0,0,1,1.262-2,20.083,20.083,0,0,0,11.3-17.878A19.706,19.706,0,0,0,129.758,71.7ZM105.264,98.264A18.032,18.032,0,0,1,95.023,82.937h4.534a4.051,4.051,0,0,0,7.9,0h4.559v5.392a.91.91,0,0,0,.91.91,2.23,2.23,0,1,1,0,4.461.91.91,0,0,0-.91.91v9.113H107.56v-1.814a4.046,4.046,0,0,0-2.3-3.645Zm11.448,16.778h-7.563a1.668,1.668,0,0,1-1.589-1.941H118.3C118.3,114.071,118,115.042,116.713,115.042Zm3.755-7.55h-5.625a.91.91,0,0,0-.91.91s0,0,0,.006,0,0,0,.006a.91.91,0,0,0,.91.91H118.3v1.957H107.56v-1.957h3.318a.91.91,0,0,0,.91-.91s0,0,0-.006,0,0,0-.006a.91.91,0,0,0-.91-.91h-5.484a.981.981,0,1,1,0-1.948h15.074A.975.975,0,1,1,120.468,107.492Zm.137-9.231a4.053,4.053,0,0,0-2.3,3.649v1.814h-4.461V95.417a4.051,4.051,0,0,0,0-7.894V82.937h5.371a.91.91,0,0,0,.91-.9,2.231,2.231,0,0,1,4.462,0,.91.91,0,0,0,.91.9h5.346A18.032,18.032,0,0,1,120.6,98.26Z" transform="translate(-81.878 -54.737)"/>
        <g id="Group_1143788" data-name="Group 1143788" transform="translate(0)">
          <g id="Group_1143776" data-name="Group 1143776" transform="translate(30.143)">
            <path id="Path_978853" data-name="Path 978853" d="M249.434,5.589a.91.91,0,0,1-.91-.91V.91a.91.91,0,1,1,1.82,0V4.679A.91.91,0,0,1,249.434,5.589Z" transform="translate(-248.524)"/>
          </g>
          <g id="Group_1143777" data-name="Group 1143777" transform="translate(43.33 4.038)">
            <path id="Path_978854" data-name="Path 978854" d="M357.668,38.246A.908.908,0,0,1,357.335,37l1.884-3.264a.91.91,0,1,1,1.576.91l-1.884,3.264A.98.98,0,0,1,357.668,38.246Z" transform="translate(-357.213 -33.284)"/>
          </g>
          <g id="Group_1143780" data-name="Group 1143780" transform="translate(4.046 15.071)">
            <g id="Group_1143778" data-name="Group 1143778" transform="translate(48.937)">
              <path id="Path_978855" data-name="Path 978855" d="M436.906,127.471a.91.91,0,0,1,.333-1.243l3.264-1.884a.91.91,0,1,1,.91,1.576l-3.264,1.884A.948.948,0,0,1,436.906,127.471Z" transform="translate(-436.784 -124.222)"/>
            </g>
            <g id="Group_1143779" data-name="Group 1143779" transform="translate(0 28.259)">
              <path id="Path_978856" data-name="Path 978856" d="M33.543,360.387a.924.924,0,0,1,.333-1.243l3.264-1.884a.91.91,0,1,1,.91,1.576l-3.264,1.884A.855.855,0,0,1,33.543,360.387Z" transform="translate(-33.429 -357.138)"/>
            </g>
          </g>
          <g id="Group_1143781" data-name="Group 1143781" transform="translate(15.071 4.038)">
            <path id="Path_978857" data-name="Path 978857" d="M126.305,37.913l-1.884-3.264a.91.91,0,0,1,1.576-.91L127.881,37a.924.924,0,0,1-.333,1.243A.948.948,0,0,1,126.305,37.913Z" transform="translate(-124.299 -33.284)"/>
          </g>
          <g id="Group_1143784" data-name="Group 1143784" transform="translate(4.038 15.071)">
            <g id="Group_1143782" data-name="Group 1143782">
              <path id="Path_978858" data-name="Path 978858" d="M37.081,127.8l-3.264-1.884a.91.91,0,0,1,.91-1.576l3.264,1.884a.867.867,0,0,1,.333,1.243A.927.927,0,0,1,37.081,127.8Z" transform="translate(-33.362 -124.222)"/>
            </g>
            <g id="Group_1143783" data-name="Group 1143783" transform="translate(48.946 28.259)">
              <path id="Path_978859" data-name="Path 978859" d="M440.5,360.721l-3.264-1.884a.91.91,0,0,1,.91-1.576l3.264,1.884a.9.9,0,0,1,.333,1.243A.838.838,0,0,1,440.5,360.721Z" transform="translate(-436.784 -357.139)"/>
            </g>
          </g>
          <g id="Group_1143787" data-name="Group 1143787" transform="translate(0 30.143)">
            <g id="Group_1143785" data-name="Group 1143785">
              <path id="Path_978860" data-name="Path 978860" d="M4.756,250.267H.987a.91.91,0,0,1,0-1.82H4.756a.91.91,0,1,1,0,1.82Z" transform="translate(-0.077 -248.447)"/>
            </g>
            <g id="Group_1143786" data-name="Group 1143786" transform="translate(56.517)">
              <path id="Path_978861" data-name="Path 978861" d="M470.587,250.267h-3.769a.91.91,0,1,1,0-1.82h3.769a.91.91,0,0,1,0,1.82Z" transform="translate(-465.908 -248.447)"/>
            </g>
          </g>
        </g>
      </g>
    </g>
  </g>
</svg>
