<svg xmlns="http://www.w3.org/2000/svg" xmlns:xlink="http://www.w3.org/1999/xlink" width="108" height="108" viewBox="0 0 108 108">
  <defs>
    <filter id="Fondo" x="0" y="0" width="108" height="108" filterUnits="userSpaceOnUse">
      <feOffset dy="3" input="SourceAlpha"/>
      <feGaussianBlur stdDeviation="3" result="blur"/>
      <feFlood flood-opacity="0.161"/>
      <feComposite operator="in" in2="blur"/>
      <feComposite in="SourceGraphic"/>
    </filter>
  </defs>
  <g id="Group_1143826" data-name="Group 1143826" transform="translate(-4400.499 -9431.926)">
    <g transform="matrix(1, 0, 0, 1, 4400.5, 9431.93)" filter="url(#Fondo)">
      <g id="Fondo-2" data-name="Fondo" transform="translate(9 6)" fill="#fffbe8" stroke="#bca724" stroke-width="3">
        <circle cx="45" cy="45" r="45" stroke="none"/>
        <circle cx="45" cy="45" r="43.5" fill="none"/>
      </g>
    </g>
    <g id="Group_1143825" data-name="Group 1143825" transform="translate(4406.679 9453.441)">
      <g id="Group_1143824" data-name="Group 1143824" transform="translate(22.534 1.892)">
        <g id="Group_1143822" data-name="Group 1143822">
          <path id="Path_978955" data-name="Path 978955" d="M115.7,109.214H82.672a2.34,2.34,0,0,1-2.336-2.335V72.77a2.256,2.256,0,0,1,.684-1.651L91.761,60.377a2.256,2.256,0,0,1,1.651-.684H115.7a2.34,2.34,0,0,1,2.336,2.336v44.85a2.34,2.34,0,0,1-2.336,2.335Z" transform="translate(-74.673 -54.03)" fill="#e2e3e3" fill-rule="evenodd"/>
          <path id="Path_978956" data-name="Path 978956" d="M65.008,58.518H31.975a2.34,2.34,0,0,1-2.336-2.336V22.074a2.256,2.256,0,0,1,.684-1.651L41.064,9.681A2.256,2.256,0,0,1,42.716,9H65.007a2.34,2.34,0,0,1,2.336,2.336v44.85a2.34,2.34,0,0,1-2.335,2.335Z" transform="translate(-29.639 -8.997)" fill="#eff4f7" fill-rule="evenodd"/>
          <path id="Path_978957" data-name="Path 978957" d="M42.674,11.291,31.933,22.032a2.342,2.342,0,0,0-.482.684h9.8a2.113,2.113,0,0,0,2.109-2.109v-9.8A2.341,2.341,0,0,0,42.674,11.291Z" transform="translate(-31.249 -10.607)" fill="#e2e3e3" fill-rule="evenodd"/>
          <path id="Path_978958" data-name="Path 978958" d="M192.354,69.489V65.533a1.12,1.12,0,0,1,1.117-1.117h11.74a1.12,1.12,0,0,1,1.117,1.117v3.955a1.12,1.12,0,0,1-1.117,1.117h-11.74A1.12,1.12,0,0,1,192.354,69.489Z" transform="translate(-174.177 -58.225)" fill="#eb3b48" fill-rule="evenodd"/>
        </g>
        <g id="Group_1143823" data-name="Group 1143823" transform="translate(10.859 15.31)">
          <path id="Path_978959" data-name="Path 978959" d="M339.778,358.141l-3.57-3.57,1.729-2.451,3.628,3.628Z" transform="translate(-312.821 -329.101)" fill="#455a64" fill-rule="evenodd"/>
          <path id="Path_978960" data-name="Path 978960" d="M361.284,377.123l-3.305,3.305a.462.462,0,0,0,0,.652l9,9a2.8,2.8,0,0,0,3.957-3.957l-9-9A.462.462,0,0,0,361.284,377.123Z" transform="translate(-332.04 -351.191)" fill="#707d8c" fill-rule="evenodd"/>
          <path id="Path_978961" data-name="Path 978961" d="M361.282,377.121l-3.305,3.305a.462.462,0,0,0,0,.652l2.245,2.245,3.957-3.957-2.245-2.245A.462.462,0,0,0,361.282,377.121Z" transform="translate(-332.038 -351.19)" fill="#96abbc" fill-rule="evenodd"/>
          <ellipse id="Ellipse_11585" data-name="Ellipse 11585" cx="13.252" cy="13.252" rx="13.252" ry="13.252" transform="matrix(0.198, -0.98, 0.98, 0.198, 0, 25.974)" fill="#4294ff"/>
          <circle id="Ellipse_11586" data-name="Ellipse 11586" cx="9.873" cy="9.873" r="9.873" transform="translate(4.479 7.197) rotate(-7.992)" fill="#eff4f7"/>
        </g>
        <path id="Path_978962" data-name="Path 978962" d="M218.229,244.527a1.433,1.433,0,0,1,2.027,2.027l-6.9,6.9a1.434,1.434,0,0,1-2.19-.194l-2.975-3.744a1.431,1.431,0,0,1,2.24-1.781l2.032,2.557Z" transform="translate(-187.968 -217.843)" fill="#4294ff" fill-rule="evenodd"/>
      </g>
      <path id="Path_978963" data-name="Path 978963" d="M54.19,29.97l-6.9,6.9a.526.526,0,0,1-.427.156.537.537,0,0,1-.4-.23.22.22,0,0,0-.037-.045L43.457,33.01a.532.532,0,0,1,.084-.754.534.534,0,0,1,.753.086L46.329,34.9a.9.9,0,0,0,1.333.076l5.769-5.768a.538.538,0,1,1,.759.763Zm1.265-2.027a2.324,2.324,0,0,0-3.288,0L47.1,33,45.7,31.229a2.325,2.325,0,1,0-3.641,2.894l2.961,3.724a2.322,2.322,0,0,0,1.686.962c.068.007.137.009.205.009a2.315,2.315,0,0,0,1.644-.681l6.9-6.9A2.324,2.324,0,0,0,55.454,27.943Zm-6.412,13.88a8.98,8.98,0,1,0-8.983-8.98A8.988,8.988,0,0,0,49.042,41.823Zm0-19.748A10.768,10.768,0,1,0,59.811,32.842,10.782,10.782,0,0,0,49.042,22.075ZM71.655,55.459a1.913,1.913,0,0,1-2.7,0L62.82,49.323l2.7-2.7,6.133,6.136a1.911,1.911,0,0,1,0,2.7Zm-6.649-.718v-.7l-4.015-4.017A3.233,3.233,0,0,1,57.9,52.306H29.09V54.74a1.444,1.444,0,0,0,1.444,1.442H63.568A1.44,1.44,0,0,0,65.006,54.74Zm-41.58-5.662a1.444,1.444,0,0,0,1.444,1.44H57.9a1.44,1.44,0,0,0,1.438-1.44v-.7l-.969-.973a.9.9,0,0,1,0-1.263l.227-.23-1.449-1.453a14.169,14.169,0,1,1,2.192-21.325V4.228A1.44,1.44,0,0,0,57.9,2.786H35.612c-.026,0-.053,0-.074,0v9.1a3.007,3.007,0,0,1-3,3h-9.1c0,.024-.005.049-.005.074ZM33.753,4.049v7.843a1.218,1.218,0,0,1-1.217,1.215H24.691Zm29.815,4.4a1.44,1.44,0,0,1,1.438,1.442V43.582L63.6,42.173a.9.9,0,0,0-1.264,0l-.227.23L60.654,40.95a14.141,14.141,0,0,0,.479-15.484V8.449ZM59.532,42.356l1.312,1.311-.98.977-1.312-1.311Q59.066,42.869,59.532,42.356Zm1.891-9.513a12.381,12.381,0,1,0-12.381,12.38A12.4,12.4,0,0,0,61.423,32.842ZM60.27,46.769l1.286,1.289,2.7-2.7-1.291-1.289Zm12.65,4.726L66.8,45.369V9.891a3.233,3.233,0,0,0-3.23-3.23H61.134V4.228A3.233,3.233,0,0,0,57.9,1H35.612a3.178,3.178,0,0,0-2.287.946L22.588,12.686a3.158,3.158,0,0,0-.948,2.283V49.078a3.233,3.233,0,0,0,3.23,3.228H27.3V54.74a3.233,3.233,0,0,0,3.23,3.23H63.568a3.238,3.238,0,0,0,3.087-2.286l1.038,1.037a3.7,3.7,0,0,0,5.227-5.227ZM27.193,26.653a.894.894,0,0,1,.9-.894h5.853a.894.894,0,1,1,0,1.788H28.089a.894.894,0,0,1-.9-.894Zm0,6.19a.9.9,0,0,1,.9-.894h4.326a.894.894,0,1,1,0,1.788H28.089A.894.894,0,0,1,27.193,32.842Zm12.36,12.38a.894.894,0,0,1-.9.894H28.089a.894.894,0,1,1,0-1.788H38.658A.894.894,0,0,1,39.553,45.223Zm-12.36-24.76a.894.894,0,0,1,.9-.894H38.658a.894.894,0,1,1,0,1.787H28.089a.894.894,0,0,1-.9-.894Zm0,18.57a.894.894,0,0,1,.9-.894h5.853a.894.894,0,1,1,0,1.787H28.089a.9.9,0,0,1-.9-.894ZM41.6,8.976H53.789v4.4H41.6Zm-.89,6.191a.9.9,0,0,1-.9-.894V8.082a.894.894,0,0,1,.9-.894H54.685a.894.894,0,0,1,.9.894v6.191a.9.9,0,0,1-.9.894Z" transform="translate(0)" fill-rule="evenodd"/>
    </g>
  </g>
</svg>
