<svg xmlns="http://www.w3.org/2000/svg" xmlns:xlink="http://www.w3.org/1999/xlink" width="108" height="108" viewBox="0 0 108 108">
  <defs>
    <filter id="Fondo" x="0" y="0" width="108" height="108" filterUnits="userSpaceOnUse">
      <feOffset dy="3" input="SourceAlpha"/>
      <feGaussianBlur stdDeviation="3" result="blur"/>
      <feFlood flood-opacity="0.161"/>
      <feComposite operator="in" in2="blur"/>
      <feComposite in="SourceGraphic"/>
    </filter>
  </defs>
  <g id="Group_1144441" data-name="Group 1144441" transform="translate(-1059.608 -1206.134)">
    <g id="Group_1144331" data-name="Group 1144331">
      <g transform="matrix(1, 0, 0, 1, 1059.61, 1206.13)" filter="url(#Fondo)">
        <g id="Fondo-2" data-name="Fondo" transform="translate(9 6)" fill="#fff4e4">
          <path d="M 45 88.5 C 39.12687683105469 88.5 33.43022537231445 87.35007476806641 28.06830024719238 85.08217620849609 C 22.88852500915527 82.89131164550781 18.23629951477051 79.75458526611328 14.2408504486084 75.75914764404297 C 10.24541282653809 71.76370239257812 7.108687400817871 67.11147308349609 4.917825222015381 61.93170166015625 C 2.649924993515015 56.56977462768555 1.5 50.87312316894531 1.5 45 C 1.5 39.12687683105469 2.649924993515015 33.43022537231445 4.917825222015381 28.06830024719238 C 7.108687400817871 22.88852500915527 10.24541282653809 18.23629951477051 14.2408504486084 14.2408504486084 C 18.23629951477051 10.24541282653809 22.88852500915527 7.108687400817871 28.06830024719238 4.917825222015381 C 33.43022537231445 2.649924993515015 39.12687683105469 1.5 45 1.5 C 50.87312316894531 1.5 56.56977462768555 2.649924993515015 61.93170166015625 4.917825222015381 C 67.11147308349609 7.108687400817871 71.76370239257812 10.24541282653809 75.75914764404297 14.2408504486084 C 79.75458526611328 18.23629951477051 82.89131164550781 22.88852500915527 85.08217620849609 28.06830024719238 C 87.35007476806641 33.43022537231445 88.5 39.12687683105469 88.5 45 C 88.5 50.87312316894531 87.35007476806641 56.56977462768555 85.08217620849609 61.93170166015625 C 82.89131164550781 67.11147308349609 79.75458526611328 71.76370239257812 75.75914764404297 75.75914764404297 C 71.76370239257812 79.75458526611328 67.11147308349609 82.89131164550781 61.93170166015625 85.08217620849609 C 56.56977462768555 87.35007476806641 50.87312316894531 88.5 45 88.5 Z" stroke="none"/>
          <path d="M 45 3 C 39.32871246337891 3 33.82865524291992 4.110054016113281 28.65262985229492 6.299339294433594 C 23.65165710449219 8.414573669433594 19.15968322753906 11.44334411621094 15.301513671875 15.301513671875 C 11.44334411621094 19.15968322753906 8.414573669433594 23.65165710449219 6.299339294433594 28.65262985229492 C 4.110054016113281 33.82865524291992 3 39.32871246337891 3 45 C 3 50.67128753662109 4.110054016113281 56.17134475708008 6.299339294433594 61.34737396240234 C 8.414573669433594 66.34834289550781 11.44334411621094 70.84031677246094 15.301513671875 74.698486328125 C 19.15968322753906 78.55665588378906 23.65165710449219 81.58542633056641 28.65262985229492 83.70066070556641 C 33.82865524291992 85.88994598388672 39.32871246337891 87 45 87 C 50.67128753662109 87 56.17134475708008 85.88994598388672 61.34737396240234 83.70066070556641 C 66.34834289550781 81.58542633056641 70.84031677246094 78.55665588378906 74.698486328125 74.698486328125 C 78.55665588378906 70.84031677246094 81.58542633056641 66.34834289550781 83.70066070556641 61.34737396240234 C 85.88994598388672 56.17134475708008 87 50.67128753662109 87 45 C 87 39.32871246337891 85.88994598388672 33.82865524291992 83.70066070556641 28.65262985229492 C 81.58542633056641 23.65165710449219 78.55665588378906 19.15968322753906 74.698486328125 15.301513671875 C 70.84031677246094 11.44334411621094 66.34834289550781 8.414573669433594 61.34737396240234 6.299339294433594 C 56.17134475708008 4.110054016113281 50.67128753662109 3 45 3 M 45 0 C 69.85281372070312 0 90 20.14718627929688 90 45 C 90 69.85281372070312 69.85281372070312 90 45 90 C 20.14718627929688 90 0 69.85281372070312 0 45 C 0 20.14718627929688 20.14718627929688 0 45 0 Z" stroke="none" fill="#ff9902"/>
        </g>
      </g>
      <g id="Group_1144330" data-name="Group 1144330" transform="translate(1086.749 1230.281)">
        <path id="Path_979030" data-name="Path 979030" d="M57.915,41.972V56.887H43V37h9.944v4.972Z" transform="translate(-7.026 -6)" fill="#ffeb99"/>
        <path id="Path_979031" data-name="Path 979031" d="M58.258,16.657V26.6H45V16.657a.9.9,0,0,1,.008-.149A1.657,1.657,0,0,1,46.657,15H56.6A1.662,1.662,0,0,1,58.258,16.657Z" transform="translate(-7.369 -2.229)" fill="#ff3051"/>
        <path id="Path_979032" data-name="Path 979032" d="M59.972,41.972H55V37Z" transform="translate(-9.083 -6)" fill="#ff9811"/>
        <circle id="Ellipse_11586" data-name="Ellipse 11586" cx="4.972" cy="4.972" r="4.972" transform="translate(39.288 2.827)" fill="#ffc477"/>
        <path id="Path_979033" data-name="Path 979033" d="M49.71,29.462H39.767a35.995,35.995,0,0,0-1.127-9.231,16.474,16.474,0,0,0,5.27-3.041v9.786h5.61a16.406,16.406,0,0,1,.191,2.486Z" transform="translate(-6.279 -2.605)" fill="#2488ff"/>
        <path id="Path_979034" data-name="Path 979034" d="M39.722,32h9.944a16.7,16.7,0,0,1-.522,4.144H42.208v7.706a16.388,16.388,0,0,0-3.828-1.864A35.291,35.291,0,0,0,39.722,32Z" transform="translate(-6.234 -5.143)" fill="#9bc9ff"/>
        <path id="Path_979035" data-name="Path 979035" d="M42.78,15.994a.9.9,0,0,0-.008.149V16.3a16.474,16.474,0,0,1-5.27,3.041C36.317,14.908,34.3,12,32,12a16.508,16.508,0,0,1,10.78,3.994Z" transform="translate(-5.141 -1.715)" fill="#9bc9ff"/>
        <path id="Path_979036" data-name="Path 979036" d="M41.115,45.914V47.9A16.462,16.462,0,0,1,32,50.638c2.163,0,4.077-2.585,5.287-6.588a16.388,16.388,0,0,1,3.828,1.864Z" transform="translate(-5.141 -7.208)" fill="#2488ff"/>
        <path id="Path_979037" data-name="Path 979037" d="M37.258,30.091H24q0-1.268.075-2.486h2.411a1.662,1.662,0,0,0,1.657-1.657V21.622a17.464,17.464,0,0,0,2.486.182,16.324,16.324,0,0,0,5.5-.945,35.995,35.995,0,0,1,1.127,9.231Z" transform="translate(-3.77 -3.234)" fill="#9bc9ff"/>
        <path id="Path_979038" data-name="Path 979038" d="M24,32H37.258a35.291,35.291,0,0,1-1.342,9.985,16.407,16.407,0,0,0-5.287-.87,16.151,16.151,0,0,0-5.287.87A35.291,35.291,0,0,1,24,32Z" transform="translate(-3.77 -5.143)" fill="#2488ff"/>
        <path id="Path_979039" data-name="Path 979039" d="M30.907,43a16.407,16.407,0,0,1,5.287.87c-1.21,4-3.124,6.588-5.287,6.588S26.83,47.872,25.62,43.87A16.151,16.151,0,0,1,30.907,43Z" transform="translate(-4.048 -7.028)" fill="#9bc9ff"/>
        <path id="Path_979040" data-name="Path 979040" d="M31.486,12c2.3,0,4.317,2.908,5.5,7.342a16.324,16.324,0,0,1-5.5.945A17.464,17.464,0,0,1,29,20.1V13.2A3.556,3.556,0,0,1,31.486,12Z" transform="translate(-4.627 -1.715)" fill="#2488ff"/>
        <path id="Path_979041" data-name="Path 979041" d="M25.23,19.933v4.325a1.662,1.662,0,0,1-1.657,1.657H8.657A1.662,1.662,0,0,1,7,24.258v-11.6A1.662,1.662,0,0,1,8.657,11H23.573a1.65,1.65,0,0,1,1.533,1.036,1.574,1.574,0,0,1,.124.621Z" transform="translate(-0.857 -1.544)" fill="#ffc477"/>
        <path id="Path_979042" data-name="Path 979042" d="M24.549,44.05c1.21,4,3.124,6.588,5.287,6.588A16.447,16.447,0,0,1,19.37,46.909a16.476,16.476,0,0,1,5.179-2.859Z" transform="translate(-2.977 -7.208)" fill="#2488ff"/>
        <path id="Path_979043" data-name="Path 979043" d="M23.286,41.985a16.476,16.476,0,0,0-5.179,2.859,16.218,16.218,0,0,1-2.7-2.784,4.889,4.889,0,0,0,.737-2.6,4.984,4.984,0,0,0-3.936-4.864A15.727,15.727,0,0,1,12,32h9.944a35.291,35.291,0,0,0,1.342,9.985Z" transform="translate(-1.714 -5.143)" fill="#9bc9ff"/>
        <path id="Path_979044" data-name="Path 979044" d="M21.23,7.972V9.629H7.972a1.662,1.662,0,0,0-1.657,1.657v11.6a1.662,1.662,0,0,0,1.657,1.657H4.657A1.662,1.662,0,0,1,3,22.887V4.657A1.662,1.662,0,0,1,4.657,3H7.972A1.67,1.67,0,0,1,9.629,4.657a1.662,1.662,0,0,0,1.657,1.657h8.286A1.662,1.662,0,0,1,21.23,7.972Z" transform="translate(-0.171 -0.173)" fill="#ff7956"/>
        <path id="Path_979045" data-name="Path 979045" d="M12.191,29h9.828q-.075,1.218-.075,2.486H12A16.407,16.407,0,0,1,12.191,29Z" transform="translate(-1.714 -4.629)" fill="#2488ff"/>
        <path id="Path_979046" data-name="Path 979046" d="M16.258,48.657V58.6H3V48.657A1.662,1.662,0,0,1,4.657,47H14.6a1.662,1.662,0,0,1,1.657,1.657Z" transform="translate(-0.171 -7.713)" fill="#b2fa09"/>
        <path id="Path_979047" data-name="Path 979047" d="M14.943,39.972a4.889,4.889,0,0,1-.737,2.6A4.972,4.972,0,1,1,9.971,35a4.723,4.723,0,0,1,1.036.108,4.984,4.984,0,0,1,3.936,4.864Z" transform="translate(-0.514 -5.657)" fill="#ffc477"/>
        <path id="Path_979048" data-name="Path 979048" d="M51.718,24.371V14.428a2.486,2.486,0,0,0-2.486-2.486h-.921a5.8,5.8,0,1,0-8.1,0h-.921a2.479,2.479,0,0,0-1.995,1.016,17.388,17.388,0,0,0-10.435-3.5,17.058,17.058,0,0,0-2.18.149,2.476,2.476,0,0,0-1.963-.978h-.829V7.8A2.486,2.486,0,0,0,19.4,5.313H11.115a.829.829,0,0,1-.829-.829A2.486,2.486,0,0,0,7.8,2H4.486A2.486,2.486,0,0,0,2,4.484v18.23A2.486,2.486,0,0,0,4.486,25.2H9.549c-.055.554-.091,1.108-.091,1.657,0,.566.036,1.119.088,1.661-.03,0-.058,0-.088,0a5.795,5.795,0,0,0-4.051,9.944H4.486A2.486,2.486,0,0,0,2,40.944v9.944a.829.829,0,0,0,.829.829H16.087a.829.829,0,0,0,.829-.829V41.143a17.392,17.392,0,0,0,18.23,1.009v8.735a.829.829,0,0,0,.829.829H50.889a.829.829,0,0,0,.829-.829V35.972a.828.828,0,0,0-.243-.586L46.5,30.415a.829.829,0,0,0-.586-.243H43.943a17.567,17.567,0,0,0,.317-3.315c0-.549-.036-1.1-.091-1.657h6.72a.829.829,0,0,0,.829-.829ZM40.117,7.8a4.143,4.143,0,1,1,4.143,4.143A4.143,4.143,0,0,1,40.117,7.8ZM26.859,42.6c-1.5,0-3.09-1.942-4.226-5.211a15.515,15.515,0,0,1,8.452,0C29.951,40.656,28.36,42.6,26.859,42.6ZM23.283,42.2a15.524,15.524,0,0,1-5.522-2.486,15.721,15.721,0,0,1,3.3-1.788,14.561,14.561,0,0,0,2.22,4.274Zm3.576-7.052a17.327,17.327,0,0,0-4.715.663,34.325,34.325,0,0,1-1.068-8.121H32.642A34.312,34.312,0,0,1,31.575,35.8,17.384,17.384,0,0,0,26.859,35.144Zm-5.776-9.115c.006-.278.013-.554.025-.829h1.608A2.486,2.486,0,0,0,25.2,22.714v-3.4c.558.052,1.114.088,1.657.088a17.347,17.347,0,0,0,4.905-.72,35.178,35.178,0,0,1,.878,7.349Zm5.776-8.286a16.391,16.391,0,0,1-1.657-.1V11.859a2.577,2.577,0,0,1,1.657-.746c1.612,0,3.327,2.244,4.475,5.966a15.706,15.706,0,0,1-4.475.663Zm3.6-6.2a15.753,15.753,0,0,1,6.032,2.881,15.689,15.689,0,0,1-3.6,2.095,15.533,15.533,0,0,0-2.431-4.976ZM3.657,22.714V4.484a.829.829,0,0,1,.829-.829H7.8a.829.829,0,0,1,.829.829A2.486,2.486,0,0,0,11.115,6.97H19.4a.829.829,0,0,1,.829.829v.829H7.8a2.486,2.486,0,0,0-2.486,2.486v11.6a2.458,2.458,0,0,0,.152.829H4.486A.829.829,0,0,1,3.657,22.714Zm3.315,0v-11.6a.829.829,0,0,1,.829-.829H22.716a.829.829,0,0,1,.829.829v11.6a.829.829,0,0,1-.829.829H7.8A.829.829,0,0,1,6.972,22.714ZM19.451,25.2c-.011.276-.019.551-.025.829H11.147c.015-.277.038-.552.068-.829Zm-8.3,2.486h8.271a35.766,35.766,0,0,0,1.16,8.65,17.385,17.385,0,0,0-4.153,2.309,16.022,16.022,0,0,1-1.74-1.823,5.779,5.779,0,0,0-3.433-8.02c-.055-.365-.086-.737-.105-1.115Zm2.561,10.563c.061.071.128.139.191.21h-.39C13.578,38.391,13.642,38.319,13.709,38.248ZM5.315,34.315a4.143,4.143,0,1,1,4.143,4.143,4.143,4.143,0,0,1-4.143-4.143Zm9.944,15.744H3.657V40.944a.829.829,0,0,1,.829-.829h9.944a.829.829,0,0,1,.829.829Zm15.185-7.872a14.606,14.606,0,0,0,2.216-4.274,15.709,15.709,0,0,1,2.486,1.259v1.06A15.6,15.6,0,0,1,30.444,42.187ZM36.8,50.059V31.829h8.286v4.143a.829.829,0,0,0,.829.829h4.143V50.059ZM46.746,33l2.143,2.143H46.746ZM35.974,30.172a.829.829,0,0,0-.829.829v6.25a17.292,17.292,0,0,0-2-.931A35.788,35.788,0,0,0,34.3,27.686h8.278a15.872,15.872,0,0,1-.331,2.486Zm6.6-4.143H34.3a36.625,36.625,0,0,0-.965-7.9A17.392,17.392,0,0,0,36.8,16.265v8.106a.829.829,0,0,0,.829.829H42.5C42.532,25.477,42.556,25.752,42.571,26.029Zm7.49-2.486H38.46V14.428a.829.829,0,0,1,.829-.829h9.944a.829.829,0,0,1,.829.829Z"/>
        <path id="Path_979049" data-name="Path 979049" d="M48,48h6.629v1.657H48Z" transform="translate(-7.883 -7.885)"/>
        <path id="Path_979050" data-name="Path 979050" d="M48,54h6.629v1.657H48Z" transform="translate(-7.883 -8.913)"/>
      </g>
    </g>
  </g>
</svg>
