<svg xmlns="http://www.w3.org/2000/svg" xmlns:xlink="http://www.w3.org/1999/xlink" width="108" height="108" viewBox="0 0 108 108">
  <defs>
    <filter id="Fondo" x="0" y="0" width="108" height="108" filterUnits="userSpaceOnUse">
      <feOffset dy="3" input="SourceAlpha"/>
      <feGaussianBlur stdDeviation="3" result="blur"/>
      <feFlood flood-opacity="0.161"/>
      <feComposite operator="in" in2="blur"/>
      <feComposite in="SourceGraphic"/>
    </filter>
  </defs>
  <g id="Group_1144059" data-name="Group 1144059" transform="translate(-3767.999 -11752.709)">
    <g transform="matrix(1, 0, 0, 1, 3768, 11752.71)" filter="url(#Fondo)">
      <g id="Fondo-2" data-name="Fondo" transform="translate(9 6)" fill="#fffbe8" stroke="#bca724" stroke-width="3">
        <circle cx="45" cy="45" r="45" stroke="none"/>
        <circle cx="45" cy="45" r="43.5" fill="none"/>
      </g>
    </g>
    <g id="Group_1144058" data-name="Group 1144058" transform="translate(3797.697 11777.292)">
      <path id="Path_979235" data-name="Path 979235" d="M89.937,157.089a2.6,2.6,0,0,1-2.6,2.6H70.89a2.6,2.6,0,0,0-2.6,2.6v22a2.6,2.6,0,0,0,2.6,2.6h33.421a2.6,2.6,0,0,0,2.6-2.6v-27.2a2.6,2.6,0,0,0-2.6-2.6H92.538a2.6,2.6,0,0,0-2.6,2.6Zm0,0" transform="translate(-61.511 -140.18)" fill="#e58e13"/>
      <path id="Path_979236" data-name="Path 979236" d="M148.375,83.016h28.167v35.994H148.375Zm0,0" transform="translate(-134.18 -75.327)" fill="#cbcbcb"/>
      <path id="Path_979237" data-name="Path 979237" d="M99.441,7.605h28.167V31.489H99.441Zm0,0" transform="translate(-89.778 -6.901)" fill="#cbcbcb"/>
      <path id="Path_979238" data-name="Path 979238" d="M50.508,83.016H78.675v16.9H50.508Zm0,0" transform="translate(-45.376 -75.327)" fill="#e6e6e6"/>
      <path id="Path_979239" data-name="Path 979239" d="M29.749,157.089a2.6,2.6,0,0,1-2.6,2.6H10.7a2.6,2.6,0,0,0-2.6,2.6v22a2.6,2.6,0,0,0,2.6,2.6H44.123a2.6,2.6,0,0,0,2.6-2.6v-27.2a2.6,2.6,0,0,0-2.6-2.6H32.351a2.6,2.6,0,0,0-2.6,2.6Zm0,0" transform="translate(-6.897 -140.18)" fill="#f7d360"/>
      <path id="Path_979240" data-name="Path 979240" d="M230.492,251.816h14.647v5.211H230.492Zm0,0" transform="translate(-208.692 -228.495)" fill="#fc5f61"/>
      <path id="Path_979241" data-name="Path 979241" d="M43.066,13.615V7.688a.7.7,0,0,0-.7-.7H38.535V.7a.7.7,0,0,0-.7-.7H9.663a.7.7,0,0,0-.7.7V6.984H5.132a.7.7,0,0,0-.7.7V18.805H3.805A3.309,3.309,0,0,0,.5,22.111v22a3.309,3.309,0,0,0,3.305,3.305h39a3.309,3.309,0,0,0,3.305-3.305v-27.2a3.309,3.309,0,0,0-3.039-3.293ZM10.367,1.409H37.127V13.6H34V7.688a.7.7,0,0,0-.7-.7H10.367Zm-8.459,42.7v-22a1.9,1.9,0,0,1,1.9-1.9H6.562a.7.7,0,0,0,0-1.409H5.836V8.392H32.594V13.6h-7.14a3.309,3.309,0,0,0-3.305,3.305,1.9,1.9,0,0,1-1.9,1.9H9.379a.7.7,0,1,0,0,1.409H20.252a3.309,3.309,0,0,0,3.305-3.305,1.9,1.9,0,0,1,1.9-1.9H37.226a1.9,1.9,0,0,1,1.9,1.9v27.2a1.9,1.9,0,0,1-1.9,1.9H3.805a1.9,1.9,0,0,1-1.9-1.9Zm42.789,0a1.9,1.9,0,0,1-1.9,1.9h-2.87a3.285,3.285,0,0,0,.589-1.623h1.843a.7.7,0,0,0,.7-.7V25.011a.7.7,0,0,0-1.409,0V42.978H40.532V16.909a3.31,3.31,0,0,0-2-3.034V8.392h3.123v13.8a.7.7,0,0,0,1.409,0V15.033A1.9,1.9,0,0,1,44.7,16.909Zm0,0"/>
      <path id="Path_979242" data-name="Path 979242" d="M91.294,116.358h16.9a.7.7,0,0,0,0-1.409h-16.9a.7.7,0,0,0,0,1.409Zm0,0" transform="translate(-81.746 -104.303)"/>
      <path id="Path_979243" data-name="Path 979243" d="M91.294,154.377h9.668a.7.7,0,0,0,0-1.408H91.294a.7.7,0,0,0,0,1.408Zm0,0" transform="translate(-81.746 -138.802)"/>
      <path id="Path_979244" data-name="Path 979244" d="M238.241,244.211H223.594a.7.7,0,0,0-.7.7v5.211a.7.7,0,0,0,.7.7h14.647a.7.7,0,0,0,.7-.7v-5.211A.7.7,0,0,0,238.241,244.211Zm-.7,5.211H224.3v-3.8h13.239Zm0,0" transform="translate(-201.794 -221.594)"/>
    </g>
  </g>
</svg>
