<svg xmlns="http://www.w3.org/2000/svg" xmlns:xlink="http://www.w3.org/1999/xlink" width="108" height="108" viewBox="0 0 108 108">
  <defs>
    <filter id="Fondo" x="0" y="0" width="108" height="108" filterUnits="userSpaceOnUse">
      <feOffset dy="3" input="SourceAlpha"/>
      <feGaussianBlur stdDeviation="3" result="blur"/>
      <feFlood flood-opacity="0.161"/>
      <feComposite operator="in" in2="blur"/>
      <feComposite in="SourceGraphic"/>
    </filter>
  </defs>
  <g id="Group_1144417" data-name="Group 1144417" transform="translate(-746.999 -1546.134)">
    <g id="Group_1144249" data-name="Group 1144249" transform="translate(0 81)">
      <g transform="matrix(1, 0, 0, 1, 747, 1465.13)" filter="url(#Fondo)">
        <g id="Fondo-2" data-name="Fondo" transform="translate(9 6)" fill="#fff4e4">
          <path d="M 45 88.5 C 39.12687683105469 88.5 33.43022537231445 87.35007476806641 28.06830024719238 85.08217620849609 C 22.88852500915527 82.89131164550781 18.23629951477051 79.75458526611328 14.2408504486084 75.75914764404297 C 10.24541282653809 71.76370239257812 7.108687400817871 67.11147308349609 4.917825222015381 61.93170166015625 C 2.649924993515015 56.56977462768555 1.5 50.87312316894531 1.5 45 C 1.5 39.12687683105469 2.649924993515015 33.43022537231445 4.917825222015381 28.06830024719238 C 7.108687400817871 22.88852500915527 10.24541282653809 18.23629951477051 14.2408504486084 14.2408504486084 C 18.23629951477051 10.24541282653809 22.88852500915527 7.108687400817871 28.06830024719238 4.917825222015381 C 33.43022537231445 2.649924993515015 39.12687683105469 1.5 45 1.5 C 50.87312316894531 1.5 56.56977462768555 2.649924993515015 61.93170166015625 4.917825222015381 C 67.11147308349609 7.108687400817871 71.76370239257812 10.24541282653809 75.75914764404297 14.2408504486084 C 79.75458526611328 18.23629951477051 82.89131164550781 22.88852500915527 85.08217620849609 28.06830024719238 C 87.35007476806641 33.43022537231445 88.5 39.12687683105469 88.5 45 C 88.5 50.87312316894531 87.35007476806641 56.56977462768555 85.08217620849609 61.93170166015625 C 82.89131164550781 67.11147308349609 79.75458526611328 71.76370239257812 75.75914764404297 75.75914764404297 C 71.76370239257812 79.75458526611328 67.11147308349609 82.89131164550781 61.93170166015625 85.08217620849609 C 56.56977462768555 87.35007476806641 50.87312316894531 88.5 45 88.5 Z" stroke="none"/>
          <path d="M 45 3 C 39.32871246337891 3 33.82865524291992 4.110054016113281 28.65262985229492 6.299339294433594 C 23.65165710449219 8.414573669433594 19.15968322753906 11.44334411621094 15.301513671875 15.301513671875 C 11.44334411621094 19.15968322753906 8.414573669433594 23.65165710449219 6.299339294433594 28.65262985229492 C 4.110054016113281 33.82865524291992 3 39.32871246337891 3 45 C 3 50.67128753662109 4.110054016113281 56.17134475708008 6.299339294433594 61.34737396240234 C 8.414573669433594 66.34834289550781 11.44334411621094 70.84031677246094 15.301513671875 74.698486328125 C 19.15968322753906 78.55665588378906 23.65165710449219 81.58542633056641 28.65262985229492 83.70066070556641 C 33.82865524291992 85.88994598388672 39.32871246337891 87 45 87 C 50.67128753662109 87 56.17134475708008 85.88994598388672 61.34737396240234 83.70066070556641 C 66.34834289550781 81.58542633056641 70.84031677246094 78.55665588378906 74.698486328125 74.698486328125 C 78.55665588378906 70.84031677246094 81.58542633056641 66.34834289550781 83.70066070556641 61.34737396240234 C 85.88994598388672 56.17134475708008 87 50.67128753662109 87 45 C 87 39.32871246337891 85.88994598388672 33.82865524291992 83.70066070556641 28.65262985229492 C 81.58542633056641 23.65165710449219 78.55665588378906 19.15968322753906 74.698486328125 15.301513671875 C 70.84031677246094 11.44334411621094 66.34834289550781 8.414573669433594 61.34737396240234 6.299339294433594 C 56.17134475708008 4.110054016113281 50.67128753662109 3 45 3 M 45 0 C 69.85281372070312 0 90 20.14718627929688 90 45 C 90 69.85281372070312 69.85281372070312 90 45 90 C 20.14718627929688 90 0 69.85281372070312 0 45 C 0 20.14718627929688 20.14718627929688 0 45 0 Z" stroke="none" fill="#ff9902"/>
        </g>
      </g>
      <g id="Group_1144248" data-name="Group 1144248" transform="translate(773.296 1488.968)">
        <g id="Group_1144247" data-name="Group 1144247" transform="translate(0.837 0.796)">
          <g id="Group_1144241" data-name="Group 1144241" transform="translate(0.238 0.133)">
            <path id="Path_978771" data-name="Path 978771" d="M302.482,32.452h-9.331a1.059,1.059,0,0,1-1.034-.83,15.009,15.009,0,0,0-3.683-6.966q-.339-.368-.706-.71a15.185,15.185,0,0,0-6.956-3.75,1.06,1.06,0,0,1-.821-1.032V9.819a1.063,1.063,0,0,1,1.217-1.05A26.344,26.344,0,0,1,303.532,31.24,1.062,1.062,0,0,1,302.482,32.452Z" transform="translate(-251.286 -8.757)" fill="#98d5b9"/>
            <path id="Path_978772" data-name="Path 978772" d="M33.373,9.819v9.338a1.06,1.06,0,0,1-.824,1.033,15.013,15.013,0,0,0-6.825,3.6q-.509.466-.974.98a15.023,15.023,0,0,0-3.543,6.848,1.06,1.06,0,0,1-1.036.832H10.844a1.063,1.063,0,0,1-1.05-1.213,26.134,26.134,0,0,1,1.3-5.284A26.352,26.352,0,0,1,32.156,8.768a1.063,1.063,0,0,1,1.217,1.05Z" transform="translate(-9.783 -8.757)" fill="#fd9468"/>
          </g>
          <g id="Group_1144242" data-name="Group 1144242" transform="translate(0.238 28.904)">
            <path id="Path_978773" data-name="Path 978773" d="M303.532,281.132a26.148,26.148,0,0,1-1.3,5.285A26.352,26.352,0,0,1,281.169,303.6a1.063,1.063,0,0,1-1.217-1.05v-9.346a1.06,1.06,0,0,1,.821-1.032,15.185,15.185,0,0,0,6.956-3.75q.366-.342.706-.71a15.009,15.009,0,0,0,3.683-6.966,1.059,1.059,0,0,1,1.034-.83h9.331A1.062,1.062,0,0,1,303.532,281.132Z" transform="translate(-251.286 -279.92)" fill="#fe646f"/>
            <path id="Path_978774" data-name="Path 978774" d="M33.373,293.216v9.338a1.063,1.063,0,0,1-1.217,1.05A26.344,26.344,0,0,1,9.793,281.132a1.062,1.062,0,0,1,1.05-1.212h9.327a1.059,1.059,0,0,1,1.036.832,15.023,15.023,0,0,0,3.543,6.848q.465.512.974.98a15.013,15.013,0,0,0,6.825,3.6A1.06,1.06,0,0,1,33.373,293.216Z" transform="translate(-9.783 -279.92)" fill="#fee45a"/>
          </g>
          <g id="Group_1144243" data-name="Group 1144243" transform="translate(35.255 35.255)">
            <path id="Path_978775" data-name="Path 978775" d="M355.752,339.925a26.437,26.437,0,0,1-15.77,15.857,6.073,6.073,0,0,1-.161-1.391v-8.562a6.023,6.023,0,0,1,1.425-3.895,6.109,6.109,0,0,1,.706-.71,6.027,6.027,0,0,1,3.918-1.444h8.562A6.019,6.019,0,0,1,355.752,339.925Z" transform="translate(-339.821 -339.78)" fill="#fd4755"/>
            <path id="Path_978776" data-name="Path 978776" d="M381.253,384.078h-8.562a2.866,2.866,0,0,1-2.866-2.866V372.65a2.866,2.866,0,0,1,2.866-2.866h8.562a2.866,2.866,0,0,1,2.866,2.866v8.562A2.866,2.866,0,0,1,381.253,384.078Z" transform="translate(-366.642 -366.601)" fill="#918291"/>
            <circle id="Ellipse_11566" data-name="Ellipse 11566" cx="3.461" cy="3.461" r="3.461" transform="translate(6.87 6.049)" fill="#ffcebf"/>
            <path id="Path_978777" data-name="Path 978777" d="M390.216,466.534h8.562a2.864,2.864,0,0,0,.786-.11,5.118,5.118,0,0,0-10.133,0A2.864,2.864,0,0,0,390.216,466.534Z" transform="translate(-384.166 -449.057)" fill="#8ac9fe"/>
          </g>
          <g id="Group_1144244" data-name="Group 1144244" transform="translate(0 35.255)">
            <path id="Path_978778" data-name="Path 978778" d="M38.042,345.829v8.562a6.071,6.071,0,0,1-.161,1.391,26.437,26.437,0,0,1-15.77-15.857,6.019,6.019,0,0,1,1.32-.145h8.562a6.056,6.056,0,0,1,6.049,6.049Z" transform="translate(-20.565 -339.78)" fill="#fedf30"/>
            <path id="Path_978779" data-name="Path 978779" d="M18.969,384.078H10.407a2.866,2.866,0,0,1-2.866-2.866V372.65a2.866,2.866,0,0,1,2.866-2.866h8.562a2.866,2.866,0,0,1,2.866,2.866v8.562A2.866,2.866,0,0,1,18.969,384.078Z" transform="translate(-7.541 -366.601)" fill="#918291"/>
            <circle id="Ellipse_11567" data-name="Ellipse 11567" cx="3.461" cy="3.461" r="3.461" transform="translate(3.686 6.049)" fill="#ffcebf"/>
            <path id="Path_978780" data-name="Path 978780" d="M27.932,466.534h8.562a2.864,2.864,0,0,0,.786-.11,5.118,5.118,0,0,0-10.133,0,2.864,2.864,0,0,0,.786.11Z" transform="translate(-25.066 -449.057)" fill="#8ac9fe"/>
          </g>
          <g id="Group_1144245" data-name="Group 1144245" transform="translate(35.255)">
            <path id="Path_978781" data-name="Path 978781" d="M355.752,37.257a6.019,6.019,0,0,1-1.32.145H345.87a6.027,6.027,0,0,1-3.918-1.444,6.108,6.108,0,0,1-.706-.71,6.023,6.023,0,0,1-1.425-3.895V22.791a6.073,6.073,0,0,1,.161-1.391A26.436,26.436,0,0,1,355.752,37.257Z" transform="translate(-339.821 -19.925)" fill="#57be92"/>
            <path id="Path_978782" data-name="Path 978782" d="M381.253,21.794h-8.562a2.866,2.866,0,0,1-2.866-2.866V10.366A2.866,2.866,0,0,1,372.691,7.5h8.562a2.866,2.866,0,0,1,2.866,2.866v8.562A2.866,2.866,0,0,1,381.253,21.794Z" transform="translate(-366.642 -7.5)" fill="#918291"/>
            <circle id="Ellipse_11568" data-name="Ellipse 11568" cx="3.461" cy="3.461" r="3.461" transform="translate(6.87 2.866)" fill="#ffcebf"/>
            <path id="Path_978783" data-name="Path 978783" d="M390.216,104.25h8.562a2.863,2.863,0,0,0,.786-.11,5.118,5.118,0,0,0-10.133,0A2.867,2.867,0,0,0,390.216,104.25Z" transform="translate(-384.166 -89.957)" fill="#8ac9fe"/>
          </g>
          <g id="Group_1144246" data-name="Group 1144246">
            <path id="Path_978784" data-name="Path 978784" d="M38.042,22.791v8.562A6.058,6.058,0,0,1,31.993,37.4H23.431a6.019,6.019,0,0,1-1.32-.145A26.437,26.437,0,0,1,37.881,21.4,6.071,6.071,0,0,1,38.042,22.791Z" transform="translate(-20.565 -19.925)" fill="#fe7d43"/>
            <path id="Path_978785" data-name="Path 978785" d="M18.969,21.794H10.407a2.866,2.866,0,0,1-2.866-2.866V10.366A2.866,2.866,0,0,1,10.407,7.5h8.562a2.866,2.866,0,0,1,2.866,2.866v8.562A2.866,2.866,0,0,1,18.969,21.794Z" transform="translate(-7.541 -7.5)" fill="#918291"/>
            <circle id="Ellipse_11569" data-name="Ellipse 11569" cx="3.461" cy="3.461" r="3.461" transform="translate(3.686 2.866)" fill="#ffcebf"/>
            <path id="Path_978786" data-name="Path 978786" d="M27.932,104.25h8.562a2.863,2.863,0,0,0,.786-.11,5.118,5.118,0,0,0-10.133,0,2.867,2.867,0,0,0,.786.11Z" transform="translate(-25.066 -89.957)" fill="#8ac9fe"/>
          </g>
        </g>
        <path id="Path_978787" data-name="Path 978787" d="M24.07,34.7a.8.8,0,0,0,1.042-.426L30.95,20.365a.8.8,0,0,0-1.468-.616L23.644,33.66A.8.8,0,0,0,24.07,34.7Zm-4.185-12.3A3.607,3.607,0,0,0,23.26,26.2a3.607,3.607,0,0,0,3.375-3.793,3.607,3.607,0,0,0-3.375-3.793A3.607,3.607,0,0,0,19.885,22.406Zm5.159,0a2.028,2.028,0,0,1-1.784,2.2,2.029,2.029,0,0,1-1.784-2.2,2.029,2.029,0,0,1,1.784-2.2A2.029,2.029,0,0,1,25.044,22.406ZM2.522,15.688A26.935,26.935,0,0,0,.294,23.316a1.875,1.875,0,0,0,1.841,2.1h9.328a1.845,1.845,0,0,0,1.812-1.456A14.326,14.326,0,0,1,24.019,13.137a1.847,1.847,0,0,0,1.442-1.809V1.99A1.875,1.875,0,0,0,23.349.151a26.919,26.919,0,0,0-7.638,2.274A3.668,3.668,0,0,0,12.264,0H3.7A3.666,3.666,0,0,0,.041,3.662v8.562a3.667,3.667,0,0,0,2.481,3.464Zm13.4-3.464V4.086a25.334,25.334,0,0,1,7.646-2.36.255.255,0,0,1,.2.061.266.266,0,0,1,.093.2v9.338a.263.263,0,0,1-.205.257A15.924,15.924,0,0,0,11.721,23.62a.263.263,0,0,1-.258.208H2.135a.247.247,0,0,1-.264-.3,25.35,25.35,0,0,1,2.317-7.647h8.076a3.682,3.682,0,0,0,3.662-3.661Zm-7.943-.845a4.345,4.345,0,0,1,4.086,2.915h-8a.786.786,0,0,0-.154-.054,4.344,4.344,0,0,1,4.066-2.861ZM5.319,7.122A2.665,2.665,0,1,1,7.984,9.787,2.668,2.668,0,0,1,5.319,7.122ZM1.633,3.662A2.072,2.072,0,0,1,3.7,1.591h8.562a2.072,2.072,0,0,1,2.07,2.07v8.562a2.066,2.066,0,0,1-.747,1.59,5.957,5.957,0,0,0-2.933-3.381,4.256,4.256,0,1,0-5.343,0,5.956,5.956,0,0,0-2.933,3.381,2.066,2.066,0,0,1-.747-1.59V3.662ZM24.019,41.186A14.305,14.305,0,0,1,13.125,29.573a.8.8,0,0,0-.785-.668H.946a.8.8,0,0,0-.792.868,27.038,27.038,0,0,0,1.607,7.043.8.8,0,1,0,1.49-.559A25.435,25.435,0,0,1,1.832,30.5h9.844A15.9,15.9,0,0,0,23.663,42.738a.263.263,0,0,1,.205.257v9.338a.246.246,0,0,1-.3.264,25.344,25.344,0,0,1-7.646-2.359V42.1a3.666,3.666,0,0,0-3.662-3.662H3.7A3.666,3.666,0,0,0,.041,42.1v8.562A3.661,3.661,0,0,0,3.7,54.324h8.562A3.844,3.844,0,0,0,15.71,51.9a26.931,26.931,0,0,0,7.638,2.273,1.855,1.855,0,0,0,2.112-1.839V42.995a1.847,1.847,0,0,0-1.442-1.809ZM3.9,52.732a4.322,4.322,0,0,1,8.173,0Zm1.422-7.171a2.665,2.665,0,1,1,2.665,2.665,2.668,2.668,0,0,1-2.665-2.665Zm9.016,5.1a2.066,2.066,0,0,1-.747,1.59,5.957,5.957,0,0,0-2.933-3.381,4.256,4.256,0,1,0-5.343,0,5.956,5.956,0,0,0-2.933,3.381,2.066,2.066,0,0,1-.747-1.59V42.1A2.073,2.073,0,0,1,3.7,40.03h8.562a2.072,2.072,0,0,1,2.07,2.07v8.562Zm37.55-12.027a26.914,26.914,0,0,0,2.227-7.628,1.856,1.856,0,0,0-1.841-2.1H42.94a1.845,1.845,0,0,0-1.811,1.453A14.4,14.4,0,0,1,30.38,41.179a1.848,1.848,0,0,0-1.435,1.808v9.347a1.855,1.855,0,0,0,2.112,1.839A26.933,26.933,0,0,0,38.7,51.9a3.687,3.687,0,0,0,3.446,2.424H50.7a3.682,3.682,0,0,0,3.662-3.662V42.1a3.668,3.668,0,0,0-2.48-3.465ZM38.48,42.1v8.138A25.345,25.345,0,0,1,30.833,52.6a.254.254,0,0,1-.2-.061.266.266,0,0,1-.093-.2V42.986a.263.263,0,0,1,.205-.257A16,16,0,0,0,42.682,30.7a.263.263,0,0,1,.258-.207h9.331a.266.266,0,0,1,.2.092.255.255,0,0,1,.062.2,25.325,25.325,0,0,1-2.317,7.647H42.141A3.666,3.666,0,0,0,38.48,42.1Zm3.857,10.632a4.321,4.321,0,0,1,8.172,0Zm1.421-7.171a2.665,2.665,0,1,1,2.665,2.665A2.668,2.668,0,0,1,43.757,45.561Zm9.016,5.1a2.066,2.066,0,0,1-.747,1.59,5.957,5.957,0,0,0-2.933-3.381,4.256,4.256,0,1,0-5.343,0,5.956,5.956,0,0,0-2.933,3.381,2.066,2.066,0,0,1-.747-1.59V42.1a2.073,2.073,0,0,1,2.07-2.07h8.5a.8.8,0,0,0,.093,0A2.072,2.072,0,0,1,52.773,42.1v8.562ZM50.7,0H42.141A3.667,3.667,0,0,0,38.7,2.424,26.933,26.933,0,0,0,31.057.151,1.873,1.873,0,0,0,28.945,1.99v9.347a1.848,1.848,0,0,0,1.435,1.808A14.4,14.4,0,0,1,41.129,23.967,1.845,1.845,0,0,0,42.94,25.42h9.331a1.879,1.879,0,0,0,1.841-2.1,27.052,27.052,0,0,0-1.338-5.458.8.8,0,1,0-1.5.538,25.462,25.462,0,0,1,1.259,5.136.246.246,0,0,1-.264.3H42.94a.263.263,0,0,1-.258-.207A16,16,0,0,0,30.741,11.594a.263.263,0,0,1-.2-.257V1.99a.248.248,0,0,1,.3-.264A25.344,25.344,0,0,1,38.48,4.085v8.138a3.684,3.684,0,0,0,3.662,3.662H50.7a3.72,3.72,0,0,0,3.662-3.662V3.662A3.666,3.666,0,0,0,50.7,0ZM42.336,14.293a4.321,4.321,0,0,1,8.172,0Zm1.421-7.171a2.665,2.665,0,1,1,2.665,2.665A2.668,2.668,0,0,1,43.757,7.122Zm9.016,5.1a2.066,2.066,0,0,1-.747,1.59,5.957,5.957,0,0,0-2.933-3.381,4.256,4.256,0,1,0-5.343,0,5.956,5.956,0,0,0-2.933,3.381,2.066,2.066,0,0,1-.747-1.59V3.662a2.073,2.073,0,0,1,2.07-2.07H50.7a2.072,2.072,0,0,1,2.07,2.07v8.562ZM34.521,31.917a3.607,3.607,0,0,0-3.375-3.793,3.607,3.607,0,0,0-3.375,3.793,3.607,3.607,0,0,0,3.375,3.793A3.607,3.607,0,0,0,34.521,31.917Zm-5.159,0a2.028,2.028,0,0,1,1.784-2.2,2.029,2.029,0,0,1,1.784,2.2,2.029,2.029,0,0,1-1.784,2.2A2.029,2.029,0,0,1,29.361,31.917Z"/>
      </g>
    </g>
  </g>
</svg>
