<svg xmlns="http://www.w3.org/2000/svg" xmlns:xlink="http://www.w3.org/1999/xlink" width="108" height="108" viewBox="0 0 108 108">
  <defs>
    <filter id="Path_904820" x="0" y="0" width="108" height="108" filterUnits="userSpaceOnUse">
      <feOffset dy="3" input="SourceAlpha"/>
      <feGaussianBlur stdDeviation="3" result="blur"/>
      <feFlood flood-opacity="0.161"/>
      <feComposite operator="in" in2="blur"/>
      <feComposite in="SourceGraphic"/>
    </filter>
  </defs>
  <g id="Group_1144108" data-name="Group 1144108" transform="translate(-726 -812)">
    <g transform="matrix(1, 0, 0, 1, 726, 812)" filter="url(#Path_904820)">
      <g id="Path_904820-2" data-name="Path 904820" transform="translate(9 6)" fill="#ecf4fa">
        <path d="M 45 88.5 C 39.12687683105469 88.5 33.43022537231445 87.35007476806641 28.06830024719238 85.08217620849609 C 22.88852500915527 82.89131164550781 18.23629951477051 79.75458526611328 14.2408504486084 75.75914764404297 C 10.24541282653809 71.76370239257812 7.108687400817871 67.11147308349609 4.917825222015381 61.93170166015625 C 2.649924993515015 56.56977462768555 1.5 50.87312316894531 1.5 45 C 1.5 39.12687683105469 2.649924993515015 33.43022537231445 4.917825222015381 28.06830024719238 C 7.108687400817871 22.88852500915527 10.24541282653809 18.23629951477051 14.2408504486084 14.2408504486084 C 18.23629951477051 10.24541282653809 22.88852500915527 7.108687400817871 28.06830024719238 4.917825222015381 C 33.43022537231445 2.649924993515015 39.12687683105469 1.5 45 1.5 C 50.87312316894531 1.5 56.56977462768555 2.649924993515015 61.93170166015625 4.917825222015381 C 67.11147308349609 7.108687400817871 71.76370239257812 10.24541282653809 75.75914764404297 14.2408504486084 C 79.75458526611328 18.23629951477051 82.89131164550781 22.88852500915527 85.08217620849609 28.06830024719238 C 87.35007476806641 33.43022537231445 88.5 39.12687683105469 88.5 45 C 88.5 50.87312316894531 87.35007476806641 56.56977462768555 85.08217620849609 61.93170166015625 C 82.89131164550781 67.11147308349609 79.75458526611328 71.76370239257812 75.75914764404297 75.75914764404297 C 71.76370239257812 79.75458526611328 67.11147308349609 82.89131164550781 61.93170166015625 85.08217620849609 C 56.56977462768555 87.35007476806641 50.87312316894531 88.5 45 88.5 Z" stroke="none"/>
        <path d="M 45 3 C 39.32871246337891 3 33.82865524291992 4.110054016113281 28.65262985229492 6.299339294433594 C 23.65165710449219 8.414573669433594 19.15968322753906 11.44334411621094 15.301513671875 15.301513671875 C 11.44334411621094 19.15968322753906 8.414573669433594 23.65165710449219 6.299339294433594 28.65262985229492 C 4.110054016113281 33.82865524291992 3 39.32871246337891 3 45 C 3 50.67128753662109 4.110054016113281 56.17134475708008 6.299339294433594 61.34737396240234 C 8.414573669433594 66.34834289550781 11.44334411621094 70.84031677246094 15.301513671875 74.698486328125 C 19.15968322753906 78.55665588378906 23.65165710449219 81.58542633056641 28.65262985229492 83.70066070556641 C 33.82865524291992 85.88994598388672 39.32871246337891 87 45 87 C 50.67128753662109 87 56.17134475708008 85.88994598388672 61.34737396240234 83.70066070556641 C 66.34834289550781 81.58542633056641 70.84031677246094 78.55665588378906 74.698486328125 74.698486328125 C 78.55665588378906 70.84031677246094 81.58542633056641 66.34834289550781 83.70066070556641 61.34737396240234 C 85.88994598388672 56.17134475708008 87 50.67128753662109 87 45 C 87 39.32871246337891 85.88994598388672 33.82865524291992 83.70066070556641 28.65262985229492 C 81.58542633056641 23.65165710449219 78.55665588378906 19.15968322753906 74.698486328125 15.301513671875 C 70.84031677246094 11.44334411621094 66.34834289550781 8.414573669433594 61.34737396240234 6.299339294433594 C 56.17134475708008 4.110054016113281 50.67128753662109 3 45 3 M 45 0 C 69.85281372070312 0 90 20.14718627929688 90 45 C 90 69.85281372070312 69.85281372070312 90 45 90 C 20.14718627929688 90 0 69.85281372070312 0 45 C 0 20.14718627929688 20.14718627929688 0 45 0 Z" stroke="none" fill="#2a5673"/>
      </g>
    </g>
    <g id="Group_1144107" data-name="Group 1144107" transform="translate(736.948 812.85)">
      <rect id="Rectangle_405165" data-name="Rectangle 405165" width="52" height="43" transform="translate(17.051 26.15)" fill="#eb423f"/>
      <rect id="Rectangle_405166" data-name="Rectangle 405166" width="44" height="3" transform="translate(21.051 63.15)" fill="#dadcde"/>
      <path id="Path_979342" data-name="Path 979342" d="M101.085,32V69.872H85.756a7.209,7.209,0,0,0-5.411,2.445c-.125.141-.245.287-.36.441l-.541.721-.541-.721c-.115-.153-.234-.3-.361-.442a7.208,7.208,0,0,0-5.41-2.444H56V32H73.132a7.209,7.209,0,0,1,5.411,2.445c.125.141.245.287.36.441l.541.721.541-.721c.115-.153.234-.3.361-.442A7.208,7.208,0,0,1,85.756,32Z" transform="translate(-35.491 -7.098)" fill="#e9eef2"/>
      <rect id="Rectangle_405167" data-name="Rectangle 405167" width="4" height="7" transform="translate(24.051 50.15)" fill="#c3c6c7"/>
      <rect id="Rectangle_405168" data-name="Rectangle 405168" width="6" height="3" transform="translate(55.051 34.15)" fill="#c3c6c7"/>
      <path id="Path_979343" data-name="Path 979343" d="M104.231,89.919V86.312h-2.066a6.273,6.273,0,0,0-.444-1.1l1.608-1.608L100.624,80.9,99.016,82.51a6.273,6.273,0,0,0-1.1-.444V80H94.312v2.066a6.273,6.273,0,0,0-1.1.444L91.607,80.9,88.9,83.607l1.608,1.608a6.275,6.275,0,0,0-.444,1.1H88v3.607h2.066a6.275,6.275,0,0,0,.444,1.1L88.9,92.624l2.705,2.705,1.608-1.608a6.274,6.274,0,0,0,1.1.444v2.066h3.607V94.164a6.274,6.274,0,0,0,1.1-.444l1.608,1.608,2.705-2.705-1.608-1.608a6.274,6.274,0,0,0,.444-1.1Z" transform="translate(-63.885 -49.688)" fill="#3397e8"/>
      <ellipse id="Ellipse_11614" data-name="Ellipse 11614" cx="2" cy="3" rx="2" ry="3" transform="translate(30.051 35.15)" fill="#e9eef2"/>
      <rect id="Rectangle_405169" data-name="Rectangle 405169" width="3.826" height="9.564" transform="translate(52.97 61.872) rotate(-45)" fill="#2978b8"/>
      <ellipse id="Ellipse_11615" data-name="Ellipse 11615" cx="13.5" cy="12.5" rx="13.5" ry="12.5" transform="translate(34.051 41.15)" fill="#3397e8"/>
      <ellipse id="Ellipse_11616" data-name="Ellipse 11616" cx="8.5" cy="9.5" rx="8.5" ry="9.5" transform="translate(39.051 44.15)" fill="#e9eef2"/>
      <path id="Path_979344" data-name="Path 979344" d="M401.919,393.919h0a3.079,3.079,0,0,1-2.177.9h0a3.452,3.452,0,0,1-2.441-1.011l-5.3-5.3L396.509,384l5.3,5.3a3.452,3.452,0,0,1,1.011,2.441h0A3.079,3.079,0,0,1,401.919,393.919Z" transform="translate(-333.62 -319.423)" fill="#3397e8"/>
      <path id="Path_979345" data-name="Path 979345" d="M70.1,69.987V26.705a.9.9,0,0,0-.9-.9H66.5v-.9a.9.9,0,0,0-.9-.9H50.265a8.157,8.157,0,0,0-6.312,3.015A8.157,8.157,0,0,0,37.641,24H20.509a.9.9,0,0,0-.9.9v.9H16.9a.9.9,0,0,0-.9.9V69.987a.9.9,0,0,0,.9.9H58.908l4.135,4.135A4.326,4.326,0,0,0,66.122,76.3a3.98,3.98,0,0,0,3.98-3.98,4.349,4.349,0,0,0-.32-1.643A.9.9,0,0,0,70.1,69.987Zm-1.8-42.38V68.712l-1.8-1.8v-39.3Zm-9.017,39.3-2.9-2.9a13.635,13.635,0,0,0,1.43-1.43l2.9,2.9ZM21.41,63.675H38.375a13.606,13.606,0,0,0,2.443,1.8H21.41Zm14.427-9.919A11.722,11.722,0,1,1,47.56,65.479,11.722,11.722,0,0,1,35.838,53.756ZM30.685,43.612a5.385,5.385,0,0,1-.939-.38.9.9,0,0,0-1.053.163l-.97.971-1.43-1.43.971-.97a.9.9,0,0,0,.163-1.053,5.388,5.388,0,0,1-.38-.939.9.9,0,0,0-.864-.644H25.017v-1.8h1.165a.9.9,0,0,0,.864-.644,5.389,5.389,0,0,1,.38-.939.9.9,0,0,0-.163-1.053l-.971-.97,1.43-1.43.97.971a.9.9,0,0,0,1.053.163,5.386,5.386,0,0,1,.939-.38.9.9,0,0,0,.644-.864V31.214h1.8v1.165a.9.9,0,0,0,.644.864,5.384,5.384,0,0,1,.939.38.9.9,0,0,0,1.053-.163l.97-.971,1.43,1.43-.971.97a.9.9,0,0,0-.163,1.053,5.388,5.388,0,0,1,.38.939.9.9,0,0,0,.864.644h1.165v1.8H38.28a.9.9,0,0,0-.864.644,5.388,5.388,0,0,1-.38.939.9.9,0,0,0,.163,1.053l.971.97-1.43,1.43-.97-.971a.9.9,0,0,0-1.053-.163,5.385,5.385,0,0,1-.939.38.9.9,0,0,0-.644.864v1.165h-1.8V44.476a.9.9,0,0,0-.644-.864ZM54.921,65.1l.381.381h-1Q54.617,65.3,54.921,65.1Zm7.33-1.159-.264.264-.528-.528h3.233v1.43l-1.166-1.166A.9.9,0,0,0,62.251,63.939ZM50.265,25.8H64.692V61.872H59.656l-.754-.754a13.5,13.5,0,0,0-.528-15.476h1.81a.9.9,0,0,0,0-1.8H56.745a13.606,13.606,0,0,0-2.443-1.8h5.882a.9.9,0,1,0,0-1.8H47.56a13.534,13.534,0,0,0-2.705.272V28.809l.361-.481A6.342,6.342,0,0,1,50.265,25.8Zm-12.624,0a6.342,6.342,0,0,1,5.05,2.525l.361.481V41a13.483,13.483,0,0,0-2.866,1.419.9.9,0,0,0-.1-.125l-1.165-1.165h1.429a.9.9,0,0,0,.9-.9V36.624a.9.9,0,0,0-.9-.9H38.918l1.165-1.165a.9.9,0,0,0,0-1.275l-2.705-2.705a.9.9,0,0,0-1.275,0l-1.165,1.165h0V30.312a.9.9,0,0,0-.9-.9H30.427a.9.9,0,0,0-.9.9V31.74h0L28.36,30.576a.9.9,0,0,0-1.275,0l-2.705,2.705a.9.9,0,0,0,0,1.275l1.165,1.165H24.115a.9.9,0,0,0-.9.9v3.607a.9.9,0,0,0,.9.9h1.428L24.379,42.3a.9.9,0,0,0,0,1.275l2.705,2.705a.9.9,0,0,0,1.275,0l1.165-1.165h0v1.429a.9.9,0,0,0,.9.9h3.607a.9.9,0,0,0,.9-.9V45.115h0L36.1,46.279a.908.908,0,0,0,.125.1,13.483,13.483,0,0,0-1.419,2.865H33.132a.9.9,0,1,0,0,1.8h1.174a13.482,13.482,0,0,0-.241,1.8H31.329a.9.9,0,1,0,0,1.8h2.736a13.483,13.483,0,0,0,.241,1.8H31.329a.9.9,0,0,0,0,1.8h3.479a13.511,13.511,0,0,0,1.939,3.607H21.41V25.8ZM17.8,69.085V27.607h1.8V66.38a.9.9,0,0,0,.9.9h36.6l.9.9-.264.264a.9.9,0,0,0-.264.638Zm49.858,4.773a2.162,2.162,0,0,1-1.539.638,2.534,2.534,0,0,1-1.8-.747l-4.663-4.663,3.233-3.233,4.663,4.663a2.534,2.534,0,0,1,.747,1.8A2.163,2.163,0,0,1,67.661,73.858Z" transform="translate(0 0)"/>
      <path id="Path_979346" data-name="Path 979346" d="M80.9,257.017h3.607a.9.9,0,0,0,.9-.9V248.9a.9.9,0,0,0-.9-.9H80.9a.9.9,0,0,0-.9.9v7.214A.9.9,0,0,0,80.9,257.017Zm.9-7.214h1.8v5.41H81.8Z" transform="translate(-56.786 -198.752)"/>
      <path id="Path_979347" data-name="Path 979347" d="M304.9,73.8h1.8a.9.9,0,0,0,0-1.8h-1.8a.9.9,0,1,0,0,1.8Z" transform="translate(-255.538 -42.59)"/>
      <path id="Path_979348" data-name="Path 979348" d="M352.9,73.8h5.41a.9.9,0,1,0,0-1.8H352.9a.9.9,0,0,0,0,1.8Z" transform="translate(-298.128 -42.59)"/>
      <path id="Path_979349" data-name="Path 979349" d="M288.9,105.8h3.607a.9.9,0,1,0,0-1.8H288.9a.9.9,0,0,0,0,1.8Z" transform="translate(-241.342 -70.983)"/>
      <path id="Path_979350" data-name="Path 979350" d="M288.9,137.8h3.607a.9.9,0,1,0,0-1.8H288.9a.9.9,0,0,0,0,1.8Z" transform="translate(-241.342 -99.376)"/>
      <path id="Path_979351" data-name="Path 979351" d="M352.9,109.41h5.41a.9.9,0,0,0,.9-.9V104.9a.9.9,0,0,0-.9-.9H352.9a.9.9,0,0,0-.9.9v3.607A.9.9,0,0,0,352.9,109.41Zm.9-3.607h3.607v1.8H353.8Z" transform="translate(-298.128 -70.983)"/>
      <path id="Path_979352" data-name="Path 979352" d="M217.919,200a9.919,9.919,0,1,0,9.919,9.919A9.919,9.919,0,0,0,217.919,200Zm0,18.034a8.115,8.115,0,1,1,8.115-8.115A8.115,8.115,0,0,1,217.919,218.034Z" transform="translate(-170.359 -156.162)"/>
      <path id="Path_979353" data-name="Path 979353" d="M135.214,123.607a3.607,3.607,0,1,0-3.607,3.607A3.607,3.607,0,0,0,135.214,123.607Zm-5.41,0a1.8,1.8,0,1,1,1.8,1.8A1.8,1.8,0,0,1,129.8,123.607Z" transform="translate(-99.376 -85.179)"/>
    </g>
  </g>
</svg>
