<svg xmlns="http://www.w3.org/2000/svg" xmlns:xlink="http://www.w3.org/1999/xlink" width="108" height="108" viewBox="0 0 108 108">
  <defs>
    <filter id="Fondo" x="0" y="0" width="108" height="108" filterUnits="userSpaceOnUse">
      <feOffset dy="3" input="SourceAlpha"/>
      <feGaussianBlur stdDeviation="3" result="blur"/>
      <feFlood flood-opacity="0.161"/>
      <feComposite operator="in" in2="blur"/>
      <feComposite in="SourceGraphic"/>
    </filter>
  </defs>
  <g id="Group_1144426" data-name="Group 1144426" transform="translate(-325.999 -4341)">
    <g id="Group_1144299" data-name="Group 1144299" transform="translate(-420 174)">
      <g transform="matrix(1, 0, 0, 1, 746, 4167)" filter="url(#Fondo)">
        <g id="Fondo-2" data-name="Fondo" transform="translate(9 6)" fill="#fff4e4">
          <path d="M 45 88.5 C 39.12687683105469 88.5 33.43022537231445 87.35007476806641 28.06830024719238 85.08217620849609 C 22.88852500915527 82.89131164550781 18.23629951477051 79.75458526611328 14.2408504486084 75.75914764404297 C 10.24541282653809 71.76370239257812 7.108687400817871 67.11147308349609 4.917825222015381 61.93170166015625 C 2.649924993515015 56.56977462768555 1.5 50.87312316894531 1.5 45 C 1.5 39.12687683105469 2.649924993515015 33.43022537231445 4.917825222015381 28.06830024719238 C 7.108687400817871 22.88852500915527 10.24541282653809 18.23629951477051 14.2408504486084 14.2408504486084 C 18.23629951477051 10.24541282653809 22.88852500915527 7.108687400817871 28.06830024719238 4.917825222015381 C 33.43022537231445 2.649924993515015 39.12687683105469 1.5 45 1.5 C 50.87312316894531 1.5 56.56977462768555 2.649924993515015 61.93170166015625 4.917825222015381 C 67.11147308349609 7.108687400817871 71.76370239257812 10.24541282653809 75.75914764404297 14.2408504486084 C 79.75458526611328 18.23629951477051 82.89131164550781 22.88852500915527 85.08217620849609 28.06830024719238 C 87.35007476806641 33.43022537231445 88.5 39.12687683105469 88.5 45 C 88.5 50.87312316894531 87.35007476806641 56.56977462768555 85.08217620849609 61.93170166015625 C 82.89131164550781 67.11147308349609 79.75458526611328 71.76370239257812 75.75914764404297 75.75914764404297 C 71.76370239257812 79.75458526611328 67.11147308349609 82.89131164550781 61.93170166015625 85.08217620849609 C 56.56977462768555 87.35007476806641 50.87312316894531 88.5 45 88.5 Z" stroke="none"/>
          <path d="M 45 3 C 39.32871246337891 3 33.82865524291992 4.110054016113281 28.65262985229492 6.299339294433594 C 23.65165710449219 8.414573669433594 19.15968322753906 11.44334411621094 15.301513671875 15.301513671875 C 11.44334411621094 19.15968322753906 8.414573669433594 23.65165710449219 6.299339294433594 28.65262985229492 C 4.110054016113281 33.82865524291992 3 39.32871246337891 3 45 C 3 50.67128753662109 4.110054016113281 56.17134475708008 6.299339294433594 61.34737396240234 C 8.414573669433594 66.34834289550781 11.44334411621094 70.84031677246094 15.301513671875 74.698486328125 C 19.15968322753906 78.55665588378906 23.65165710449219 81.58542633056641 28.65262985229492 83.70066070556641 C 33.82865524291992 85.88994598388672 39.32871246337891 87 45 87 C 50.67128753662109 87 56.17134475708008 85.88994598388672 61.34737396240234 83.70066070556641 C 66.34834289550781 81.58542633056641 70.84031677246094 78.55665588378906 74.698486328125 74.698486328125 C 78.55665588378906 70.84031677246094 81.58542633056641 66.34834289550781 83.70066070556641 61.34737396240234 C 85.88994598388672 56.17134475708008 87 50.67128753662109 87 45 C 87 39.32871246337891 85.88994598388672 33.82865524291992 83.70066070556641 28.65262985229492 C 81.58542633056641 23.65165710449219 78.55665588378906 19.15968322753906 74.698486328125 15.301513671875 C 70.84031677246094 11.44334411621094 66.34834289550781 8.414573669433594 61.34737396240234 6.299339294433594 C 56.17134475708008 4.110054016113281 50.67128753662109 3 45 3 M 45 0 C 69.85281372070312 0 90 20.14718627929688 90 45 C 90 69.85281372070312 69.85281372070312 90 45 90 C 20.14718627929688 90 0 69.85281372070312 0 45 C 0 20.14718627929688 20.14718627929688 0 45 0 Z" stroke="none" fill="#ff9902"/>
        </g>
      </g>
      <g id="Group_1144295" data-name="Group 1144295" transform="translate(758.172 4176.172)">
        <path id="Path_978953" data-name="Path 978953" d="M80,25.722A1.722,1.722,0,0,1,81.722,24h40.463a1.722,1.722,0,0,1,1.722,1.722V54.132a1.722,1.722,0,0,1-1.722,1.722H80Z" transform="translate(-57.112 -7.139)" fill="#548aff"/>
        <path id="Path_978954" data-name="Path 978954" d="M316.914,363.192,322.079,352H309.166L304,363.192Z" transform="translate(-257.007 -299.841)" fill="#8be0e8"/>
        <path id="Path_978955" data-name="Path 978955" d="M240,456h19.8v1.722a1.722,1.722,0,0,1-1.722,1.722H241.722A1.722,1.722,0,0,1,240,457.722Z" transform="translate(-199.894 -392.649)" fill="#548aff"/>
        <path id="Path_978956" data-name="Path 978956" d="M64,280h5.922v7.748H64Z" transform="translate(-42.834 -235.589)" fill="#ffceb6"/>
        <path id="Path_978957" data-name="Path 978957" d="M100.3,240v6.783a1.826,1.826,0,0,1-3.118,1.291L96,246.887V240Z" transform="translate(-71.391 -199.894)" fill="#ffceb6"/>
        <path id="Path_978958" data-name="Path 978958" d="M42.583,225.47l-2.006-3.344A4.045,4.045,0,0,1,40,220.045h0A4.045,4.045,0,0,1,44.045,216h6.286a1.722,1.722,0,1,1,0,3.444H47.748l-1.722,2.583v3.444Z" transform="translate(-21.417 -178.477)" fill="#c47220"/>
        <path id="Path_978959" data-name="Path 978959" d="M50.689,350.636H43.613a3.444,3.444,0,0,1-2.56-1.14l-3.279-3.643v7.366H24V341.166A5.166,5.166,0,0,1,29.166,336h5.753a6.027,6.027,0,0,1,4.664,2.21l5.94,7.26h5.166Z" transform="translate(-7.139 -285.563)" fill="#ffb401"/>
        <path id="Path_978960" data-name="Path 978960" d="M272,422.026v-5.166h1.722l3.444-.861L281,418.3a.964.964,0,0,1-.685,1.772l-3.151-.63-2.985,2.238a1.722,1.722,0,0,1-1.033.344Z" transform="translate(-228.45 -356.954)" fill="#ffceb6"/>
        <path id="Path_978961" data-name="Path 978961" d="M343.748,459.444h-6.026A1.722,1.722,0,0,1,336,457.722V456h9.47v1.722A1.722,1.722,0,0,1,343.748,459.444Z" transform="translate(-285.563 -392.649)" fill="#4367e0"/>
        <path id="Path_978962" data-name="Path 978962" d="M192,248h5.166v4.3H192Z" transform="translate(-157.06 -207.033)" fill="#ffa100"/>
        <path id="Path_978963" data-name="Path 978963" d="M240,216h5.166v7.748H240Z" transform="translate(-199.894 -178.477)" fill="#ffb401"/>
        <path id="Path_978964" data-name="Path 978964" d="M288,176h5.166v12.053H288Z" transform="translate(-242.728 -142.782)" fill="#ffc431"/>
        <path id="Path_978965" data-name="Path 978965" d="M336,136h5.166v16.358H336Z" transform="translate(-285.563 -107.086)" fill="#ffcc4d"/>
        <path id="Path_978966" data-name="Path 978966" d="M384,104h5.166v19.8H384Z" transform="translate(-328.397 -78.53)" fill="#ffd873"/>
        <g id="Group_1144294" data-name="Group 1144294" transform="translate(33.925 20.489)">
          <ellipse id="Ellipse_11580" data-name="Ellipse 11580" cx="2" cy="1.5" rx="2" ry="1.5" transform="translate(-0.097 12.338)" fill="#c5dafa"/>
          <ellipse id="Ellipse_11581" data-name="Ellipse 11581" cx="1.5" cy="2" rx="1.5" ry="2" transform="translate(8.903 5.338)" fill="#c5dafa"/>
          <circle id="Ellipse_11582" data-name="Ellipse 11582" cx="1.5" cy="1.5" r="1.5" transform="translate(16.903 0.338)" fill="#c5dafa"/>
        </g>
        <path id="Path_978967" data-name="Path 978967" d="M65.073,222.636H52.159a.861.861,0,0,0-.782.5l-2.971,6.438-3.24.81H38.792l-5.682-6.944a6.859,6.859,0,0,0-5.162-2.521v-.147a2.691,2.691,0,0,0,1.826-2.545v-5.209A2.583,2.583,0,0,0,28.914,208H22.628a4.906,4.906,0,0,0-4.207,7.43L20.3,218.57v2.6A6.036,6.036,0,0,0,16,226.94v12.053h1.722V226.94a4.31,4.31,0,0,1,4.3-4.3H27.78a5.146,5.146,0,0,1,4,1.895l5.94,7.26a.861.861,0,0,0,.666.316h4.3v3.444H36.474a2.587,2.587,0,0,1-1.92-.855l-6.722-7.469-1.28,1.152,3.223,3.581v7.035H31.5v-5.122l1.778,1.975a4.311,4.311,0,0,0,3.2,1.425h2.919a2.587,2.587,0,0,0,2.435,1.722H58.185a2.586,2.586,0,0,0,2.583-2.583v-1.533l5.086-11.02a.861.861,0,0,0-.782-1.222Zm-37.985-3.444a.959.959,0,0,1-.683-.283l-.935-.935v-2.826l1.322-1.982h1.261v5.061a.966.966,0,0,1-.965.965Zm-7.644-6.286a3.188,3.188,0,0,1,3.184-3.184h6.286a.861.861,0,1,1,0,1.722H26.331a.861.861,0,0,0-.716.383l-1.722,2.583a.861.861,0,0,0-.145.478v2.583h-2.1L19.9,214.544A3.185,3.185,0,0,1,19.444,212.906Zm2.583,6.286h2.226l.935.935a2.675,2.675,0,0,0,1.039.646v.141h-4.2Zm22.384,12.914h.861a.859.859,0,0,0,.209-.026l3.1-.774,3.531,2.119a.1.1,0,0,1-.073.189l-3.151-.63a.861.861,0,0,0-.685.155l-2.985,2.238a.866.866,0,0,1-.517.172h-.287Zm1.837,4.649,1.607-1.205h1.722v.861a2.57,2.57,0,0,0,.148.861H44.7a2.6,2.6,0,0,0,1.55-.517Zm12.8-.344a.862.862,0,0,1-.861.861H52.159a.862.862,0,0,1-.861-.861v-.861h7.748Zm.31-2.583H53.851a1.8,1.8,0,0,0-.856-1.88l-2.967-1.78,2.682-5.81H63.727Z" transform="translate(0 -171.338)"/>
        <path id="Path_978968" data-name="Path 978968" d="M115.046,16H74.583A2.586,2.586,0,0,0,72,18.583V34.94h1.722V18.583a.862.862,0,0,1,.861-.861h40.463a.862.862,0,0,1,.861.861V46.993a.862.862,0,0,1-.861.861H81.47v1.722h33.576a2.586,2.586,0,0,0,2.583-2.583V18.583A2.586,2.586,0,0,0,115.046,16Z" transform="translate(-49.973)"/>
        <ellipse id="Ellipse_11583" data-name="Ellipse 11583" cx="0.5" cy="1" rx="0.5" ry="1" transform="translate(24.827 18.828)"/>
        <circle id="Ellipse_11584" data-name="Ellipse 11584" cx="1" cy="1" r="1" transform="translate(26.827 18.828)"/>
        <circle id="Ellipse_11585" data-name="Ellipse 11585" cx="1" cy="1" r="1" transform="translate(29.827 18.828)"/>
        <path id="Path_978969" data-name="Path 978969" d="M196.411,96h-5.166a.861.861,0,0,0-.861.861v2.583h-4.3a.861.861,0,0,0-.861.861v3.444h-4.3a.861.861,0,0,0-.861.861v3.444h-4.3a.861.861,0,0,0-.861.861V111.5h-4.3a.861.861,0,0,0-.861.861V115.8H168v1.722h30.993V115.8h-1.722V96.861A.861.861,0,0,0,196.411,96Zm-24.967,17.218h3.444V115.8h-3.444Zm5.166-3.444h3.444V115.8h-3.444Zm5.166-4.3h3.444V115.8h-3.444Zm5.166-4.3h3.444V115.8H186.94ZM195.55,115.8h-3.444V97.722h3.444Z" transform="translate(-135.642 -71.391)"/>
        <path id="Path_978970" data-name="Path 978970" d="M144,63.491h3.592a2.583,2.583,0,0,0,4.906-1.612l4.477-3.3a2.582,2.582,0,0,0,4.041-2.978l3.919-2.888a2.581,2.581,0,0,0,3.883-1.276h5.314V49.716h-5.314a2.583,2.583,0,0,0-4.906,1.612l-4.065,3a2.581,2.581,0,0,0-3.749,2.762l-4.624,3.407a2.581,2.581,0,0,0-3.883,1.276H144Zm22.384-13.775a.861.861,0,1,1-.861.861A.861.861,0,0,1,166.384,49.716Zm-7.748,6.026a.861.861,0,1,1-.861.861.861.861,0,0,1,.861-.861Zm-8.609,6.026a.861.861,0,1,1-.861.861A.861.861,0,0,1,150.026,61.769Z" transform="translate(-114.225 -28.55)"/>
        <path id="Path_978971" data-name="Path 978971" d="M440,64h1.722v1.722H440Z" transform="translate(-378.371 -42.834)"/>
        <path id="Path_978972" data-name="Path 978972" d="M112,176h1.722v1.722H112Z" transform="translate(-85.669 -142.782)"/>
      </g>
    </g>
  </g>
</svg>
