<svg xmlns="http://www.w3.org/2000/svg" xmlns:xlink="http://www.w3.org/1999/xlink" width="108" height="108" viewBox="0 0 108 108">
  <defs>
    <filter id="Fondo" x="0" y="0" width="108" height="108" filterUnits="userSpaceOnUse">
      <feOffset dy="3" input="SourceAlpha"/>
      <feGaussianBlur stdDeviation="3" result="blur"/>
      <feFlood flood-opacity="0.161"/>
      <feComposite operator="in" in2="blur"/>
      <feComposite in="SourceGraphic"/>
    </filter>
  </defs>
  <g id="Group_1144442" data-name="Group 1144442" transform="translate(-6620.609 -1206.134)">
    <g id="Group_1144362" data-name="Group 1144362">
      <g transform="matrix(1, 0, 0, 1, 6620.61, 1206.13)" filter="url(#Fondo)">
        <g id="Fondo-2" data-name="Fondo" transform="translate(9 6)" fill="#fff4e4">
          <path d="M 45 88.5 C 39.12687683105469 88.5 33.43022537231445 87.35007476806641 28.06830024719238 85.08217620849609 C 22.88852500915527 82.89131164550781 18.23629951477051 79.75458526611328 14.2408504486084 75.75914764404297 C 10.24541282653809 71.76370239257812 7.108687400817871 67.11147308349609 4.917825222015381 61.93170166015625 C 2.649924993515015 56.56977462768555 1.5 50.87312316894531 1.5 45 C 1.5 39.12687683105469 2.649924993515015 33.43022537231445 4.917825222015381 28.06830024719238 C 7.108687400817871 22.88852500915527 10.24541282653809 18.23629951477051 14.2408504486084 14.2408504486084 C 18.23629951477051 10.24541282653809 22.88852500915527 7.108687400817871 28.06830024719238 4.917825222015381 C 33.43022537231445 2.649924993515015 39.12687683105469 1.5 45 1.5 C 50.87312316894531 1.5 56.56977462768555 2.649924993515015 61.93170166015625 4.917825222015381 C 67.11147308349609 7.108687400817871 71.76370239257812 10.24541282653809 75.75914764404297 14.2408504486084 C 79.75458526611328 18.23629951477051 82.89131164550781 22.88852500915527 85.08217620849609 28.06830024719238 C 87.35007476806641 33.43022537231445 88.5 39.12687683105469 88.5 45 C 88.5 50.87312316894531 87.35007476806641 56.56977462768555 85.08217620849609 61.93170166015625 C 82.89131164550781 67.11147308349609 79.75458526611328 71.76370239257812 75.75914764404297 75.75914764404297 C 71.76370239257812 79.75458526611328 67.11147308349609 82.89131164550781 61.93170166015625 85.08217620849609 C 56.56977462768555 87.35007476806641 50.87312316894531 88.5 45 88.5 Z" stroke="none"/>
          <path d="M 45 3 C 39.32871246337891 3 33.82865524291992 4.110054016113281 28.65262985229492 6.299339294433594 C 23.65165710449219 8.414573669433594 19.15968322753906 11.44334411621094 15.301513671875 15.301513671875 C 11.44334411621094 19.15968322753906 8.414573669433594 23.65165710449219 6.299339294433594 28.65262985229492 C 4.110054016113281 33.82865524291992 3 39.32871246337891 3 45 C 3 50.67128753662109 4.110054016113281 56.17134475708008 6.299339294433594 61.34737396240234 C 8.414573669433594 66.34834289550781 11.44334411621094 70.84031677246094 15.301513671875 74.698486328125 C 19.15968322753906 78.55665588378906 23.65165710449219 81.58542633056641 28.65262985229492 83.70066070556641 C 33.82865524291992 85.88994598388672 39.32871246337891 87 45 87 C 50.67128753662109 87 56.17134475708008 85.88994598388672 61.34737396240234 83.70066070556641 C 66.34834289550781 81.58542633056641 70.84031677246094 78.55665588378906 74.698486328125 74.698486328125 C 78.55665588378906 70.84031677246094 81.58542633056641 66.34834289550781 83.70066070556641 61.34737396240234 C 85.88994598388672 56.17134475708008 87 50.67128753662109 87 45 C 87 39.32871246337891 85.88994598388672 33.82865524291992 83.70066070556641 28.65262985229492 C 81.58542633056641 23.65165710449219 78.55665588378906 19.15968322753906 74.698486328125 15.301513671875 C 70.84031677246094 11.44334411621094 66.34834289550781 8.414573669433594 61.34737396240234 6.299339294433594 C 56.17134475708008 4.110054016113281 50.67128753662109 3 45 3 M 45 0 C 69.85281372070312 0 90 20.14718627929688 90 45 C 90 69.85281372070312 69.85281372070312 90 45 90 C 20.14718627929688 90 0 69.85281372070312 0 45 C 0 20.14718627929688 20.14718627929688 0 45 0 Z" stroke="none" fill="#ff9902"/>
        </g>
      </g>
      <g id="_x30_1_x2C__report_x2C__document_x2C__analytics_x2C__business_x2C__pie_chart" transform="translate(6637.331 1215.465)">
        <g id="Group_1144361" data-name="Group 1144361" transform="translate(16 16)">
          <path id="Path_979101" data-name="Path 979101" d="M60.225,26v4.278L30.278,70.92H26V26Z" transform="translate(-24.93 -24.93)" fill="#59d5ff"/>
          <path id="Path_979102" data-name="Path 979102" d="M100.225,103.434l-5.348,2.139-2.139,5.348H66V66h34.225Z" transform="translate(-60.652 -60.652)" fill="#edebfd"/>
          <path id="Path_979103" data-name="Path 979103" d="M304.258,155.29A10.7,10.7,0,1,1,286,162.853l18.258-7.563Z" transform="translate(-257.123 -140.392)" fill="#fd5f5c"/>
          <path id="Path_979104" data-name="Path 979104" d="M296.7,126l2.139,4.278L296.7,136.7H286A10.7,10.7,0,0,1,296.7,126Z" transform="translate(-257.123 -114.235)" fill="#fade65"/>
          <path id="Path_979105" data-name="Path 979105" d="M393.563,129.133,386,136.7V126A10.658,10.658,0,0,1,393.563,129.133Z" transform="translate(-346.427 -114.235)" fill="#00c344"/>
          <path id="Path_979106" data-name="Path 979106" d="M323.487,416,316,423.487V416Z" transform="translate(-283.914 -373.219)" fill="#d1d1ef"/>
          <path id="Path_979107" data-name="Path 979107" d="M206,366h4.278v7.487H206Z" transform="translate(-185.679 -328.566)" fill="#59d5ff"/>
          <path id="Path_979108" data-name="Path 979108" d="M170.278,321.348v7.487H166V316h4.278Z" transform="translate(-149.957 -283.914)" fill="#00da77"/>
          <path id="Path_979109" data-name="Path 979109" d="M126,346h4.278v9.626H126Z" transform="translate(-114.235 -310.705)" fill="#ff8c8a"/>
          <g id="Group_1144347" data-name="Group 1144347" transform="translate(4.278 4.278)">
            <path id="Path_979110" data-name="Path 979110" d="M83.808,103.06H57.07A1.07,1.07,0,0,1,56,101.99V57.07A1.07,1.07,0,0,1,57.07,56H91.295a1.07,1.07,0,0,1,1.07,1.07v6.417a1.07,1.07,0,0,1-2.139,0V58.139H58.139V100.92H83.365l6.86-6.86V84.877a1.07,1.07,0,0,1,2.139,0V94.5a1.07,1.07,0,0,1-.313.756l-7.487,7.487A1.07,1.07,0,0,1,83.808,103.06Z" transform="translate(-56 -56)"/>
          </g>
          <g id="Group_1144348" data-name="Group 1144348" transform="translate(0 0)">
            <path id="Path_979111" data-name="Path 979111" d="M21.348,63.06H17.07A1.07,1.07,0,0,1,16,61.99V17.07A1.07,1.07,0,0,1,17.07,16H51.295a1.07,1.07,0,0,1,1.07,1.07v4.278a1.07,1.07,0,1,1-2.139,0V18.139H18.139V60.92h3.209a1.07,1.07,0,1,1,0,2.139Z" transform="translate(-16 -16)"/>
          </g>
          <g id="Group_1144349" data-name="Group 1144349" transform="translate(31.016 41.712)">
            <path id="Path_979112" data-name="Path 979112" d="M307.07,415.626a1.07,1.07,0,0,1-1.07-1.07V407.07a1.07,1.07,0,0,1,1.07-1.07h7.487a1.07,1.07,0,1,1,0,2.139h-6.417v6.417A1.07,1.07,0,0,1,307.07,415.626Z" transform="translate(-306 -406)"/>
          </g>
          <g id="Group_1144350" data-name="Group 1144350" transform="translate(27.808 10.695)">
            <path id="Path_979113" data-name="Path 979113" d="M287.765,139.53a11.765,11.765,0,1,1,11.765-11.765A11.778,11.778,0,0,1,287.765,139.53Zm0-21.391a9.626,9.626,0,1,0,6.807,2.82h0A9.559,9.559,0,0,0,287.765,118.139Z" transform="translate(-276 -116)"/>
          </g>
          <g id="Group_1144351" data-name="Group 1144351" transform="translate(27.808 10.695)">
            <path id="Path_979114" data-name="Path 979114" d="M287.765,128.834h-10.7a1.07,1.07,0,0,1,0-2.139H286.7V117.07a1.07,1.07,0,1,1,2.139,0v10.7A1.07,1.07,0,0,1,287.765,128.834Z" transform="translate(-276 -116)"/>
          </g>
          <g id="Group_1144352" data-name="Group 1144352" transform="translate(38.503 13.828)">
            <path id="Path_979115" data-name="Path 979115" d="M376.313,154.678a1.07,1.07,0,0,1,0-1.513l7.563-7.563a1.07,1.07,0,0,1,1.513,1.513l-7.563,7.563A1.069,1.069,0,0,1,376.313,154.678Z" transform="translate(-376 -145.289)"/>
          </g>
          <g id="Group_1144353" data-name="Group 1144353" transform="translate(10.695 34.225)">
            <path id="Path_979116" data-name="Path 979116" d="M117.07,347.765A1.07,1.07,0,0,1,116,346.7V337.07a1.07,1.07,0,0,1,1.07-1.07h4.278a1.07,1.07,0,0,1,0,2.139h-3.209V346.7A1.07,1.07,0,0,1,117.07,347.765Z" transform="translate(-116 -336)"/>
          </g>
          <g id="Group_1144354" data-name="Group 1144354" transform="translate(14.973 31.016)">
            <path id="Path_979117" data-name="Path 979117" d="M157.07,320.973A1.07,1.07,0,0,1,156,319.9V307.07a1.07,1.07,0,0,1,1.07-1.07h4.278a1.07,1.07,0,0,1,1.07,1.07v5.348a1.07,1.07,0,0,1-2.139,0v-4.278h-2.139V319.9A1.07,1.07,0,0,1,157.07,320.973Z" transform="translate(-156 -306)"/>
          </g>
          <g id="Group_1144355" data-name="Group 1144355" transform="translate(19.252 36.364)">
            <path id="Path_979118" data-name="Path 979118" d="M201.348,365.626a1.07,1.07,0,0,1-1.07-1.07v-6.417h-2.139v6.417a1.07,1.07,0,1,1-2.139,0V357.07a1.07,1.07,0,0,1,1.07-1.07h4.278a1.07,1.07,0,0,1,1.07,1.07v7.487A1.07,1.07,0,0,1,201.348,365.626Z" transform="translate(-196 -356)"/>
          </g>
          <g id="Group_1144356" data-name="Group 1144356" transform="translate(9.626 43.851)">
            <path id="Path_979119" data-name="Path 979119" d="M122.043,428.139H107.07a1.07,1.07,0,1,1,0-2.139h14.973a1.07,1.07,0,1,1,0,2.139Z" transform="translate(-106 -426)"/>
          </g>
          <g id="Group_1144357" data-name="Group 1144357" transform="translate(9.626 9.626)">
            <path id="Path_979120" data-name="Path 979120" d="M122.043,108.139H107.07a1.07,1.07,0,0,1,0-2.139h14.973a1.07,1.07,0,1,1,0,2.139Z" transform="translate(-106 -106)"/>
          </g>
          <g id="Group_1144358" data-name="Group 1144358" transform="translate(9.626 14.973)">
            <path id="Path_979121" data-name="Path 979121" d="M122.043,158.139H107.07a1.07,1.07,0,0,1,0-2.139h14.973a1.07,1.07,0,0,1,0,2.139Z" transform="translate(-106 -156)"/>
          </g>
          <g id="Group_1144359" data-name="Group 1144359" transform="translate(9.626 20.321)">
            <path id="Path_979122" data-name="Path 979122" d="M117.765,208.139h-10.7a1.07,1.07,0,0,1,0-2.139h10.7a1.07,1.07,0,1,1,0,2.139Z" transform="translate(-106 -206)"/>
          </g>
          <g id="Group_1144360" data-name="Group 1144360" transform="translate(9.626 25.669)">
            <path id="Path_979123" data-name="Path 979123" d="M117.765,258.139h-10.7a1.07,1.07,0,0,1,0-2.139h10.7a1.07,1.07,0,0,1,0,2.139Z" transform="translate(-106 -256)"/>
          </g>
        </g>
      </g>
    </g>
  </g>
</svg>
