<svg xmlns="http://www.w3.org/2000/svg" xmlns:xlink="http://www.w3.org/1999/xlink" width="108" height="108" viewBox="0 0 108 108">
  <defs>
    <filter id="Fondo" x="0" y="0" width="108" height="108" filterUnits="userSpaceOnUse">
      <feOffset dy="3" input="SourceAlpha"/>
      <feGaussianBlur stdDeviation="3" result="blur"/>
      <feFlood flood-opacity="0.161"/>
      <feComposite operator="in" in2="blur"/>
      <feComposite in="SourceGraphic"/>
    </filter>
  </defs>
  <g id="Group_1144421" data-name="Group 1144421" transform="translate(-195 -2188)">
    <g id="Group_1144289" data-name="Group 1144289" transform="translate(0 61)">
      <g transform="matrix(1, 0, 0, 1, 195, 2127)" filter="url(#Fondo)">
        <g id="Fondo-2" data-name="Fondo" transform="translate(9 6)" fill="#fff4e4">
          <path d="M 45 88.5 C 39.12687683105469 88.5 33.43022537231445 87.35007476806641 28.06830024719238 85.08217620849609 C 22.88852500915527 82.89131164550781 18.23629951477051 79.75458526611328 14.2408504486084 75.75914764404297 C 10.24541282653809 71.76370239257812 7.108687400817871 67.11147308349609 4.917825222015381 61.93170166015625 C 2.649924993515015 56.56977462768555 1.5 50.87312316894531 1.5 45 C 1.5 39.12687683105469 2.649924993515015 33.43022537231445 4.917825222015381 28.06830024719238 C 7.108687400817871 22.88852500915527 10.24541282653809 18.23629951477051 14.2408504486084 14.2408504486084 C 18.23629951477051 10.24541282653809 22.88852500915527 7.108687400817871 28.06830024719238 4.917825222015381 C 33.43022537231445 2.649924993515015 39.12687683105469 1.5 45 1.5 C 50.87312316894531 1.5 56.56977462768555 2.649924993515015 61.93170166015625 4.917825222015381 C 67.11147308349609 7.108687400817871 71.76370239257812 10.24541282653809 75.75914764404297 14.2408504486084 C 79.75458526611328 18.23629951477051 82.89131164550781 22.88852500915527 85.08217620849609 28.06830024719238 C 87.35007476806641 33.43022537231445 88.5 39.12687683105469 88.5 45 C 88.5 50.87312316894531 87.35007476806641 56.56977462768555 85.08217620849609 61.93170166015625 C 82.89131164550781 67.11147308349609 79.75458526611328 71.76370239257812 75.75914764404297 75.75914764404297 C 71.76370239257812 79.75458526611328 67.11147308349609 82.89131164550781 61.93170166015625 85.08217620849609 C 56.56977462768555 87.35007476806641 50.87312316894531 88.5 45 88.5 Z" stroke="none"/>
          <path d="M 45 3 C 39.32871246337891 3 33.82865524291992 4.110054016113281 28.65262985229492 6.299339294433594 C 23.65165710449219 8.414573669433594 19.15968322753906 11.44334411621094 15.301513671875 15.301513671875 C 11.44334411621094 19.15968322753906 8.414573669433594 23.65165710449219 6.299339294433594 28.65262985229492 C 4.110054016113281 33.82865524291992 3 39.32871246337891 3 45 C 3 50.67128753662109 4.110054016113281 56.17134475708008 6.299339294433594 61.34737396240234 C 8.414573669433594 66.34834289550781 11.44334411621094 70.84031677246094 15.301513671875 74.698486328125 C 19.15968322753906 78.55665588378906 23.65165710449219 81.58542633056641 28.65262985229492 83.70066070556641 C 33.82865524291992 85.88994598388672 39.32871246337891 87 45 87 C 50.67128753662109 87 56.17134475708008 85.88994598388672 61.34737396240234 83.70066070556641 C 66.34834289550781 81.58542633056641 70.84031677246094 78.55665588378906 74.698486328125 74.698486328125 C 78.55665588378906 70.84031677246094 81.58542633056641 66.34834289550781 83.70066070556641 61.34737396240234 C 85.88994598388672 56.17134475708008 87 50.67128753662109 87 45 C 87 39.32871246337891 85.88994598388672 33.82865524291992 83.70066070556641 28.65262985229492 C 81.58542633056641 23.65165710449219 78.55665588378906 19.15968322753906 74.698486328125 15.301513671875 C 70.84031677246094 11.44334411621094 66.34834289550781 8.414573669433594 61.34737396240234 6.299339294433594 C 56.17134475708008 4.110054016113281 50.67128753662109 3 45 3 M 45 0 C 69.85281372070312 0 90 20.14718627929688 90 45 C 90 69.85281372070312 69.85281372070312 90 45 90 C 20.14718627929688 90 0 69.85281372070312 0 45 C 0 20.14718627929688 20.14718627929688 0 45 0 Z" stroke="none" fill="#ff9902"/>
        </g>
      </g>
      <g id="Group_1144288" data-name="Group 1144288" transform="translate(219.394 2150.395)">
        <g id="Group_1144263" data-name="Group 1144263" transform="translate(20.739 7.008)">
          <path id="Path_978867" data-name="Path 978867" d="M46.314,18.3V8H24V54.345H56.613V18.3Z" transform="translate(-24 -8)" fill="#c7e2fc"/>
        </g>
        <g id="Group_1144264" data-name="Group 1144264" transform="translate(30.18 7.008)">
          <path id="Path_978868" data-name="Path 978868" d="M47.873,8H39.7A26.327,26.327,0,0,0,35,23.019c0,13.37,10.017,24.467,23.172,26.641V18.3h-10.3Z" transform="translate(-35 -8)" fill="#ebf7fe"/>
        </g>
        <g id="Group_1144265" data-name="Group 1144265" transform="translate(39.62 43.053)">
          <path id="Path_978869" data-name="Path 978869" d="M47.716,50h6.866A1.716,1.716,0,0,1,56.3,51.716v5.149H46V51.716A1.716,1.716,0,0,1,47.716,50Z" transform="translate(-46 -50)" fill="#3d98f7"/>
        </g>
        <g id="Group_1144266" data-name="Group 1144266" transform="translate(42.195 34.471)">
          <path id="Path_978870" data-name="Path 978870" d="M51.575,40a2.575,2.575,0,0,1,2.575,2.575v1.716a2.575,2.575,0,1,1-5.149,0V42.575A2.575,2.575,0,0,1,51.575,40Z" transform="translate(-49 -40)" fill="#efbe9a"/>
        </g>
        <g id="Group_1144267" data-name="Group 1144267" transform="translate(1.858 1.858)">
          <path id="Path_978871" data-name="Path 978871" d="M18.306,29.222A13.718,13.718,0,1,1,29.222,18.306" transform="translate(-2 -2)" fill="#669e4f"/>
        </g>
        <g id="Group_1144268" data-name="Group 1144268" transform="translate(15.59 15.59)">
          <path id="Path_978872" data-name="Path 978872" d="M21.433,35.165A13.731,13.731,0,0,0,35.165,21.433L18,18Z" transform="translate(-18 -18)" fill="#c66b60"/>
        </g>
        <g id="Group_1144269" data-name="Group 1144269" transform="translate(43.053 7.008)">
          <path id="Path_978873" data-name="Path 978873" d="M60.3,18.3H50V8" transform="translate(-50 -8)" fill="#8892a0"/>
        </g>
        <g id="Group_1144270" data-name="Group 1144270" transform="translate(1 1)">
          <path id="Path_978874" data-name="Path 978874" d="M15.59,30.18A14.578,14.578,0,1,1,29.923,18.325l-1.686-.32A12.863,12.863,0,1,0,18,28.237l.32,1.686a14.7,14.7,0,0,1-2.734.257Z" transform="translate(-1 -1)"/>
        </g>
        <g id="Group_1144271" data-name="Group 1144271" transform="translate(14.732 14.733)">
          <path id="Path_978875" data-name="Path 978875" d="M21.291,35.881a.858.858,0,0,1-.841-.69L17.017,18.027a.857.857,0,0,1,1.009-1.009L35.191,20.45a.858.858,0,0,1,.69.841A14.606,14.606,0,0,1,21.291,35.881Zm-2.34-16.93,3.039,15.194A12.894,12.894,0,0,0,34.146,21.991Z" transform="translate(-17.001 -17.001)"/>
        </g>
        <g id="Group_1144272" data-name="Group 1144272" transform="translate(7.008 7.866)">
          <path id="Path_978876" data-name="Path 978876" d="M8,9H9.716v1.716H8Z" transform="translate(-8 -9)"/>
        </g>
        <g id="Group_1144273" data-name="Group 1144273" transform="translate(10.441 7.866)">
          <path id="Path_978877" data-name="Path 978877" d="M12,9H25.732v1.716H12Z" transform="translate(-12 -9)"/>
        </g>
        <g id="Group_1144274" data-name="Group 1144274" transform="translate(22.456 11.299)">
          <path id="Path_978878" data-name="Path 978878" d="M26,13h1.716v1.716H26Z" transform="translate(-26 -13)"/>
        </g>
        <g id="Group_1144275" data-name="Group 1144275" transform="translate(7.008 11.299)">
          <path id="Path_978879" data-name="Path 978879" d="M8,13H21.732v1.716H8Z" transform="translate(-8 -13)"/>
        </g>
        <g id="Group_1144276" data-name="Group 1144276" transform="translate(19.881 6.149)">
          <path id="Path_978880" data-name="Path 978880" d="M56.471,55.061H23.858A.857.857,0,0,1,23,54.2v-20.6h1.716V53.345h30.9V19.015H46.172a.857.857,0,0,1-.858-.858V8.716H29.008V7H46.172a.857.857,0,0,1,.858.858V17.3h9.441a.857.857,0,0,1,.858.858V54.2A.857.857,0,0,1,56.471,55.061Z" transform="translate(-23 -7)"/>
        </g>
        <g id="Group_1144277" data-name="Group 1144277" transform="translate(42.442 6.406)">
          <path id="Path_978881" data-name="Path 978881" d="M0,0H1.716V14.565H0Z" transform="translate(0 1.214) rotate(-45)"/>
        </g>
        <g id="Group_1144278" data-name="Group 1144278" transform="translate(38.762 42.195)">
          <path id="Path_978882" data-name="Path 978882" d="M56.157,57.582h-10.3A.857.857,0,0,1,45,56.724V51.575A2.578,2.578,0,0,1,47.575,49h6.866a2.578,2.578,0,0,1,2.575,2.575v5.149A.857.857,0,0,1,56.157,57.582Zm-9.441-1.716H55.3V51.575a.859.859,0,0,0-.858-.858H47.575a.859.859,0,0,0-.858.858Z" transform="translate(-45 -49)"/>
        </g>
        <g id="Group_1144279" data-name="Group 1144279" transform="translate(46.486 45.628)">
          <path id="Path_978883" data-name="Path 978883" d="M54,53h1.716v4.291H54Z" transform="translate(-54 -53)"/>
        </g>
        <g id="Group_1144280" data-name="Group 1144280" transform="translate(41.337 45.628)">
          <path id="Path_978884" data-name="Path 978884" d="M48,53h1.716v4.291H48Z" transform="translate(-48 -53)"/>
        </g>
        <g id="Group_1144281" data-name="Group 1144281" transform="translate(41.337 33.613)">
          <path id="Path_978885" data-name="Path 978885" d="M51.433,47.582A3.436,3.436,0,0,1,48,44.149V42.433a3.433,3.433,0,1,1,6.866,0v1.716A3.436,3.436,0,0,1,51.433,47.582Zm0-6.866a1.718,1.718,0,0,0-1.716,1.716v1.716a1.716,1.716,0,0,0,3.433,0V42.433A1.718,1.718,0,0,0,51.433,40.716Z" transform="translate(-48 -39)"/>
        </g>
        <g id="Group_1144282" data-name="Group 1144282" transform="translate(23.404 42.538)">
          <path id="Path_978886" data-name="Path 978886" d="M29.59,57.639c-.025,0-.051,0-.077,0a.86.86,0,0,1-.691-.471L27.1,53.732l1.535-.768,1.1,2.191L34.052,49.4l1.373,1.029-5.149,6.866a.855.855,0,0,1-.687.344Z" transform="translate(-27.105 -49.4)"/>
        </g>
        <g id="Group_1144283" data-name="Group 1144283" transform="translate(23.404 32.24)">
          <path id="Path_978887" data-name="Path 978887" d="M29.59,45.639c-.025,0-.051,0-.077,0a.86.86,0,0,1-.691-.471L27.1,41.731l1.535-.768,1.1,2.191L34.052,37.4l1.373,1.029-5.149,6.866a.855.855,0,0,1-.687.344Z" transform="translate(-27.105 -37.4)"/>
        </g>
        <g id="Group_1144284" data-name="Group 1144284" transform="translate(35.329 19.881)">
          <path id="Path_978888" data-name="Path 978888" d="M41,23h1.716v1.716H41Z" transform="translate(-41 -23)"/>
        </g>
        <g id="Group_1144285" data-name="Group 1144285" transform="translate(38.762 19.881)">
          <path id="Path_978889" data-name="Path 978889" d="M45,23H57.015v1.716H45Z" transform="translate(-45 -23)"/>
        </g>
        <g id="Group_1144286" data-name="Group 1144286" transform="translate(49.061 23.314)">
          <path id="Path_978890" data-name="Path 978890" d="M57,27h1.716v1.716H57Z" transform="translate(-57 -27)"/>
        </g>
        <g id="Group_1144287" data-name="Group 1144287" transform="translate(35.329 23.314)">
          <path id="Path_978891" data-name="Path 978891" d="M41,27H53.015v1.716H41Z" transform="translate(-41 -27)"/>
        </g>
      </g>
    </g>
  </g>
</svg>
