<svg xmlns="http://www.w3.org/2000/svg" xmlns:xlink="http://www.w3.org/1999/xlink" width="108" height="108" viewBox="0 0 108 108">
  <defs>
    <filter id="Fondo" x="0" y="0" width="108" height="108" filterUnits="userSpaceOnUse">
      <feOffset dy="3" input="SourceAlpha"/>
      <feGaussianBlur stdDeviation="3" result="blur"/>
      <feFlood flood-opacity="0.161"/>
      <feComposite operator="in" in2="blur"/>
      <feComposite in="SourceGraphic"/>
    </filter>
  </defs>
  <g id="Group_1144418" data-name="Group 1144418" transform="translate(-1061.999 -1546.134)">
    <g id="Group_1144251" data-name="Group 1144251" transform="translate(0 81)">
      <g transform="matrix(1, 0, 0, 1, 1062, 1465.13)" filter="url(#Fondo)">
        <g id="Fondo-2" data-name="Fondo" transform="translate(9 6)" fill="#fff4e4">
          <path d="M 45 88.5 C 39.12687683105469 88.5 33.43022537231445 87.35007476806641 28.06830024719238 85.08217620849609 C 22.88852500915527 82.89131164550781 18.23629951477051 79.75458526611328 14.2408504486084 75.75914764404297 C 10.24541282653809 71.76370239257812 7.108687400817871 67.11147308349609 4.917825222015381 61.93170166015625 C 2.649924993515015 56.56977462768555 1.5 50.87312316894531 1.5 45 C 1.5 39.12687683105469 2.649924993515015 33.43022537231445 4.917825222015381 28.06830024719238 C 7.108687400817871 22.88852500915527 10.24541282653809 18.23629951477051 14.2408504486084 14.2408504486084 C 18.23629951477051 10.24541282653809 22.88852500915527 7.108687400817871 28.06830024719238 4.917825222015381 C 33.43022537231445 2.649924993515015 39.12687683105469 1.5 45 1.5 C 50.87312316894531 1.5 56.56977462768555 2.649924993515015 61.93170166015625 4.917825222015381 C 67.11147308349609 7.108687400817871 71.76370239257812 10.24541282653809 75.75914764404297 14.2408504486084 C 79.75458526611328 18.23629951477051 82.89131164550781 22.88852500915527 85.08217620849609 28.06830024719238 C 87.35007476806641 33.43022537231445 88.5 39.12687683105469 88.5 45 C 88.5 50.87312316894531 87.35007476806641 56.56977462768555 85.08217620849609 61.93170166015625 C 82.89131164550781 67.11147308349609 79.75458526611328 71.76370239257812 75.75914764404297 75.75914764404297 C 71.76370239257812 79.75458526611328 67.11147308349609 82.89131164550781 61.93170166015625 85.08217620849609 C 56.56977462768555 87.35007476806641 50.87312316894531 88.5 45 88.5 Z" stroke="none"/>
          <path d="M 45 3 C 39.32871246337891 3 33.82865524291992 4.110054016113281 28.65262985229492 6.299339294433594 C 23.65165710449219 8.414573669433594 19.15968322753906 11.44334411621094 15.301513671875 15.301513671875 C 11.44334411621094 19.15968322753906 8.414573669433594 23.65165710449219 6.299339294433594 28.65262985229492 C 4.110054016113281 33.82865524291992 3 39.32871246337891 3 45 C 3 50.67128753662109 4.110054016113281 56.17134475708008 6.299339294433594 61.34737396240234 C 8.414573669433594 66.34834289550781 11.44334411621094 70.84031677246094 15.301513671875 74.698486328125 C 19.15968322753906 78.55665588378906 23.65165710449219 81.58542633056641 28.65262985229492 83.70066070556641 C 33.82865524291992 85.88994598388672 39.32871246337891 87 45 87 C 50.67128753662109 87 56.17134475708008 85.88994598388672 61.34737396240234 83.70066070556641 C 66.34834289550781 81.58542633056641 70.84031677246094 78.55665588378906 74.698486328125 74.698486328125 C 78.55665588378906 70.84031677246094 81.58542633056641 66.34834289550781 83.70066070556641 61.34737396240234 C 85.88994598388672 56.17134475708008 87 50.67128753662109 87 45 C 87 39.32871246337891 85.88994598388672 33.82865524291992 83.70066070556641 28.65262985229492 C 81.58542633056641 23.65165710449219 78.55665588378906 19.15968322753906 74.698486328125 15.301513671875 C 70.84031677246094 11.44334411621094 66.34834289550781 8.414573669433594 61.34737396240234 6.299339294433594 C 56.17134475708008 4.110054016113281 50.67128753662109 3 45 3 M 45 0 C 69.85281372070312 0 90 20.14718627929688 90 45 C 90 69.85281372070312 69.85281372070312 90 45 90 C 20.14718627929688 90 0 69.85281372070312 0 45 C 0 20.14718627929688 20.14718627929688 0 45 0 Z" stroke="none" fill="#ff9902"/>
        </g>
      </g>
      <g id="Group_1144250" data-name="Group 1144250" transform="translate(1091.156 1480.844)">
        <path id="Path_978788" data-name="Path 978788" d="M42.7,103.231H13.518A6.018,6.018,0,0,1,7.5,97.213v-35.9A6.018,6.018,0,0,1,13.518,55.3H42.7a6.018,6.018,0,0,1,6.018,6.018v35.9A6.018,6.018,0,0,1,42.7,103.231Z" transform="translate(-6.684 -41.83)" fill="#c67d66"/>
        <path id="Path_978789" data-name="Path 978789" d="M15.542,103.231H13.518A6.018,6.018,0,0,1,7.5,97.213v-35.9A6.017,6.017,0,0,1,13.518,55.3h2.024a6.018,6.018,0,0,0-6.018,6.017v35.9a6.018,6.018,0,0,0,6.018,6.018Z" transform="translate(-6.685 -41.83)" fill="#aa593d"/>
        <path id="Path_978790" data-name="Path 978790" d="M81.127,142.558H54.438a2.425,2.425,0,0,1-2.425-2.425V107.979a2.425,2.425,0,0,1,2.425-2.425H81.127a2.425,2.425,0,0,1,2.425,2.425v32.154A2.425,2.425,0,0,1,81.127,142.558Z" transform="translate(-46.357 -86.622)" fill="#dfeaef"/>
        <path id="Path_978791" data-name="Path 978791" d="M108.913,15.862H93.2a3.854,3.854,0,0,0-3.854,3.854v4.7A3.854,3.854,0,0,0,93.2,28.269h15.713a3.854,3.854,0,0,0,3.854-3.854v-4.7A3.854,3.854,0,0,0,108.913,15.862Z" transform="translate(-79.631 -6.683)" fill="#f6e266"/>
        <path id="Path_978792" data-name="Path 978792" d="M96.233,28.27H93.2a3.853,3.853,0,0,1-3.854-3.854v-4.7A3.854,3.854,0,0,1,93.2,15.863h3.034a3.854,3.854,0,0,0-3.854,3.854v4.7A3.854,3.854,0,0,0,96.233,28.27Z" transform="translate(-79.631 -6.684)" fill="#ecc32e"/>
        <path id="Path_978793" data-name="Path 978793" d="M435.976,102.764l1.382-2.734a1.4,1.4,0,0,0-.619-1.886l-2.121-1.072a1.4,1.4,0,0,0-1.886.619l-1.382,2.734" transform="translate(-384.446 -78.927)" fill="#dfeaef"/>
        <path id="Path_978794" data-name="Path 978794" d="M436.358,97.952a1.4,1.4,0,0,0-1.886.619l-1.382,2.734-1.739-.879,1.382-2.734a1.4,1.4,0,0,1,1.886-.619Z" transform="translate(-384.446 -78.928)" fill="#b4d0d5"/>
        <path id="Path_978795" data-name="Path 978795" d="M318,145.008c-4.726,9.348-10.424,15.984-12.726,14.82s-.336-9.686,4.39-19.034a58.386,58.386,0,0,1,7.369-11.464,2.106,2.106,0,0,1,2.541-.5l2.183,1.1a2.106,2.106,0,0,1,1.107,2.341A58.391,58.391,0,0,1,318,145.008Z" transform="translate(-271.22 -107.166)" fill="#80e29d"/>
        <path id="Path_978796" data-name="Path 978796" d="M305.273,159.828c-2.3-1.164-.336-9.686,4.39-19.034a58.416,58.416,0,0,1,7.369-11.465,2.107,2.107,0,0,1,2.541-.5l.791.4c-.236-.12-.738.36-1.217,1.165-1.767,2.965-4.065,7.183-6.461,11.923C307.959,151.669,304.64,159.508,305.273,159.828Z" transform="translate(-271.22 -107.167)" fill="#6ec186"/>
        <circle id="Ellipse_11570" data-name="Ellipse 11570" cx="2.601" cy="2.601" r="2.601" transform="translate(13.764 12.714)" fill="#617881"/>
        <circle id="Ellipse_11571" data-name="Ellipse 11571" cx="2.601" cy="2.601" r="2.601" transform="translate(23.887 12.714)" fill="#617881"/>
        <path id="Path_978797" data-name="Path 978797" d="M239.912,169.268a2.676,2.676,0,0,1,.026-.37,2.647,2.647,0,1,1,2.622,3.018.816.816,0,0,0-.816.816v3.621a.816.816,0,1,0,1.631,0v-2.882a4.285,4.285,0,0,0,3.457-4.428,4.279,4.279,0,0,0-8.51-.369,4.337,4.337,0,0,0-.041.6.815.815,0,1,0,1.631,0Z" transform="translate(-212.371 -139.594)"/>
        <path id="Path_978798" data-name="Path 978798" d="M271.708,287.935a.815.815,0,1,0-.287.981A.82.82,0,0,0,271.708,287.935Z" transform="translate(-240.767 -248.723)"/>
        <path id="Path_978799" data-name="Path 978799" d="M79.62,174.032H93.778a.816.816,0,1,0,0-1.631H79.62a.816.816,0,1,0,0,1.631Z" transform="translate(-70.235 -146.2)"/>
        <path id="Path_978800" data-name="Path 978800" d="M79.62,209.905H93.778a.816.816,0,1,0,0-1.631H79.62a.816.816,0,1,0,0,1.631Z" transform="translate(-70.235 -178.172)"/>
        <path id="Path_978801" data-name="Path 978801" d="M79.62,245.778H93.778a.816.816,0,1,0,0-1.631H79.62a.816.816,0,1,0,0,1.631Z" transform="translate(-70.235 -210.144)"/>
        <path id="Path_978802" data-name="Path 978802" d="M79.62,281.652h5.2a.816.816,0,0,0,0-1.631h-5.2a.816.816,0,0,0,0,1.631Z" transform="translate(-70.235 -242.117)"/>
        <path id="Path_978803" data-name="Path 978803" d="M165.723,338.481h-2.842a2.576,2.576,0,0,0-2.573,2.573V343.9a2.576,2.576,0,0,0,2.573,2.573h2.842A2.576,2.576,0,0,0,168.3,343.9v-2.842A2.576,2.576,0,0,0,165.723,338.481Zm.942,5.415a.943.943,0,0,1-.942.942h-2.842a.943.943,0,0,1-.942-.942v-2.842a.943.943,0,0,1,.942-.942h2.842a.943.943,0,0,1,.942.942Z" transform="translate(-142.876 -294.221)"/>
        <path id="Path_978804" data-name="Path 978804" d="M53.024,22.689l.616-1.219a2.22,2.22,0,0,0-.979-2.981L50.54,17.417a2.219,2.219,0,0,0-2.981.979L46.33,20.827a2.907,2.907,0,0,0-1.134.8c-.769.886-1.555,1.9-2.344,3.006v-5.15a6.8,6.8,0,0,0-1.113-3.738.816.816,0,0,0-1.364.895,5.168,5.168,0,0,1,.846,2.843v7.581c-1.1,1.727-2.18,3.619-3.209,5.614V21.357a3.245,3.245,0,0,0-3.241-3.24h-.836c.01-.127.017-.254.017-.384V14.284h2.067a5.137,5.137,0,0,1,2.246.509.816.816,0,1,0,.707-1.47,6.755,6.755,0,0,0-2.954-.67H33.935a4.675,4.675,0,0,0-4.653-4.289H13.57a4.675,4.675,0,0,0-4.653,4.289H6.833A6.84,6.84,0,0,0,0,19.484V42.1a.816.816,0,0,0,1.631,0V19.484a5.207,5.207,0,0,1,5.2-5.2H8.9v3.449c0,.129.007.257.017.384H8.08a3.244,3.244,0,0,0-3.24,3.24V53.511a3.245,3.245,0,0,0,3.24,3.241H34.77a3.245,3.245,0,0,0,3.241-3.241V51.9a21.677,21.677,0,0,0,2.114-2.176q.542-.631,1.094-1.342v7a5.208,5.208,0,0,1-5.2,5.2H6.833a5.208,5.208,0,0,1-5.2-5.2V45.364a.816.816,0,0,0-1.631,0v10.02a6.841,6.841,0,0,0,6.833,6.834H36.018a6.841,6.841,0,0,0,6.833-6.834V46.145a69.889,69.889,0,0,0,4.656-7.936,59.085,59.085,0,0,0,4.931-12.92,2.909,2.909,0,0,0,.042-1.041A3.006,3.006,0,0,1,54,27.52c-.279,2.087-2.585,5.748-4.62,8.977-2.492,3.955-4.009,6.453-3.809,7.914a.816.816,0,1,0,1.616-.221c-.023-.171.021-.752.938-2.456.679-1.263,1.629-2.771,2.635-4.368,2.228-3.535,4.531-7.191,4.857-9.631a4.655,4.655,0,0,0-2.594-5.046Zm-4.009-3.557a.588.588,0,0,1,.79-.259l2.121,1.072a.588.588,0,0,1,.259.79l-.812,1.605a2.939,2.939,0,0,0-.469-.3l-2.183-1.1a2.938,2.938,0,0,0-.518-.2Zm-38.484-6.1a3.042,3.042,0,0,1,3.038-3.038H29.282a3.042,3.042,0,0,1,3.038,3.038v4.7a3.042,3.042,0,0,1-3.038,3.038H13.569a3.042,3.042,0,0,1-3.038-3.038Zm25.85,40.478a1.612,1.612,0,0,1-1.61,1.61H8.08a1.612,1.612,0,0,1-1.609-1.61V21.357A1.611,1.611,0,0,1,8.08,19.748H9.358A4.675,4.675,0,0,0,13.569,22.4H29.282a4.675,4.675,0,0,0,4.212-2.655H34.77a1.612,1.612,0,0,1,1.61,1.609V36.035a59.082,59.082,0,0,0-3.147,8.382,2.58,2.58,0,0,0-.886-.156H29.506a2.576,2.576,0,0,0-2.573,2.573v2.841a2.576,2.576,0,0,0,2.573,2.573h2.841a2.566,2.566,0,0,0,.3-.018,2.629,2.629,0,0,0,.364.609l-.179.311a.816.816,0,1,0,1.413.815l.209-.362c.061.005.123.008.186.008a3.662,3.662,0,0,0,1.743-.529v.428ZM32.818,46.03a16.329,16.329,0,0,0-.524,4.587H29.506a.943.943,0,0,1-.942-.942V46.834a.943.943,0,0,1,.942-.942h2.841a.936.936,0,0,1,.473.128Zm6.071,2.632c-2.619,3.05-4.067,3.473-4.467,3.271s-.917-1.62-.014-5.537a43.771,43.771,0,0,1,1.7-5.471l6.184,3.126q-.448.69-.9,1.338a.813.813,0,0,0-.048.069,39.938,39.938,0,0,1-2.455,3.2ZM50.847,24.931a57.44,57.44,0,0,1-4.8,12.542c-.925,1.83-1.9,3.578-2.889,5.193L36.7,39.4c.714-1.755,1.543-3.574,2.468-5.405a57.444,57.444,0,0,1,7.257-11.3,1.289,1.289,0,0,1,1.557-.3l2.183,1.1A1.289,1.289,0,0,1,50.847,24.931Z" transform="translate(0)"/>
        <path id="Path_978805" data-name="Path 978805" d="M122.492,47.7a3.416,3.416,0,1,0-3.416-3.416A3.42,3.42,0,0,0,122.492,47.7Zm0-5.2a1.785,1.785,0,1,1-1.785,1.785A1.787,1.787,0,0,1,122.492,42.5Z" transform="translate(-106.128 -28.967)"/>
        <path id="Path_978806" data-name="Path 978806" d="M215.585,47.7a3.416,3.416,0,1,0-3.416-3.416A3.42,3.42,0,0,0,215.585,47.7Zm0-5.2a1.785,1.785,0,1,1-1.785,1.785A1.787,1.787,0,0,1,215.585,42.5Z" transform="translate(-189.098 -28.967)"/>
        <path id="Path_978807" data-name="Path 978807" d="M81.105,334.418a.816.816,0,0,0-1.151.08l-.415.477a2.557,2.557,0,0,0-1.191-.293H75.507a2.576,2.576,0,0,0-2.573,2.573V340.1a2.576,2.576,0,0,0,2.573,2.573h2.842a2.576,2.576,0,0,0,2.573-2.573v-2.842a2.557,2.557,0,0,0-.247-1.1l.51-.587A.816.816,0,0,0,81.105,334.418ZM79.291,340.1a.943.943,0,0,1-.942.942H75.507a.943.943,0,0,1-.942-.942v-2.842a.943.943,0,0,1,.942-.942h2.868l-1.365,1.568-.357-.529a.816.816,0,0,0-1.352.912l.951,1.41a.815.815,0,0,0,.626.358h.05a.816.816,0,0,0,.615-.28l1.748-2.008V340.1Z" transform="translate(-65.003 -290.421)"/>
      </g>
    </g>
  </g>
</svg>
