<svg xmlns="http://www.w3.org/2000/svg" xmlns:xlink="http://www.w3.org/1999/xlink" width="108" height="108" viewBox="0 0 108 108">
  <defs>
    <filter id="Fondo" x="0" y="0" width="108" height="108" filterUnits="userSpaceOnUse">
      <feOffset dy="3" input="SourceAlpha"/>
      <feGaussianBlur stdDeviation="3" result="blur"/>
      <feFlood flood-opacity="0.161"/>
      <feComposite operator="in" in2="blur"/>
      <feComposite in="SourceGraphic"/>
    </filter>
  </defs>
  <g id="Group_1144412" data-name="Group 1144412" transform="translate(-326 -1959)">
    <g id="Group_1144164" data-name="Group 1144164">
      <g transform="matrix(1, 0, 0, 1, 326, 1959)" filter="url(#Fondo)">
        <g id="Fondo-2" data-name="Fondo" transform="translate(9 6)" fill="#fff4e4">
          <path d="M 45 88.5 C 39.12687683105469 88.5 33.43022537231445 87.35007476806641 28.06830024719238 85.08217620849609 C 22.88852500915527 82.89131164550781 18.23629951477051 79.75458526611328 14.2408504486084 75.75914764404297 C 10.24541282653809 71.76370239257812 7.108687400817871 67.11147308349609 4.917825222015381 61.93170166015625 C 2.649924993515015 56.56977462768555 1.5 50.87312316894531 1.5 45 C 1.5 39.12687683105469 2.649924993515015 33.43022537231445 4.917825222015381 28.06830024719238 C 7.108687400817871 22.88852500915527 10.24541282653809 18.23629951477051 14.2408504486084 14.2408504486084 C 18.23629951477051 10.24541282653809 22.88852500915527 7.108687400817871 28.06830024719238 4.917825222015381 C 33.43022537231445 2.649924993515015 39.12687683105469 1.5 45 1.5 C 50.87312316894531 1.5 56.56977462768555 2.649924993515015 61.93170166015625 4.917825222015381 C 67.11147308349609 7.108687400817871 71.76370239257812 10.24541282653809 75.75914764404297 14.2408504486084 C 79.75458526611328 18.23629951477051 82.89131164550781 22.88852500915527 85.08217620849609 28.06830024719238 C 87.35007476806641 33.43022537231445 88.5 39.12687683105469 88.5 45 C 88.5 50.87312316894531 87.35007476806641 56.56977462768555 85.08217620849609 61.93170166015625 C 82.89131164550781 67.11147308349609 79.75458526611328 71.76370239257812 75.75914764404297 75.75914764404297 C 71.76370239257812 79.75458526611328 67.11147308349609 82.89131164550781 61.93170166015625 85.08217620849609 C 56.56977462768555 87.35007476806641 50.87312316894531 88.5 45 88.5 Z" stroke="none"/>
          <path d="M 45 3 C 39.32871246337891 3 33.82865524291992 4.110054016113281 28.65262985229492 6.299339294433594 C 23.65165710449219 8.414573669433594 19.15968322753906 11.44334411621094 15.301513671875 15.301513671875 C 11.44334411621094 19.15968322753906 8.414573669433594 23.65165710449219 6.299339294433594 28.65262985229492 C 4.110054016113281 33.82865524291992 3 39.32871246337891 3 45 C 3 50.67128753662109 4.110054016113281 56.17134475708008 6.299339294433594 61.34737396240234 C 8.414573669433594 66.34834289550781 11.44334411621094 70.84031677246094 15.301513671875 74.698486328125 C 19.15968322753906 78.55665588378906 23.65165710449219 81.58542633056641 28.65262985229492 83.70066070556641 C 33.82865524291992 85.88994598388672 39.32871246337891 87 45 87 C 50.67128753662109 87 56.17134475708008 85.88994598388672 61.34737396240234 83.70066070556641 C 66.34834289550781 81.58542633056641 70.84031677246094 78.55665588378906 74.698486328125 74.698486328125 C 78.55665588378906 70.84031677246094 81.58542633056641 66.34834289550781 83.70066070556641 61.34737396240234 C 85.88994598388672 56.17134475708008 87 50.67128753662109 87 45 C 87 39.32871246337891 85.88994598388672 33.82865524291992 83.70066070556641 28.65262985229492 C 81.58542633056641 23.65165710449219 78.55665588378906 19.15968322753906 74.698486328125 15.301513671875 C 70.84031677246094 11.44334411621094 66.34834289550781 8.414573669433594 61.34737396240234 6.299339294433594 C 56.17134475708008 4.110054016113281 50.67128753662109 3 45 3 M 45 0 C 69.85281372070312 0 90 20.14718627929688 90 45 C 90 69.85281372070312 69.85281372070312 90 45 90 C 20.14718627929688 90 0 69.85281372070312 0 45 C 0 20.14718627929688 20.14718627929688 0 45 0 Z" stroke="none" fill="#ff9902"/>
        </g>
      </g>
      <g id="Group_1144163" data-name="Group 1144163" transform="translate(352.951 1976.932)">
        <g id="b" transform="translate(2.511 2.491)">
          <g id="Group_1144161" data-name="Group 1144161">
            <path id="Path_978663" data-name="Path 978663" d="M2,7H42.444V53.51H2Z" transform="translate(-2 3.111)" fill="#f2f2f3"/>
            <path id="Path_978664" data-name="Path 978664" d="M13.217,6.044a2.792,2.792,0,0,1-.162-1.011,3.033,3.033,0,1,1,6.067,0,3.309,3.309,0,0,1-.162,1.011h5.217v4.044H8V6.044Z" transform="translate(4.133 -2)" fill="#d22632" fill-rule="evenodd"/>
            <path id="Path_978665" data-name="Path 978665" d="M7,6H27.222v4.044H7Z" transform="translate(3.111 2.089)" fill="#15becc"/>
            <circle id="Ellipse_11551" data-name="Ellipse 11551" cx="16.178" cy="16.178" r="16.178" transform="translate(24.266 20.222)" fill="#15becc"/>
            <g id="Group_1144160" data-name="Group 1144160" transform="translate(4.044 16.178)">
              <path id="Path_978666" data-name="Path 978666" d="M26.089,34.222a2.022,2.022,0,1,0,2.022,2.022A2.028,2.028,0,0,0,26.089,34.222Zm0-20.222A8.087,8.087,0,0,0,18,22.089h4.044a4.044,4.044,0,1,1,4.044,4.044H24.067v5.116h4.044V29.915A8.085,8.085,0,0,0,26.089,14Z" transform="translate(10.311 -5.911)" fill="#f2f2f3" fill-rule="evenodd"/>
              <path id="Path_978667" data-name="Path 978667" d="M4,40.333V46.4h6.067V40.333ZM4,30.222v6.067h6.067V30.222ZM4,20.111v6.067h6.067V20.111ZM4,10v6.067h6.067V10Z" transform="translate(-4 -10)" fill="#fdba27" fill-rule="evenodd"/>
            </g>
          </g>
        </g>
        <g id="c" transform="translate(1.5 1.52)">
          <g id="Group_1144162" data-name="Group 1144162">
            <path id="Path_978668" data-name="Path 978668" d="M2.511,60.164H42.955a1,1,0,0,0,1.011-1.011V56.059A17.149,17.149,0,0,0,57.757,30.195a1.006,1.006,0,0,0-1.739,1.011,15.171,15.171,0,1,1-5.379-5.379,1.006,1.006,0,0,0,1.011-1.739,17.263,17.263,0,0,0-7.725-2.346v-9.1a1,1,0,0,0-1.011-1.011h-9.1V10.62A1,1,0,0,0,32.8,9.609H31.792V6.575a1,1,0,0,0-1.011-1.011H26.737a4.044,4.044,0,1,0-8.089,0H14.6a1,1,0,0,0-1.011,1.011V9.609H12.582a1,1,0,0,0-1.011,1.011v1.011H2.511A1,1,0,0,0,1.5,12.642v46.51a1,1,0,0,0,1.011,1.011M15.655,7.587h4.206a1.054,1.054,0,0,0,.829-.425,1.008,1.008,0,0,0,.121-.93,1.859,1.859,0,0,1-.121-.667,2.022,2.022,0,0,1,4.044,0,2.054,2.054,0,0,1-.121.688,1.036,1.036,0,0,0,.121.91,1.025,1.025,0,0,0,.829.425H29.77V9.609H15.615V7.587Zm-2.022,4.044h18.2v2.022h-18.2ZM3.522,13.653h8.089v1.011a1,1,0,0,0,1.011,1.011H32.844a1,1,0,0,0,1.011-1.011V13.653h8.089v8.129A17.2,17.2,0,0,0,30.8,26.777a16.143,16.143,0,0,0-1.719,2.042H16.666a1.011,1.011,0,1,0,0,2.022H27.789a18.157,18.157,0,0,0-.91,2.022H16.646a1.011,1.011,0,1,0,0,2.022h9.605a17.175,17.175,0,0,0-.506,4.044h-9.1a1.011,1.011,0,0,0,0,2.022h9.241a16.931,16.931,0,0,0,.364,2.022H16.646a1.011,1.011,0,0,0,0,2.022H26.879a17.449,17.449,0,0,0,2.184,4.044H16.646a1.011,1.011,0,1,0,0,2.022H30.781a17.032,17.032,0,0,0,11.142,4.995v2.083H3.522Z" transform="translate(-1.5 -1.52)"/>
            <path id="Path_978669" data-name="Path 978669" d="M28.881,15.589a1.015,1.015,0,1,0-1.436-1.436,1.015,1.015,0,0,0,1.436,1.436" transform="translate(24.727 11.084)"/>
            <path id="Path_978670" data-name="Path 978670" d="M23.533,23.52a3.033,3.033,0,1,0,3.033,3.033,3.029,3.029,0,0,0-3.033-3.033m0,4.044a1.011,1.011,0,1,1,1.011-1.011,1,1,0,0,1-1.011,1.011" transform="translate(17.922 20.968)"/>
            <path id="Path_978671" data-name="Path 978671" d="M29.633,31.194A9.1,9.1,0,1,0,17.5,22.62a1,1,0,0,0,1.011,1.011h4.044a1,1,0,0,0,1.011-1.011A3.033,3.033,0,1,1,26.6,25.653H24.578a1.014,1.014,0,0,0-1.011,1.011V31.78a1,1,0,0,0,1.011,1.011h4.044a1,1,0,0,0,1.011-1.011v-.566Zm-1.254-1.719a1.032,1.032,0,0,0-.768.971v.3H25.589V27.655H26.6a5.055,5.055,0,1,0-4.954-6.067H19.6a7.074,7.074,0,1,1,8.776,7.866" transform="translate(14.855 10.746)"/>
            <path id="Path_978672" data-name="Path 978672" d="M10.578,9.52H4.511A1,1,0,0,0,3.5,10.531V16.6a1,1,0,0,0,1.011,1.011h6.067A1,1,0,0,0,11.589,16.6V10.531A1,1,0,0,0,10.578,9.52M9.567,15.587H5.522V11.542H9.567Z" transform="translate(0.544 6.658)"/>
            <path id="Path_978673" data-name="Path 978673" d="M10.578,14.52H4.511A1,1,0,0,0,3.5,15.531V21.6a1,1,0,0,0,1.011,1.011h6.067A1,1,0,0,0,11.589,21.6V15.531a1,1,0,0,0-1.011-1.011M9.567,20.587H5.522V16.542H9.567Z" transform="translate(0.544 11.769)"/>
            <path id="Path_978674" data-name="Path 978674" d="M10.578,19.52H4.511A1,1,0,0,0,3.5,20.531V26.6a1,1,0,0,0,1.011,1.011h6.067A1,1,0,0,0,11.589,26.6V20.531a1,1,0,0,0-1.011-1.011M9.567,25.587H5.522V21.542H9.567Z" transform="translate(0.544 16.88)"/>
            <path id="Path_978675" data-name="Path 978675" d="M10.578,24.52H4.511A1,1,0,0,0,3.5,25.531V31.6a1,1,0,0,0,1.011,1.011h6.067A1,1,0,0,0,11.589,31.6V25.531a1,1,0,0,0-1.011-1.011M9.567,30.587H5.522V26.542H9.567Z" transform="translate(0.544 21.99)"/>
            <path id="Path_978676" data-name="Path 978676" d="M9.511,12.042H31.755a1.011,1.011,0,0,0,0-2.022H9.511a1.011,1.011,0,1,0,0,2.022" transform="translate(5.655 7.169)"/>
            <path id="Path_978677" data-name="Path 978677" d="M9.511,14.042l14.155.081a1.011,1.011,0,1,0,0-2.022L9.511,12.02a1.011,1.011,0,1,0,0,2.022" transform="translate(5.655 9.213)"/>
            <path id="Path_978678" data-name="Path 978678" d="M21.644,27.02H9.511a1.011,1.011,0,1,0,0,2.022H21.644a1.011,1.011,0,0,0,0-2.022" transform="translate(5.655 24.546)"/>
          </g>
        </g>
      </g>
    </g>
  </g>
</svg>
