<svg xmlns="http://www.w3.org/2000/svg" xmlns:xlink="http://www.w3.org/1999/xlink" width="108" height="108" viewBox="0 0 108 108">
  <defs>
    <filter id="Fondo" x="0" y="0" width="108" height="108" filterUnits="userSpaceOnUse">
      <feOffset dy="3" input="SourceAlpha"/>
      <feGaussianBlur stdDeviation="3" result="blur"/>
      <feFlood flood-opacity="0.161"/>
      <feComposite operator="in" in2="blur"/>
      <feComposite in="SourceGraphic"/>
    </filter>
  </defs>
  <g id="Group_1144427" data-name="Group 1144427" transform="translate(-745.999 -4341)">
    <g id="Group_1144298" data-name="Group 1144298" transform="translate(420 174)">
      <g transform="matrix(1, 0, 0, 1, 326, 4167)" filter="url(#Fondo)">
        <g id="Fondo-2" data-name="Fondo" transform="translate(9 6)" fill="#fff4e4">
          <path d="M 45 88.5 C 39.12687683105469 88.5 33.43022537231445 87.35007476806641 28.06830024719238 85.08217620849609 C 22.88852500915527 82.89131164550781 18.23629951477051 79.75458526611328 14.2408504486084 75.75914764404297 C 10.24541282653809 71.76370239257812 7.108687400817871 67.11147308349609 4.917825222015381 61.93170166015625 C 2.649924993515015 56.56977462768555 1.5 50.87312316894531 1.5 45 C 1.5 39.12687683105469 2.649924993515015 33.43022537231445 4.917825222015381 28.06830024719238 C 7.108687400817871 22.88852500915527 10.24541282653809 18.23629951477051 14.2408504486084 14.2408504486084 C 18.23629951477051 10.24541282653809 22.88852500915527 7.108687400817871 28.06830024719238 4.917825222015381 C 33.43022537231445 2.649924993515015 39.12687683105469 1.5 45 1.5 C 50.87312316894531 1.5 56.56977462768555 2.649924993515015 61.93170166015625 4.917825222015381 C 67.11147308349609 7.108687400817871 71.76370239257812 10.24541282653809 75.75914764404297 14.2408504486084 C 79.75458526611328 18.23629951477051 82.89131164550781 22.88852500915527 85.08217620849609 28.06830024719238 C 87.35007476806641 33.43022537231445 88.5 39.12687683105469 88.5 45 C 88.5 50.87312316894531 87.35007476806641 56.56977462768555 85.08217620849609 61.93170166015625 C 82.89131164550781 67.11147308349609 79.75458526611328 71.76370239257812 75.75914764404297 75.75914764404297 C 71.76370239257812 79.75458526611328 67.11147308349609 82.89131164550781 61.93170166015625 85.08217620849609 C 56.56977462768555 87.35007476806641 50.87312316894531 88.5 45 88.5 Z" stroke="none"/>
          <path d="M 45 3 C 39.32871246337891 3 33.82865524291992 4.110054016113281 28.65262985229492 6.299339294433594 C 23.65165710449219 8.414573669433594 19.15968322753906 11.44334411621094 15.301513671875 15.301513671875 C 11.44334411621094 19.15968322753906 8.414573669433594 23.65165710449219 6.299339294433594 28.65262985229492 C 4.110054016113281 33.82865524291992 3 39.32871246337891 3 45 C 3 50.67128753662109 4.110054016113281 56.17134475708008 6.299339294433594 61.34737396240234 C 8.414573669433594 66.34834289550781 11.44334411621094 70.84031677246094 15.301513671875 74.698486328125 C 19.15968322753906 78.55665588378906 23.65165710449219 81.58542633056641 28.65262985229492 83.70066070556641 C 33.82865524291992 85.88994598388672 39.32871246337891 87 45 87 C 50.67128753662109 87 56.17134475708008 85.88994598388672 61.34737396240234 83.70066070556641 C 66.34834289550781 81.58542633056641 70.84031677246094 78.55665588378906 74.698486328125 74.698486328125 C 78.55665588378906 70.84031677246094 81.58542633056641 66.34834289550781 83.70066070556641 61.34737396240234 C 85.88994598388672 56.17134475708008 87 50.67128753662109 87 45 C 87 39.32871246337891 85.88994598388672 33.82865524291992 83.70066070556641 28.65262985229492 C 81.58542633056641 23.65165710449219 78.55665588378906 19.15968322753906 74.698486328125 15.301513671875 C 70.84031677246094 11.44334411621094 66.34834289550781 8.414573669433594 61.34737396240234 6.299339294433594 C 56.17134475708008 4.110054016113281 50.67128753662109 3 45 3 M 45 0 C 69.85281372070312 0 90 20.14718627929688 90 45 C 90 69.85281372070312 69.85281372070312 90 45 90 C 20.14718627929688 90 0 69.85281372070312 0 45 C 0 20.14718627929688 20.14718627929688 0 45 0 Z" stroke="none" fill="#ff9902"/>
        </g>
      </g>
      <g id="FILLED_OUTLINE" data-name="FILLED OUTLINE" transform="translate(334.981 4176.114)">
        <path id="Path_978919" data-name="Path 978919" d="M24.9,440a.9.9,0,0,0-.9.9v1.8a2.7,2.7,0,0,0,2.7,2.7H68.13a2.7,2.7,0,0,1-2.7-2.7v-1.8a.9.9,0,0,0-.9-.9Z" transform="translate(-7.099 -376.267)" fill="#c1c1c1"/>
        <path id="Path_978920" data-name="Path 978920" d="M116.13,24H73.8A1.8,1.8,0,0,0,72,25.8V70.832h35.124a.9.9,0,0,1,.9.9v1.8a2.7,2.7,0,1,0,5.4,0V26.7A2.7,2.7,0,0,1,116.13,24Z" transform="translate(-49.696 -7.099)" fill="#e5e1dc"/>
        <path id="Path_978921" data-name="Path 978921" d="M217.8,240H244.82a1.8,1.8,0,0,1,1.8,1.8v19.814a1.8,1.8,0,0,1-1.8,1.8h-9.006l-3.6,4.5-3.6-4.5H217.8a1.8,1.8,0,0,1-1.8-1.8V241.8A1.8,1.8,0,0,1,217.8,240Z" transform="translate(-177.484 -198.783)" fill="#57b584"/>
        <path id="Path_978922" data-name="Path 978922" d="M442.7,24a2.7,2.7,0,0,0-2.7,2.7v6.3h4.5a.9.9,0,0,0,.9-.9V26.7a2.7,2.7,0,0,0-2.7-2.7Z" transform="translate(-376.267 -7.099)" fill="#afafaf"/>
        <ellipse id="Ellipse_11579" data-name="Ellipse 11579" cx="8" cy="8.5" rx="8" ry="8.5" transform="translate(44.018 20.886)" fill="#f29d35"/>
        <path id="Path_978923" data-name="Path 978923" d="M110.41,100.609V88h-1.8v12.609h-1.8V90.7h-1.8v9.907h-1.8V93.4h-1.8v7.2H99.6v-4.5H97.8v4.5H96v1.8h16.211v-1.8Z" transform="translate(-70.994 -63.894)" fill="#336baf"/>
        <path id="Path_978924" data-name="Path 978924" d="M96,64h10.807v1.8H96Z" transform="translate(-70.994 -42.596)" fill="#c1c1c1"/>
        <path id="Path_978925" data-name="Path 978925" d="M344.106,72.106A8.106,8.106,0,0,0,336,64v8.106l6.873,4.3A8.063,8.063,0,0,0,344.106,72.106Z" transform="translate(-283.975 -42.596)" fill="#e59135"/>
        <path id="Path_978926" data-name="Path 978926" d="M281.823,136l-6.873,4.3a8.1,8.1,0,0,0,13.746,0Z" transform="translate(-229.798 -106.491)" fill="#d88635"/>
        <path id="Path_978927" data-name="Path 978927" d="M248,284.571l.9.813v4.5h3.6v-4.5l.9-.813V280.3a1.8,1.8,0,0,0-1.132-1.672l-2.239-.9a1.8,1.8,0,0,1-1.132-1.672v-.369a1.8,1.8,0,1,1,3.6,0v.369a1.8,1.8,0,0,1-1.132,1.672l-2.239.9A1.8,1.8,0,0,0,248,280.3Z" transform="translate(-205.882 -228.856)" fill="#a1c0d9"/>
        <path id="Path_978928" data-name="Path 978928" d="M328,284.571l.9.813v4.5h3.6v-4.5l.9-.813V280.3a1.8,1.8,0,0,0-1.132-1.672l-2.239-.9a1.8,1.8,0,0,1-1.132-1.672v-.369a1.8,1.8,0,1,1,3.6,0v.369a1.8,1.8,0,0,1-1.132,1.672l-2.239.9A1.8,1.8,0,0,0,328,280.3Z" transform="translate(-276.876 -228.856)" fill="#a1c0d9"/>
        <path id="Path_978929" data-name="Path 978929" d="M408,284.571l.9.813v4.5h3.6v-4.5l.9-.813V280.3a1.8,1.8,0,0,0-1.132-1.672l-2.239-.9a1.8,1.8,0,0,1-1.132-1.672v-.369a1.8,1.8,0,1,1,3.6,0v.369a1.8,1.8,0,0,1-1.132,1.672l-2.239.9A1.8,1.8,0,0,0,408,280.3Z" transform="translate(-347.87 -228.856)" fill="#a1c0d9"/>
        <g id="Group_1144293" data-name="Group 1144293" transform="translate(25.006 41.217)">
          <path id="Path_978930" data-name="Path 978930" d="M96,240h1.8v1.8H96Z" transform="translate(-96 -240)" fill="#c1c1c1"/>
          <path id="Path_978931" data-name="Path 978931" d="M128,240h7.2v1.8H128Z" transform="translate(-124.398 -240)" fill="#c1c1c1"/>
          <path id="Path_978932" data-name="Path 978932" d="M96,288h1.8v1.8H96Z" transform="translate(-96 -282.596)" fill="#c1c1c1"/>
          <path id="Path_978933" data-name="Path 978933" d="M128,288h7.2v1.8H128Z" transform="translate(-124.398 -282.596)" fill="#c1c1c1"/>
          <path id="Path_978934" data-name="Path 978934" d="M96,336h1.8v1.8H96Z" transform="translate(-96 -325.193)" fill="#c1c1c1"/>
          <path id="Path_978935" data-name="Path 978935" d="M128,336h7.2v1.8H128Z" transform="translate(-124.398 -325.193)" fill="#c1c1c1"/>
          <path id="Path_978936" data-name="Path 978936" d="M96,384h1.8v1.8H96Z" transform="translate(-96 -367.789)" fill="#c1c1c1"/>
          <path id="Path_978937" data-name="Path 978937" d="M128,384h7.2v1.8H128Z" transform="translate(-124.398 -367.789)" fill="#c1c1c1"/>
        </g>
        <path id="Path_978938" data-name="Path 978938" d="M68.236,26.807a1.8,1.8,0,0,0,1.8-1.8V19.6a3.607,3.607,0,0,0-3.6-3.6H24.106a2.7,2.7,0,0,0-2.7,2.7v44.13H17.8a1.8,1.8,0,0,0-1.8,1.8v1.8a3.607,3.607,0,0,0,3.6,3.6H50.224v-1.8H19.6a1.8,1.8,0,0,1-1.8-1.8v-1.8h20.5a2.7,2.7,0,0,0,2.012.9H50.691l4.035,5.044,4.035-5.044h8.573a2.7,2.7,0,0,0,2.7-2.7V43.019a2.7,2.7,0,0,0-2.7-2.7h-2.7V26.807Zm-3.6-7.2a1.8,1.8,0,1,1,3.6,0v5.4h-3.6ZM37.615,43.019V62.832H23.2V18.7a.9.9,0,0,1,.9-.9H63.317a3.579,3.579,0,0,0-.485,1.8V40.317H40.317a2.7,2.7,0,0,0-2.7,2.7Zm29.72-.9a.9.9,0,0,1,.9.9V62.832a.9.9,0,0,1-.9.9H57.9l-3.17,3.962-3.17-3.962H40.317a.9.9,0,0,1-.9-.9V43.019a.9.9,0,0,1,.9-.9Z"/>
        <path id="Path_978939" data-name="Path 978939" d="M240.9,283.7h5.4v-5l.9-.813v-4.672a2.688,2.688,0,0,0-1.572-2.454,2.692,2.692,0,0,0,.671-1.786V268.6a2.687,2.687,0,0,0-1.494-2.417,2.715,2.715,0,0,0-2.417,0A2.687,2.687,0,0,0,240.9,268.6v.369a2.692,2.692,0,0,0,.671,1.786A2.688,2.688,0,0,0,240,273.212v4.672l.9.813Zm1.8-15.1a.9.9,0,1,1,1.8,0v.369a.9.9,0,0,1-.566.836l-.335.134-.334-.134a.9.9,0,0,1-.566-.836Zm-.9,4.609a.9.9,0,0,1,.566-.836l1.235-.494,1.235.494a.9.9,0,0,1,.566.836v3.872l-.9.813v4h-1.8v-4l-.9-.813Z" transform="translate(-198.783 -221.769)"/>
        <path id="Path_978940" data-name="Path 978940" d="M320.9,283.7h5.4v-5l.9-.813v-4.672a2.688,2.688,0,0,0-1.572-2.454,2.692,2.692,0,0,0,.671-1.786V268.6a2.687,2.687,0,0,0-1.494-2.417,2.715,2.715,0,0,0-2.417,0A2.687,2.687,0,0,0,320.9,268.6v.369a2.692,2.692,0,0,0,.671,1.786A2.688,2.688,0,0,0,320,273.212v4.672l.9.813Zm1.8-15.1a.9.9,0,1,1,1.8,0v.369a.9.9,0,0,1-.566.836l-.335.134-.335-.134a.9.9,0,0,1-.566-.836Zm-.9,4.609a.9.9,0,0,1,.566-.836l1.235-.494,1.235.494a.9.9,0,0,1,.566.836v3.872l-.9.813v4h-1.8v-4l-.9-.813Z" transform="translate(-269.776 -221.769)"/>
        <path id="Path_978941" data-name="Path 978941" d="M400.9,283.7h5.4v-5l.9-.813v-4.672a2.688,2.688,0,0,0-1.572-2.454,2.692,2.692,0,0,0,.671-1.786V268.6a2.687,2.687,0,0,0-1.494-2.417,2.715,2.715,0,0,0-2.417,0A2.687,2.687,0,0,0,400.9,268.6v.369a2.692,2.692,0,0,0,.671,1.786A2.688,2.688,0,0,0,400,273.212v4.672l.9.813Zm1.8-15.1a.9.9,0,0,1,1.8,0v.369a.9.9,0,0,1-.566.836l-.334.134-.334-.134a.9.9,0,0,1-.566-.836Zm-.9,4.609a.9.9,0,0,1,.566-.836l1.235-.494,1.235.494a.9.9,0,0,1,.566.836v3.872l-.9.813v4h-1.8v-4l-.9-.813Z" transform="translate(-340.77 -221.769)"/>
        <path id="Path_978942" data-name="Path 978942" d="M265.006,74.012A9.006,9.006,0,1,0,256,65.006,9.006,9.006,0,0,0,265.006,74.012Zm.9-16.153a7.2,7.2,0,0,1,5.637,10.17l-5.637-3.523Zm4.681,11.7a7.195,7.195,0,0,1-11.162,0l5.581-3.488ZM257.8,65.006a7.214,7.214,0,0,1,6.3-7.147v6.647l-5.637,3.523A7.16,7.16,0,0,1,257.8,65.006Z" transform="translate(-212.981 -35.497)"/>
        <path id="Path_978943" data-name="Path 978943" d="M112.211,100.609h-1.8V88h-1.8v12.609h-1.8V90.7h-1.8v9.907h-1.8V93.4h-1.8v7.2H99.6v-4.5H97.8v4.5H96v1.8h16.211Z" transform="translate(-70.994 -63.894)"/>
        <path id="Path_978944" data-name="Path 978944" d="M96,64h10.807v1.8H96Z" transform="translate(-70.994 -42.596)"/>
        <path id="Path_978945" data-name="Path 978945" d="M96,240h1.8v1.8H96Z" transform="translate(-70.994 -198.783)"/>
        <path id="Path_978946" data-name="Path 978946" d="M128,240h7.2v1.8H128Z" transform="translate(-99.391 -198.783)"/>
        <path id="Path_978947" data-name="Path 978947" d="M96,288h1.8v1.8H96Z" transform="translate(-70.994 -241.379)"/>
        <path id="Path_978948" data-name="Path 978948" d="M128,288h7.2v1.8H128Z" transform="translate(-99.391 -241.379)"/>
        <path id="Path_978949" data-name="Path 978949" d="M96,336h1.8v1.8H96Z" transform="translate(-70.994 -283.975)"/>
        <path id="Path_978950" data-name="Path 978950" d="M128,336h7.2v1.8H128Z" transform="translate(-99.391 -283.975)"/>
        <path id="Path_978951" data-name="Path 978951" d="M96,384h1.8v1.8H96Z" transform="translate(-70.994 -326.571)"/>
        <path id="Path_978952" data-name="Path 978952" d="M128,384h7.2v1.8H128Z" transform="translate(-99.391 -326.571)"/>
      </g>
    </g>
  </g>
</svg>
