<svg xmlns="http://www.w3.org/2000/svg" xmlns:xlink="http://www.w3.org/1999/xlink" width="108" height="108" viewBox="0 0 108 108">
  <defs>
    <filter id="Fondo" x="0" y="0" width="108" height="108" filterUnits="userSpaceOnUse">
      <feOffset dy="3" input="SourceAlpha"/>
      <feGaussianBlur stdDeviation="3" result="blur"/>
      <feFlood flood-opacity="0.161"/>
      <feComposite operator="in" in2="blur"/>
      <feComposite in="SourceGraphic"/>
    </filter>
  </defs>
  <g id="Group_1144439" data-name="Group 1144439" transform="translate(-429.608 -1206.634)">
    <g id="Group_1144329" data-name="Group 1144329">
      <g transform="matrix(1, 0, 0, 1, 429.61, 1206.63)" filter="url(#Fondo)">
        <g id="Fondo-2" data-name="Fondo" transform="translate(9 6)" fill="#fff4e4">
          <path d="M 45 88.5 C 39.12687683105469 88.5 33.43022537231445 87.35007476806641 28.06830024719238 85.08217620849609 C 22.88852500915527 82.89131164550781 18.23629951477051 79.75458526611328 14.2408504486084 75.75914764404297 C 10.24541282653809 71.76370239257812 7.108687400817871 67.11147308349609 4.917825222015381 61.93170166015625 C 2.649924993515015 56.56977462768555 1.5 50.87312316894531 1.5 45 C 1.5 39.12687683105469 2.649924993515015 33.43022537231445 4.917825222015381 28.06830024719238 C 7.108687400817871 22.88852500915527 10.24541282653809 18.23629951477051 14.2408504486084 14.2408504486084 C 18.23629951477051 10.24541282653809 22.88852500915527 7.108687400817871 28.06830024719238 4.917825222015381 C 33.43022537231445 2.649924993515015 39.12687683105469 1.5 45 1.5 C 50.87312316894531 1.5 56.56977462768555 2.649924993515015 61.93170166015625 4.917825222015381 C 67.11147308349609 7.108687400817871 71.76370239257812 10.24541282653809 75.75914764404297 14.2408504486084 C 79.75458526611328 18.23629951477051 82.89131164550781 22.88852500915527 85.08217620849609 28.06830024719238 C 87.35007476806641 33.43022537231445 88.5 39.12687683105469 88.5 45 C 88.5 50.87312316894531 87.35007476806641 56.56977462768555 85.08217620849609 61.93170166015625 C 82.89131164550781 67.11147308349609 79.75458526611328 71.76370239257812 75.75914764404297 75.75914764404297 C 71.76370239257812 79.75458526611328 67.11147308349609 82.89131164550781 61.93170166015625 85.08217620849609 C 56.56977462768555 87.35007476806641 50.87312316894531 88.5 45 88.5 Z" stroke="none"/>
          <path d="M 45 3 C 39.32871246337891 3 33.82865524291992 4.110054016113281 28.65262985229492 6.299339294433594 C 23.65165710449219 8.414573669433594 19.15968322753906 11.44334411621094 15.301513671875 15.301513671875 C 11.44334411621094 19.15968322753906 8.414573669433594 23.65165710449219 6.299339294433594 28.65262985229492 C 4.110054016113281 33.82865524291992 3 39.32871246337891 3 45 C 3 50.67128753662109 4.110054016113281 56.17134475708008 6.299339294433594 61.34737396240234 C 8.414573669433594 66.34834289550781 11.44334411621094 70.84031677246094 15.301513671875 74.698486328125 C 19.15968322753906 78.55665588378906 23.65165710449219 81.58542633056641 28.65262985229492 83.70066070556641 C 33.82865524291992 85.88994598388672 39.32871246337891 87 45 87 C 50.67128753662109 87 56.17134475708008 85.88994598388672 61.34737396240234 83.70066070556641 C 66.34834289550781 81.58542633056641 70.84031677246094 78.55665588378906 74.698486328125 74.698486328125 C 78.55665588378906 70.84031677246094 81.58542633056641 66.34834289550781 83.70066070556641 61.34737396240234 C 85.88994598388672 56.17134475708008 87 50.67128753662109 87 45 C 87 39.32871246337891 85.88994598388672 33.82865524291992 83.70066070556641 28.65262985229492 C 81.58542633056641 23.65165710449219 78.55665588378906 19.15968322753906 74.698486328125 15.301513671875 C 70.84031677246094 11.44334411621094 66.34834289550781 8.414573669433594 61.34737396240234 6.299339294433594 C 56.17134475708008 4.110054016113281 50.67128753662109 3 45 3 M 45 0 C 69.85281372070312 0 90 20.14718627929688 90 45 C 90 69.85281372070312 69.85281372070312 90 45 90 C 20.14718627929688 90 0 69.85281372070312 0 45 C 0 20.14718627929688 20.14718627929688 0 45 0 Z" stroke="none" fill="#ff9902"/>
        </g>
      </g>
      <g id="Group_1144328" data-name="Group 1144328" transform="translate(429.456 1231.111)">
        <path id="Path_978994" data-name="Path 978994" d="M279.023,304.237l-5.969-5.969a16.137,16.137,0,0,1-2.7,2.7l5.969,5.969Z" transform="translate(-215.084 -264.608)" fill="#8abbd5"/>
        <path id="Path_978995" data-name="Path 978995" d="M277.648,317.062l-5.889-5.889a16.136,16.136,0,0,1-1.4,1.242l5.969,5.969Z" transform="translate(-215.085 -276.057)" fill="#6cabca"/>
        <g id="Group_1144306" data-name="Group 1144306" transform="translate(60.826 39.214)">
          <g id="Group_1144305" data-name="Group 1144305" transform="translate(0 0)">
            <path id="Path_978996" data-name="Path 978996" d="M324.474,347.845a1.225,1.225,0,0,0-1.732,0l-2.81,2.81a1.225,1.225,0,0,0,0,1.732l2.026,2.026,4.542-4.542Z" transform="translate(-319.574 -347.487)" fill="#d8ecfe"/>
          </g>
          <path id="Path_978997" data-name="Path 978997" d="M322.8,352.107a1.225,1.225,0,0,1,0-1.732l2.1-2.1-.428-.428a1.225,1.225,0,0,0-1.732,0l-2.81,2.81a1.225,1.225,0,0,0,0,1.732l2.026,2.026,1.575-1.575Z" transform="translate(-319.574 -347.487)" fill="#c4e2ff"/>
        </g>
        <g id="Group_1144307" data-name="Group 1144307" transform="translate(63.211 41.599)">
          <path id="Path_978998" data-name="Path 978998" d="M355.5,381.47l-1.944,1.944a1.837,1.837,0,0,1-2.6,0L340.706,373.16l4.542-4.542L355.5,378.872A1.837,1.837,0,0,1,355.5,381.47Z" transform="translate(-340.706 -368.618)" fill="#2ed1e2"/>
        </g>
        <g id="Group_1144308" data-name="Group 1144308" transform="translate(63.211 41.599)">
          <path id="Path_978999" data-name="Path 978999" d="M345.5,372.362l1.746-1.746-2-2-4.542,4.542,10.254,10.254a1.837,1.837,0,0,0,2.6,0l.7-.7-8.757-8.757A1.129,1.129,0,0,1,345.5,372.362Z" transform="translate(-340.706 -368.618)" fill="#03bed7"/>
        </g>
        <path id="Path_979000" data-name="Path 979000" d="M72.36,84.251H64.931a.565.565,0,0,0-.4.165l-4.05,4.05a.564.564,0,0,1-.963-.4V84.815a.564.564,0,0,0-.564-.564h-4.33a.564.564,0,0,1-.564-.564V69.718a16.054,16.054,0,0,0-12.846,21.14h8.8a.338.338,0,0,1,.239.1l3.011,3.011a.339.339,0,0,1,.1.239v7.148A16.052,16.052,0,0,0,72.416,85.6C72.416,85.142,72.4,84.694,72.36,84.251Z" transform="translate(-11.016 -61.85)" fill="#00f2a6"/>
        <path id="Path_979001" data-name="Path 979001" d="M97.552,113.529H93.814a.565.565,0,0,0-.4.165l-4.05,4.05a.564.564,0,0,1-.963-.4v-3.252a.564.564,0,0,0-.564-.564h-4.33a.564.564,0,0,1-.564-.564V102.72a12.375,12.375,0,0,0-8.883,17.416H78.9a.338.338,0,0,1,.239.1l3.011,3.011a.339.339,0,0,1,.1.239v3.388a12.377,12.377,0,0,0,15.374-12,12.523,12.523,0,0,0-.073-1.344Z" transform="translate(-39.899 -91.128)" fill="#d8ecfe"/>
        <g id="Group_1144309" data-name="Group 1144309" transform="translate(32.987 11.592)">
          <path id="Path_979002" data-name="Path 979002" d="M78.812,120.136a12.374,12.374,0,0,1,4.131-15.414v-2a12.375,12.375,0,0,0-8.883,17.416Z" transform="translate(-72.887 -102.72)" fill="#b3dafe"/>
        </g>
        <g id="Group_1144314" data-name="Group 1144314" transform="translate(43.044 0.846)">
          <g id="Group_1144310" data-name="Group 1144310" transform="translate(0)">
            <path id="Path_979003" data-name="Path 979003" d="M182.989,7.5H162.563a.564.564,0,0,0-.564.564V28.49a.564.564,0,0,0,.564.564h4.33a.564.564,0,0,1,.564.564v3.252a.564.564,0,0,0,.963.4l4.05-4.05a.564.564,0,0,1,.4-.165h10.119a.564.564,0,0,0,.564-.564V8.064A.564.564,0,0,0,182.989,7.5Z" transform="translate(-161.999 -7.5)" fill="#2ed1e2"/>
          </g>
          <g id="Group_1144312" data-name="Group 1144312" transform="translate(0)">
            <g id="Group_1144311" data-name="Group 1144311">
              <path id="Path_979004" data-name="Path 979004" d="M165.836,28.49V8.064A.564.564,0,0,1,166.4,7.5h-3.837a.564.564,0,0,0-.564.564V28.49a.564.564,0,0,0,.564.564H166.4A.564.564,0,0,1,165.836,28.49Z" transform="translate(-161.999 -7.5)" fill="#03bed7"/>
            </g>
          </g>
          <g id="Group_1144313" data-name="Group 1144313" transform="translate(9.201 3.555)">
            <path id="Path_979005" data-name="Path 979005" d="M246.724,97.424h-3.189V89.082h2.941a.248.248,0,0,1,.248.248Z" transform="translate(-243.535 -83.43)" fill="#fff"/>
            <path id="Path_979006" data-name="Path 979006" d="M246.476,42.189h-2.693a.248.248,0,0,1-.248-.248V39.248a.248.248,0,0,1,.248-.248h2.694a.248.248,0,0,1,.248.248v2.693A.248.248,0,0,1,246.476,42.189Z" transform="translate(-243.535 -39)" fill="#fff"/>
          </g>
        </g>
        <g id="Group_1144315" data-name="Group 1144315" transform="translate(65.025 25.717)">
          <path id="Path_979007" data-name="Path 979007" d="M364.766,236.209h-7.651a.339.339,0,0,1-.339-.339V228.22a.339.339,0,0,1,.339-.339h7.651a.339.339,0,0,1,.339.339v7.651A.339.339,0,0,1,364.766,236.209Z" transform="translate(-356.777 -227.881)" fill="#00f2a6"/>
        </g>
        <g id="Group_1144316" data-name="Group 1144316" transform="translate(65.025 25.717)">
          <path id="Path_979008" data-name="Path 979008" d="M359.623,235.87V228.22a.339.339,0,0,1,.339-.339h-2.846a.339.339,0,0,0-.339.339v7.651a.339.339,0,0,0,.339.339h2.846A.339.339,0,0,1,359.623,235.87Z" transform="translate(-356.777 -227.881)" fill="#05e39c"/>
        </g>
        <g id="Group_1144317" data-name="Group 1144317" transform="translate(46.899 43.72)">
          <path id="Path_979009" data-name="Path 979009" d="M201.58,393.166H196.5a.339.339,0,0,1-.339-.339v-5.079a.339.339,0,0,1,.339-.339h5.079a.339.339,0,0,1,.339.339v5.079A.339.339,0,0,1,201.58,393.166Z" transform="translate(-196.162 -387.41)" fill="#fe646f"/>
        </g>
        <g id="Group_1144318" data-name="Group 1144318" transform="translate(46.899 43.72)">
          <path id="Path_979010" data-name="Path 979010" d="M198.626,392.827v-5.079a.339.339,0,0,1,.339-.339H196.5a.339.339,0,0,0-.339.339v5.079a.339.339,0,0,0,.339.339h2.464A.339.339,0,0,1,198.626,392.827Z" transform="translate(-196.162 -387.41)" fill="#fd4755"/>
        </g>
        <g id="Group_1144319" data-name="Group 1144319" transform="translate(31.533 2.708)">
          <path id="Path_979011" data-name="Path 979011" d="M64.569,28.908H60.339A.339.339,0,0,1,60,28.569V24.339A.339.339,0,0,1,60.339,24h4.231a.339.339,0,0,1,.339.339v4.231A.339.339,0,0,1,64.569,28.908Z" transform="translate(-60 -24)" fill="#ffe177"/>
        </g>
        <g id="Group_1144320" data-name="Group 1144320" transform="translate(31.533 2.708)">
          <path id="Path_979012" data-name="Path 979012" d="M62.235,28.569V24.339A.339.339,0,0,1,62.573,24H60.339a.339.339,0,0,0-.339.339v4.231a.339.339,0,0,0,.339.339h2.235A.339.339,0,0,1,62.235,28.569Z" transform="translate(-60 -24)" fill="#ffc344"/>
        </g>
        <g id="Group_1144323" data-name="Group 1144323" transform="translate(28.758 29.008)">
          <g id="Group_1144321" data-name="Group 1144321" transform="translate(0)">
            <path id="Path_979013" data-name="Path 979013" d="M45.656,257.047H35.751a.339.339,0,0,0-.339.339V273.7a.339.339,0,0,0,.339.339H48.668a.339.339,0,0,0,.339-.339V260.4a.338.338,0,0,0-.1-.239L45.9,257.146A.338.338,0,0,0,45.656,257.047Z" transform="translate(-35.412 -257.047)" fill="#ffe177"/>
          </g>
          <g id="Group_1144322" data-name="Group 1144322" transform="translate(0)">
            <path id="Path_979014" data-name="Path 979014" d="M39.2,273.7V257.386a.339.339,0,0,1,.339-.339h-3.79a.339.339,0,0,0-.339.339V273.7a.339.339,0,0,0,.339.339h3.79A.339.339,0,0,1,39.2,273.7Z" transform="translate(-35.412 -257.047)" fill="#ffc344"/>
          </g>
        </g>
        <g id="Group_1144326" data-name="Group 1144326" transform="translate(68.209 8.081)">
          <g id="Group_1144324" data-name="Group 1144324" transform="translate(0)">
            <path id="Path_979015" data-name="Path 979015" d="M392.309,71.607h-6.977a.339.339,0,0,0-.339.339V83.47a.339.339,0,0,0,.339.339h9.084a.339.339,0,0,0,.339-.339V74.052a.338.338,0,0,0-.1-.239l-2.106-2.106A.338.338,0,0,0,392.309,71.607Z" transform="translate(-384.993 -71.607)" fill="#d8ecfe"/>
          </g>
          <g id="Group_1144325" data-name="Group 1144325" transform="translate(0 0)">
            <path id="Path_979016" data-name="Path 979016" d="M388.211,83.47V71.946a.339.339,0,0,1,.339-.339h-3.218a.339.339,0,0,0-.339.339V83.47a.339.339,0,0,0,.339.339h3.218A.339.339,0,0,1,388.211,83.47Z" transform="translate(-384.993 -71.607)" fill="#c4e2ff"/>
          </g>
        </g>
        <g id="Group_1144327" data-name="Group 1144327" transform="translate(27.912 0)">
          <path id="Path_979017" data-name="Path 979017" d="M78.606,51.255,74.6,47.246a.846.846,0,0,0-1.2,1.2l4.009,4.009a.991.991,0,0,1,0,1.4L75.465,55.8a.991.991,0,0,1-1.4,0l-9.656-9.656L67.753,42.8l2.854,2.854a.846.846,0,0,0,1.2-1.2l-5.478-5.478a2.073,2.073,0,0,0-2.281-.437l-4.962-4.962a16.8,16.8,0,0,0,3.164-9.831c0-.166,0-.332-.008-.5h1.8a1.412,1.412,0,0,0,1.411-1.411V13.881a.846.846,0,0,0-1.693,0v7.674H53.915a1.4,1.4,0,0,0-1,.413l-3.569,3.569V22.965a1.412,1.412,0,0,0-1.411-1.411H43.89V1.693H63.752V9.931a.846.846,0,0,0,1.693,0V1.411A1.412,1.412,0,0,0,64.034,0H43.608A1.412,1.412,0,0,0,42.2,1.411V7.153A16.89,16.89,0,0,0,29.055,28.164a1.186,1.186,0,0,0-1.143,1.183V45.662A1.186,1.186,0,0,0,29.1,46.847h5.935a.846.846,0,1,0,0-1.693H29.6v-15.3h9.187l2.714,2.714V45.154H38.981a.846.846,0,1,0,0,1.693h3.033A1.186,1.186,0,0,0,43.2,45.662V40.5a16.864,16.864,0,0,0,11.989-3.026l4.961,4.961a2.071,2.071,0,0,0,.438,2.282l12.28,12.28a2.683,2.683,0,0,0,3.795,0l1.944-1.944a2.684,2.684,0,0,0,0-3.795ZM42.2,8.879v2.032a13.215,13.215,0,0,0-9.3,17.251H30.815A15.2,15.2,0,0,1,42.2,8.879ZM39.84,28.509A1.177,1.177,0,0,0,39,28.162H34.715a11.52,11.52,0,0,1,7.482-15.5v9.173a1.412,1.412,0,0,0,1.411,1.411h4.048v2.97a1.41,1.41,0,0,0,2.408,1l3.968-3.968h2.836c.007.165.012.33.012.5A11.519,11.519,0,0,1,43.2,35.063V32.358a1.177,1.177,0,0,0-.347-.838ZM43.2,38.788v-2A13.215,13.215,0,0,0,58.573,23.745c0-.167,0-.332-.01-.5h1.982c.006.165.009.331.009.5A15.2,15.2,0,0,1,43.2,38.788Zm13.321-2.379a17.039,17.039,0,0,0,1.5-1.5l4.722,4.722-1.5,1.5Zm5.264,7.108a.379.379,0,0,1,0-.535l2.81-2.81a.379.379,0,0,1,.535,0L66.556,41.6l-3.345,3.345Z" transform="translate(-27.912 0)"/>
          <path id="Path_979018" data-name="Path 979018" d="M239.822,36.382a1.1,1.1,0,0,0,1.094-1.094V32.594a1.1,1.1,0,0,0-1.094-1.094h-2.694a1.1,1.1,0,0,0-1.094,1.094v2.693a1.1,1.1,0,0,0,1.094,1.094Zm-2.095-3.189h1.5v1.5h-1.5Z" transform="translate(-212.547 -27.945)"/>
          <path id="Path_979019" data-name="Path 979019" d="M226.826,89.923a.846.846,0,1,0,0,1.693h5.392a.846.846,0,1,0,0-1.693h-.255V82.675a1.1,1.1,0,0,0-1.094-1.094h-4.08a.846.846,0,1,0,0,1.693h.292v6.649Zm1.948-6.649h1.5v6.649h-1.5Z" transform="translate(-203.595 -72.374)"/>
          <path id="Path_979020" data-name="Path 979020" d="M350.462,220.381a1.186,1.186,0,0,0-1.185,1.185v7.651a1.186,1.186,0,0,0,1.185,1.185h7.651a1.186,1.186,0,0,0,1.185-1.185v-7.651a1.186,1.186,0,0,0-1.185-1.185Zm7.143,8.328H350.97v-6.635H357.6Z" transform="translate(-313.011 -195.511)"/>
          <path id="Path_979021" data-name="Path 979021" d="M194.926,379.911h-5.079a1.186,1.186,0,0,0-1.185,1.185v5.079a1.186,1.186,0,0,0,1.185,1.185h5.079a1.186,1.186,0,0,0,1.185-1.185V381.1A1.186,1.186,0,0,0,194.926,379.911Zm-.508,5.756h-4.063V381.6h4.063Z" transform="translate(-170.521 -337.038)"/>
          <path id="Path_979022" data-name="Path 979022" d="M53.685,23.1h4.23A1.186,1.186,0,0,0,59.1,21.915v-4.23A1.186,1.186,0,0,0,57.915,16.5h-4.23A1.186,1.186,0,0,0,52.5,17.685v4.23A1.186,1.186,0,0,0,53.685,23.1Zm.508-4.908h3.215v3.215H54.193Z" transform="translate(-49.725 -14.638)"/>
          <path id="Path_979023" data-name="Path 979023" d="M64.9,360.257h5.438a.846.846,0,1,0,0-1.693H64.9a.846.846,0,1,0,0,1.693Z" transform="translate(-59.972 -318.1)"/>
          <path id="Path_979024" data-name="Path 979024" d="M64.9,326.528h5.438a.846.846,0,1,0,0-1.693H64.9a.846.846,0,1,0,0,1.693Z" transform="translate(-59.972 -288.177)"/>
          <path id="Path_979025" data-name="Path 979025" d="M64.9,292.8h3.081a.846.846,0,0,0,0-1.693H64.9a.846.846,0,0,0,0,1.693Z" transform="translate(-59.972 -258.253)"/>
          <path id="Path_979026" data-name="Path 979026" d="M378.677,78h9.084a1.186,1.186,0,0,0,1.185-1.185V67.4a1.177,1.177,0,0,0-.347-.838l-2.106-2.106a1.177,1.177,0,0,0-.838-.347h-6.977a1.186,1.186,0,0,0-1.185,1.185V76.815A1.187,1.187,0,0,0,378.677,78Zm.508-12.2h6.259l1.809,1.809v8.7h-8.068Z" transform="translate(-338.042 -56.872)"/>
          <path id="Path_979027" data-name="Path 979027" d="M408.193,142.383h-3.9a.846.846,0,0,0,0,1.693h3.9a.846.846,0,0,0,0-1.693Z" transform="translate(-361.063 -126.315)"/>
          <path id="Path_979028" data-name="Path 979028" d="M408.193,118.165h-3.9a.846.846,0,0,0,0,1.693h3.9a.846.846,0,0,0,0-1.693Z" transform="translate(-361.063 -104.83)"/>
          <path id="Path_979029" data-name="Path 979029" d="M404.287,95.64H406.5a.846.846,0,1,0,0-1.693h-2.212a.846.846,0,0,0,0,1.693Z" transform="translate(-361.062 -83.345)"/>
        </g>
      </g>
    </g>
  </g>
</svg>
