<svg xmlns="http://www.w3.org/2000/svg" xmlns:xlink="http://www.w3.org/1999/xlink" width="108" height="108" viewBox="0 0 108 108">
  <defs>
    <filter id="Fondo" x="0" y="0" width="108" height="108" filterUnits="userSpaceOnUse">
      <feOffset dy="3" input="SourceAlpha"/>
      <feGaussianBlur stdDeviation="3" result="blur"/>
      <feFlood flood-opacity="0.161"/>
      <feComposite operator="in" in2="blur"/>
      <feComposite in="SourceGraphic"/>
    </filter>
  </defs>
  <g id="Group_1144428" data-name="Group 1144428" transform="translate(-1165.999 -4341)">
    <g id="Group_1144302" data-name="Group 1144302" transform="translate(0 174)">
      <g transform="matrix(1, 0, 0, 1, 1166, 4167)" filter="url(#Fondo)">
        <g id="Fondo-2" data-name="Fondo" transform="translate(9 6)" fill="#fff4e4">
          <path d="M 45 88.5 C 39.12687683105469 88.5 33.43022537231445 87.35007476806641 28.06830024719238 85.08217620849609 C 22.88852500915527 82.89131164550781 18.23629951477051 79.75458526611328 14.2408504486084 75.75914764404297 C 10.24541282653809 71.76370239257812 7.108687400817871 67.11147308349609 4.917825222015381 61.93170166015625 C 2.649924993515015 56.56977462768555 1.5 50.87312316894531 1.5 45 C 1.5 39.12687683105469 2.649924993515015 33.43022537231445 4.917825222015381 28.06830024719238 C 7.108687400817871 22.88852500915527 10.24541282653809 18.23629951477051 14.2408504486084 14.2408504486084 C 18.23629951477051 10.24541282653809 22.88852500915527 7.108687400817871 28.06830024719238 4.917825222015381 C 33.43022537231445 2.649924993515015 39.12687683105469 1.5 45 1.5 C 50.87312316894531 1.5 56.56977462768555 2.649924993515015 61.93170166015625 4.917825222015381 C 67.11147308349609 7.108687400817871 71.76370239257812 10.24541282653809 75.75914764404297 14.2408504486084 C 79.75458526611328 18.23629951477051 82.89131164550781 22.88852500915527 85.08217620849609 28.06830024719238 C 87.35007476806641 33.43022537231445 88.5 39.12687683105469 88.5 45 C 88.5 50.87312316894531 87.35007476806641 56.56977462768555 85.08217620849609 61.93170166015625 C 82.89131164550781 67.11147308349609 79.75458526611328 71.76370239257812 75.75914764404297 75.75914764404297 C 71.76370239257812 79.75458526611328 67.11147308349609 82.89131164550781 61.93170166015625 85.08217620849609 C 56.56977462768555 87.35007476806641 50.87312316894531 88.5 45 88.5 Z" stroke="none"/>
          <path d="M 45 3 C 39.32871246337891 3 33.82865524291992 4.110054016113281 28.65262985229492 6.299339294433594 C 23.65165710449219 8.414573669433594 19.15968322753906 11.44334411621094 15.301513671875 15.301513671875 C 11.44334411621094 19.15968322753906 8.414573669433594 23.65165710449219 6.299339294433594 28.65262985229492 C 4.110054016113281 33.82865524291992 3 39.32871246337891 3 45 C 3 50.67128753662109 4.110054016113281 56.17134475708008 6.299339294433594 61.34737396240234 C 8.414573669433594 66.34834289550781 11.44334411621094 70.84031677246094 15.301513671875 74.698486328125 C 19.15968322753906 78.55665588378906 23.65165710449219 81.58542633056641 28.65262985229492 83.70066070556641 C 33.82865524291992 85.88994598388672 39.32871246337891 87 45 87 C 50.67128753662109 87 56.17134475708008 85.88994598388672 61.34737396240234 83.70066070556641 C 66.34834289550781 81.58542633056641 70.84031677246094 78.55665588378906 74.698486328125 74.698486328125 C 78.55665588378906 70.84031677246094 81.58542633056641 66.34834289550781 83.70066070556641 61.34737396240234 C 85.88994598388672 56.17134475708008 87 50.67128753662109 87 45 C 87 39.32871246337891 85.88994598388672 33.82865524291992 83.70066070556641 28.65262985229492 C 81.58542633056641 23.65165710449219 78.55665588378906 19.15968322753906 74.698486328125 15.301513671875 C 70.84031677246094 11.44334411621094 66.34834289550781 8.414573669433594 61.34737396240234 6.299339294433594 C 56.17134475708008 4.110054016113281 50.67128753662109 3 45 3 M 45 0 C 69.85281372070312 0 90 20.14718627929688 90 45 C 90 69.85281372070312 69.85281372070312 90 45 90 C 20.14718627929688 90 0 69.85281372070312 0 45 C 0 20.14718627929688 20.14718627929688 0 45 0 Z" stroke="none" fill="#ff9902"/>
        </g>
      </g>
      <g id="Group_1144301" data-name="Group 1144301" transform="translate(1192.983 4188.687)">
        <g id="Group_1144300" data-name="Group 1144300" transform="translate(8.083 9.661)">
          <path id="Path_978973" data-name="Path 978973" d="M14.483,49.622A2.522,2.522,0,1,1,11.962,47.1,2.517,2.517,0,0,1,14.483,49.622Z" transform="translate(-9.432 -17.537)" fill="#7ec927"/>
          <path id="Path_978974" data-name="Path 978974" d="M14.44,50.1a2.522,2.522,0,1,1-3.7-2.628,2.152,2.152,0,0,0-.033.4A2.532,2.532,0,0,0,14.44,50.1Z" transform="translate(-9.43 -17.604)" fill="#60a917"/>
          <path id="Path_978975" data-name="Path 978975" d="M25.573,39.192a2.522,2.522,0,1,1-2.522-2.522A2.517,2.517,0,0,1,25.573,39.192Z" transform="translate(-11.443 -15.646)" fill="#4662d3"/>
          <path id="Path_978976" data-name="Path 978976" d="M25.563,39.469a2.524,2.524,0,1,1-4.134-2.079.749.749,0,0,0-.008.139,2.522,2.522,0,0,0,4.143,1.94Z" transform="translate(-11.441 -15.777)" fill="#4662d3"/>
          <path id="Path_978977" data-name="Path 978977" d="M38.633,51.362a2.522,2.522,0,1,1-2.522-2.522A2.517,2.517,0,0,1,38.633,51.362Z" transform="translate(-13.811 -17.853)" fill="#ba613e"/>
          <path id="Path_978978" data-name="Path 978978" d="M38.615,51.706a2.523,2.523,0,1,1-4-2.276,1.239,1.239,0,0,0-.016.246A2.523,2.523,0,0,0,37.125,52.2,2.483,2.483,0,0,0,38.615,51.706Z" transform="translate(-13.809 -17.96)" fill="sienna"/>
          <path id="Path_978979" data-name="Path 978979" d="M54.1,38.242a2.522,2.522,0,1,1-2.522-2.522A2.517,2.517,0,0,1,54.1,38.242Z" transform="translate(-16.616 -15.474)" fill="#1fc5ff"/>
          <path id="Path_978980" data-name="Path 978980" d="M54.093,38.455A2.522,2.522,0,1,1,49.82,36.58v.057a2.524,2.524,0,0,0,4.274,1.817Z" transform="translate(-16.614 -15.63)" fill="#07beef"/>
          <path id="Path_978981" data-name="Path 978981" d="M65.883,38.242a2.522,2.522,0,1,1-2.522-2.522,2.517,2.517,0,0,1,2.522,2.522Z" transform="translate(-18.751 -15.474)" fill="#fc635b"/>
          <path id="Path_978982" data-name="Path 978982" d="M65.865,38.662a2.525,2.525,0,0,1-5.035-.287,2.505,2.505,0,0,1,.884-1.916,1.623,1.623,0,0,0-.025.287,2.532,2.532,0,0,0,4.175,1.916Z" transform="translate(-18.75 -15.608)" fill="#f34234"/>
          <path id="Path_978983" data-name="Path 978983" d="M16.043,24.7a2.522,2.522,0,1,1-2.522-2.522A2.517,2.517,0,0,1,16.043,24.7Z" transform="translate(-9.715 -13.019)" fill="#ffeacf"/>
          <path id="Path_978984" data-name="Path 978984" d="M16.033,24.839v.016a2.522,2.522,0,1,1-4.265-1.826,2.524,2.524,0,0,0,2.522,2.505A2.5,2.5,0,0,0,16.033,24.839Z" transform="translate(-9.713 -13.173)" fill="#ffe0b2"/>
          <path id="Path_978985" data-name="Path 978985" d="M42.393,31.362a2.522,2.522,0,1,1-2.522-2.522A2.517,2.517,0,0,1,42.393,31.362Z" transform="translate(-14.492 -14.226)" fill="#7ec927"/>
          <path id="Path_978986" data-name="Path 978986" d="M42.391,31.447a2.526,2.526,0,1,1-3.864-2.137,2.514,2.514,0,0,0,3.864,2.137Z" transform="translate(-14.491 -14.312)" fill="#60a917"/>
          <path id="Path_978987" data-name="Path 978987" d="M56.943,18.982a2.522,2.522,0,1,1-2.522-2.522,2.517,2.517,0,0,1,2.522,2.522Z" transform="translate(-17.13 -11.982)" fill="#ffa733"/>
          <path id="Path_978988" data-name="Path 978988" d="M56.943,19.15a2.522,2.522,0,1,1-5.043,0,2.552,2.552,0,0,1,.712-1.76,2.521,2.521,0,0,0,4.3,1.384A1.9,1.9,0,0,1,56.943,19.15Z" transform="translate(-17.13 -12.15)" fill="#ff9801"/>
          <path id="Path_978989" data-name="Path 978989" d="M29.213,13.512a2.522,2.522,0,1,1-2.522-2.522A2.517,2.517,0,0,1,29.213,13.512Z" transform="translate(-12.103 -10.99)" fill="#fc635b"/>
          <path id="Path_978990" data-name="Path 978990" d="M29.211,13.609a2.526,2.526,0,1,1-3.954-2.079A2.522,2.522,0,0,0,29.2,13.495.5.5,0,0,1,29.211,13.609Z" transform="translate(-12.101 -11.088)" fill="#f34234"/>
        </g>
        <path id="Path_978991" data-name="Path 978991" d="M52.9,53.338H3.637V4.479A.819.819,0,0,0,2,4.479v49.67a.821.821,0,0,0,.819.819H52.9a.815.815,0,1,0,0-1.629Z"/>
        <path id="Path_978992" data-name="Path 978992" d="M53.864,34.72a3.344,3.344,0,0,0-3.226,2.522H47.454a3.333,3.333,0,0,0-6.566.819,3.3,3.3,0,0,0,.327,1.416l-7.556,6.73a3.276,3.276,0,0,0-4.077-.082l-5.731-5.8a3.288,3.288,0,0,0,.368-1.49,3.34,3.34,0,1,0-6.68,0,3.3,3.3,0,0,0,.327,1.416l-4.241,4.331a3.337,3.337,0,1,0,1.515,2.792,3.25,3.25,0,0,0-.418-1.58l4.183-4.274a3.3,3.3,0,0,0,3.881.049l5.755,5.821a3.336,3.336,0,1,0,6.361,1.4,3.193,3.193,0,0,0-.262-1.285l7.6-6.762a3.314,3.314,0,0,0,5.207-1.858H50.63a3.339,3.339,0,1,0,3.234-4.167ZM11.776,49.088a1.7,1.7,0,1,1,1.7-1.7,1.7,1.7,0,0,1-1.7,1.7Zm9.087-8.539a1.7,1.7,0,1,1,1.7-1.7,1.7,1.7,0,0,1-1.7,1.7ZM31.555,50.5a1.7,1.7,0,1,1,1.7-1.7A1.7,1.7,0,0,1,31.555,50.5ZM44.212,39.771a1.7,1.7,0,1,1,1.7-1.711v.016a1.7,1.7,0,0,1-1.7,1.695Zm9.652,0a1.7,1.7,0,1,1,1.7-1.711,1.7,1.7,0,0,1-1.7,1.711Z" transform="translate(-1.171 -5.632)"/>
        <path id="Path_978993" data-name="Path 978993" d="M13.328,25.842a3.315,3.315,0,0,0,2.9-4.969l5.7-5.027a3.272,3.272,0,0,0,3.61.508L32.2,26.005a3.344,3.344,0,1,0,5.747.573l7.041-5.968a3.42,3.42,0,1,0-1.1-1.212l-6.967,5.9a3.261,3.261,0,0,0-3.471-.352L26.8,15.313a3.3,3.3,0,0,0,.655-1.973,3.34,3.34,0,1,0-6.468,1.146L15.1,19.677a3.3,3.3,0,0,0-1.777-.524,3.344,3.344,0,1,0,.008,6.689Zm33.492-9.734a1.7,1.7,0,1,1-1.7,1.7,1.7,1.7,0,0,1,1.7-1.7ZM34.909,26.235a1.707,1.707,0,1,1-1.7,1.711,1.7,1.7,0,0,1,1.7-1.711ZM24.119,11.629a1.7,1.7,0,1,1-1.7,1.7A1.7,1.7,0,0,1,24.119,11.629ZM13.328,20.79a1.7,1.7,0,1,1-1.7,1.7A1.7,1.7,0,0,1,13.328,20.79Z" transform="translate(-1.447 -1.15)"/>
      </g>
    </g>
  </g>
</svg>
