<svg xmlns="http://www.w3.org/2000/svg" xmlns:xlink="http://www.w3.org/1999/xlink" width="108" height="108" viewBox="0 0 108 108">
  <defs>
    <filter id="Fondo" x="0" y="0" width="108" height="108" filterUnits="userSpaceOnUse">
      <feOffset dy="3" input="SourceAlpha"/>
      <feGaussianBlur stdDeviation="3" result="blur"/>
      <feFlood flood-opacity="0.161"/>
      <feComposite operator="in" in2="blur"/>
      <feComposite in="SourceGraphic"/>
    </filter>
  </defs>
  <g id="Group_1144420" data-name="Group 1144420" transform="translate(-3879 -1465.134)">
    <g id="Group_1144260" data-name="Group 1144260">
      <g transform="matrix(1, 0, 0, 1, 3879, 1465.13)" filter="url(#Fondo)">
        <g id="Fondo-2" data-name="Fondo" transform="translate(9 6)" fill="#fff4e4">
          <path d="M 45 88.5 C 39.12687683105469 88.5 33.43022537231445 87.35007476806641 28.06830024719238 85.08217620849609 C 22.88852500915527 82.89131164550781 18.23629951477051 79.75458526611328 14.2408504486084 75.75914764404297 C 10.24541282653809 71.76370239257812 7.108687400817871 67.11147308349609 4.917825222015381 61.93170166015625 C 2.649924993515015 56.56977462768555 1.5 50.87312316894531 1.5 45 C 1.5 39.12687683105469 2.649924993515015 33.43022537231445 4.917825222015381 28.06830024719238 C 7.108687400817871 22.88852500915527 10.24541282653809 18.23629951477051 14.2408504486084 14.2408504486084 C 18.23629951477051 10.24541282653809 22.88852500915527 7.108687400817871 28.06830024719238 4.917825222015381 C 33.43022537231445 2.649924993515015 39.12687683105469 1.5 45 1.5 C 50.87312316894531 1.5 56.56977462768555 2.649924993515015 61.93170166015625 4.917825222015381 C 67.11147308349609 7.108687400817871 71.76370239257812 10.24541282653809 75.75914764404297 14.2408504486084 C 79.75458526611328 18.23629951477051 82.89131164550781 22.88852500915527 85.08217620849609 28.06830024719238 C 87.35007476806641 33.43022537231445 88.5 39.12687683105469 88.5 45 C 88.5 50.87312316894531 87.35007476806641 56.56977462768555 85.08217620849609 61.93170166015625 C 82.89131164550781 67.11147308349609 79.75458526611328 71.76370239257812 75.75914764404297 75.75914764404297 C 71.76370239257812 79.75458526611328 67.11147308349609 82.89131164550781 61.93170166015625 85.08217620849609 C 56.56977462768555 87.35007476806641 50.87312316894531 88.5 45 88.5 Z" stroke="none"/>
          <path d="M 45 3 C 39.32871246337891 3 33.82865524291992 4.110054016113281 28.65262985229492 6.299339294433594 C 23.65165710449219 8.414573669433594 19.15968322753906 11.44334411621094 15.301513671875 15.301513671875 C 11.44334411621094 19.15968322753906 8.414573669433594 23.65165710449219 6.299339294433594 28.65262985229492 C 4.110054016113281 33.82865524291992 3 39.32871246337891 3 45 C 3 50.67128753662109 4.110054016113281 56.17134475708008 6.299339294433594 61.34737396240234 C 8.414573669433594 66.34834289550781 11.44334411621094 70.84031677246094 15.301513671875 74.698486328125 C 19.15968322753906 78.55665588378906 23.65165710449219 81.58542633056641 28.65262985229492 83.70066070556641 C 33.82865524291992 85.88994598388672 39.32871246337891 87 45 87 C 50.67128753662109 87 56.17134475708008 85.88994598388672 61.34737396240234 83.70066070556641 C 66.34834289550781 81.58542633056641 70.84031677246094 78.55665588378906 74.698486328125 74.698486328125 C 78.55665588378906 70.84031677246094 81.58542633056641 66.34834289550781 83.70066070556641 61.34737396240234 C 85.88994598388672 56.17134475708008 87 50.67128753662109 87 45 C 87 39.32871246337891 85.88994598388672 33.82865524291992 83.70066070556641 28.65262985229492 C 81.58542633056641 23.65165710449219 78.55665588378906 19.15968322753906 74.698486328125 15.301513671875 C 70.84031677246094 11.44334411621094 66.34834289550781 8.414573669433594 61.34737396240234 6.299339294433594 C 56.17134475708008 4.110054016113281 50.67128753662109 3 45 3 M 45 0 C 69.85281372070312 0 90 20.14718627929688 90 45 C 90 69.85281372070312 69.85281372070312 90 45 90 C 20.14718627929688 90 0 69.85281372070312 0 45 C 0 20.14718627929688 20.14718627929688 0 45 0 Z" stroke="none" fill="#ff9902"/>
        </g>
      </g>
      <g id="Group_1144259" data-name="Group 1144259" transform="translate(3895.721 1480.519)">
        <g id="Group_1144258" data-name="Group 1144258" transform="translate(9.124 9.041)">
          <g id="Group_1144256" data-name="Group 1144256" transform="translate(0 0)">
            <path id="Path_978846" data-name="Path 978846" d="M46.032,19.943a20.307,20.307,0,0,1,5.946,2.465l3.864-1.716L60.4,25.246,58.68,29.108a20.305,20.305,0,0,1,2.466,5.948l3.942,1.517v6.44l-3.943,1.518a20.306,20.306,0,0,1-2.465,5.946L60.4,54.341l-4.554,4.554L51.98,57.179a20.3,20.3,0,0,1-5.948,2.465l-1.517,3.942h-6.44l-1.518-3.943a20.308,20.308,0,0,1-5.946-2.465l-3.864,1.716-4.554-4.554,1.716-3.863a20.306,20.306,0,0,1-2.466-5.948L17.5,43.013v-6.44l3.942-1.518a20.305,20.305,0,0,1,2.465-5.947l-1.715-3.863,4.554-4.554,3.864,1.716a20.31,20.31,0,0,1,5.946-2.465L38.075,16h6.44Z" transform="translate(-17.501 -16)" fill="#ffe177" fill-rule="evenodd"/>
            <path id="Path_978847" data-name="Path 978847" d="M95.244,57.179,91.38,58.895l-.595-.595,3.623-1.609q.412.254.836.488Zm15.421-37.236a20.307,20.307,0,0,1,5.946,2.465l-1.1.488a26.785,26.785,0,0,0-6.782-2.953L107.213,16h1.934Zm5.947,37.236a20.3,20.3,0,0,1-5.948,2.465l-1.517,3.942h-1.934l1.517-3.942a26.776,26.776,0,0,0,6.784-2.953ZM90.785,21.287l.595-.595,3.864,1.716q-.424.234-.836.488Zm28.351,0,1.34-.595,4.554,4.554-1.716,3.863a20.305,20.305,0,0,1,2.466,5.948l3.942,1.517v6.44l-3.943,1.518a20.307,20.307,0,0,1-2.465,5.946l1.716,3.864-4.554,4.554-1.34-.595,3.959-3.959-1.716-3.864a20.306,20.306,0,0,0,2.465-5.946l3.943-1.518v-6.44l-3.942-1.517a20.305,20.305,0,0,0-2.466-5.948l1.716-3.863Z" transform="translate(-82.134 -16)" fill="#ffd064" fill-rule="evenodd"/>
            <circle id="Ellipse_11572" data-name="Ellipse 11572" cx="12.617" cy="12.617" r="12.617" transform="translate(8.616 14.407) rotate(-13.3)" fill="#eceff1"/>
            <path id="Path_978848" data-name="Path 978848" d="M124.8,110.68a12.617,12.617,0,0,0,0,25.233q.507,0,1-.04a12.617,12.617,0,0,1,0-25.154Q125.306,110.681,124.8,110.68Z" transform="translate(-101.006 -99.503)" fill="#d1d1d6" fill-rule="evenodd"/>
          </g>
          <g id="Group_1144257" data-name="Group 1144257" transform="translate(23.457 23.846)">
            <circle id="Ellipse_11573" data-name="Ellipse 11573" cx="14.804" cy="14.804" r="14.804" transform="translate(0 3.21)" fill="#fe646f"/>
            <path id="Path_978849" data-name="Path 978849" d="M337.205,245.192a14.8,14.8,0,1,1,0,29.608c-.2,0-.394-.005-.59-.013a14.8,14.8,0,0,0,0-29.582C336.811,245.2,337.007,245.192,337.205,245.192Z" transform="translate(-322.401 -241.982)" fill="#fd4755" fill-rule="evenodd"/>
            <circle id="Ellipse_11574" data-name="Ellipse 11574" cx="9.513" cy="9.513" r="9.513" transform="translate(5.291 8.501)" fill="#eceff1"/>
            <path id="Path_978850" data-name="Path 978850" d="M270.542,290.011c.2,0,.395.007.59.019a9.513,9.513,0,0,0,0,18.989c-.2.012-.392.019-.59.019a9.513,9.513,0,1,1,0-19.026Z" transform="translate(-255.738 -281.51)" fill="#d1d1d6" fill-rule="evenodd"/>
            <circle id="Ellipse_11575" data-name="Ellipse 11575" cx="4.222" cy="4.222" r="4.222" transform="translate(9.304 15.722) rotate(-22.514)" fill="#fe646f"/>
            <path id="Path_978851" data-name="Path 978851" d="M310.07,334.829a4.25,4.25,0,0,1,.59.041,4.222,4.222,0,0,0,0,8.362,4.222,4.222,0,1,1-.59-8.4Z" transform="translate(-295.266 -321.037)" fill="#fd4755" fill-rule="evenodd"/>
            <path id="Path_978852" data-name="Path 978852" d="M411.872,223.651l-5.291,5.291a.345.345,0,0,1-.325.1l-4.15-.894a.347.347,0,0,1-.272-.272l-.894-4.15a.345.345,0,0,1,.1-.325l5.291-5.291a.354.354,0,0,1,.6.176l.8,3.7a.347.347,0,0,0,.272.272l3.7.8a.354.354,0,0,1,.176.6Z" transform="translate(-379.125 -218.001)" fill="#e3a76f" fill-rule="evenodd"/>
            <path id="Path_978853" data-name="Path 978853" d="M418.158,261.2l-5.291,5.291a.345.345,0,0,1-.325.1l-4.15-.894a.347.347,0,0,1-.272-.272l-.062-.286,4.129.89a.345.345,0,0,0,.325-.1l5.291-5.291a.379.379,0,0,0,.05-.062l.129.028a.354.354,0,0,1,.176.6Z" transform="translate(-385.411 -255.547)" fill="#c48958" fill-rule="evenodd"/>
          </g>
        </g>
        <path id="Path_978854" data-name="Path 978854" d="M63.717,38.622l-2.366-.51-4.3,4.3,2.365.51ZM36.179,8.109a.945.945,0,0,1,.662.58l1.342,3.485a21.206,21.206,0,0,1,5.3,2.2L46.9,12.856a.944.944,0,0,1,1.051.2l4.554,4.554a.944.944,0,0,1,.2,1.051l-1.517,3.414a21.2,21.2,0,0,1,2.2,5.308l3.485,1.341a.945.945,0,0,1,.6.881v1.44a.944.944,0,1,1-1.889,0V30.25l-3.336-1.285a.941.941,0,0,1-.58-.662,19.318,19.318,0,0,0-2.352-5.671.945.945,0,0,1-.059-.879l1.453-3.27-3.637-3.637L43.807,16.3a.945.945,0,0,1-.879-.059,19.313,19.313,0,0,0-5.67-2.35.941.941,0,0,1-.662-.58L35.311,9.972H30.168L28.883,13.31a.946.946,0,0,1-.662.58,19.318,19.318,0,0,0-5.669,2.35.945.945,0,0,1-.879.059L18.4,14.846l-3.637,3.637,1.453,3.271a.947.947,0,0,1-.059.879,19.3,19.3,0,0,0-2.35,5.67.948.948,0,0,1-.58.662L9.891,30.25v5.143l3.337,1.284a.946.946,0,0,1,.58.662,19.308,19.308,0,0,0,2.351,5.671.947.947,0,0,1,.059.879l-1.453,3.27L18.4,50.8l3.271-1.453a.945.945,0,0,1,.879.059,19.318,19.318,0,0,0,5.669,2.35.944.944,0,0,1,.662.58l1.326,3.443a.945.945,0,0,1-.433,1.784H29.52a.943.943,0,0,1-.881-.605L27.3,53.468a21.186,21.186,0,0,1-5.3-2.2l-3.417,1.517a.942.942,0,0,1-1.05-.2L12.97,48.036a.944.944,0,0,1-.195-1.051l1.517-3.414a21.168,21.168,0,0,1-2.2-5.307L8.607,36.922a.943.943,0,0,1-.6-.881V29.6a.943.943,0,0,1,.6-.881l3.485-1.342a21.17,21.17,0,0,1,2.2-5.306l-1.517-3.416a.944.944,0,0,1,.195-1.051l4.555-4.554a.943.943,0,0,1,1.05-.2l3.417,1.517a21.191,21.191,0,0,1,5.3-2.2l1.342-3.485a.942.942,0,0,1,.662-.58h6.878ZM61.067,50.888A13.854,13.854,0,1,1,53.235,38.4a.973.973,0,0,0,.02.2l.875,4.06-.21.211a10.461,10.461,0,1,0,1.333,1.338L55.466,44l4.058.875a.928.928,0,0,0,.183.021,13.886,13.886,0,0,1,1.36,5.993Zm-8.49-6.671a8.582,8.582,0,1,0,1.332,1.339l-2.43,2.429a5.176,5.176,0,1,1-1.329-1.342Zm-2.471,5.142-2.213,2.213a.945.945,0,0,1-1.337-1.335l2.224-2.224a3.278,3.278,0,1,0,1.326,1.346Zm5.1-10.649,4.3-4.3.51,2.365-4.3,4.3Zm11.068.023-5.027,5.027a15.747,15.747,0,1,1-6.87-6.892L59.4,31.851a.945.945,0,0,1,1.591.469l.617,2.868.294-.294a.944.944,0,0,1,1.336,1.335l-.294.294,2.868.618a.944.944,0,0,1,.469,1.591Zm-34.168-1.1L38.933,29.2a.944.944,0,1,0-1.469-1.188L31.3,35.629l-3.352-3.352a.944.944,0,0,0-1.335,1.335l4.094,4.095a.947.947,0,0,0,.668.276h.05A.946.946,0,0,0,32.11,37.633Zm-2.093,6.54A11.673,11.673,0,1,1,44.41,32.649a.943.943,0,0,0,.944.93h.014a.943.943,0,0,0,.93-.957,13.561,13.561,0,1,0-24.157,8.661,13.628,13.628,0,0,0,7.437,4.728.935.935,0,0,0,.22.026.944.944,0,0,0,.219-1.863Z" transform="translate(0)" fill="#242222" fill-rule="evenodd"/>
      </g>
    </g>
  </g>
</svg>
