<svg xmlns="http://www.w3.org/2000/svg" xmlns:xlink="http://www.w3.org/1999/xlink" width="108" height="108" viewBox="0 0 108 108">
  <defs>
    <filter id="Fondo" x="0" y="0" width="108" height="108" filterUnits="userSpaceOnUse">
      <feOffset dy="3" input="SourceAlpha"/>
      <feGaussianBlur stdDeviation="3" result="blur"/>
      <feFlood flood-opacity="0.161"/>
      <feComposite operator="in" in2="blur"/>
      <feComposite in="SourceGraphic"/>
    </filter>
  </defs>
  <g id="Group_1144440" data-name="Group 1144440" transform="translate(-744.608 -1206.134)">
    <g id="Group_1144346" data-name="Group 1144346">
      <g transform="matrix(1, 0, 0, 1, 744.61, 1206.13)" filter="url(#Fondo)">
        <g id="Fondo-2" data-name="Fondo" transform="translate(9 6)" fill="#fff4e4">
          <path d="M 45 88.5 C 39.12687683105469 88.5 33.43022537231445 87.35007476806641 28.06830024719238 85.08217620849609 C 22.88852500915527 82.89131164550781 18.23629951477051 79.75458526611328 14.2408504486084 75.75914764404297 C 10.24541282653809 71.76370239257812 7.108687400817871 67.11147308349609 4.917825222015381 61.93170166015625 C 2.649924993515015 56.56977462768555 1.5 50.87312316894531 1.5 45 C 1.5 39.12687683105469 2.649924993515015 33.43022537231445 4.917825222015381 28.06830024719238 C 7.108687400817871 22.88852500915527 10.24541282653809 18.23629951477051 14.2408504486084 14.2408504486084 C 18.23629951477051 10.24541282653809 22.88852500915527 7.108687400817871 28.06830024719238 4.917825222015381 C 33.43022537231445 2.649924993515015 39.12687683105469 1.5 45 1.5 C 50.87312316894531 1.5 56.56977462768555 2.649924993515015 61.93170166015625 4.917825222015381 C 67.11147308349609 7.108687400817871 71.76370239257812 10.24541282653809 75.75914764404297 14.2408504486084 C 79.75458526611328 18.23629951477051 82.89131164550781 22.88852500915527 85.08217620849609 28.06830024719238 C 87.35007476806641 33.43022537231445 88.5 39.12687683105469 88.5 45 C 88.5 50.87312316894531 87.35007476806641 56.56977462768555 85.08217620849609 61.93170166015625 C 82.89131164550781 67.11147308349609 79.75458526611328 71.76370239257812 75.75914764404297 75.75914764404297 C 71.76370239257812 79.75458526611328 67.11147308349609 82.89131164550781 61.93170166015625 85.08217620849609 C 56.56977462768555 87.35007476806641 50.87312316894531 88.5 45 88.5 Z" stroke="none"/>
          <path d="M 45 3 C 39.32871246337891 3 33.82865524291992 4.110054016113281 28.65262985229492 6.299339294433594 C 23.65165710449219 8.414573669433594 19.15968322753906 11.44334411621094 15.301513671875 15.301513671875 C 11.44334411621094 19.15968322753906 8.414573669433594 23.65165710449219 6.299339294433594 28.65262985229492 C 4.110054016113281 33.82865524291992 3 39.32871246337891 3 45 C 3 50.67128753662109 4.110054016113281 56.17134475708008 6.299339294433594 61.34737396240234 C 8.414573669433594 66.34834289550781 11.44334411621094 70.84031677246094 15.301513671875 74.698486328125 C 19.15968322753906 78.55665588378906 23.65165710449219 81.58542633056641 28.65262985229492 83.70066070556641 C 33.82865524291992 85.88994598388672 39.32871246337891 87 45 87 C 50.67128753662109 87 56.17134475708008 85.88994598388672 61.34737396240234 83.70066070556641 C 66.34834289550781 81.58542633056641 70.84031677246094 78.55665588378906 74.698486328125 74.698486328125 C 78.55665588378906 70.84031677246094 81.58542633056641 66.34834289550781 83.70066070556641 61.34737396240234 C 85.88994598388672 56.17134475708008 87 50.67128753662109 87 45 C 87 39.32871246337891 85.88994598388672 33.82865524291992 83.70066070556641 28.65262985229492 C 81.58542633056641 23.65165710449219 78.55665588378906 19.15968322753906 74.698486328125 15.301513671875 C 70.84031677246094 11.44334411621094 66.34834289550781 8.414573669433594 61.34737396240234 6.299339294433594 C 56.17134475708008 4.110054016113281 50.67128753662109 3 45 3 M 45 0 C 69.85281372070312 0 90 20.14718627929688 90 45 C 90 69.85281372070312 69.85281372070312 90 45 90 C 20.14718627929688 90 0 69.85281372070312 0 45 C 0 20.14718627929688 20.14718627929688 0 45 0 Z" stroke="none" fill="#ff9902"/>
        </g>
      </g>
      <g id="Group_1144345" data-name="Group 1144345" transform="translate(770.346 1229.346)">
        <g id="Group_1144343" data-name="Group 1144343" transform="translate(1.86 1.86)">
          <g id="Group_1144338" data-name="Group 1144338" transform="translate(12.897 1.72)">
            <path id="Path_979077" data-name="Path 979077" d="M45.941,9.159a3.443,3.443,0,0,1-2.433-1.006L41.934,6.579H39.355A3.432,3.432,0,0,1,36.027,4H17V46.99H47.953V9.159Z" transform="translate(-17 -4)" fill="#e6e9ed"/>
          </g>
          <g id="Group_1144339" data-name="Group 1144339" transform="translate(16.336 5.159)">
            <path id="Path_979078" data-name="Path 979078" d="M21,8H34.757V18.318H21Z" transform="translate(-21 -8)" fill="#b4dd7f"/>
          </g>
          <g id="Group_1144340" data-name="Group 1144340" transform="translate(26.654 29.233)">
            <path id="Path_979079" data-name="Path 979079" d="M33,36H46.757V48.037H33Z" transform="translate(-33 -36)" fill="#fcd770"/>
          </g>
          <g id="Group_1144341" data-name="Group 1144341" transform="translate(0 32.672)">
            <path id="Path_979080" data-name="Path 979080" d="M26.074,55.476a1.732,1.732,0,0,1,1.72,1.72,1.725,1.725,0,0,1-1.72,1.72H9.644a6.948,6.948,0,0,1-3.078-.722L2.86,56.336H2v-12.9h.86l2.992-1.995A8.556,8.556,0,0,1,10.624,40H20.916a.862.862,0,0,1,.86.86A3.438,3.438,0,0,1,18.336,44.3H14.9v7.738h12.9a1.725,1.725,0,0,1,1.72,1.72,1.732,1.732,0,0,1-1.72,1.72Z" transform="translate(-2 -40)" fill="#f0d0b4"/>
          </g>
          <g id="Group_1144342" data-name="Group 1144342" transform="translate(31.813 0)">
            <path id="Path_979081" data-name="Path 979081" d="M58.775,5.439V17.476h-.86L54.21,19.334a6.948,6.948,0,0,1-3.078.722h-.095V8.878H49.025a3.443,3.443,0,0,1-2.433-1.006L45.019,6.3H42.439A3.432,3.432,0,0,1,39.112,3.72,3.144,3.144,0,0,1,39,2.86.862.862,0,0,1,39.86,2H50.152a8.556,8.556,0,0,1,4.772,1.444l2.992,1.995Z" transform="translate(-39 -2)" fill="#f0d0b4"/>
          </g>
        </g>
        <g id="Group_1144344" data-name="Group 1144344" transform="translate(1 1)">
          <path id="Path_979082" data-name="Path 979082" d="M52.849,4.439l-2.776-1.85A9.424,9.424,0,0,0,44.827,1H34.532a1.721,1.721,0,0,0-1.72,1.72H13.9V33.672H10.481a9.426,9.426,0,0,0-5.247,1.589l-2.775,1.85H1V51.728H2.517l3.525,1.763a7.781,7.781,0,0,0,3.461.817H25.934a2.571,2.571,0,0,0,2.39-3.539,2.536,2.536,0,0,0,1.751-3.339H46.569V20.738a7.788,7.788,0,0,0,2.7-.779L52.792,18.2h1.516V4.439ZM28.514,48.289a.861.861,0,0,1-.86.86H17.336v1.72h8.6a.86.86,0,1,1,0,1.72H9.5a6.045,6.045,0,0,1-2.692-.635L2.923,50.009h-.2V38.831H2.98l3.209-2.139a7.715,7.715,0,0,1,4.292-1.3H20.775A2.583,2.583,0,0,1,18.2,37.971H14.4l-1.32,1.32a4.273,4.273,0,0,1-3.04,1.26H9.6v1.72h.443a5.972,5.972,0,0,0,3.856-1.4v6.559H27.654A.861.861,0,0,1,28.514,48.289ZM44.85,45.71H15.617V39.691H18.2a4.3,4.3,0,0,0,4.3-4.3,1.721,1.721,0,0,0-1.72-1.72H15.617V4.439H33.177a4.3,4.3,0,0,0,3.934,2.579h2.223l1.32,1.321A4.272,4.272,0,0,0,43.7,9.6H44.85Zm7.738-29.233h-.2L48.5,18.42a6.037,6.037,0,0,1-1.928.586V7.878H43.7a2.564,2.564,0,0,1-1.824-.755L40.047,5.3H37.112A2.583,2.583,0,0,1,34.532,2.72H44.827a7.713,7.713,0,0,1,4.292,1.3l3.209,2.139h.261Z" transform="translate(-1 -1)"/>
          <path id="Path_979083" data-name="Path 979083" d="M32,48.757H47.476V35H32ZM33.72,36.72H45.757V47.037H33.72Z" transform="translate(-5.346 -5.767)"/>
          <path id="Path_979084" data-name="Path 979084" d="M38.62,43.7l-1.112-1.112-1.216,1.216,2.327,2.327,6.626-6.626-1.216-1.216Z" transform="translate(-5.948 -6.228)"/>
          <path id="Path_979085" data-name="Path 979085" d="M20,49h8.6v1.72H20Z" transform="translate(-3.664 -7.73)"/>
          <path id="Path_979086" data-name="Path 979086" d="M28,45h1.72v1.72H28Z" transform="translate(-4.785 -7.169)"/>
          <path id="Path_979087" data-name="Path 979087" d="M28,41h1.72v1.72H28Z" transform="translate(-4.785 -6.608)"/>
          <path id="Path_979088" data-name="Path 979088" d="M35.476,7H20V19.037H35.476Zm-1.72,10.318H21.72V8.72H33.757Z" transform="translate(-3.664 -1.841)"/>
          <path id="Path_979089" data-name="Path 979089" d="M40,19h8.6v1.72H40Z" transform="translate(-6.468 -3.524)"/>
          <path id="Path_979090" data-name="Path 979090" d="M40,15h8.6v1.72H40Z" transform="translate(-6.468 -2.963)"/>
          <path id="Path_979091" data-name="Path 979091" d="M40,11h1.72v1.72H40Z" transform="translate(-6.468 -2.402)"/>
          <path id="Path_979092" data-name="Path 979092" d="M44,11h5.159v1.72H44Z" transform="translate(-7.029 -2.402)"/>
          <path id="Path_979093" data-name="Path 979093" d="M20,23h1.72v1.72H20Z" transform="translate(-3.664 -4.084)"/>
          <path id="Path_979094" data-name="Path 979094" d="M24,23H46.355v1.72H24Z" transform="translate(-4.225 -4.084)"/>
          <path id="Path_979095" data-name="Path 979095" d="M20,27H45.794v1.72H20Z" transform="translate(-3.664 -4.645)"/>
          <path id="Path_979096" data-name="Path 979096" d="M20,31h1.72v1.72H20Z" transform="translate(-3.664 -5.206)"/>
          <path id="Path_979097" data-name="Path 979097" d="M28,31h1.72v1.72H28Z" transform="translate(-4.785 -5.206)"/>
          <path id="Path_979098" data-name="Path 979098" d="M24,31h1.72v1.72H24Z" transform="translate(-4.225 -5.206)"/>
          <path id="Path_979099" data-name="Path 979099" d="M32,31H47.476v1.72H32Z" transform="translate(-5.346 -5.206)"/>
          <path id="Path_979100" data-name="Path 979100" d="M20,35h8.6v1.72H20Z" transform="translate(-3.664 -5.767)"/>
        </g>
      </g>
    </g>
  </g>
</svg>
