<svg xmlns="http://www.w3.org/2000/svg" xmlns:xlink="http://www.w3.org/1999/xlink" width="108" height="108" viewBox="0 0 108 108">
  <defs>
    <filter id="Fondo" x="0" y="0" width="108" height="108" filterUnits="userSpaceOnUse">
      <feOffset dy="3" input="SourceAlpha"/>
      <feGaussianBlur stdDeviation="3" result="blur"/>
      <feFlood flood-opacity="0.161"/>
      <feComposite operator="in" in2="blur"/>
      <feComposite in="SourceGraphic"/>
    </filter>
  </defs>
  <g id="Group_1144404" data-name="Group 1144404" transform="translate(-325.999 -3295)">
    <g id="Group_1144197" data-name="Group 1144197">
      <g transform="matrix(1, 0, 0, 1, 326, 3295)" filter="url(#Fondo)">
        <g id="Fondo-2" data-name="Fondo" transform="translate(9 6)" fill="#fff4e4">
          <path d="M 45 88.5 C 39.12687683105469 88.5 33.43022537231445 87.35007476806641 28.06830024719238 85.08217620849609 C 22.88852500915527 82.89131164550781 18.23629951477051 79.75458526611328 14.2408504486084 75.75914764404297 C 10.24541282653809 71.76370239257812 7.108687400817871 67.11147308349609 4.917825222015381 61.93170166015625 C 2.649924993515015 56.56977462768555 1.5 50.87312316894531 1.5 45 C 1.5 39.12687683105469 2.649924993515015 33.43022537231445 4.917825222015381 28.06830024719238 C 7.108687400817871 22.88852500915527 10.24541282653809 18.23629951477051 14.2408504486084 14.2408504486084 C 18.23629951477051 10.24541282653809 22.88852500915527 7.108687400817871 28.06830024719238 4.917825222015381 C 33.43022537231445 2.649924993515015 39.12687683105469 1.5 45 1.5 C 50.87312316894531 1.5 56.56977462768555 2.649924993515015 61.93170166015625 4.917825222015381 C 67.11147308349609 7.108687400817871 71.76370239257812 10.24541282653809 75.75914764404297 14.2408504486084 C 79.75458526611328 18.23629951477051 82.89131164550781 22.88852500915527 85.08217620849609 28.06830024719238 C 87.35007476806641 33.43022537231445 88.5 39.12687683105469 88.5 45 C 88.5 50.87312316894531 87.35007476806641 56.56977462768555 85.08217620849609 61.93170166015625 C 82.89131164550781 67.11147308349609 79.75458526611328 71.76370239257812 75.75914764404297 75.75914764404297 C 71.76370239257812 79.75458526611328 67.11147308349609 82.89131164550781 61.93170166015625 85.08217620849609 C 56.56977462768555 87.35007476806641 50.87312316894531 88.5 45 88.5 Z" stroke="none"/>
          <path d="M 45 3 C 39.32871246337891 3 33.82865524291992 4.110054016113281 28.65262985229492 6.299339294433594 C 23.65165710449219 8.414573669433594 19.15968322753906 11.44334411621094 15.301513671875 15.301513671875 C 11.44334411621094 19.15968322753906 8.414573669433594 23.65165710449219 6.299339294433594 28.65262985229492 C 4.110054016113281 33.82865524291992 3 39.32871246337891 3 45 C 3 50.67128753662109 4.110054016113281 56.17134475708008 6.299339294433594 61.34737396240234 C 8.414573669433594 66.34834289550781 11.44334411621094 70.84031677246094 15.301513671875 74.698486328125 C 19.15968322753906 78.55665588378906 23.65165710449219 81.58542633056641 28.65262985229492 83.70066070556641 C 33.82865524291992 85.88994598388672 39.32871246337891 87 45 87 C 50.67128753662109 87 56.17134475708008 85.88994598388672 61.34737396240234 83.70066070556641 C 66.34834289550781 81.58542633056641 70.84031677246094 78.55665588378906 74.698486328125 74.698486328125 C 78.55665588378906 70.84031677246094 81.58542633056641 66.34834289550781 83.70066070556641 61.34737396240234 C 85.88994598388672 56.17134475708008 87 50.67128753662109 87 45 C 87 39.32871246337891 85.88994598388672 33.82865524291992 83.70066070556641 28.65262985229492 C 81.58542633056641 23.65165710449219 78.55665588378906 19.15968322753906 74.698486328125 15.301513671875 C 70.84031677246094 11.44334411621094 66.34834289550781 8.414573669433594 61.34737396240234 6.299339294433594 C 56.17134475708008 4.110054016113281 50.67128753662109 3 45 3 M 45 0 C 69.85281372070312 0 90 20.14718627929688 90 45 C 90 69.85281372070312 69.85281372070312 90 45 90 C 20.14718627929688 90 0 69.85281372070312 0 45 C 0 20.14718627929688 20.14718627929688 0 45 0 Z" stroke="none" fill="#ff9902"/>
        </g>
      </g>
      <g id="Group_1144196" data-name="Group 1144196" transform="translate(301.76 3318.186)">
        <g id="Group_1144167" data-name="Group 1144167" transform="translate(61.227 4.327)">
          <path id="Path_978679" data-name="Path 978679" d="M116.437,39.825a17.012,17.012,0,1,0,17.012,17.012,17.012,17.012,0,0,0-17.012-17.012Zm0,30.512a13.5,13.5,0,1,1,13.5-13.5A13.515,13.515,0,0,1,116.437,70.337Z" transform="translate(-99.425 -39.825)" fill="#e278b1"/>
        </g>
        <g id="Group_1144168" data-name="Group 1144168" transform="translate(61.227 16.949)">
          <path id="Path_978680" data-name="Path 978680" d="M102.937,160.383a13.441,13.441,0,0,1,.733-4.39H100a17.1,17.1,0,0,0,0,8.78h3.672A13.441,13.441,0,0,1,102.937,160.383Z" transform="translate(-99.425 -155.993)" fill="#dd5ca2"/>
        </g>
        <g id="Group_1144169" data-name="Group 1144169" transform="translate(73.849 4.327)">
          <path id="Path_978681" data-name="Path 978681" d="M215.593,40.4v3.672a13.5,13.5,0,0,1,8.78,0V40.4a17.1,17.1,0,0,0-8.78,0Z" transform="translate(-215.593 -39.825)" fill="#dd5ca2"/>
        </g>
        <g id="Group_1144170" data-name="Group 1144170" transform="translate(91.005 16.949)">
          <path id="Path_978682" data-name="Path 978682" d="M374.232,160.383a13.441,13.441,0,0,1-.733,4.39h3.672a17.1,17.1,0,0,0,0-8.78H373.5A13.442,13.442,0,0,1,374.232,160.383Z" transform="translate(-373.499 -155.993)" fill="#dd5ca2"/>
        </g>
        <g id="Group_1144171" data-name="Group 1144171" transform="translate(68.251 11.351)">
          <path id="Path_978683" data-name="Path 978683" d="M174.063,104.476a9.988,9.988,0,1,0,9.988,9.988A10,10,0,0,0,174.063,104.476Zm0,16.463a6.476,6.476,0,1,1,6.476-6.476A6.483,6.483,0,0,1,174.063,120.939Z" transform="translate(-164.075 -104.476)" fill="#ffe07d"/>
        </g>
        <g id="Group_1144172" data-name="Group 1144172" transform="translate(75.276 18.376)">
          <circle id="Ellipse_11552" data-name="Ellipse 11552" cx="2.963" cy="2.963" r="2.963" fill="#e278b1"/>
        </g>
        <g id="Group_1144173" data-name="Group 1144173" transform="translate(76.483 0.815)">
          <path id="Path_978684" data-name="Path 978684" d="M242.252,18.036h-1.317a1.1,1.1,0,0,1-1.1-1.1V8.6a1.1,1.1,0,0,1,1.1-1.1h1.317a1.1,1.1,0,0,1,1.1,1.1v8.341A1.1,1.1,0,0,1,242.252,18.036Z" transform="translate(-239.837 -7.5)" fill="#c3247d"/>
        </g>
        <g id="Group_1144174" data-name="Group 1144174" transform="translate(57.715 19.583)">
          <path id="Path_978685" data-name="Path 978685" d="M77.636,181.335v1.317a1.1,1.1,0,0,1-1.1,1.1H68.2a1.1,1.1,0,0,1-1.1-1.1v-1.317a1.1,1.1,0,0,1,1.1-1.1h8.341A1.1,1.1,0,0,1,77.636,181.335Z" transform="translate(-67.1 -180.237)" fill="#c3247d"/>
        </g>
        <g id="Group_1144175" data-name="Group 1144175" transform="translate(88.227 19.583)">
          <path id="Path_978686" data-name="Path 978686" d="M347.926,182.652v-1.317a1.1,1.1,0,0,1,1.1-1.1h8.341a1.1,1.1,0,0,1,1.1,1.1v1.317a1.1,1.1,0,0,1-1.1,1.1h-8.341A1.1,1.1,0,0,1,347.926,182.652Z" transform="translate(-347.926 -180.237)" fill="#c3247d"/>
        </g>
        <g id="Group_1144181" data-name="Group 1144181" transform="translate(82.849 34.4)">
          <g id="Group_1144176" data-name="Group 1144176" transform="translate(12.732 16.244)">
            <path id="Path_978687" data-name="Path 978687" d="M415.606,466.114h3.512v4.171h-3.512Z" transform="translate(-415.606 -466.114)" fill="#f1d0a5"/>
          </g>
          <g id="Group_1144177" data-name="Group 1144177" transform="translate(4.061)">
            <circle id="Ellipse_11553" data-name="Ellipse 11553" cx="4.061" cy="4.061" r="4.061" fill="#f1d0a5"/>
          </g>
          <g id="Group_1144178" data-name="Group 1144178" transform="translate(4.529 0.468)">
            <path id="Path_978688" data-name="Path 978688" d="M345.593,320.915a4.061,4.061,0,0,1-5.485,5.485,4.061,4.061,0,1,0,5.485-5.485Z" transform="translate(-340.108 -320.915)" fill="#f1b986"/>
          </g>
          <g id="Group_1144179" data-name="Group 1144179" transform="translate(0 8.122)">
            <path id="Path_978689" data-name="Path 978689" d="M310.279,391.362h-7.463a4.39,4.39,0,0,0-4.39,4.39v3.732h3.512v4.171h9.219v-4.171h3.512v-3.732A4.39,4.39,0,0,0,310.279,391.362Z" transform="translate(-298.426 -391.362)" fill="#a2f4c1"/>
          </g>
          <g id="Group_1144180" data-name="Group 1144180" transform="translate(0 8.122)">
            <path id="Path_978690" data-name="Path 978690" d="M304.354,403.654v-10.1a6.771,6.771,0,0,0-.365-2.2h-1.171a4.39,4.39,0,0,0-4.39,4.39v3.732h3.512v4.171Z" transform="translate(-298.427 -391.362)" fill="#78d0b1"/>
          </g>
        </g>
        <g id="Group_1144187" data-name="Group 1144187" transform="translate(57.386 34.4)">
          <g id="Group_1144182" data-name="Group 1144182" transform="translate(0 16.244)">
            <path id="Path_978691" data-name="Path 978691" d="M0,0H3.512V4.171H0Z" transform="translate(3.512 4.171) rotate(180)" fill="#f1d0a5"/>
          </g>
          <g id="Group_1144183" data-name="Group 1144183" transform="translate(4.061)">
            <circle id="Ellipse_11554" data-name="Ellipse 11554" cx="4.061" cy="4.061" r="4.061" fill="#f1d0a5"/>
          </g>
          <g id="Group_1144184" data-name="Group 1144184" transform="translate(4.529 0.468)">
            <path id="Path_978692" data-name="Path 978692" d="M105.75,326.4a4.061,4.061,0,0,0,5.485-5.485,4.061,4.061,0,1,1-5.485,5.485Z" transform="translate(-105.75 -320.915)" fill="#f1b986"/>
          </g>
          <g id="Group_1144185" data-name="Group 1144185" transform="translate(0 8.122)">
            <path id="Path_978693" data-name="Path 978693" d="M68.459,391.362h7.463a4.39,4.39,0,0,1,4.39,4.39v3.732H76.8v4.171H67.581v-4.171H64.069v-3.732A4.39,4.39,0,0,1,68.459,391.362Z" transform="translate(-64.069 -391.362)" fill="#ffe07d"/>
          </g>
          <g id="Group_1144186" data-name="Group 1144186" transform="translate(10.317 8.122)">
            <path id="Path_978694" data-name="Path 978694" d="M159.024,403.654v-10.1a6.771,6.771,0,0,1,.365-2.2h1.171a4.39,4.39,0,0,1,4.39,4.39v3.732h-3.512v4.171Z" transform="translate(-159.024 -391.362)" fill="#ffd064"/>
          </g>
        </g>
        <g id="Group_1144194" data-name="Group 1144194" transform="translate(70.117 32.205)">
          <g id="Group_1144188" data-name="Group 1144188" transform="translate(12.732 16.244)">
            <path id="Path_978695" data-name="Path 978695" d="M298.427,445.911h3.512v6.366h-3.512Z" transform="translate(-298.427 -445.911)" fill="#f1d0a5"/>
          </g>
          <g id="Group_1144189" data-name="Group 1144189" transform="translate(0 16.244)">
            <path id="Path_978696" data-name="Path 978696" d="M0,0H3.512V6.366H0Z" transform="translate(3.512 6.366) rotate(180)" fill="#f1d0a5"/>
          </g>
          <g id="Group_1144190" data-name="Group 1144190" transform="translate(4.061)">
            <circle id="Ellipse_11555" data-name="Ellipse 11555" cx="4.061" cy="4.061" r="4.061" fill="#f1d0a5"/>
          </g>
          <g id="Group_1144191" data-name="Group 1144191" transform="translate(4.529 0.468)">
            <path id="Path_978697" data-name="Path 978697" d="M228.414,300.712a4.061,4.061,0,0,1-5.485,5.485,4.061,4.061,0,1,0,5.485-5.485Z" transform="translate(-222.929 -300.712)" fill="#f1b986"/>
          </g>
          <g id="Group_1144192" data-name="Group 1144192" transform="translate(0 8.122)">
            <path id="Path_978698" data-name="Path 978698" d="M193.1,371.159h-7.463a4.39,4.39,0,0,0-4.39,4.39v3.732h3.512v6.366h9.219v-6.366h3.512v-3.732A4.39,4.39,0,0,0,193.1,371.159Z" transform="translate(-181.249 -371.159)" fill="#80b4fb"/>
          </g>
          <g id="Group_1144193" data-name="Group 1144193" transform="translate(3.512 8.369)">
            <path id="Path_978699" data-name="Path 978699" d="M223.368,373.437a18.319,18.319,0,0,1-9.8,9.964v4.276h9.219v-6.366H226.3V377.58A4.391,4.391,0,0,0,223.368,373.437Z" transform="translate(-213.573 -373.437)" fill="#61a2f9"/>
          </g>
        </g>
        <g id="Group_1144195" data-name="Group 1144195" transform="translate(56.571 0)">
          <path id="Path_978700" data-name="Path 978700" d="M196.19,143.881a7.29,7.29,0,1,0-7.29-7.29A7.3,7.3,0,0,0,196.19,143.881Zm0-12.951a5.661,5.661,0,1,1-5.661,5.661A5.667,5.667,0,0,1,196.19,130.93Z" transform="translate(-174.522 -115.252)"/>
          <path id="Path_978701" data-name="Path 978701" d="M225,169.183a3.778,3.778,0,1,0-3.778-3.778A3.782,3.782,0,0,0,225,169.183Zm0-5.927a2.148,2.148,0,1,1-2.148,2.148A2.151,2.151,0,0,1,225,163.257Z" transform="translate(-203.336 -144.066)"/>
          <path id="Path_978702" data-name="Path 978702" d="M99.907,46.912A5.211,5.211,0,0,0,94.7,41.706h-.1a4.872,4.872,0,0,0-3.417-8.116c.113-.119.224-.239.334-.362a17.671,17.671,0,0,0,4.36-9.318h1.784A1.915,1.915,0,0,0,99.578,22V20.68a1.915,1.915,0,0,0-1.912-1.912H95.881A17.834,17.834,0,0,0,80.81,3.7V1.912A1.914,1.914,0,0,0,78.9,0H77.58a1.915,1.915,0,0,0-1.912,1.912V3.7A17.834,17.834,0,0,0,60.6,18.768H58.813A1.915,1.915,0,0,0,56.9,20.68V22a1.915,1.915,0,0,0,1.912,1.912H60.6a17.67,17.67,0,0,0,4.36,9.318c.11.123.222.243.334.362a4.872,4.872,0,0,0-3.417,8.116h-.1a5.211,5.211,0,0,0-5.205,5.205v7.9a.815.815,0,0,0,.815.815h5.539a.815.815,0,0,0,0-1.63H61.712V48.448a.815.815,0,1,0-1.63,0v1.38H58.2V46.912a3.58,3.58,0,0,1,3.576-3.576h7.463c.083,0,.165,0,.247.01a5.19,5.19,0,0,0-.184,1.371V54H66.727a.815.815,0,1,0,0,1.63h22.69a.815.815,0,0,0,0-1.63H87.176V44.717a5.194,5.194,0,0,0-.184-1.371c.082-.006.164-.01.247-.01H94.7a3.58,3.58,0,0,1,3.576,3.576v2.916H96.4v-1.38a.815.815,0,1,0-1.63,0V54H93.221a.815.815,0,1,0,0,1.63h5.872a.815.815,0,0,0,.815-.815ZM60.082,51.458V54H58.2V51.458Zm34.134-13a3.25,3.25,0,0,1-3.238,3.246h-.017a3.246,3.246,0,1,1,3.254-3.246ZM83.085,36.8a4.842,4.842,0,0,0-.175-1.93A14.346,14.346,0,0,0,92.32,23.91h1.913A16.146,16.146,0,0,1,83.085,36.8ZM78.239,12.166a9.173,9.173,0,1,1-9.173,9.175v0a9.183,9.183,0,0,1,9.173-9.17Zm2.571-1.912V8.919a12.683,12.683,0,0,1,9.85,9.849H89.324a1.907,1.907,0,0,0-.571.087,10.839,10.839,0,0,0-8.03-8.03A1.9,1.9,0,0,0,80.81,10.254Zm-.372,21.662a10.837,10.837,0,0,0,8.315-8.094,1.906,1.906,0,0,0,.571.087h1.338A12.647,12.647,0,0,1,82.178,33.4a4.909,4.909,0,0,0-1.739-1.48Zm-4.4,0A4.908,4.908,0,0,0,74.3,33.4a12.647,12.647,0,0,1-8.484-9.486h1.338a1.905,1.905,0,0,0,.571-.087A10.838,10.838,0,0,0,76.04,31.916Zm-1.047,4.349a3.246,3.246,0,1,1,3.246,3.246A3.25,3.25,0,0,1,74.993,36.266ZM97.948,20.68V22a.283.283,0,0,1-.283.283H89.324A.283.283,0,0,1,89.041,22V20.68a.283.283,0,0,1,.283-.283h8.341a.283.283,0,0,1,.283.283Zm-3.716-1.912h-1.91A14.315,14.315,0,0,0,80.81,7.257V5.347A16.248,16.248,0,0,1,94.232,18.768ZM77.58,1.63H78.9a.283.283,0,0,1,.283.283V7.931s0,0,0,.006v2.317a.283.283,0,0,1-.283.283H77.58a.283.283,0,0,1-.283-.283V1.912a.283.283,0,0,1,.283-.283ZM75.668,5.347V7.259a14.271,14.271,0,0,0-6.25,2.813.815.815,0,1,0,1.006,1.282,12.645,12.645,0,0,1,5.244-2.436v1.335a1.906,1.906,0,0,0,.087.571,10.839,10.839,0,0,0-8.03,8.03,1.906,1.906,0,0,0-.571-.087H65.818a12.679,12.679,0,0,1,2.134-4.842.815.815,0,0,0-1.321-.955,14.31,14.31,0,0,0-2.473,5.8H62.246A16.248,16.248,0,0,1,75.668,5.347ZM58.53,22V20.68a.283.283,0,0,1,.283-.283h8.341a.283.283,0,0,1,.283.283V22a.283.283,0,0,1-.283.283H58.813A.283.283,0,0,1,58.53,22Zm3.715,1.912h1.913a14.346,14.346,0,0,0,9.41,10.959,4.842,4.842,0,0,0-.175,1.93A16.146,16.146,0,0,1,62.245,23.91Zm.016,14.551a3.246,3.246,0,1,1,3.254,3.246H65.5A3.25,3.25,0,0,1,62.261,38.461Zm6.978,3.246h-.1a4.865,4.865,0,0,0,1.1-4.429,17.733,17.733,0,0,0,3.755,1.379,4.9,4.9,0,0,0,.613.855h-.1A5.2,5.2,0,0,0,70.2,41.8a5.224,5.224,0,0,0-.962-.089ZM72.814,54H70.932V49.263h1.882Zm1.63-7.746a.815.815,0,0,0-1.63,0v1.38H70.932V44.717a3.579,3.579,0,0,1,3.575-3.575h7.463a3.579,3.579,0,0,1,3.575,3.575v2.917H83.663v-1.38a.815.815,0,0,0-1.63,0V54h-7.59V46.253ZM85.546,54H83.664V49.263h1.882Zm.731-12.2a5.2,5.2,0,0,0-4.306-2.284h-.1a4.9,4.9,0,0,0,.613-.855,17.727,17.727,0,0,0,3.755-1.379,4.865,4.865,0,0,0,1.1,4.429h-.1A5.224,5.224,0,0,0,86.277,41.8ZM96.4,54V51.458h1.882V54Z" transform="translate(-56.571 0)"/>
        </g>
      </g>
    </g>
  </g>
</svg>
