<svg xmlns="http://www.w3.org/2000/svg" xmlns:xlink="http://www.w3.org/1999/xlink" width="108" height="108" viewBox="0 0 108 108">
  <defs>
    <filter id="Path_904820" x="0" y="0" width="108" height="108" filterUnits="userSpaceOnUse">
      <feOffset dy="3" input="SourceAlpha"/>
      <feGaussianBlur stdDeviation="3" result="blur"/>
      <feFlood flood-opacity="0.161"/>
      <feComposite operator="in" in2="blur"/>
      <feComposite in="SourceGraphic"/>
    </filter>
  </defs>
  <g id="Group_1144407" data-name="Group 1144407" transform="translate(-201 -1344)">
    <g id="Group_1144403" data-name="Group 1144403">
      <g transform="matrix(1, 0, 0, 1, 201, 1344)" filter="url(#Path_904820)">
        <g id="Path_904820-2" data-name="Path 904820" transform="translate(9 6)" fill="#ecf4fa">
          <path d="M 45 88.5 C 39.12687683105469 88.5 33.43022537231445 87.35007476806641 28.06830024719238 85.08217620849609 C 22.88852500915527 82.89131164550781 18.23629951477051 79.75458526611328 14.2408504486084 75.75914764404297 C 10.24541282653809 71.76370239257812 7.108687400817871 67.11147308349609 4.917825222015381 61.93170166015625 C 2.649924993515015 56.56977462768555 1.5 50.87312316894531 1.5 45 C 1.5 39.12687683105469 2.649924993515015 33.43022537231445 4.917825222015381 28.06830024719238 C 7.108687400817871 22.88852500915527 10.24541282653809 18.23629951477051 14.2408504486084 14.2408504486084 C 18.23629951477051 10.24541282653809 22.88852500915527 7.108687400817871 28.06830024719238 4.917825222015381 C 33.43022537231445 2.649924993515015 39.12687683105469 1.5 45 1.5 C 50.87312316894531 1.5 56.56977462768555 2.649924993515015 61.93170166015625 4.917825222015381 C 67.11147308349609 7.108687400817871 71.76370239257812 10.24541282653809 75.75914764404297 14.2408504486084 C 79.75458526611328 18.23629951477051 82.89131164550781 22.88852500915527 85.08217620849609 28.06830024719238 C 87.35007476806641 33.43022537231445 88.5 39.12687683105469 88.5 45 C 88.5 50.87312316894531 87.35007476806641 56.56977462768555 85.08217620849609 61.93170166015625 C 82.89131164550781 67.11147308349609 79.75458526611328 71.76370239257812 75.75914764404297 75.75914764404297 C 71.76370239257812 79.75458526611328 67.11147308349609 82.89131164550781 61.93170166015625 85.08217620849609 C 56.56977462768555 87.35007476806641 50.87312316894531 88.5 45 88.5 Z" stroke="none"/>
          <path d="M 45 3 C 39.32871246337891 3 33.82865524291992 4.110054016113281 28.65262985229492 6.299339294433594 C 23.65165710449219 8.414573669433594 19.15968322753906 11.44334411621094 15.301513671875 15.301513671875 C 11.44334411621094 19.15968322753906 8.414573669433594 23.65165710449219 6.299339294433594 28.65262985229492 C 4.110054016113281 33.82865524291992 3 39.32871246337891 3 45 C 3 50.67128753662109 4.110054016113281 56.17134475708008 6.299339294433594 61.34737396240234 C 8.414573669433594 66.34834289550781 11.44334411621094 70.84031677246094 15.301513671875 74.698486328125 C 19.15968322753906 78.55665588378906 23.65165710449219 81.58542633056641 28.65262985229492 83.70066070556641 C 33.82865524291992 85.88994598388672 39.32871246337891 87 45 87 C 50.67128753662109 87 56.17134475708008 85.88994598388672 61.34737396240234 83.70066070556641 C 66.34834289550781 81.58542633056641 70.84031677246094 78.55665588378906 74.698486328125 74.698486328125 C 78.55665588378906 70.84031677246094 81.58542633056641 66.34834289550781 83.70066070556641 61.34737396240234 C 85.88994598388672 56.17134475708008 87 50.67128753662109 87 45 C 87 39.32871246337891 85.88994598388672 33.82865524291992 83.70066070556641 28.65262985229492 C 81.58542633056641 23.65165710449219 78.55665588378906 19.15968322753906 74.698486328125 15.301513671875 C 70.84031677246094 11.44334411621094 66.34834289550781 8.414573669433594 61.34737396240234 6.299339294433594 C 56.17134475708008 4.110054016113281 50.67128753662109 3 45 3 M 45 0 C 69.85281372070312 0 90 20.14718627929688 90 45 C 90 69.85281372070312 69.85281372070312 90 45 90 C 20.14718627929688 90 0 69.85281372070312 0 45 C 0 20.14718627929688 20.14718627929688 0 45 0 Z" stroke="none" fill="#2a5673"/>
        </g>
      </g>
      <g id="Group_1144402" data-name="Group 1144402" transform="translate(262.9 1402.865)">
        <g id="Group_1144401" data-name="Group 1144401" transform="translate(-35.334 -35.298)">
          <g id="Group_1144396" data-name="Group 1144396" transform="translate(0 0)">
            <circle id="Ellipse_11597" data-name="Ellipse 11597" cx="10.487" cy="10.487" r="10.487" transform="translate(0 14.828) rotate(-45)" fill="#60b7ff"/>
            <circle id="Ellipse_11598" data-name="Ellipse 11598" cx="9.184" cy="9.184" r="9.184" transform="translate(1.842 14.828) rotate(-45)" fill="#8ac9fe"/>
            <path id="Path_979255" data-name="Path 979255" d="M112.608,112.62h10.487a10.482,10.482,0,0,1-5.243,9.083Z" transform="translate(-97.777 -97.792)" fill="#fd4755" fill-rule="evenodd"/>
            <path id="Path_979256" data-name="Path 979256" d="M112.608,112.62h9.184a9.18,9.18,0,0,1-4.591,7.954Z" transform="translate(-97.777 -97.792)" fill="#fe646f" fill-rule="evenodd"/>
            <path id="Path_979257" data-name="Path 979257" d="M123.095,18.5H112.608V8.01A10.487,10.487,0,0,1,123.095,18.5Z" transform="translate(-97.777 -3.669)" fill="#ffd064" fill-rule="evenodd"/>
            <path id="Path_979258" data-name="Path 979258" d="M121.792,30.192h-9.184V21.008A9.184,9.184,0,0,1,121.792,30.192Z" transform="translate(-97.777 -15.364)" fill="#ffe177" fill-rule="evenodd"/>
          </g>
          <g id="Group_1144397" data-name="Group 1144397" transform="translate(30.284 4.064)">
            <path id="Path_979259" data-name="Path 979259" d="M267.887,5.247h2.7a1.131,1.131,0,0,1,1.128,1.128v2.7a1.131,1.131,0,0,1-1.128,1.128h-2.7a1.131,1.131,0,0,1-1.128-1.128v-2.7A1.131,1.131,0,0,1,267.887,5.247Z" transform="translate(-266.759 -5.247)" fill="#8ac9fe" fill-rule="evenodd"/>
            <path id="Path_979260" data-name="Path 979260" d="M267.887,87.873h2.7A1.131,1.131,0,0,1,271.721,89v2.7a1.131,1.131,0,0,1-1.128,1.128h-2.7a1.131,1.131,0,0,1-1.128-1.128V89A1.131,1.131,0,0,1,267.887,87.873Z" transform="translate(-266.759 -79.59)" fill="#ffe177" fill-rule="evenodd"/>
            <path id="Path_979261" data-name="Path 979261" d="M267.887,170.5h2.7a1.131,1.131,0,0,1,1.128,1.128v2.7a1.131,1.131,0,0,1-1.128,1.128h-2.7a1.131,1.131,0,0,1-1.128-1.128v-2.7A1.131,1.131,0,0,1,267.887,170.5Z" transform="translate(-266.759 -153.932)" fill="#fe646f" fill-rule="evenodd"/>
          </g>
          <g id="Group_1144398" data-name="Group 1144398" transform="translate(4.344 31.072)">
            <path id="Path_979262" data-name="Path 979262" d="M198.014,348.361h3.33a1,1,0,0,1,1,1v13.6a1,1,0,0,1-1,1h-3.33a1,1,0,0,1-1-1v-13.6A1,1,0,0,1,198.014,348.361Z" transform="translate(-178.064 -340.973)" fill="#ffe177" fill-rule="evenodd"/>
            <path id="Path_979263" data-name="Path 979263" d="M201.345,348.361a1,1,0,0,1,1,1v13.6a1,1,0,0,1-1,1h-3.33a1,1,0,0,1-1-1h3.33a1,1,0,0,0,1-1Z" transform="translate(-178.064 -340.973)" fill="#ffd064" fill-rule="evenodd"/>
            <path id="Path_979264" data-name="Path 979264" d="M294.6,348.361h3.33a1,1,0,0,1,1,1v13.6a1,1,0,0,1-1,1H294.6a1,1,0,0,1-1-1v-13.6A1,1,0,0,1,294.6,348.361Z" transform="translate(-264.967 -340.973)" fill="#fe646f" fill-rule="evenodd"/>
            <path id="Path_979265" data-name="Path 979265" d="M297.93,348.361a1,1,0,0,1,1,1v13.6a1,1,0,0,1-1,1H294.6a1,1,0,0,1-1-1h3.33a1,1,0,0,0,1-1Z" transform="translate(-264.967 -340.973)" fill="#fd4755" fill-rule="evenodd"/>
            <path id="Path_979266" data-name="Path 979266" d="M9,321.361h3.33a1,1,0,0,1,1,1v16.305a1,1,0,0,1-1,1H9a1,1,0,0,1-1-1V322.363A1,1,0,0,1,9,321.361Z" transform="translate(-8 -316.679)" fill="#6cf5c2" fill-rule="evenodd"/>
            <path id="Path_979267" data-name="Path 979267" d="M12.333,321.361a1,1,0,0,1,1,1v16.305a1,1,0,0,1-1,1H9a1,1,0,0,1-1-1h3.33a1,1,0,0,0,1-1Z" transform="translate(-8 -316.679)" fill="#00e499" fill-rule="evenodd"/>
            <path id="Path_979268" data-name="Path 979268" d="M101.428,274.658h3.33a1,1,0,0,1,1,1v20.987a1,1,0,0,1-1,1h-3.33a1,1,0,0,1-1-1V275.66A1,1,0,0,1,101.428,274.658Z" transform="translate(-91.161 -274.658)" fill="#8ac9fe" fill-rule="evenodd"/>
            <path id="Path_979269" data-name="Path 979269" d="M104.759,274.658a1,1,0,0,1,1,1v20.987a1,1,0,0,1-1,1h-3.33a1,1,0,0,1-1-1h3.33a1,1,0,0,0,1-1Z" transform="translate(-91.161 -274.658)" fill="#60b7ff" fill-rule="evenodd"/>
          </g>
          <g id="Group_1144399" data-name="Group 1144399" transform="translate(20.363 19.313)">
            <path id="Path_979270" data-name="Path 979270" d="M374.973,354.862a10.383,10.383,0,0,1-1.752,1.929l4.765,4.671,1.814-1.869Z" transform="translate(-352.628 -335.063)" fill="#a79ba7" fill-rule="evenodd"/>
            <path id="Path_979271" data-name="Path 979271" d="M386.368,354.541a1.2,1.2,0,0,1-.519.7l4.733,4.7.58-.635Z" transform="translate(-363.99 -334.775)" fill="#837683" fill-rule="evenodd"/>
            <path id="Path_979272" data-name="Path 979272" d="M415.587,398.573l2.047-2.11a.942.942,0,0,0-.02-1.327l-5.67-5.5a.941.941,0,0,0-1.327.02l-2.047,2.11a.941.941,0,0,0,.02,1.327l5.67,5.5A.941.941,0,0,0,415.587,398.573Z" transform="translate(-384.196 -366.111)" fill="#f1ba84" fill-rule="evenodd"/>
            <path id="Path_979273" data-name="Path 979273" d="M434.131,389.632l5.67,5.5a.941.941,0,0,1,.02,1.327l-2.047,2.11a.932.932,0,0,1-.254.186.942.942,0,0,0,1.093-.186l2.047-2.11a.941.941,0,0,0-.02-1.327l-5.67-5.5a.942.942,0,0,0-1.073-.166A.935.935,0,0,1,434.131,389.632Z" transform="translate(-407.222 -366.111)" fill="#e3a76f" fill-rule="evenodd"/>
            <circle id="Ellipse_11599" data-name="Ellipse 11599" cx="10.326" cy="10.326" r="10.326" transform="translate(0 14.601) rotate(-45)" fill="#eceff1"/>
            <path id="Path_979274" data-name="Path 979274" d="M309.015,200a10.326,10.326,0,0,1,0,20.651q-.252,0-.5-.012a10.326,10.326,0,0,0,0-20.627Q308.763,200,309.015,200Z" transform="translate(-294.408 -195.729)" fill="#d1d1d6" fill-rule="evenodd"/>
          </g>
          <g id="Group_1144400" data-name="Group 1144400" transform="translate(27.452 26.395)">
            <circle id="Ellipse_11600" data-name="Ellipse 11600" cx="7.518" cy="7.518" r="7.518" transform="translate(0 0)" fill="#837683"/>
            <path id="Path_979275" data-name="Path 979275" d="M313.7,235.524a7.519,7.519,0,0,1-6.85,7.489q.33.029.668.029a7.586,7.586,0,0,0,1.076-.076l.136-.021a7.519,7.519,0,0,0-1.212-14.94q-.338,0-.668.029A7.519,7.519,0,0,1,313.7,235.524Z" transform="translate(-299.995 -228.005)" fill="#685e68" fill-rule="evenodd"/>
            <path id="Path_979276" data-name="Path 979276" d="M266.656,310.239a5.253,5.253,0,0,0-5.22,4.685,7.493,7.493,0,0,0,5.22,2.108,7.582,7.582,0,0,0,1.076-.076,7.5,7.5,0,0,0,4.144-2.032A5.251,5.251,0,0,0,266.656,310.239Z" transform="translate(-259.138 -301.995)" fill="#8ac9fe" fill-rule="evenodd"/>
            <path id="Path_979277" data-name="Path 979277" d="M306.847,310.281c3.125.4,4.385,2.762,4.674,5.6a7.543,7.543,0,0,0,1.214-.953,5.251,5.251,0,0,0-5.22-4.685A5.311,5.311,0,0,0,306.847,310.281Z" transform="translate(-299.997 -301.995)" fill="#60b7ff" fill-rule="evenodd"/>
            <circle id="Ellipse_11601" data-name="Ellipse 11601" cx="2.655" cy="2.655" r="2.655" transform="translate(4.864 2.538)" fill="#f6dccd"/>
            <path id="Path_979278" data-name="Path 979278" d="M312.5,255.973a2.655,2.655,0,0,1-2.32,2.634,2.683,2.683,0,0,0,.334.021,2.655,2.655,0,1,0,0-5.309,2.682,2.682,0,0,0-.334.021A2.655,2.655,0,0,1,312.5,255.973Z" transform="translate(-302.997 -250.781)" fill="#f1cbbc" fill-rule="evenodd"/>
          </g>
        </g>
        <path id="Path_979279" data-name="Path 979279" d="M24.709,30.383a6.676,6.676,0,0,0,1.109,3.69,6.036,6.036,0,0,1,3.112-3.232,3.456,3.456,0,1,1,4.991,0,6.04,6.04,0,0,1,3.112,3.232,6.715,6.715,0,1,0-12.325-3.69Zm6.717-.077a1.853,1.853,0,1,1,1.853-1.853A1.855,1.855,0,0,1,31.425,30.306Zm0,6.793a6.685,6.685,0,0,1-4.361-1.616,4.449,4.449,0,0,1,8.724,0A6.688,6.688,0,0,1,31.425,37.1ZM23.1,30.383a8.32,8.32,0,1,1,8.32,8.32A8.33,8.33,0,0,1,23.1,30.383ZM14.6,28.343H10.867V49.731H14.6Zm1.6-.8V50.533a.8.8,0,0,1-.8.8H10.065a.8.8,0,0,1-.8-.8V27.541a.8.8,0,0,1,.8-.8H15.4a.8.8,0,0,1,.8.8ZM49.679,45.382l-5.671-5.5a.131.131,0,0,0-.094-.037h0a.135.135,0,0,0-.1.04l-2.047,2.11a.141.141,0,0,0,0,.193l5.67,5.5a.141.141,0,0,0,.194,0l2.048-2.11A.141.141,0,0,0,49.679,45.382ZM33.962,41.219a11.153,11.153,0,0,1-3.731.227v8.285h3.731ZM24.28,38.906a11.207,11.207,0,0,1-2.609-3.174H20.548v14H24.28ZM21.9,30.383a9.524,9.524,0,1,1,9.523,9.524A9.534,9.534,0,0,1,21.9,30.383Zm5.915-10.527a11.051,11.051,0,0,1,2.8-.572V18.179h-2.8ZM39.97,37.5c-.214.256-.439.5-.675.74l2,1.937.7-.718Zm10.863,9.19L48.786,48.8a1.743,1.743,0,0,1-2.462.037l-5.67-5.5a1.744,1.744,0,0,1-.393-1.922L38.079,39.3a11.122,11.122,0,0,1-2.512,1.414v9.821a.8.8,0,0,1-.8.8H29.429a.8.8,0,0,1-.8-.8V41.154a11.042,11.042,0,0,1-2.744-1.124v10.5a.8.8,0,0,1-.8.8H19.747a.8.8,0,0,1-.8-.8V34.93a.8.8,0,0,1,.8-.8h1.2a11.127,11.127,0,0,1,5.267-13.574V17.377a.8.8,0,0,1,.8-.8h4.408a.8.8,0,0,1,.8.8v1.908a11.042,11.042,0,0,1,4.227,1.173h6.311a.8.8,0,1,1,0,1.6H38.8a11.109,11.109,0,0,1,2.112,14.125l2.275,2.208a1.746,1.746,0,0,1,1.934.334l5.67,5.5a1.742,1.742,0,0,1,.037,2.461ZM5.332,33.025H1.6V49.731H5.332Zm1.6-.8v18.31a.8.8,0,0,1-.8.8H.8a.8.8,0,0,1-.8-.8V32.223a.8.8,0,0,1,.8-.8H6.134a.8.8,0,0,1,.8.8ZM27.817,12.7h2.8V9.9h-2.8Zm-1.6.8V9.094a.8.8,0,0,1,.8-.8h4.408a.8.8,0,0,1,.8.8V13.5a.8.8,0,0,1-.8.8H27.015A.8.8,0,0,1,26.213,13.5Zm8.793.277h7.757a.8.8,0,1,0,0-1.6H35.007a.8.8,0,0,0,0,1.6Zm0-3.358H50.521a.8.8,0,0,0,0-1.6H35.007a.8.8,0,0,0,0,1.6Zm-7.19-6h2.8v-2.8h-2.8Zm-1.6.8V.811a.8.8,0,0,1,.8-.8h4.408a.8.8,0,0,1,.8.8V5.218a.8.8,0,0,1-.8.8H27.015A.8.8,0,0,1,26.213,5.218Zm8.793.277h7.757a.8.8,0,1,0,0-1.6H35.007a.8.8,0,0,0,0,1.6Zm0-3.357H50.521a.8.8,0,1,0,0-1.6H35.007a.8.8,0,0,0,0,1.6ZM1.6,11.3a9.684,9.684,0,0,0,13.884,8.726L10.594,11.7a.809.809,0,0,1-.11-.407V1.646A9.7,9.7,0,0,0,1.6,11.3ZM12.088,1.646a9.7,9.7,0,0,1,8.85,8.853l-8.85,0ZM20.936,12.1l-8.249,0,4.179,7.108a9.686,9.686,0,0,0,4.07-7.1ZM0,11.3A11.289,11.289,0,1,0,11.286.009,11.3,11.3,0,0,0,0,11.3Zm34.208,6.6a.8.8,0,0,0,.8.8H50.521a.8.8,0,1,0,0-1.6H35.007A.8.8,0,0,0,34.205,17.9Z" transform="translate(-31.79 -31.768)" fill-rule="evenodd"/>
      </g>
    </g>
  </g>
</svg>
