<svg xmlns="http://www.w3.org/2000/svg" xmlns:xlink="http://www.w3.org/1999/xlink" width="108" height="108" viewBox="0 0 108 108">
  <defs>
    <filter id="Fondo" x="0" y="0" width="108" height="108" filterUnits="userSpaceOnUse">
      <feOffset dy="3" input="SourceAlpha"/>
      <feGaussianBlur stdDeviation="3" result="blur"/>
      <feFlood flood-opacity="0.161"/>
      <feComposite operator="in" in2="blur"/>
      <feComposite in="SourceGraphic"/>
    </filter>
  </defs>
  <g id="Group_1144443" data-name="Group 1144443" transform="translate(-6958.609 -1206.134)">
    <g id="Group_1144337" data-name="Group 1144337">
      <g transform="matrix(1, 0, 0, 1, 6958.61, 1206.13)" filter="url(#Fondo)">
        <g id="Fondo-2" data-name="Fondo" transform="translate(9 6)" fill="#fff4e4">
          <path d="M 45 88.5 C 39.12687683105469 88.5 33.43022537231445 87.35007476806641 28.06830024719238 85.08217620849609 C 22.88852500915527 82.89131164550781 18.23629951477051 79.75458526611328 14.2408504486084 75.75914764404297 C 10.24541282653809 71.76370239257812 7.108687400817871 67.11147308349609 4.917825222015381 61.93170166015625 C 2.649924993515015 56.56977462768555 1.5 50.87312316894531 1.5 45 C 1.5 39.12687683105469 2.649924993515015 33.43022537231445 4.917825222015381 28.06830024719238 C 7.108687400817871 22.88852500915527 10.24541282653809 18.23629951477051 14.2408504486084 14.2408504486084 C 18.23629951477051 10.24541282653809 22.88852500915527 7.108687400817871 28.06830024719238 4.917825222015381 C 33.43022537231445 2.649924993515015 39.12687683105469 1.5 45 1.5 C 50.87312316894531 1.5 56.56977462768555 2.649924993515015 61.93170166015625 4.917825222015381 C 67.11147308349609 7.108687400817871 71.76370239257812 10.24541282653809 75.75914764404297 14.2408504486084 C 79.75458526611328 18.23629951477051 82.89131164550781 22.88852500915527 85.08217620849609 28.06830024719238 C 87.35007476806641 33.43022537231445 88.5 39.12687683105469 88.5 45 C 88.5 50.87312316894531 87.35007476806641 56.56977462768555 85.08217620849609 61.93170166015625 C 82.89131164550781 67.11147308349609 79.75458526611328 71.76370239257812 75.75914764404297 75.75914764404297 C 71.76370239257812 79.75458526611328 67.11147308349609 82.89131164550781 61.93170166015625 85.08217620849609 C 56.56977462768555 87.35007476806641 50.87312316894531 88.5 45 88.5 Z" stroke="none"/>
          <path d="M 45 3 C 39.32871246337891 3 33.82865524291992 4.110054016113281 28.65262985229492 6.299339294433594 C 23.65165710449219 8.414573669433594 19.15968322753906 11.44334411621094 15.301513671875 15.301513671875 C 11.44334411621094 19.15968322753906 8.414573669433594 23.65165710449219 6.299339294433594 28.65262985229492 C 4.110054016113281 33.82865524291992 3 39.32871246337891 3 45 C 3 50.67128753662109 4.110054016113281 56.17134475708008 6.299339294433594 61.34737396240234 C 8.414573669433594 66.34834289550781 11.44334411621094 70.84031677246094 15.301513671875 74.698486328125 C 19.15968322753906 78.55665588378906 23.65165710449219 81.58542633056641 28.65262985229492 83.70066070556641 C 33.82865524291992 85.88994598388672 39.32871246337891 87 45 87 C 50.67128753662109 87 56.17134475708008 85.88994598388672 61.34737396240234 83.70066070556641 C 66.34834289550781 81.58542633056641 70.84031677246094 78.55665588378906 74.698486328125 74.698486328125 C 78.55665588378906 70.84031677246094 81.58542633056641 66.34834289550781 83.70066070556641 61.34737396240234 C 85.88994598388672 56.17134475708008 87 50.67128753662109 87 45 C 87 39.32871246337891 85.88994598388672 33.82865524291992 83.70066070556641 28.65262985229492 C 81.58542633056641 23.65165710449219 78.55665588378906 19.15968322753906 74.698486328125 15.301513671875 C 70.84031677246094 11.44334411621094 66.34834289550781 8.414573669433594 61.34737396240234 6.299339294433594 C 56.17134475708008 4.110054016113281 50.67128753662109 3 45 3 M 45 0 C 69.85281372070312 0 90 20.14718627929688 90 45 C 90 69.85281372070312 69.85281372070312 90 45 90 C 20.14718627929688 90 0 69.85281372070312 0 45 C 0 20.14718627929688 20.14718627929688 0 45 0 Z" stroke="none" fill="#ff9902"/>
        </g>
      </g>
      <g id="Group_1144336" data-name="Group 1144336" transform="translate(6988.516 1230.649)">
        <g id="Group_1144334" data-name="Group 1144334" transform="translate(0.827 0.828)">
          <path id="Path_979051" data-name="Path 979051" d="M0,0H4.149V5.887H0Z" transform="translate(37.889 37.107) rotate(-45)" fill="#e6e2e6"/>
          <path id="Path_979052" data-name="Path 979052" d="M0,0H4.149V5.887H0Z" transform="translate(37.889 37.107) rotate(-45)" fill="#ecdaec"/>
          <path id="Path_979053" data-name="Path 979053" d="M0,0H1.975V5.887H0Z" transform="translate(37.889 37.107) rotate(-45)" fill="#e2cbe2"/>
          <path id="Path_979054" data-name="Path 979054" d="M8,9.552A1.552,1.552,0,0,1,9.552,8H35.669l9.615,9.615V57.763a1.552,1.552,0,0,1-1.552,1.552H9.552A1.552,1.552,0,0,1,8,57.763Z" transform="translate(-8 -8)" fill="#f9f6f6"/>
          <path id="Path_979055" data-name="Path 979055" d="M43.732,472.552H9.552A1.552,1.552,0,0,1,8,471v1.862a1.552,1.552,0,0,0,1.552,1.552h34.18a1.552,1.552,0,0,0,1.552-1.552V471A1.552,1.552,0,0,1,43.732,472.552Z" transform="translate(-8 -423.099)" fill="#ecdaec"/>
          <g id="Group_1144332" data-name="Group 1144332" transform="translate(18.773)">
            <path id="Path_979056" data-name="Path 979056" d="M277,17.615h8.063L275.445,8v8.063A1.552,1.552,0,0,0,277,17.615Z" transform="translate(-266.548 -8)" fill="#e2cbe2"/>
            <path id="Path_979057" data-name="Path 979057" d="M277,17.615h8.063L275.445,8v8.063A1.552,1.552,0,0,0,277,17.615Z" transform="translate(-266.548 -8)" fill="#e2cbe2"/>
            <circle id="Ellipse_11587" data-name="Ellipse 11587" cx="12.879" cy="12.879" r="12.879" transform="translate(0 15.048)" fill="#e2cbe2"/>
          </g>
          <path id="Path_979058" data-name="Path 979058" d="M211.44,277.113a12.879,12.879,0,0,1-21.952-8.176,12.879,12.879,0,1,0,25.69,0A12.828,12.828,0,0,1,211.44,277.113Z" transform="translate(-170.682 -241.942)" fill="#dab9d8"/>
          <circle id="Ellipse_11588" data-name="Ellipse 11588" cx="9.325" cy="9.325" r="9.325" transform="translate(22.327 18.602)" fill="#ffe27a"/>
          <path id="Path_979059" data-name="Path 979059" d="M239.731,274.6a9.324,9.324,0,0,1-15.871-5.663,9.324,9.324,0,1,0,18.555,0A9.285,9.285,0,0,1,239.731,274.6Z" transform="translate(-201.486 -241.941)" fill="#f9cf58"/>
          <path id="Path_979060" data-name="Path 979060" d="M273.2,250.7a1.625,1.625,0,0,1-1.136-.462l-2.14-2.081a1.63,1.63,0,1,1,2.273-2.338l.973.946,2.922-3a1.631,1.631,0,0,1,2.335,2.277l-4.059,4.162A1.625,1.625,0,0,1,273.2,250.7Z" transform="translate(-242.383 -218.932)" fill="#98db7c"/>
          <path id="Path_979061" data-name="Path 979061" d="M278.436,250.232l-4.059,4.162a1.63,1.63,0,0,1-2.3.031l-2.14-2.081a1.638,1.638,0,0,1-.2-.237,1.629,1.629,0,0,0,.2,2.1l2.14,2.081a1.63,1.63,0,0,0,2.3-.031l4.059-4.162a1.63,1.63,0,0,0,.17-2.07A1.638,1.638,0,0,1,278.436,250.232Z" transform="translate(-242.393 -224.985)" fill="#82d361"/>
          <path id="Path_979062" data-name="Path 979062" d="M413.037,372.946l-4.091,4.091,4.9,4.9a2.893,2.893,0,0,0,4.091-4.091Z" transform="translate(-367.465 -335.19)" fill="#ff4755"/>
          <path id="Path_979063" data-name="Path 979063" d="M415.236,403.887l-4.894-4.894-1.4,1.4,4.9,4.9a2.895,2.895,0,0,0,4.669-.824A2.894,2.894,0,0,1,415.236,403.887Z" transform="translate(-367.465 -358.542)" fill="#fc2b3a"/>
          <g id="Group_1144333" data-name="Group 1144333" transform="translate(5.306 14.281)">
            <path id="Path_979064" data-name="Path 979064" d="M63.64,151.353H60.246a.96.96,0,0,1-.96-.96V147a.96.96,0,0,1,.96-.96H63.64a.96.96,0,0,1,.96.96v3.395A.96.96,0,0,1,63.64,151.353Z" transform="translate(-59.286 -146.039)" fill="#98db7c"/>
            <path id="Path_979065" data-name="Path 979065" d="M63.64,256.515H60.246a.96.96,0,0,1-.96-.96v-3.395a.96.96,0,0,1,.96-.96H63.64a.96.96,0,0,1,.96.96v3.395A.96.96,0,0,1,63.64,256.515Z" transform="translate(-59.286 -240.321)" fill="#98db7c"/>
            <path id="Path_979066" data-name="Path 979066" d="M63.64,363.812H60.246a.96.96,0,0,1-.96-.96v-3.395a.96.96,0,0,1,.96-.96H63.64a.96.96,0,0,1,.96.96v3.395A.96.96,0,0,1,63.64,363.812Z" transform="translate(-59.286 -336.518)" fill="#98db7c"/>
          </g>
          <path id="Path_979067" data-name="Path 979067" d="M63.64,171.088H60.246a.96.96,0,0,1-.96-.96v1.862a.96.96,0,0,0,.96.96H63.64a.96.96,0,0,0,.96-.96v-1.862A.96.96,0,0,1,63.64,171.088Z" transform="translate(-53.98 -153.355)" fill="#82d361"/>
          <path id="Path_979068" data-name="Path 979068" d="M63.64,276.249H60.246a.96.96,0,0,1-.96-.96v1.862a.96.96,0,0,0,.96.96H63.64a.96.96,0,0,0,.96-.96v-1.862A.96.96,0,0,1,63.64,276.249Z" transform="translate(-53.98 -247.636)" fill="#82d361"/>
          <path id="Path_979069" data-name="Path 979069" d="M63.64,383.546H60.246a.96.96,0,0,1-.96-.96v1.862a.96.96,0,0,0,.96.96H63.64a.96.96,0,0,0,.96-.96v-1.862A.96.96,0,0,1,63.64,383.546Z" transform="translate(-53.98 -343.832)" fill="#82d361"/>
          <path id="Path_979070" data-name="Path 979070" d="M275.445,85.937V87.8A1.552,1.552,0,0,0,277,89.351h8.063V87.489H277A1.552,1.552,0,0,1,275.445,85.937Z" transform="translate(-247.776 -77.874)" fill="#ecdaec"/>
        </g>
        <g id="Group_1144335" data-name="Group 1144335" transform="translate(-0.001 0)">
          <path id="Path_979071" data-name="Path 979071" d="M266.542,244.735a2.393,2.393,0,0,0,1.727-.728l4.067-4.17a2.411,2.411,0,0,0-3.453-3.367l-2.386,2.446-.418-.406a2.411,2.411,0,1,0-3.362,3.457l2.144,2.085A2.4,2.4,0,0,0,266.542,244.735Zm-2.758-5.093a.858.858,0,0,1,1.211-.017l.974.948a.778.778,0,0,0,1.1-.015l2.928-3a.856.856,0,0,1,1.226,1.2l-4.067,4.17a.86.86,0,0,1-1.21.016l-2.144-2.085A.857.857,0,0,1,263.784,239.642Z" transform="translate(-234.883 -211.355)"/>
          <path id="Path_979072" data-name="Path 979072" d="M219.491,195.471a.778.778,0,0,0-1.241.937,10.25,10.25,0,0,0,.931,1.069,10.114,10.114,0,1,0-2.485-4.071.778.778,0,0,0,1.481-.473,8.573,8.573,0,1,1,2.1,3.444,8.705,8.705,0,0,1-.789-.907Z" transform="translate(-193.842 -161.561)"/>
          <path id="Path_979073" data-name="Path 979073" d="M51.9,42.963l-4.905-4.9a.778.778,0,0,0-1.1,0l-.03.03L43.977,36.2a13.659,13.659,0,0,0,2.174-6.576.778.778,0,0,0-1.552-.1A12.117,12.117,0,0,1,32.506,40.88h-.074a12.121,12.121,0,1,1,12-14.271.778.778,0,0,0,1.531-.274,13.691,13.691,0,0,0-7.046-9.657V10.411a.787.787,0,0,0-.228-.55L29.053.228A.788.788,0,0,0,28.5,0H2.332A2.335,2.335,0,0,0,0,2.332V8.867a.778.778,0,0,0,1.555,0V2.332a.778.778,0,0,1,.778-.777H27.726v7.3a2.335,2.335,0,0,0,2.333,2.332h7.3v4.784a13.739,13.739,0,0,0-4.719-.887l-.023,0H15.26a.777.777,0,1,0,0,1.555H26.146a13.628,13.628,0,0,0-3.1,2.227H15.26a.777.777,0,1,0,0,1.555h6.385a13.533,13.533,0,0,0-2.552,5.559H15.26a.777.777,0,1,0,0,1.555h3.606q-.054.608-.055,1.226,0,.507.036,1.007H15.26a.777.777,0,1,0,0,1.555H19.05a13.532,13.532,0,0,0,2.6,5.78H15.26a.777.777,0,1,0,0,1.555h7.788a13.627,13.627,0,0,0,3.1,2.223H15.259a.777.777,0,1,0,0,1.555H32.494a13.748,13.748,0,0,0,4.867-.889v9.093a.778.778,0,0,1-.778.777H2.332a.778.778,0,0,1-.778-.777V11.977a.778.778,0,0,0-1.555,0V50.638A2.335,2.335,0,0,0,2.332,52.97H36.584a2.335,2.335,0,0,0,2.333-2.332v-9.8q.521-.276,1.021-.6l1.887,1.887a.784.784,0,0,0-.03,1.13l4.906,4.9a3.676,3.676,0,0,0,5.2-5.2ZM30.059,9.634a.778.778,0,0,1-.778-.777v-6.2l6.98,6.979ZM41.206,39.309q.5-.411.964-.876t.876-.964l1.719,1.718-1.841,1.84ZM50.8,47.062a2.132,2.132,0,0,1-3,0l-4.356-4.355,3-3L50.8,44.062A2.131,2.131,0,0,1,50.8,47.062Z" transform="translate(0.001 0)"/>
          <path id="Path_979074" data-name="Path 979074" d="M53.132,145.189h3.4a1.741,1.741,0,0,0,1.739-1.739v-3.4a1.741,1.741,0,0,0-1.739-1.739h-3.4a1.741,1.741,0,0,0-1.739,1.739v3.4A1.741,1.741,0,0,0,53.132,145.189Zm-.184-5.14a.184.184,0,0,1,.184-.184h3.4a.184.184,0,0,1,.184.184v3.4a.184.184,0,0,1-.184.184h-3.4a.184.184,0,0,1-.184-.184Z" transform="translate(-46.076 -124.001)"/>
          <path id="Path_979075" data-name="Path 979075" d="M51.393,248.818a1.741,1.741,0,0,0,1.739,1.739h3.4a1.741,1.741,0,0,0,1.739-1.739v-3.4a1.741,1.741,0,0,0-1.739-1.739h-3.4a1.741,1.741,0,0,0-1.739,1.739Zm1.555-3.4a.184.184,0,0,1,.184-.184h3.4a.184.184,0,0,1,.184.184v3.4a.184.184,0,0,1-.184.184h-3.4a.184.184,0,0,1-.184-.184Z" transform="translate(-46.076 -218.468)"/>
          <path id="Path_979076" data-name="Path 979076" d="M51.393,356.325a1.741,1.741,0,0,0,1.739,1.739h3.4a1.741,1.741,0,0,0,1.739-1.739v-3.4a1.741,1.741,0,0,0-1.739-1.739h-3.4a1.741,1.741,0,0,0-1.739,1.739Zm1.555-3.4a.184.184,0,0,1,.184-.184h3.4a.184.184,0,0,1,.184.184v3.4a.184.184,0,0,1-.184.184h-3.4a.184.184,0,0,1-.184-.184Z" transform="translate(-46.076 -314.852)"/>
        </g>
      </g>
    </g>
  </g>
</svg>
