<svg xmlns="http://www.w3.org/2000/svg" xmlns:xlink="http://www.w3.org/1999/xlink" width="108" height="108" viewBox="0 0 108 108">
  <defs>
    <filter id="Fondo" x="0" y="0" width="108" height="108" filterUnits="userSpaceOnUse">
      <feOffset dy="3" input="SourceAlpha"/>
      <feGaussianBlur stdDeviation="3" result="blur"/>
      <feFlood flood-opacity="0.161"/>
      <feComposite operator="in" in2="blur"/>
      <feComposite in="SourceGraphic"/>
    </filter>
  </defs>
  <g id="Group_1144406" data-name="Group 1144406" transform="translate(-1165.999 -3295)">
    <g id="Group_1144200" data-name="Group 1144200">
      <g transform="matrix(1, 0, 0, 1, 1166, 3295)" filter="url(#Fondo)">
        <g id="Fondo-2" data-name="Fondo" transform="translate(9 6)" fill="#fff4e4">
          <path d="M 45 88.5 C 39.12687683105469 88.5 33.43022537231445 87.35007476806641 28.06830024719238 85.08217620849609 C 22.88852500915527 82.89131164550781 18.23629951477051 79.75458526611328 14.2408504486084 75.75914764404297 C 10.24541282653809 71.76370239257812 7.108687400817871 67.11147308349609 4.917825222015381 61.93170166015625 C 2.649924993515015 56.56977462768555 1.5 50.87312316894531 1.5 45 C 1.5 39.12687683105469 2.649924993515015 33.43022537231445 4.917825222015381 28.06830024719238 C 7.108687400817871 22.88852500915527 10.24541282653809 18.23629951477051 14.2408504486084 14.2408504486084 C 18.23629951477051 10.24541282653809 22.88852500915527 7.108687400817871 28.06830024719238 4.917825222015381 C 33.43022537231445 2.649924993515015 39.12687683105469 1.5 45 1.5 C 50.87312316894531 1.5 56.56977462768555 2.649924993515015 61.93170166015625 4.917825222015381 C 67.11147308349609 7.108687400817871 71.76370239257812 10.24541282653809 75.75914764404297 14.2408504486084 C 79.75458526611328 18.23629951477051 82.89131164550781 22.88852500915527 85.08217620849609 28.06830024719238 C 87.35007476806641 33.43022537231445 88.5 39.12687683105469 88.5 45 C 88.5 50.87312316894531 87.35007476806641 56.56977462768555 85.08217620849609 61.93170166015625 C 82.89131164550781 67.11147308349609 79.75458526611328 71.76370239257812 75.75914764404297 75.75914764404297 C 71.76370239257812 79.75458526611328 67.11147308349609 82.89131164550781 61.93170166015625 85.08217620849609 C 56.56977462768555 87.35007476806641 50.87312316894531 88.5 45 88.5 Z" stroke="none"/>
          <path d="M 45 3 C 39.32871246337891 3 33.82865524291992 4.110054016113281 28.65262985229492 6.299339294433594 C 23.65165710449219 8.414573669433594 19.15968322753906 11.44334411621094 15.301513671875 15.301513671875 C 11.44334411621094 19.15968322753906 8.414573669433594 23.65165710449219 6.299339294433594 28.65262985229492 C 4.110054016113281 33.82865524291992 3 39.32871246337891 3 45 C 3 50.67128753662109 4.110054016113281 56.17134475708008 6.299339294433594 61.34737396240234 C 8.414573669433594 66.34834289550781 11.44334411621094 70.84031677246094 15.301513671875 74.698486328125 C 19.15968322753906 78.55665588378906 23.65165710449219 81.58542633056641 28.65262985229492 83.70066070556641 C 33.82865524291992 85.88994598388672 39.32871246337891 87 45 87 C 50.67128753662109 87 56.17134475708008 85.88994598388672 61.34737396240234 83.70066070556641 C 66.34834289550781 81.58542633056641 70.84031677246094 78.55665588378906 74.698486328125 74.698486328125 C 78.55665588378906 70.84031677246094 81.58542633056641 66.34834289550781 83.70066070556641 61.34737396240234 C 85.88994598388672 56.17134475708008 87 50.67128753662109 87 45 C 87 39.32871246337891 85.88994598388672 33.82865524291992 83.70066070556641 28.65262985229492 C 81.58542633056641 23.65165710449219 78.55665588378906 19.15968322753906 74.698486328125 15.301513671875 C 70.84031677246094 11.44334411621094 66.34834289550781 8.414573669433594 61.34737396240234 6.299339294433594 C 56.17134475708008 4.110054016113281 50.67128753662109 3 45 3 M 45 0 C 69.85281372070312 0 90 20.14718627929688 90 45 C 90 69.85281372070312 69.85281372070312 90 45 90 C 20.14718627929688 90 0 69.85281372070312 0 45 C 0 20.14718627929688 20.14718627929688 0 45 0 Z" stroke="none" fill="#ff9902"/>
        </g>
      </g>
      <g id="Group_1144199" data-name="Group 1144199" transform="translate(1185.853 3299.989)">
        <path id="Path_978703" data-name="Path 978703" d="M95.8,133.276a7.388,7.388,0,0,1,7.357,6.716H88.444A7.388,7.388,0,0,1,95.8,133.276Z" transform="translate(-74.341 -101.826)" fill="#2dcffc" fill-rule="evenodd"/>
        <path id="Path_978704" data-name="Path 978704" d="M101.108,140.227H88.444a7.389,7.389,0,0,1,6.668-6.684,7.6,7.6,0,0,1,6,6.684Z" transform="translate(-74.341 -102.061)" fill="#66deff" fill-rule="evenodd"/>
        <circle id="Ellipse_11556" data-name="Ellipse 11556" cx="3.518" cy="3.518" r="3.518" transform="translate(17.229 25.304) rotate(-13.467)" fill="#fdb0a0"/>
        <path id="Path_978705" data-name="Path 978705" d="M123.339,81.75a3.519,3.519,0,0,1,0-6.892,3.519,3.519,0,0,1,0,6.892Z" transform="translate(-102.592 -50.396)" fill="#ffcec0" fill-rule="evenodd"/>
        <path id="Path_978706" data-name="Path 978706" d="M220.164,182.812l-1.768-.349-.776-1.872,1-1.5-2.07-2.07-1.5,1-1.872-.776-.349-1.768h-2.928l-.349,1.768-1.872.776-1.5-1-2.07,2.07,1,1.5-.776,1.872-1.768.349v2.928l1.768.349.776,1.872-1,1.5,2.07,2.07,1.5-1,1.872.776.349,1.768h2.928l.349-1.768,1.872-.776,1.5,1,2.07-2.07-1-1.5.776-1.872,1.768-.349Z" transform="translate(-174.824 -138.985)" fill="#7986bf" fill-rule="evenodd"/>
        <path id="Path_978707" data-name="Path 978707" d="M219.309,185.74l-1.768.349-.776,1.872,1,1.5-1.727,1.727-1.313-.88-2.4,1-.349,1.768h-2.073l-.349-1.768-2.4-1-1.313.88-1.727-1.727,1-1.5-.776-1.872-1.768-.349v-2.928l1.768-.349.776-1.872-1-1.5,1.727-1.727,1.313.88,2.4-1,.349-1.768h2.073l.349,1.768,2.4,1,1.313-.88,1.727,1.727-1,1.5.776,1.872,1.768.349Z" transform="translate(-174.824 -138.985)" fill="#909cd1" fill-rule="evenodd"/>
        <circle id="Ellipse_11557" data-name="Ellipse 11557" cx="4.523" cy="4.523" r="4.523" transform="translate(30.972 41.158) rotate(-4.759)" fill="#7986bf"/>
        <circle id="Ellipse_11558" data-name="Ellipse 11558" cx="4.505" cy="4.505" r="4.505" transform="translate(31.758 41.087) rotate(-3.555)" fill="#f3f3ff"/>
        <path id="Path_978708" data-name="Path 978708" d="M58.51,235.626a7.388,7.388,0,0,1,7.357,6.716H51.153A7.388,7.388,0,0,1,58.51,235.626Z" transform="translate(-41.511 -191.933)" fill="#2a92fa" fill-rule="evenodd"/>
        <path id="Path_978709" data-name="Path 978709" d="M63.817,242.577H51.153a7.389,7.389,0,0,1,6.668-6.684A7.6,7.6,0,0,1,63.817,242.577Z" transform="translate(-41.511 -192.168)" fill="#4eb1fc" fill-rule="evenodd"/>
        <circle id="Ellipse_11559" data-name="Ellipse 11559" cx="3.518" cy="3.518" r="3.518" transform="translate(13.481 36.633)" fill="#fdb0a0"/>
        <path id="Path_978710" data-name="Path 978710" d="M86.047,184.1a3.519,3.519,0,0,1,0-6.892,3.519,3.519,0,0,1,0,6.892Z" transform="translate(-69.761 -140.503)" fill="#ffcec0" fill-rule="evenodd"/>
        <path id="Path_978711" data-name="Path 978711" d="M221.937,85.637a7.388,7.388,0,0,1,7.357,6.716H214.58A7.388,7.388,0,0,1,221.937,85.637Z" transform="translate(-185.389 -59.886)" fill="#2dcffc" fill-rule="evenodd"/>
        <path id="Path_978712" data-name="Path 978712" d="M227.244,92.588H214.58a7.389,7.389,0,0,1,6.668-6.684A7.6,7.6,0,0,1,227.244,92.588Z" transform="translate(-185.389 -60.121)" fill="#66deff" fill-rule="evenodd"/>
        <circle id="Ellipse_11560" data-name="Ellipse 11560" cx="3.518" cy="3.518" r="3.518" transform="translate(31.969 24.137) rotate(-67.922)" fill="#fdb0a0"/>
        <path id="Path_978713" data-name="Path 978713" d="M249.475,34.111a3.519,3.519,0,1,1,2.806-3.446A3.519,3.519,0,0,1,249.475,34.111Z" transform="translate(-213.64 -8.456)" fill="#ffcec0" fill-rule="evenodd"/>
        <path id="Path_978714" data-name="Path 978714" d="M348.073,133.276a7.388,7.388,0,0,1,7.357,6.716H340.716A7.388,7.388,0,0,1,348.073,133.276Z" transform="translate(-296.437 -101.826)" fill="#2dcffc" fill-rule="evenodd"/>
        <path id="Path_978715" data-name="Path 978715" d="M353.38,140.227H340.716a7.389,7.389,0,0,1,6.668-6.684,7.6,7.6,0,0,1,6,6.684Z" transform="translate(-296.437 -102.061)" fill="#66deff" fill-rule="evenodd"/>
        <circle id="Ellipse_11561" data-name="Ellipse 11561" cx="3.518" cy="3.518" r="3.518" transform="translate(46.655 27.912) rotate(-45)" fill="#fdb0a0"/>
        <path id="Path_978716" data-name="Path 978716" d="M375.61,81.75a3.519,3.519,0,1,1,2.806-3.446A3.519,3.519,0,0,1,375.61,81.75Z" transform="translate(-324.686 -50.396)" fill="#ffcec0" fill-rule="evenodd"/>
        <path id="Path_978717" data-name="Path 978717" d="M385.363,235.626a7.388,7.388,0,0,1,7.357,6.716H378.006A7.388,7.388,0,0,1,385.363,235.626Z" transform="translate(-329.266 -191.933)" fill="#2a92fa" fill-rule="evenodd"/>
        <path id="Path_978718" data-name="Path 978718" d="M390.671,242.577H378.007a7.389,7.389,0,0,1,6.668-6.684A7.6,7.6,0,0,1,390.671,242.577Z" transform="translate(-329.267 -192.168)" fill="#4eb1fc" fill-rule="evenodd"/>
        <circle id="Ellipse_11562" data-name="Ellipse 11562" cx="3.518" cy="3.518" r="3.518" transform="translate(51.878 37.519) rotate(-13.119)" fill="#fdb0a0"/>
        <g id="Group_1144198" data-name="Group 1144198" transform="translate(4.002 17.852)">
          <path id="Path_978719" data-name="Path 978719" d="M412.9,184.1a3.519,3.519,0,1,1,2.806-3.446A3.519,3.519,0,0,1,412.9,184.1Z" transform="translate(-361.519 -158.356)" fill="#ffcec0" fill-rule="evenodd"/>
          <path id="Path_978720" data-name="Path 978720" d="M73.821,317.387A2.249,2.249,0,0,0,71.805,314c-14.576,0-14.6-11.852-28.235,5.682l7.215,7.564C54,324,57.819,323.851,62.032,324.1c2.3.137,5.041.469,7.557.414,3.516-.078,5.671-1.032,8.758-2.668,3.515-1.862,9.625-5.571,10.69-6.972,1.525-2.005-.444-3.894-2.77-2.551A83.753,83.753,0,0,1,72.554,318.4a2.63,2.63,0,0,0,1.266-1.016Z" transform="translate(-38.837 -275.334)" fill="#fdb0a0" fill-rule="evenodd"/>
          <path id="Path_978721" data-name="Path 978721" d="M73.821,317.387A2.249,2.249,0,0,0,71.805,314c-14.576,0-14.6-11.852-28.235,5.682l5.569,5.839c3.367-3.321,7.359-3.473,11.758-3.21,2.423.145,5.314.495,7.967.436,3.707-.082,5.978-1.088,9.233-2.812,3.669-1.944,10.018-5.8,11.234-7.3-.5-.774-1.725-1.071-3.063-.3A83.751,83.751,0,0,1,72.554,318.4a2.63,2.63,0,0,0,1.266-1.016Z" transform="translate(-38.837 -275.334)" fill="#ffcec0" fill-rule="evenodd"/>
          <path id="Path_978722" data-name="Path 978722" d="M201.625,347.829a2.253,2.253,0,0,0-.951-3.171c.807.884.266,2.139-1,2.6a8.82,8.82,0,0,1-2.671.4,17.686,17.686,0,0,1-6.982-1.2.877.877,0,1,0-.809,1.556,19.707,19.707,0,0,0,7.832,1.39,10.107,10.107,0,0,0,3.315-.561A2.63,2.63,0,0,0,201.625,347.829Z" transform="translate(-166.641 -305.776)" fill="#fdb0a0" fill-rule="evenodd"/>
          <path id="Path_978723" data-name="Path 978723" d="M11.178,370.815l3.34-3.34a1.691,1.691,0,0,1,2.384,0l7.941,7.941a1.691,1.691,0,0,1,0,2.384l-3.34,3.34Z" transform="translate(-10.32 -325.43)" fill="#f2671f" fill-rule="evenodd"/>
          <path id="Path_978724" data-name="Path 978724" d="M11.178,370.815l3.34-3.34a1.691,1.691,0,0,1,2.384,0h0l6.254,6.254a1.691,1.691,0,0,1,0,2.384l-3.34,3.34Z" transform="translate(-10.32 -325.43)" fill="#ff8748" fill-rule="evenodd"/>
          <path id="Path_978725" data-name="Path 978725" d="M36.545,28.34a6.511,6.511,0,0,1,6.378,5.042H30.169A6.51,6.51,0,0,1,36.545,28.34Zm0-7.061a2.681,2.681,0,1,1-2.681,2.682A2.685,2.685,0,0,1,36.545,21.278ZM29.188,35.057H43.9a.838.838,0,0,0,.835-.913A8.229,8.229,0,0,0,39.456,27.2a4.356,4.356,0,1,0-5.821,0,8.224,8.224,0,0,0-5.281,6.946.838.838,0,0,0,.835.913ZM36.545,50.7a3.66,3.66,0,1,1,3.66-3.66A3.665,3.665,0,0,1,36.545,50.7Zm0-8.995a5.335,5.335,0,1,0,5.334,5.335A5.341,5.341,0,0,0,36.545,41.707Zm7.933,4.563-1.087-.214a.839.839,0,0,1-.612-.5L42,43.687a.84.84,0,0,1,.078-.787l.619-.923L41.61,40.886l-.923.619a.839.839,0,0,1-.787.078l-1.867-.774a.838.838,0,0,1-.5-.612l-.214-1.088H35.774L35.56,40.2a.84.84,0,0,1-.5.612l-1.867.774a.839.839,0,0,1-.787-.078l-.922-.619-1.091,1.091.619.923a.837.837,0,0,1,.078.787l-.775,1.867a.834.834,0,0,1-.611.5l-1.087.214v1.544l1.087.214a.833.833,0,0,1,.611.5l.775,1.867a.836.836,0,0,1-.078.787l-.619.923L31.482,53.2l.922-.619a.838.838,0,0,1,.787-.078l1.867.774a.842.842,0,0,1,.5.611l.214,1.089h1.545l.214-1.089a.84.84,0,0,1,.5-.611L39.9,52.5a.837.837,0,0,1,.787.078l.923.619L42.7,52.105l-.619-.923A.84.84,0,0,1,42,50.4l.774-1.867a.839.839,0,0,1,.612-.5l1.087-.214Zm-.107-4.989-2.065-2.065a.838.838,0,0,0-1.059-.1l-1.122.752-1.038-.431-.261-1.324a.837.837,0,0,0-.822-.676h-2.92a.838.838,0,0,0-.822.676L34,39.433l-1.04.431-1.121-.752a.838.838,0,0,0-1.059.1l-2.065,2.065a.837.837,0,0,0-.1,1.059l.752,1.121L28.937,44.5l-1.324.261a.837.837,0,0,0-.675.822V48.5a.836.836,0,0,0,.675.821l1.324.261.431,1.038-.752,1.122a.835.835,0,0,0,.1,1.057l2.065,2.066a.838.838,0,0,0,1.059.1l1.121-.751,1.04.431.261,1.323a.837.837,0,0,0,.822.676h2.92a.837.837,0,0,0,.822-.676l.261-1.323,1.038-.431,1.122.751a.838.838,0,0,0,1.059-.1L44.372,52.8a.833.833,0,0,0,.1-1.057l-.751-1.122.431-1.038,1.324-.261a.836.836,0,0,0,.675-.821V45.581a.837.837,0,0,0-.675-.822L44.154,44.5l-.431-1.039.751-1.121A.834.834,0,0,0,44.372,41.281Zm9.182,17.355c-.862,1.134-6.408,4.617-10.423,6.745-2.841,1.5-4.96,2.5-8.393,2.573a52.725,52.725,0,0,1-5.3-.251c-.767-.061-1.492-.119-2.192-.161-2.69-.161-5.766-.219-8.557,1.039L11.705,61.6c3.207-3.744,5.722-5.738,7.89-6.263,2.028-.49,3.766.23,6.168,1.226A26.9,26.9,0,0,0,36.975,59.1h.031a1.412,1.412,0,0,1,1.266,2.129c-.493.829-2.379,1.275-4.923,1.164A17.129,17.129,0,0,1,27.493,61.2a.837.837,0,0,0-.773,1.486,19.331,19.331,0,0,0,7.378,1.4,10.421,10.421,0,0,0,3.86-.616,84.406,84.406,0,0,0,13.908-6.159c.878-.507,1.594-.379,1.888-.046s.207.831-.2,1.366ZM17.923,71.387a.852.852,0,0,0,0-1.2L9.977,62.238a.852.852,0,0,0-1.2,0L6.023,64.989l9.149,9.149ZM51.03,55.866a3.093,3.093,0,0,1,3.981.3,2.681,2.681,0,0,1-.123,3.487c-1.244,1.634-7.869,5.564-10.974,7.209-2.958,1.568-5.345,2.683-9.139,2.768a54.5,54.5,0,0,1-5.474-.256c-.758-.061-1.475-.12-2.158-.161-2.991-.178-5.337-.1-7.437.753a2.52,2.52,0,0,1-.6,2.607l-3.342,3.342a.838.838,0,0,1-1.184,0L4.247,65.581a.839.839,0,0,1,0-1.184L7.59,61.053a2.528,2.528,0,0,1,2.818-.515c3.5-4.1,6.227-6.209,8.793-6.83s4.712.274,7.2,1.308a25.128,25.128,0,0,0,10.552,2.408,3.1,3.1,0,0,1,3.153,3.552A96.729,96.729,0,0,0,51.03,55.866Zm-1.313-4.542a6.555,6.555,0,0,1,12.756,0ZM45.256,39.08A6.559,6.559,0,0,1,57.57,37.8,4.349,4.349,0,0,0,52.78,39.08Zm6.379-12.1a2.681,2.681,0,1,1-2.682,2.681A2.685,2.685,0,0,1,51.634,26.977ZM58.777,41.9a2.681,2.681,0,1,1-2.682-2.682A2.685,2.685,0,0,1,58.777,41.9Zm5.509,10.184a.837.837,0,0,1-.834.913H48.737a.839.839,0,0,1-.834-.913,8.228,8.228,0,0,1,5.281-6.947A4.346,4.346,0,0,1,51.739,41.9a4.3,4.3,0,0,1,.155-1.146H44.276a.837.837,0,0,1-.834-.913A8.226,8.226,0,0,1,48.724,32.9a4.356,4.356,0,1,1,5.822,0A8.222,8.222,0,0,1,59.8,39.614a4.346,4.346,0,0,1-.793,5.525,8.227,8.227,0,0,1,5.28,6.946ZM17,46.281a6.509,6.509,0,0,1,6.377,5.043H10.619A6.51,6.51,0,0,1,17,46.281Zm4.461-12.243a6.512,6.512,0,0,1,6.378,5.042H20.312A4.349,4.349,0,0,0,15.521,37.8,6.516,6.516,0,0,1,21.458,34.038Zm0-7.061a2.681,2.681,0,1,1-2.682,2.681A2.684,2.684,0,0,1,21.458,26.977ZM17,39.22A2.681,2.681,0,1,1,14.315,41.9,2.684,2.684,0,0,1,17,39.22ZM9.64,53a.837.837,0,0,1-.834-.913,8.227,8.227,0,0,1,5.28-6.946,4.346,4.346,0,0,1-.793-5.525A8.222,8.222,0,0,1,18.546,32.9a4.356,4.356,0,1,1,5.821,0,8.226,8.226,0,0,1,5.281,6.947.838.838,0,0,1-.834.913H21.2a4.3,4.3,0,0,1,.155,1.146,4.348,4.348,0,0,1-1.445,3.237,8.222,8.222,0,0,1,5.281,6.946.839.839,0,0,1-.833.913H9.639Z" transform="translate(-4.002 -19.604)" fill-rule="evenodd"/>
        </g>
      </g>
    </g>
  </g>
</svg>
